<svg width="132" height="132" viewBox="0 0 132 132" fill="none" xmlns="http://www.w3.org/2000/svg">
<g clip-path="url(#clip0_7_60)">
<path opacity="0.5" d="M115.187 131.9H21.8164C17.3216 131.9 13.0094 130.113 9.82168 126.929C6.634 123.746 4.82991 119.425 4.80347 114.909V21.112C4.81657 18.8676 5.26961 16.6478 6.13672 14.5793C7.00382 12.5108 8.26802 10.6341 9.85711 9.05644C11.4462 7.47875 13.3291 6.23095 15.3982 5.38428C17.4674 4.5376 19.6823 4.10864 21.9165 4.12188H115.287C119.73 4.20058 123.966 6.02214 127.089 9.1971C130.212 12.3721 131.975 16.6485 132 21.112V114.909C132 119.442 130.208 123.789 127.017 126.994C123.827 130.2 119.499 132 114.987 132L115.187 131.9Z" fill="black"/>
<path d="M110.284 127.778H16.9128C12.4181 127.751 8.11646 125.939 4.94753 122.737C1.77861 119.534 -7.77632e-05 115.202 2.54989e-09 110.687V16.8896C0.0523995 12.4091 1.85425 8.12859 5.01754 4.96964C8.18084 1.81069 12.4525 0.0260481 16.9128 4.09858e-08H110.284C114.761 -0.000311257 119.059 1.77268 122.243 4.93444C125.428 8.0962 127.244 12.3918 127.297 16.8896V110.788C127.27 115.303 125.466 119.624 122.278 122.808C119.091 125.991 114.779 127.778 110.284 127.778Z" fill="#EAE9E4"/>
<path d="M37.2284 97.1153C41.6317 96.9142 44.2337 102.946 40.9312 105.962C37.9289 109.28 31.7242 106.766 32.0244 102.343C31.9962 101.649 32.1115 100.956 32.363 100.309C32.6145 99.6622 32.9969 99.0745 33.4858 98.5833C33.9748 98.0921 34.5598 97.7081 35.204 97.4554C35.8481 97.2027 36.5374 97.0869 37.2284 97.1153ZM54.9418 97.1153C59.2451 96.9142 61.9471 102.946 58.5446 105.962C55.5423 109.28 49.3376 106.766 49.6378 102.343C49.6096 101.649 49.7249 100.956 49.9764 100.309C50.2279 99.6622 50.6102 99.0745 51.0992 98.5833C51.5882 98.0921 52.1732 97.7081 52.8174 97.4554C53.4615 97.2027 54.1508 97.0869 54.8418 97.1153H54.9418ZM72.4551 97.1153C76.7584 96.9142 79.4604 102.946 76.1579 105.962C73.1556 109.28 66.9509 106.766 67.2512 102.343C67.2229 101.649 67.3382 100.956 67.5897 100.309C67.8413 99.6622 68.2236 99.0745 68.7126 98.5833C69.2015 98.0921 69.7866 97.7081 70.4307 97.4554C71.0749 97.2027 71.7642 97.0869 72.4551 97.1153ZM90.0685 97.1153C94.3718 96.9142 97.0738 102.946 93.7713 105.962C90.769 109.28 84.5643 106.766 84.8645 102.343C84.8363 101.649 84.9516 100.956 85.2031 100.309C85.4546 99.6622 85.837 99.0745 86.3259 98.5833C86.8149 98.0921 87.3999 97.7081 88.0441 97.4554C88.6883 97.2027 89.3775 97.0869 90.0685 97.1153Z" fill="#004405"/>
<path d="M87.3662 52.378C87.3257 58.0474 86.4142 63.6765 84.6641 69.0665C83.6634 71.7809 82.4625 74.2943 81.0614 76.6065C78.973 80.2435 75.9461 83.2467 72.3 85.2993C68.6539 87.3519 64.5238 88.3776 60.3457 88.2684C57.323 88.2296 54.3093 87.9269 51.3388 87.3636C49.8377 87.062 48.3365 86.6598 46.9355 86.0566C45.4343 85.554 44.1334 84.8502 42.9324 84.046L45.3343 67.1564C46.335 67.7596 47.3358 68.1617 48.4366 68.6644C50.7006 69.6629 53.0921 70.3396 55.542 70.6751L59.0447 70.9767C60.746 70.9767 62.147 70.7756 63.448 70.2729C64.6147 69.836 65.6732 69.15 66.5504 68.2623C67.5511 67.2569 68.1516 66.2516 68.652 64.8441C69.2524 63.6377 69.6527 62.1297 69.8529 60.6217C66.3364 62.4949 62.4243 63.4947 58.4442 63.5372C55.9423 63.5372 53.5405 63.1351 51.4389 62.3308C49.3063 61.6621 47.3342 60.5579 45.6465 59.0874C43.9588 57.6169 42.5919 55.8118 41.6315 53.7855C40.5306 51.7748 40.0302 49.4626 40.0302 46.7482C40.0171 43.6985 40.6125 40.6771 41.7813 37.8626C42.9502 35.048 44.6687 32.4973 46.8354 30.3612C48.937 28.3506 51.4389 26.8426 54.3411 25.6362C57.2433 24.6309 60.3457 24.0277 63.6482 24.0277C67.109 23.8504 70.5603 24.5274 73.7005 25.9995C76.8407 27.4716 79.5741 29.694 81.6618 32.4724C83.6634 34.9858 85.0644 38.0018 85.9651 41.4199C86.9659 44.838 87.4662 48.4572 87.4662 52.2775L87.3662 52.378ZM69.1523 45.9439C69.1523 45.0391 68.9522 44.2348 68.5519 43.5311C67.7581 42.0777 66.4287 40.9949 64.8491 40.5151C63.3217 40.0088 61.6729 40.0088 60.1455 40.5151L58.144 41.621C57.5435 42.1236 57.0432 42.7268 56.6429 43.4306C56.2426 44.1343 56.1425 44.9386 56.1425 45.7428C56.1425 46.6476 56.3426 47.3514 56.6429 48.0551C56.9431 48.7588 57.6436 49.362 58.2441 49.8647C59.4983 50.9023 61.0726 51.4697 62.6974 51.4697C64.3223 51.4697 65.8966 50.9023 67.1508 49.8647C67.7513 49.4626 68.1516 48.8594 68.5519 48.2562C68.9522 47.5524 69.1523 46.7482 69.1523 45.9439Z" fill="#004405"/>
</g>
<defs>
<clipPath id="clip0_7_60">
<rect width="132" height="132" fill="white"/>
</clipPath>
</defs>
</svg>
