<svg width="347" height="400" viewBox="0 0 347 400" fill="none" xmlns="http://www.w3.org/2000/svg">
<g clip-path="url(#clip0_43_284)">
<path d="M324.293 287.296L324.414 87.2063L313.037 80.6377C312.884 80.7254 309.251 83.6796 306.492 86.4753C304.252 88.7455 302.212 90.813 302.095 90.8963C299.473 92.7745 298.533 94.4307 297.593 96.0867C296.651 97.7444 295.709 99.4041 293.081 101.285C289.827 103.615 287.559 106.595 285.292 109.575C284.77 110.26 284.248 110.947 283.715 111.624C277.334 119.749 278.268 129.39 279.216 139.166C279.788 145.069 280.365 151.023 279.339 156.724C278.95 158.875 278.33 161.005 277.712 163.131C276.901 165.921 276.09 168.71 275.802 171.536C275.439 175.305 276.02 179.052 276.601 182.809C277.099 186.024 277.598 189.244 277.508 192.491C277.334 197.459 275.74 202.352 274.155 207.218C271.98 213.894 269.823 220.517 271.375 227.209C271.93 229.593 272.939 231.885 273.949 234.18L273.954 234.197C274.491 235.415 275.027 236.634 275.495 237.867C277.093 242.551 270.683 243.233 267.874 246.892C263.482 252.61 264.602 259.877 259.906 264.868C255.493 269.56 249.974 269.689 246.188 273.234C239.639 279.367 236.645 276.384 229.873 283.917C226.452 287.722 223.011 291.549 218.796 294.183C216.029 295.885 212.991 297.063 209.958 298.239C206.413 299.614 202.878 300.985 199.796 303.184C198.044 304.448 196.462 305.964 194.92 307.539C194.434 308.036 193.952 308.538 193.471 309.041C191.939 310.639 190.404 312.241 188.736 313.653C184.312 317.393 178.867 319.869 173.469 322.325C164.529 326.392 155.712 330.405 151.866 339.992C151.546 340.793 151.213 341.589 150.88 342.382C149.433 345.836 147.986 349.29 147.596 353.273C147.281 356.49 146.314 358.136 145.349 359.78C144.385 361.422 143.421 363.064 143.105 366.274C143.097 366.362 142.8 367.464 142.374 369.02L141.475 372.292C140.434 376.08 139.692 380.703 139.692 380.88L151.07 387.448L324.293 287.296Z" fill="#57AFD6"/>
<path d="M173.105 374.661L346.448 274.722V261.585C346.296 261.496 341.921 259.827 338.12 258.835C335.034 258.031 332.224 257.298 332.093 257.238C329.155 255.906 327.251 255.92 325.347 255.934C323.44 255.948 321.532 255.962 318.589 254.626C314.944 252.972 311.23 252.499 307.515 252.025C306.661 251.916 305.806 251.807 304.952 251.684C294.726 250.221 286.843 255.85 278.851 261.559C274.024 265.006 269.157 268.483 263.706 270.445C261.649 271.183 259.495 271.711 257.345 272.239C254.522 272.931 251.702 273.623 249.11 274.788C245.665 276.358 242.71 278.734 239.747 281.116C237.212 283.155 234.673 285.197 231.815 286.742C227.427 289.075 222.392 290.142 217.386 291.202C210.517 292.657 203.702 294.1 198.683 298.79C196.896 300.462 195.415 302.482 193.933 304.504L193.921 304.517C193.134 305.591 192.347 306.665 191.513 307.687C188.256 311.413 184.46 306.203 179.887 305.599C172.738 304.655 167.005 309.258 160.334 307.687C154.065 306.211 151.194 301.496 146.23 299.99C137.645 297.384 138.732 293.301 128.821 291.202C123.815 290.142 118.78 289.075 114.392 286.742C111.534 285.197 108.995 283.155 106.46 281.116C103.497 278.734 100.542 276.358 97.0967 274.788C95.126 273.903 93.0225 273.29 90.8877 272.743C90.2139 272.571 89.5381 272.405 88.8623 272.239C86.7119 271.711 84.5576 271.183 82.501 270.445C77.0498 268.483 72.1826 265.006 67.3565 261.559C59.3643 255.85 51.4815 250.221 41.2549 251.684C40.4014 251.807 39.5459 251.916 38.6924 252.025C34.9776 252.499 31.2627 252.972 27.6182 254.626C24.6748 255.962 22.7666 255.948 20.8604 255.934C18.9561 255.92 17.0518 255.906 14.1143 257.238C14.0342 257.275 12.9307 257.569 11.3701 257.977L8.08693 258.835C4.28614 259.827 -0.0888605 261.496 -0.241204 261.585L-0.241211 274.722L173.105 374.661Z" fill="#57AFD6"/>
<path d="M173.103 385.764L346.446 285.832V270.548C345.352 270.548 344.662 270.871 344.14 271.198C343.654 271.502 343.169 271.806 342.224 271.845L342.185 271.846C340.23 271.925 338.275 272.004 338.105 271.923C335.173 270.594 333.484 270.343 331.796 270.092C330.105 269.841 328.414 269.59 325.476 268.257C321.005 266.219 316.437 264.193 311.908 263.518C301.679 262.055 293.798 267.684 285.804 273.393C280.978 276.84 276.111 280.316 270.662 282.278C268.611 283.014 266.464 283.541 264.324 284.067L264.3 284.073C261.476 284.766 258.658 285.457 256.064 286.622C252.621 288.187 249.664 290.566 246.699 292.95C244.166 294.988 241.625 297.032 238.769 298.576C234.38 300.909 229.345 301.976 224.339 303.036C217.47 304.49 210.656 305.934 205.636 310.623C203.855 312.289 202.373 314.31 200.892 316.33C200.101 317.409 199.31 318.488 198.472 319.513C192.979 325.797 188.748 317.497 183.135 317.344C176.381 317.16 175.79 320.684 167.367 319.513C161.898 318.752 156.671 321.449 151.499 319.513C146.232 317.54 142.349 312.289 140.568 310.623C135.548 305.934 128.734 304.49 121.865 303.036C116.859 301.976 111.824 300.909 107.435 298.576C104.58 297.032 102.039 294.988 99.5054 292.95C96.5406 290.566 93.5835 288.187 90.1402 286.622C87.5464 285.457 84.7281 284.766 81.9039 284.073C80.773 283.795 79.6421 283.517 78.523 283.208C77.5152 282.931 76.5171 282.628 75.5425 282.278C70.0933 280.316 65.2261 276.84 60.3999 273.393C52.4058 267.684 44.5249 262.055 34.2964 263.518C29.7671 264.193 25.1988 266.219 20.7281 268.257C17.7906 269.59 16.0991 269.841 14.4077 270.092C12.7202 270.343 11.0308 270.594 8.09917 271.923C7.92924 272.004 5.97417 271.925 4.01909 271.846L3.98002 271.845C2.47611 271.784 2.13822 271.051 1.10697 270.713C0.794466 270.61 0.252444 270.544 -0.239743 270.544L-0.239746 285.828L173.103 385.764Z" fill="#80CFF3"/>
<path d="M324.445 112.664L151.223 12.5137L139.846 19.0823C139.846 19.2584 140.588 23.882 141.629 27.6694C142.475 30.7442 143.246 33.5447 143.259 33.6881C143.575 36.8978 144.539 38.5399 145.503 40.1822C146.468 41.8262 147.434 43.4717 147.75 46.6884C148.14 50.6716 149.587 54.1256 151.034 57.5795C151.367 58.3732 151.7 59.1685 152.02 59.9694C155.866 69.5573 164.682 73.5696 173.623 77.6365C179.021 80.0925 184.466 82.5693 188.89 86.3092C190.558 87.7211 192.093 89.3227 193.624 90.9213C195.636 93.019 197.645 95.1155 199.949 96.7778C203.032 98.9766 206.567 100.348 210.111 101.723C213.144 102.899 216.183 104.076 218.949 105.779C223.165 108.413 226.606 112.24 230.027 116.045C234.721 121.267 239.378 126.446 245.95 128.449C248.291 129.16 250.781 129.432 253.273 129.705L253.291 129.709C254.614 129.853 255.938 129.998 257.24 130.209C262.095 131.167 259.481 137.059 261.245 141.322C264.001 147.984 270.854 150.648 272.829 157.211C274.685 163.378 272.038 168.222 273.215 173.274C275.251 182.012 271.171 183.112 274.309 192.744C275.894 197.609 277.488 202.503 277.661 207.471C277.752 210.718 277.253 213.938 276.755 217.153C276.174 220.909 275.593 224.657 275.956 228.425C276.175 230.575 276.696 232.703 277.29 234.825C277.477 235.495 277.672 236.163 277.866 236.831C278.484 238.957 279.104 241.087 279.493 243.237C280.519 248.939 279.942 254.893 279.37 260.796C278.422 270.572 277.488 280.213 283.868 288.338C284.402 289.015 284.924 289.702 285.445 290.386C287.713 293.367 289.981 296.347 293.235 298.676C295.863 300.558 296.805 302.217 297.746 303.875C298.687 305.531 299.627 307.187 302.248 309.066C302.321 309.116 303.127 309.925 304.261 311.072L306.646 313.487C309.405 316.282 313.038 319.236 313.191 319.324L324.568 312.756L324.445 112.664Z" fill="#57AFD6"/>
<path d="M334.061 107.114L160.846 6.96094L147.61 14.6028C148.157 15.55 148.782 15.9866 149.325 16.2749C149.832 16.5437 150.338 16.8114 150.844 17.6107L150.864 17.6438C151.91 19.2974 152.956 20.951 152.971 21.1389C153.286 24.3424 153.913 25.931 154.54 27.5176C155.168 29.1079 155.796 30.6985 156.11 33.9089C156.581 38.7995 157.11 43.769 158.791 48.0288C162.638 57.6187 171.453 61.629 180.394 65.6976C185.793 68.1536 191.237 70.6307 195.661 74.3689C197.323 75.7772 198.853 77.3725 200.379 78.9634L200.395 78.9807C202.407 81.0801 204.415 83.1752 206.721 84.8392C209.799 87.0383 213.337 88.4099 216.884 89.7854C219.916 90.9602 222.956 92.139 225.721 93.8397C229.936 96.4739 233.377 100.301 236.798 104.106C241.492 109.328 246.15 114.508 252.721 116.51C255.054 117.22 257.545 117.493 260.035 117.765C261.365 117.911 262.695 118.056 264.001 118.27C272.19 119.885 267.118 127.699 269.792 132.636C273.009 138.577 276.357 137.328 279.554 145.207C281.63 150.324 286.579 153.503 287.488 158.949C288.413 164.497 285.807 170.485 285.255 172.861C283.703 179.553 285.861 186.176 288.035 192.852C289.62 197.717 291.214 202.611 291.388 207.578C291.478 210.823 290.979 214.046 290.481 217.259C289.898 221.018 289.317 224.768 289.683 228.533C289.971 231.362 290.781 234.148 291.594 236.941C291.918 238.059 292.243 239.177 292.535 240.301C292.799 241.312 293.036 242.328 293.22 243.347C294.246 249.047 293.669 255 293.097 260.903C292.15 270.681 291.215 280.321 297.596 288.447C300.445 292.032 304.484 294.975 308.484 297.828C311.108 299.706 312.171 301.045 313.234 302.384C314.295 303.72 315.357 305.058 317.974 306.932C318.129 307.039 319.038 308.771 319.947 310.504L319.966 310.539C320.665 311.872 320.199 312.53 320.422 313.592C320.489 313.915 320.703 314.417 320.949 314.844L334.185 307.202L334.061 107.114Z" fill="#80CFF3"/>
<path d="M333.907 292.849L334.035 92.7634L320.799 85.1216C320.252 86.0688 320.186 86.8283 320.208 87.4433C320.229 88.0168 320.25 88.5881 319.811 89.4261L319.792 89.4606C318.883 91.1933 317.974 92.926 317.819 93.0324C315.202 94.9067 314.14 96.2444 313.079 97.5805C312.016 98.9198 310.953 100.259 308.329 102.136C304.329 104.989 300.29 107.932 297.441 111.518C291.06 119.644 291.994 129.284 292.942 139.061C293.514 144.965 294.091 150.918 293.065 156.618C292.677 158.762 292.06 160.884 291.445 163.001L291.438 163.024C290.626 165.816 289.816 168.603 289.528 171.431C289.162 175.196 289.743 178.946 290.326 182.706C290.824 185.919 291.323 189.141 291.233 192.387C291.059 197.354 289.465 202.247 287.88 207.113C285.705 213.789 283.548 220.412 285.1 227.104C285.652 229.479 286.66 231.773 287.67 234.066C288.209 235.29 288.748 236.515 289.216 237.753C291.912 245.652 282.609 245.166 279.67 249.951C276.133 255.708 278.889 257.982 273.664 264.69C270.271 269.047 269.993 274.922 265.73 278.432C261.388 282.008 254.899 282.745 252.566 283.455C245.995 285.457 241.337 290.637 236.643 295.858C233.222 299.663 229.781 303.491 225.566 306.125C222.801 307.826 219.761 309.005 216.729 310.179C213.182 311.555 209.644 312.927 206.566 315.126C204.26 316.79 202.252 318.885 200.24 320.984C199.434 321.824 198.628 322.665 197.801 323.48C197.057 324.214 196.296 324.927 195.506 325.596C191.082 329.334 185.638 331.811 180.239 334.267C171.298 338.336 162.483 342.346 158.636 351.936C156.955 356.196 156.426 361.165 155.955 366.056C155.641 369.266 155.013 370.857 154.385 372.447C153.758 374.034 153.131 375.622 152.816 378.826C152.801 379.014 151.755 380.667 150.709 382.321L150.689 382.354C149.884 383.626 149.08 383.552 148.272 384.277C148.027 384.496 147.698 384.932 147.452 385.358L160.688 393L333.907 292.849Z" fill="#80CFF3"/>
<path d="M341.877 297.447L342.016 97.3506L330.401 90.6489C329.856 91.7008 329.367 92.8949 328.974 93.9196C327.915 96.6798 326.886 99.3626 323.062 102.092C319.059 104.959 315.023 107.888 312.165 111.479C305.796 119.604 306.727 129.235 307.672 139.004C308.243 144.913 308.819 150.871 307.789 156.58C307.403 158.731 306.783 160.863 306.163 162.993C305.353 165.782 304.544 168.565 304.261 171.387C303.898 175.156 304.478 178.903 305.059 182.66C305.558 185.873 306.057 189.095 305.966 192.342C305.792 197.309 304.198 202.203 302.613 207.068C300.438 213.745 298.281 220.368 299.833 227.06C300.063 228.059 300.374 229.041 300.732 230.014C301.229 231.366 302.406 234.035 302.406 234.035C302.406 234.035 303.484 236.479 303.955 237.716C305.506 242.279 302.11 243.038 302.713 247.82C303.316 252.602 295.401 252.859 293.639 256.906C291.893 260.914 293.941 267.114 291.897 270.308C289.617 273.869 286.347 274.946 282.973 278.351C277.936 283.436 281.104 288.322 272.928 291.455C267.448 293.76 265.542 294.502 259.897 296.232C253.325 298.234 248.668 303.414 243.974 308.635C240.553 312.44 237.112 316.268 232.897 318.902C230.13 320.604 227.09 321.783 224.058 322.958C220.514 324.333 216.979 325.704 213.896 327.902C211.594 329.559 209.588 331.651 207.578 333.747C206.044 335.349 204.507 336.951 202.837 338.362C198.408 342.109 192.961 344.588 187.558 347.048C178.624 351.115 169.818 355.124 165.967 364.702C164.286 368.973 163.767 373.932 163.286 378.833C162.834 383.509 161.025 385.741 159.164 388.038C158.473 388.891 157.694 389.893 157.056 390.891L168.668 397.599L341.877 297.447Z" fill="#F2E8C0"/>
<path d="M342.028 102.511L168.809 2.3418L157.198 9.05026C157.836 10.0484 158.626 11.0687 159.317 11.9215C161.178 14.2188 162.986 16.4514 163.439 21.1272C163.919 26.0278 164.439 30.9872 166.119 35.2582C169.971 44.8364 178.777 48.8453 187.71 52.9116C193.113 55.3719 198.561 57.8514 202.989 61.598C204.66 63.0085 206.196 64.6112 207.731 66.2128C209.741 68.309 211.746 70.401 214.049 72.0574C217.131 74.2562 220.667 75.6272 224.211 77.0022C227.243 78.1767 230.282 79.3561 233.049 81.058C237.264 83.6922 240.705 87.5195 244.126 91.3247C248.82 96.5462 253.478 101.726 260.049 103.728C261.029 104.028 262.035 104.25 263.057 104.427C264.477 104.672 267.376 104.987 267.376 104.987C267.376 104.987 270.032 105.276 271.338 105.487C276.066 106.425 275.025 109.746 279.468 111.614C283.911 113.483 280.176 120.466 282.799 124.016C285.398 127.532 291.79 128.858 293.535 132.225C295.479 135.98 294.776 139.351 296.039 143.975C297.924 150.88 303.739 150.579 302.365 159.226C301.621 165.124 301.31 167.146 299.986 172.9C298.434 179.592 300.591 186.215 302.766 192.891C304.351 197.757 305.945 202.651 306.119 207.618C306.209 210.865 305.711 214.087 305.212 217.3C304.631 221.057 304.05 224.804 304.413 228.573C304.696 231.395 305.505 234.178 306.316 236.967C306.935 239.097 307.555 241.229 307.941 243.38C308.972 249.089 308.395 255.047 307.825 260.956C306.879 270.725 305.948 280.356 312.317 288.481C315.176 292.072 319.211 295.001 323.215 297.868C327.038 300.597 328.067 303.28 329.126 306.04C329.519 307.065 329.997 308.24 330.542 309.292L342.158 302.59L342.028 102.511Z" fill="#F2E8C0"/>
<path d="M346.491 99.9279L173.366 -0.29834L167.538 3.07079C167.538 3.07079 173.286 10.5011 173.706 13.1205C174.279 16.4146 175.51 19.5595 177.325 22.3681C179.374 25.5672 179.154 29.9161 181.694 32.7454C188.742 40.6133 201.758 45.0022 212.575 53.45C216.125 56.2293 219.114 59.6983 222.843 62.2377C228.031 65.7768 234.35 67.3264 239.698 70.6255C248.696 76.1541 254.595 86.3614 264.512 89.9205C267.651 91.0402 271 91.4101 274.239 92.1999C288.696 95.675 294.07 113.074 294.07 113.074C294.07 113.074 296.73 119.466 299.813 121.192" fill="url(#paint0_linear_43_284)"/>
<path d="M346.491 99.9279L173.366 -0.29834L167.538 3.07079C167.538 3.07079 173.286 10.5011 173.706 13.1205C174.279 16.4146 175.51 19.5595 177.325 22.3681C179.374 25.5672 179.154 29.9161 181.694 32.7454C188.742 40.6133 201.758 45.0022 212.575 53.45C216.125 56.2293 219.114 59.6983 222.843 62.2377C228.031 65.7768 234.35 67.3264 239.698 70.6255C248.696 76.1541 254.595 86.3614 264.512 89.9205C267.651 91.0402 271 91.4101 274.239 92.1999C288.696 95.675 294.07 113.074 294.07 113.074C294.07 113.074 296.73 119.466 299.813 121.192" fill="url(#paint1_linear_43_284)"/>
<path d="M299.811 121.176C311.05 127.014 306.706 132.367 310.653 139.954C314.765 147.86 321.695 146.719 319.776 160.305C319.146 164.774 317.646 169.103 317.307 173.592C316.827 179.86 318.646 186.109 318.466 192.387C318.166 202.924 312.288 213.152 314.167 223.529C314.767 226.808 316.117 229.887 317.057 233.087C318.153 237.22 318.912 241.437 319.326 245.693C320.396 254.261 321.475 262.849 321.485 271.487C321.395 273.617 321.525 275.751 321.875 277.855C322.705 281.754 325.204 285.053 327.634 288.222C329.162 290.463 331.074 292.416 333.282 293.991C335.142 295.15 339.594 302.147 340.923 303.296L346.581 299.987L346.489 99.9111" fill="url(#paint2_linear_43_284)"/>
<path d="M299.811 121.176C311.05 127.014 306.706 132.367 310.653 139.954C314.765 147.86 321.695 146.719 319.776 160.305C319.146 164.774 317.646 169.103 317.307 173.592C316.827 179.86 318.646 186.109 318.466 192.387C318.166 202.924 312.288 213.152 314.167 223.529C314.767 226.808 316.117 229.887 317.057 233.087C318.153 237.22 318.912 241.437 319.326 245.693C320.396 254.261 321.475 262.849 321.485 271.487C321.395 273.617 321.525 275.751 321.875 277.855C322.705 281.754 325.204 285.053 327.634 288.222C329.162 290.463 331.074 292.416 333.282 293.991C335.142 295.15 339.594 302.147 340.923 303.296L346.581 299.987L346.489 99.9111" fill="url(#paint3_linear_43_284)"/>
<path d="M173.106 394.966L346.464 295.038L346.46 281.628C345.277 281.682 343.998 281.856 342.914 282.028C339.994 282.49 337.157 282.941 332.881 280.994C328.397 278.96 323.842 276.93 319.303 276.25C309.082 274.797 301.207 280.419 293.219 286.122C288.387 289.571 283.516 293.049 278.057 295.011C276 295.752 273.844 296.282 271.69 296.81C268.869 297.502 266.055 298.193 263.469 299.359C260.024 300.929 257.069 303.305 254.106 305.687C251.573 307.726 249.032 309.768 246.174 311.314C241.785 313.647 236.75 314.713 231.744 315.773C224.875 317.228 218.061 318.671 213.041 323.361C212.291 324.06 211.596 324.82 210.932 325.616C210.01 326.723 208.287 329.077 208.287 329.077C208.287 329.077 206.709 331.233 205.873 332.259C202.698 335.884 200.342 333.322 196.502 336.235C192.662 339.149 188.483 332.422 184.097 332.919C179.753 333.412 175.407 338.285 171.619 338.112C167.395 337.919 164.828 335.624 160.192 334.406C153.269 332.586 150.623 337.773 143.821 332.259C139.085 328.665 137.489 327.385 133.168 323.361C128.149 318.671 121.334 317.228 114.465 315.773C109.459 314.713 104.424 313.647 100.035 311.314C97.1781 309.768 94.6371 307.726 92.1039 305.687C89.141 303.305 86.1859 300.929 82.7406 299.359C80.1546 298.193 77.3402 297.502 74.5199 296.81C72.3656 296.282 70.2093 295.752 68.1527 295.011C62.6937 293.049 57.8226 289.571 52.9906 286.122C45.0023 280.419 37.1273 274.797 26.9066 276.25C22.3675 276.93 17.8128 278.96 13.3284 280.994C9.05306 282.941 6.21517 282.491 3.29525 282.028C2.21127 281.856 0.954571 281.682 -0.229023 281.628L-0.23291 295.038L173.106 394.966Z" fill="#F2E8C0"/>
<path d="M173.112 400.122L346.473 300.305L346.469 293.572C346.469 293.572 337.16 294.835 334.682 293.889C331.542 292.739 328.203 292.232 324.864 292.4C321.068 292.575 317.412 290.21 313.692 290.994C303.354 293.164 293.045 302.243 280.32 307.387C276.139 309.071 271.64 309.925 267.576 311.885C261.917 314.609 257.416 319.306 251.885 322.288C242.598 327.316 230.809 327.321 222.768 334.13C220.229 336.289 218.234 339.004 215.93 341.414C205.692 352.197 187.937 348.151 187.937 348.151C187.937 348.151 181.072 347.259 178.035 349.065" fill="url(#paint4_linear_43_284)"/>
<path d="M173.112 400.122L346.473 300.305L346.469 293.572C346.469 293.572 337.16 294.835 334.682 293.889C331.542 292.739 328.203 292.232 324.864 292.4C321.068 292.575 317.412 290.21 313.692 290.994C303.354 293.164 293.045 302.243 280.32 307.387C276.139 309.071 271.64 309.925 267.576 311.885C261.917 314.609 257.416 319.306 251.885 322.288C242.598 327.316 230.809 327.321 222.768 334.13C220.229 336.289 218.234 339.004 215.93 341.414C205.692 352.197 187.937 348.151 187.937 348.151C187.937 348.151 181.072 347.259 178.035 349.065" fill="url(#paint5_linear_43_284)"/>
<path d="M178.05 349.072C167.375 355.886 164.911 349.448 156.367 349.072C147.464 348.68 144.987 355.253 134.181 346.797C130.625 344.017 127.626 340.554 123.909 338.015C118.72 334.465 112.399 332.917 107.052 329.622C98.0762 324.094 92.1583 313.889 82.2316 310.328C79.0918 309.208 75.7503 308.837 72.5099 308.051C68.3816 306.934 64.3508 305.483 60.4574 303.714C52.5027 300.356 44.5256 296.997 37.0401 292.687C35.2403 291.543 33.3267 290.589 31.33 289.84C27.5384 288.61 23.4316 289.125 19.4724 289.644C16.7677 289.847 14.1203 290.526 11.6524 291.651C9.71836 292.682 1.43345 293.039 -0.227051 293.616L-0.190127 300.17L173.127 400.128" fill="url(#paint6_linear_43_284)"/>
<path d="M178.05 349.072C167.375 355.886 164.911 349.448 156.367 349.072C147.464 348.68 144.987 355.253 134.181 346.797C130.625 344.017 127.626 340.554 123.909 338.015C118.72 334.465 112.399 332.917 107.052 329.622C98.0762 324.094 92.1583 313.889 82.2316 310.328C79.0918 309.208 75.7503 308.837 72.5099 308.051C68.3816 306.934 64.3508 305.483 60.4574 303.714C52.5027 300.356 44.5256 296.997 37.0401 292.687C35.2403 291.543 33.3267 290.589 31.33 289.84C27.5384 288.61 23.4316 289.125 19.4724 289.644C16.7677 289.847 14.1203 290.526 11.6524 291.651C9.71836 292.682 1.43345 293.039 -0.227051 293.616L-0.190127 300.17L173.127 400.128" fill="url(#paint7_linear_43_284)"/>
<path d="M304.604 270.218C305.167 282.87 298.36 281.785 293.762 288.997C288.972 296.511 293.425 301.942 280.699 307.073C276.514 308.762 272.015 309.628 267.958 311.578C262.289 314.297 257.788 318.997 252.261 321.98C242.985 326.989 231.189 327.012 223.141 333.828C220.602 335.987 218.61 338.695 216.309 341.109C213.277 344.125 210.005 346.891 206.526 349.378C199.641 354.588 205.217 352.021 197.741 356.349C195.851 357.336 194.068 358.516 192.421 359.871C189.459 362.539 193.95 362.513 192.42 366.201C191.243 368.645 190.508 371.278 190.249 373.977C190.174 376.168 186.341 383.521 186.01 385.247L191.705 388.493L346.358 300.01" fill="url(#paint8_linear_43_284)"/>
<path d="M304.604 270.218C305.167 282.87 298.36 281.785 293.762 288.997C288.972 296.511 293.425 301.942 280.699 307.073C276.514 308.762 272.015 309.628 267.958 311.578C262.289 314.297 257.788 318.997 252.261 321.98C242.985 326.989 231.189 327.012 223.141 333.828C220.602 335.987 218.61 338.695 216.309 341.109C213.277 344.125 210.005 346.891 206.526 349.378C199.641 354.588 205.217 352.021 197.741 356.349C195.851 357.336 194.068 358.516 192.421 359.871C189.459 362.539 193.95 362.513 192.42 366.201C191.243 368.645 190.508 371.278 190.249 373.977C190.174 376.168 186.341 383.521 186.01 385.247L191.705 388.493L346.358 300.01" fill="url(#paint9_linear_43_284)"/>
<path d="M346.345 300.02L346.581 125.839L340.749 122.476C340.749 122.476 337.189 131.169 335.13 132.843C332.564 134.987 330.456 137.625 328.931 140.601C327.185 143.975 323.309 145.959 322.128 149.573C318.839 159.611 321.546 147.216 319.639 160.807C319.006 165.271 317.497 169.594 317.162 174.093C316.691 180.356 318.509 186.603 318.326 192.884C318.037 203.441 312.146 213.653 314.023 224.021C314.622 227.3 315.977 230.385 316.912 233.585C321.131 247.842 308.75 261.196 308.75 261.196C308.75 261.196 304.544 266.695 304.591 270.228" fill="url(#paint10_linear_43_284)"/>
<path d="M346.345 300.02L346.581 125.839L340.749 122.476C340.749 122.476 337.189 131.169 335.13 132.843C332.564 134.987 330.456 137.625 328.931 140.601C327.185 143.975 323.309 145.959 322.128 149.573C318.839 159.611 321.546 147.216 319.639 160.807C319.006 165.271 317.497 169.594 317.162 174.093C316.691 180.356 318.509 186.603 318.326 192.884C318.037 203.441 312.146 213.653 314.023 224.021C314.622 227.3 315.977 230.385 316.912 233.585C321.131 247.842 308.75 261.196 308.75 261.196C308.75 261.196 304.544 266.695 304.591 270.228" fill="url(#paint11_linear_43_284)"/>
</g>
<defs>
<linearGradient id="paint0_linear_43_284" x1="265.992" y1="53.6226" x2="248.86" y2="81.9148" gradientUnits="userSpaceOnUse">
<stop offset="0.05" stop-color="#E0B568"/>
<stop offset="1" stop-color="#E8CF96"/>
</linearGradient>
<linearGradient id="paint1_linear_43_284" x1="333.618" y1="106.756" x2="317.434" y2="98.7923" gradientUnits="userSpaceOnUse">
<stop stop-color="#E0B568"/>
<stop offset="1" stop-color="#E0B568" stop-opacity="0"/>
</linearGradient>
<linearGradient id="paint2_linear_43_284" x1="346.489" y1="201.421" x2="313.345" y2="201.421" gradientUnits="userSpaceOnUse">
<stop offset="0.05" stop-color="#E0B568"/>
<stop offset="1" stop-color="#E8CF96"/>
</linearGradient>
<linearGradient id="paint3_linear_43_284" x1="335.16" y1="105.215" x2="331.478" y2="123.712" gradientUnits="userSpaceOnUse">
<stop stop-color="#E0B568"/>
<stop offset="1" stop-color="#E0B568" stop-opacity="0"/>
</linearGradient>
<linearGradient id="paint4_linear_43_284" x1="253.462" y1="353.561" x2="237.527" y2="324.577" gradientUnits="userSpaceOnUse">
<stop offset="0.05" stop-color="#E0B568"/>
<stop offset="1" stop-color="#E8CF96"/>
</linearGradient>
<linearGradient id="paint5_linear_43_284" x1="173.634" y1="385.56" x2="188.624" y2="375.525" gradientUnits="userSpaceOnUse">
<stop stop-color="#E0B568"/>
<stop offset="1" stop-color="#E0B568" stop-opacity="0"/>
</linearGradient>
<linearGradient id="paint6_linear_43_284" x1="85.2172" y1="349.373" x2="101.789" y2="320.67" gradientUnits="userSpaceOnUse">
<stop offset="0.05" stop-color="#E0B568"/>
<stop offset="1" stop-color="#E8CF96"/>
</linearGradient>
<linearGradient id="paint7_linear_43_284" x1="174.198" y1="387.665" x2="160.021" y2="375.228" gradientUnits="userSpaceOnUse">
<stop stop-color="#E0B568"/>
<stop offset="1" stop-color="#E0B568" stop-opacity="0"/>
</linearGradient>
<linearGradient id="paint8_linear_43_284" x1="258.448" y1="350.765" x2="241.877" y2="322.062" gradientUnits="userSpaceOnUse">
<stop offset="0.05" stop-color="#E0B568"/>
<stop offset="1" stop-color="#E8CF96"/>
</linearGradient>
<linearGradient id="paint9_linear_43_284" x1="336.101" y1="292.851" x2="318.241" y2="298.91" gradientUnits="userSpaceOnUse">
<stop stop-color="#E0B568"/>
<stop offset="1" stop-color="#E0B568" stop-opacity="0"/>
</linearGradient>
<linearGradient id="paint10_linear_43_284" x1="346.198" y1="207.154" x2="313.129" y2="206.463" gradientUnits="userSpaceOnUse">
<stop offset="0.05" stop-color="#E0B568"/>
<stop offset="1" stop-color="#E8CF96"/>
</linearGradient>
<linearGradient id="paint11_linear_43_284" x1="333.995" y1="292.287" x2="332.8" y2="274.288" gradientUnits="userSpaceOnUse">
<stop stop-color="#E0B568"/>
<stop offset="1" stop-color="#E0B568" stop-opacity="0"/>
</linearGradient>
<clipPath id="clip0_43_284">
<rect width="346.34" height="399.75" fill="white" transform="translate(0 0.0400391)"/>
</clipPath>
</defs>
</svg>
