<svg width="132" height="132" viewBox="0 0 132 132" fill="none" xmlns="http://www.w3.org/2000/svg">
<g clip-path="url(#clip0_7_86)">
<path opacity="0.5" d="M115.187 131.9H21.8164C17.3216 131.9 13.0094 130.113 9.82168 126.929C6.634 123.746 4.82991 119.425 4.80347 114.909V21.112C4.81657 18.8676 5.26961 16.6478 6.13672 14.5793C7.00382 12.5108 8.26802 10.6341 9.85711 9.05644C11.4462 7.47875 13.3291 6.23095 15.3982 5.38428C17.4674 4.5376 19.6823 4.10864 21.9165 4.12188H115.287C119.73 4.20058 123.966 6.02214 127.089 9.1971C130.212 12.3721 131.975 16.6485 132 21.112V114.909C132 119.442 130.208 123.789 127.017 126.994C123.827 130.2 119.499 132 114.987 132L115.187 131.9Z" fill="black"/>
<path d="M110.284 127.778H16.9128C12.4181 127.751 8.11646 125.939 4.94753 122.737C1.77861 119.534 -7.77632e-05 115.202 2.54989e-09 110.687V16.8896C0.0523995 12.4091 1.85425 8.12859 5.01754 4.96964C8.18084 1.81069 12.4525 0.0260481 16.9128 4.09858e-08H110.284C114.761 -0.000311257 119.059 1.77268 122.243 4.93444C125.428 8.0962 127.244 12.3918 127.297 16.8896V110.788C127.27 115.303 125.466 119.624 122.278 122.808C119.091 125.991 114.779 127.778 110.284 127.778Z" fill="#EAE9E4"/>
<path d="M46.035 97.1153C50.4384 96.9142 53.0403 102.946 49.7378 105.962C46.7356 109.28 40.5308 106.766 40.8311 102.343C40.8028 101.649 40.9181 100.956 41.1696 100.309C41.4212 99.6622 41.8035 99.0745 42.2925 98.5833C42.7815 98.0921 43.3665 97.7081 44.0106 97.4554C44.6548 97.2027 45.3441 97.0869 46.035 97.1153ZM63.6484 97.1153C68.0517 96.9142 70.6537 102.946 67.3512 105.962C64.3489 109.28 58.1442 106.766 58.4444 102.343C58.4162 101.649 58.5315 100.956 58.783 100.309C59.0345 99.6622 59.4169 99.0745 59.9058 98.5833C60.3948 98.0921 60.9798 97.7081 61.624 97.4554C62.2682 97.2027 62.9574 97.0869 63.6484 97.1153ZM81.2618 97.1153C85.565 96.9142 88.2671 102.946 84.9646 105.962C81.9623 109.28 75.7576 106.766 76.0578 102.343C76.0296 101.649 76.1449 100.956 76.3964 100.309C76.6479 99.6622 77.0302 99.0745 77.5192 98.5833C78.0082 98.0921 78.5932 97.7081 79.2374 97.4554C79.8815 97.2027 80.5708 97.0869 81.2618 97.1153Z" fill="#004405"/>
<path d="M52.4398 25.0327L49.9379 87.866L30.7234 86.9612L31.7241 45.1394L24.7188 50.0655L18.2139 34.9855L32.5247 24.1279L52.5399 25.0327H52.4398ZM110.184 56.9018C110.166 62.0694 109.018 67.1699 106.822 71.8429C104.626 76.5159 101.434 80.6474 97.474 83.9452C93.2504 87.023 88.1805 88.709 82.963 88.7708C77.7284 88.815 72.6264 87.1183 68.452 83.9452C62.2646 79.1919 58.0274 72.3242 56.543 64.6428C55.1749 58.296 55.5717 51.6935 57.6899 45.5581C59.8081 39.4228 63.566 33.9913 68.5521 29.8583C71.7144 27.5485 75.3769 26.0253 79.2391 25.4136C83.1012 24.8019 87.0526 25.1193 90.7689 26.3397C95.5701 28.0014 99.7572 31.086 102.778 35.1866C107.628 41.3708 110.24 49.0288 110.184 56.9018ZM91.6696 58.2087C91.6047 55.1633 90.8519 52.1726 89.4679 49.4623C88.7674 48.0548 87.7667 46.949 86.6658 45.9436C85.5375 45.0167 84.1203 44.5184 82.6628 44.5362C80.9615 44.5362 79.6605 45.0388 78.4596 45.9436C77.2587 46.949 76.358 48.0548 75.5574 49.4623C74.8569 50.8698 74.2564 52.3778 73.9562 53.8858C73.6559 55.3938 73.4558 56.9018 73.4558 58.2087C73.4745 61.2802 74.1934 64.3066 75.5574 67.0556C76.358 68.4631 77.2587 69.5689 78.4596 70.5743C79.5604 71.4791 80.9615 71.9817 82.5627 71.9817C84.1639 71.9817 85.565 71.4791 86.5658 70.5743C87.7667 69.5689 88.7674 68.4631 89.568 67.0556C90.8405 64.3043 91.5874 61.3374 91.7697 58.3092L91.6696 58.2087Z" fill="#004405"/>
</g>
<defs>
<clipPath id="clip0_7_86">
<rect width="132" height="132" fill="white"/>
</clipPath>
</defs>
</svg>
