<svg width="100" height="100" viewBox="0 0 100 100" fill="none" xmlns="http://www.w3.org/2000/svg">
<g clip-path="url(#clip0_10_20)">
<path d="M65.0783 76.8843C54.0391 76.8843 49.1217 75.4786 48.7202 72.2657C48.5195 70.86 48.5195 68.6511 48.6199 66.2413V62.8275C48.6199 59.2129 52.8348 52.0841 58.8562 51.1805L59.4583 51.0801L59.6591 51.3813C60.0605 51.3813 61.2648 51.7829 65.0783 51.9837C68.9922 51.7829 70.0961 51.4817 70.4975 51.3813L70.6982 51.0801H71.3004C77.3217 52.0841 81.4363 59.2129 81.4363 62.8275L81.6371 66.2413V72.2657C81.1353 75.4786 76.2178 76.8843 65.1786 76.8843H65.0783Z" fill="white"/>
<path d="M71.0989 52.1817C76.5181 52.9849 80.432 59.5113 80.432 62.8247C80.432 66.0377 80.7331 70.1543 80.432 72.062C80.131 74.1705 76.9196 75.8774 65.0775 75.8774C53.2355 75.8774 50.0241 74.1705 49.6227 72.062C49.422 70.0539 49.6227 66.0377 49.6227 62.8247C49.6227 59.5113 53.6369 52.9849 59.0562 52.0813C59.0562 52.0813 59.4576 52.6837 65.0775 52.9849C70.5971 52.7841 71.0989 52.0813 71.0989 52.0813V52.1817ZM59.9594 49.9727L58.7551 50.1736C52.4327 51.1776 47.7159 58.5072 47.7159 62.8247L47.5152 66.2385V72.3632C48.1173 76.3794 53.2355 77.8855 64.9772 77.8855C76.7189 77.8855 81.837 76.279 82.3388 72.3632C82.5395 70.9575 82.5395 68.6482 82.4392 66.3389V62.8247C82.4392 58.5072 77.6221 51.0772 71.4 50.1736L70.1957 49.9727L69.7943 50.4748C66.6099 51.0639 63.3445 51.0639 60.1601 50.4748L59.7587 49.9727H59.9594Z" fill="#223948"/>
<path d="M64.9797 53.1861C64.2772 53.1861 62.5712 53.1861 61.969 52.9853C58.858 52.3828 51.7327 49.5715 51.7327 36.9204C51.7327 27.5826 56.3491 22.4619 64.8794 22.4619C73.51 22.4619 78.4275 27.683 78.4275 36.82C78.4275 48.7682 72.7072 52.182 67.7897 52.9853L64.9797 53.0857V53.1861Z" fill="white"/>
<path d="M64.878 23.4657C74.3115 23.4657 77.4226 29.6909 77.4226 36.8197C77.4226 46.8602 73.2076 51.0773 67.5876 51.9809C65.7544 52.2018 63.9013 52.2018 62.0681 51.9809C57.251 50.9769 52.7349 46.7598 52.7349 36.9201C52.7349 29.6909 55.5449 23.4657 64.878 23.4657V23.4657ZM64.878 21.4576C55.7456 21.4576 50.7278 26.8795 50.7278 36.8197C50.7278 50.274 58.3549 53.2862 61.767 53.8886C62.4695 54.0894 63.7741 54.0894 64.9784 54.0894L67.9891 53.989C73.2076 53.0854 79.4297 49.4708 79.4297 36.9201C79.4297 27.0803 74.1108 21.4576 64.878 21.4576Z" fill="#223948"/>
<path d="M33.3916 76.8843C22.3524 76.8843 17.4349 75.4786 17.0335 72.2657C16.8328 70.86 16.8328 68.6511 16.9331 66.2413V62.8275C16.9331 59.2129 21.1481 52.0841 27.1695 51.1805L27.7716 51.0801L27.9723 51.3813C28.3737 51.3813 29.578 51.7829 33.3916 51.9837C37.3054 51.7829 38.4094 51.4817 38.8108 51.3813L39.0115 51.0801H39.6136C45.635 52.0841 49.7496 59.2129 49.7496 62.8275L49.9503 66.2413V72.2657C49.4485 75.4786 44.5311 76.8843 33.4919 76.8843H33.3916Z" fill="white"/>
<path d="M39.4122 52.1817C44.8314 52.9849 48.7453 59.5113 48.7453 62.8247C48.7453 66.0377 49.0464 70.1543 48.7453 72.062C48.4442 74.1705 45.2328 75.8774 33.3908 75.8774C21.5488 75.8774 18.3374 74.1705 17.9359 72.062C17.7352 70.0539 17.9359 66.0377 17.9359 62.8247C17.9359 59.5113 21.9502 52.9849 27.3694 52.0813C27.3694 52.0813 27.7709 52.6837 33.3908 52.9849C38.9104 52.7841 39.4122 52.0813 39.4122 52.0813V52.1817ZM28.2726 49.9727L27.0684 50.1736C20.7459 51.1776 16.0292 58.5072 16.0292 62.8247L15.8285 66.2385V72.3632C16.4306 76.3794 21.5488 77.8855 33.2904 77.8855C45.0321 77.8855 50.1503 76.279 50.6521 72.3632C50.8528 70.9575 50.8528 68.6482 50.7524 66.3389V62.8247C50.7524 58.5072 45.9353 51.0772 39.7132 50.1736L38.509 49.9727L38.1075 50.4748C34.9231 51.0639 31.6578 51.0639 28.4733 50.4748L28.0719 49.9727H28.2726Z" fill="#223948"/>
<path d="M33.293 53.1861C32.5905 53.1861 30.8844 53.1861 30.2823 52.9853C27.1713 52.3828 20.046 49.5715 20.046 36.9204C20.046 27.5826 24.6624 22.4619 33.1926 22.4619C41.8233 22.4619 46.7407 27.683 46.7407 36.82C46.7407 48.7682 41.0204 52.182 36.103 52.9853L33.293 53.0857V53.1861Z" fill="white"/>
<path d="M33.1913 23.4657C42.6248 23.4657 45.7358 29.6909 45.7358 36.8197C45.7358 46.8602 41.5209 51.0773 35.9009 51.9809C34.0677 52.2018 32.2146 52.2018 30.3813 51.9809C25.5642 50.9769 21.0482 46.7598 21.0482 36.9201C21.0482 29.6909 23.8582 23.4657 33.1913 23.4657V23.4657ZM33.1913 21.4576C24.0589 21.4576 19.0411 26.8795 19.0411 36.8197C19.0411 50.274 26.6681 53.2862 30.0803 53.8886C30.7827 54.0894 32.0874 54.0894 33.2917 54.0894L36.3023 53.989C41.5209 53.0854 47.7429 49.4708 47.7429 36.9201C47.7429 27.0803 42.4241 21.4576 33.1913 21.4576Z" fill="#223948"/>
<path d="M49.283 84.0663C38.2438 84.0663 33.3264 82.6607 32.925 79.4477C32.7242 78.042 32.7242 75.8331 32.8246 73.4234V70.0096C32.8246 66.395 37.0396 59.2662 43.0609 58.3625L43.6631 58.2621L43.8638 58.5633C44.2652 58.5633 45.4695 58.9649 49.283 59.1657C53.1969 58.9649 54.3008 58.6637 54.7022 58.5633L54.903 58.2621H55.5051C61.5265 59.2662 65.6411 66.395 65.6411 70.0096L65.8418 73.4234V79.4477C65.34 82.6607 60.4225 84.0663 49.3834 84.0663H49.283Z" fill="white"/>
<path d="M55.3036 59.3637C60.7229 60.167 64.6367 66.6933 64.6367 70.0067C64.6367 73.2197 64.9378 77.3363 64.6367 79.244C64.3357 81.3526 61.1243 83.0594 49.2822 83.0594C37.4402 83.0594 34.2288 81.3526 33.8274 79.244C33.6267 77.2359 33.8274 73.2197 33.8274 70.0067C33.8274 66.6933 37.8416 60.167 43.2609 59.2633C43.2609 59.2633 43.6623 59.8657 49.2822 60.167C54.8018 59.9661 55.3036 59.2633 55.3036 59.2633V59.3637ZM44.1641 57.1548L42.9598 57.3556C36.6374 58.3597 31.9206 65.6893 31.9206 70.0067L31.7199 73.4205V79.5452C32.3221 83.5615 37.4402 85.0676 49.1819 85.0676C60.9236 85.0676 66.0417 83.4611 66.5435 79.5452C66.7442 78.1396 66.7442 75.8302 66.6439 73.5209V70.0067C66.6439 65.6893 61.8268 58.2592 55.6047 57.3556L54.4004 57.1548L53.999 57.6568C50.8146 58.2459 47.5492 58.2459 44.3648 57.6568L43.9634 57.1548H44.1641Z" fill="#223948"/>
<path d="M49.1844 60.3681C48.4819 60.3681 46.7759 60.3681 46.1738 60.1673C43.0627 59.5649 35.9374 56.7535 35.9374 44.1024C35.9374 34.7647 40.5538 29.644 49.0841 29.644C57.7147 29.644 62.6322 34.8651 62.6322 44.002C62.6322 55.9503 56.9119 59.3641 51.9944 60.1673L49.1844 60.2677V60.3681Z" fill="white"/>
<path d="M49.0827 30.6477C58.5162 30.6477 61.6273 36.8729 61.6273 44.0017C61.6273 54.0423 57.4123 58.2593 51.7924 59.163C49.9591 59.3838 48.106 59.3838 46.2728 59.163C41.4557 58.1589 36.9396 53.9419 36.9396 44.1021C36.9396 36.8729 39.7496 30.6477 49.0827 30.6477V30.6477ZM49.0827 28.6396C39.9503 28.6396 34.9325 34.0615 34.9325 44.0017C34.9325 57.4561 42.5596 60.4682 45.9717 61.0707C46.6742 61.2715 47.9788 61.2715 49.1831 61.2715L52.1938 61.1711C57.4123 60.2674 63.6344 56.6528 63.6344 44.1021C63.6344 34.2623 58.3155 28.6396 49.0827 28.6396Z" fill="#223948"/>
</g>
<defs>
<clipPath id="clip0_10_20">
<rect width="100" height="100" fill="white"/>
</clipPath>
</defs>
</svg>
