<svg width="347" height="400" viewBox="0 0 347 400" fill="none" xmlns="http://www.w3.org/2000/svg">
<g clip-path="url(#clip0_67_128)">
<path d="M2.78516 276.057L198.201 388.87L209.441 382.381C209.441 382.204 208.7 377.581 207.658 373.793C206.811 370.717 206.041 367.917 206.027 367.774C205.713 364.565 204.748 362.923 203.784 361.28C202.818 359.635 201.853 357.99 201.537 354.774C201.147 350.791 199.7 347.336 198.253 343.884C197.92 343.089 197.587 342.295 197.268 341.494C193.42 331.904 184.605 327.893 175.664 323.826C170.266 321.369 164.821 318.892 160.397 315.154C158.729 313.74 157.195 312.14 155.663 310.542C153.651 308.443 151.642 306.347 149.338 304.684C146.255 302.485 142.72 301.114 139.176 299.74C136.143 298.564 133.104 297.385 130.338 295.684C126.122 293.049 122.681 289.222 119.26 285.417C114.566 280.195 109.909 275.015 103.338 273.014C100.996 272.303 98.5058 272.03 96.0137 271.757C94.6847 271.612 93.3552 271.466 92.0475 271.254C87.3192 270.32 82.6985 268.906 78.2575 267.034L78.0154 266.941C69.0946 263.521 60.0927 260.071 51.8175 255.324C49.823 254.02 47.6641 252.988 45.3975 252.254C41.0375 251.104 36.0675 252.354 31.2775 253.594C30.1349 253.893 28.8772 254.026 27.5954 254.162C25.2316 254.412 22.7857 254.671 20.8275 255.994C15.6105 259.517 7.48311 262.749 2.78517 262.749L2.78516 276.057Z" fill="#57AFD6"/>
<path d="M2.78223 287.161L188.443 394.497L201.679 386.855C200.623 385.025 199.493 385.51 198.444 383.852C197.39 382.188 196.331 380.514 196.316 380.324C196.001 377.12 195.374 375.533 194.747 373.945C194.119 372.355 193.491 370.765 193.176 367.554C192.706 362.664 192.176 357.694 190.496 353.434C186.649 343.844 177.834 339.833 168.893 335.766C163.494 333.309 158.05 330.832 153.626 327.094C151.958 325.68 150.424 324.08 148.892 322.481C146.88 320.382 144.871 318.287 142.566 316.624C139.488 314.424 135.95 313.053 132.403 311.678C129.371 310.503 126.332 309.324 123.566 307.624C119.351 304.989 115.91 301.162 112.489 297.357C107.795 292.135 103.138 286.955 96.5663 284.954C94.2329 284.243 91.7423 283.97 89.2523 283.698C87.9221 283.552 86.5921 283.406 85.2863 283.194C80.5547 282.26 75.9307 280.846 71.4863 278.974L71.0857 278.82C62.2168 275.421 53.2726 271.993 45.0563 267.264C43.0585 265.966 40.9004 264.934 38.6363 264.194C34.2763 263.044 29.2963 264.294 24.5063 265.534C23.3666 265.833 22.1105 265.966 20.8296 266.102C18.469 266.352 16.0239 266.611 14.0663 267.934C13.1417 268.549 11.5267 269.191 9.6483 269.939C7.46354 270.808 5.05482 271.732 2.78223 271.732L2.78223 287.161Z" fill="#80CFF3"/>
<path d="M2.73145 296.338L180.471 399.115L192.083 392.408C189.723 388.718 186.464 386.745 185.844 380.335C185.364 375.435 184.844 370.475 183.164 366.205C179.313 356.627 170.506 352.618 161.572 348.551C156.171 346.091 150.722 343.611 146.294 339.865C144.623 338.454 143.087 336.851 141.553 335.251C139.543 333.154 137.537 331.061 135.234 329.405C132.152 327.207 128.617 325.836 125.073 324.461C122.04 323.285 119.001 322.107 116.234 320.405C112.019 317.771 108.578 313.944 105.157 310.139C100.463 304.917 95.8057 299.737 89.2344 297.735C86.8921 297.018 84.4008 296.747 81.9077 296.476C80.5797 296.332 79.2512 296.187 77.9444 295.975C73.2172 295.037 68.597 293.624 64.1544 291.755L63.9126 291.663C54.9916 288.243 45.9896 284.793 37.7144 280.045C35.7199 278.742 33.561 277.71 31.2944 276.975C26.9344 275.825 21.9645 277.075 17.1745 278.315C15.7676 278.683 15.2937 280.332 13.8143 281.254C10.1219 283.554 2.79089 282.864 2.79089 282.864L2.73145 296.338Z" fill="#F2E8C0"/>
<path d="M181.711 398.414L179.253 396.042C178.053 394.692 177.903 394.202 177.333 391.612C176.263 386.752 174.663 386.612 173.593 381.772C172.773 378.062 171.933 374.282 170.113 370.942C163.563 358.882 147.413 356.502 136.603 348.052C133.043 345.272 130.053 341.802 126.323 339.262C121.133 335.722 114.813 334.172 109.463 330.872C100.463 325.342 94.5732 315.132 84.6432 311.572C81.5032 310.452 78.1532 310.072 74.9132 309.292C70.7856 308.178 66.7556 306.73 62.8632 304.962C54.8632 301.602 46.9232 298.232 39.4332 293.962C37.6385 292.814 35.7279 291.859 33.7332 291.112C29.9332 289.882 25.8232 290.392 21.8632 290.912C19.1832 291.272 11.1432 292.142 9.30319 293.342C6.44319 295.202 4.4432 294.328 2.7832 294.908L2.80192 301.623L176.074 401.662L181.711 398.414Z" fill="url(#paint0_linear_67_128)"/>
<path d="M345.986 124.605L150.57 11.7915L139.33 18.2809C139.33 18.4576 140.071 23.0806 141.114 26.8686C141.96 29.9443 142.731 32.7444 142.744 32.8878C143.059 36.0963 144.023 37.7388 144.988 39.3818C145.953 41.0263 146.919 42.6713 147.234 45.8878C147.624 49.871 149.072 53.3256 150.518 56.778C150.851 57.5726 151.184 58.367 151.504 59.1678C155.351 68.7574 164.167 72.7682 173.107 76.836C178.506 79.2923 183.95 81.7693 188.374 85.5078C190.043 86.9214 191.577 88.5218 193.109 90.12C195.121 92.2191 197.129 94.3144 199.434 95.9778C202.516 98.1765 206.052 99.5475 209.596 100.922C212.628 102.098 215.667 103.276 218.434 104.978C222.649 107.612 226.09 111.44 229.511 115.245C234.205 120.466 238.863 125.646 245.434 127.648C247.775 128.359 250.266 128.632 252.758 128.904C254.087 129.05 255.416 129.196 256.724 129.408C261.452 130.341 266.073 131.755 270.514 133.628L270.756 133.721C279.677 137.14 288.679 140.591 296.954 145.338C298.948 146.641 301.107 147.674 303.374 148.408C307.734 149.558 312.704 148.308 317.494 147.068C318.637 146.769 319.894 146.636 321.176 146.5C323.54 146.25 325.986 145.991 327.944 144.668C333.161 141.145 341.288 137.912 345.986 137.912L345.986 124.605Z" fill="#57AFD6"/>
<path d="M345.988 113.501L160.327 6.16447L147.091 13.8063C148.148 15.6368 149.278 15.1514 150.327 16.8093C151.38 18.4738 152.439 20.1475 152.454 20.3379C152.769 23.5412 153.396 25.1287 154.023 26.7166C154.651 28.3062 155.279 29.8962 155.594 33.1078C156.064 37.9978 156.594 42.9679 158.274 47.2279C162.121 56.8175 170.937 60.8283 179.878 64.8961C185.276 67.3523 190.72 69.8293 195.144 73.5679C196.813 74.9814 198.347 76.5819 199.879 78.1801C201.891 80.2792 203.899 82.3745 206.204 84.0379C209.283 86.2375 212.82 87.6087 216.367 88.9837C219.4 90.1591 222.439 91.3372 225.204 93.0379C229.42 95.6726 232.86 99.4996 236.281 103.305C240.976 108.526 245.633 113.706 252.204 115.708C254.538 116.418 257.028 116.691 259.518 116.964C260.848 117.11 262.178 117.255 263.484 117.468C268.216 118.401 272.84 119.815 277.284 121.688L277.685 121.841C286.554 125.241 295.498 128.669 303.714 133.398C305.712 134.695 307.87 135.727 310.134 136.468C314.494 137.618 319.474 136.368 324.264 135.128C325.404 134.829 326.66 134.696 327.941 134.56C330.301 134.31 332.747 134.05 334.704 132.728C335.629 132.113 337.244 131.47 339.122 130.723C341.307 129.854 343.716 128.929 345.988 128.929L345.988 113.501Z" fill="#80CFF3"/>
<path d="M346.039 104.323L168.3 1.54623L156.688 8.25332C159.048 11.9433 162.306 13.9161 162.926 20.3261C163.406 25.2261 163.926 30.1861 165.606 34.4561C169.457 44.0345 178.264 48.0438 187.198 52.1109C192.6 54.5702 198.048 57.0506 202.476 60.7961C204.147 62.2075 205.683 63.8101 207.218 65.4107C209.227 67.5072 211.234 69.6003 213.536 71.2561C216.618 73.4548 220.154 74.8258 223.698 76.2002C226.731 77.3762 229.769 78.5546 232.536 80.2561C236.752 82.8908 240.192 86.7178 243.613 90.523C248.308 95.7445 252.965 100.925 259.536 102.926C261.878 103.644 264.37 103.915 266.863 104.185C268.191 104.33 269.519 104.474 270.826 104.686C275.553 105.624 280.173 107.038 284.616 108.906L284.858 108.999C293.779 112.418 302.781 115.869 311.056 120.616C313.051 121.92 315.209 122.952 317.476 123.686C321.836 124.836 326.806 123.586 331.596 122.346C333.003 121.978 333.477 120.33 334.956 119.408C338.649 117.107 345.98 117.798 345.98 117.798L346.039 104.323Z" fill="#F2E8C0"/>
<path d="M167.061 2.24781L169.518 4.61971C170.718 5.96971 170.868 6.45971 171.438 9.04971C172.508 13.9097 174.108 14.0497 175.178 18.8897C175.998 22.5997 176.838 26.3797 178.658 29.7197C185.208 41.7797 201.358 44.1597 212.168 52.6097C215.728 55.3897 218.718 58.8597 222.448 61.3997C227.638 64.9397 233.958 66.4897 239.308 69.7897C248.308 75.3197 254.198 85.5297 264.128 89.0897C267.268 90.2097 270.618 90.5898 273.858 91.3698C277.986 92.4834 282.016 93.9316 285.908 95.6998C293.908 99.0598 301.848 102.43 309.338 106.7C311.133 107.847 313.044 108.802 315.038 109.55C318.838 110.78 322.948 110.27 326.908 109.75C329.588 109.39 337.628 108.52 339.468 107.32C342.328 105.46 344.328 106.334 345.988 105.754L345.97 99.0386L172.698 -1.00002L167.061 2.24781Z" fill="url(#paint1_linear_67_128)"/>
</g>
<defs>
<linearGradient id="paint0_linear_67_128" x1="105.356" y1="323.141" x2="89.0609" y2="351.365" gradientUnits="userSpaceOnUse">
<stop stop-color="#E8CF96"/>
<stop offset="0.95" stop-color="#E0B568"/>
</linearGradient>
<linearGradient id="paint1_linear_67_128" x1="243.416" y1="77.5209" x2="259.711" y2="49.2971" gradientUnits="userSpaceOnUse">
<stop stop-color="#E8CF96"/>
<stop offset="0.95" stop-color="#E0B568"/>
</linearGradient>
<clipPath id="clip0_67_128">
<rect width="346.04" height="399.93" fill="white" transform="translate(-0.000976562)"/>
</clipPath>
</defs>
</svg>
