<svg width="57" height="79" viewBox="0 0 57 79" fill="none" xmlns="http://www.w3.org/2000/svg">
<path d="M54.9993 6.00011V9.07086C54.9993 9.61364 54.5701 10.0574 54.0275 10.0676C46.9432 10.2001 34.9598 10.0468 33.8034 10.0468C32.2894 10.0468 34.0048 8.00933 33.5002 7C33.1119 6.22351 28.1505 7.06804 25.5265 7.73236C25.3472 7.77775 25.2241 7.93956 25.2241 8.12452C25.2241 8.34999 25.4118 8.5323 25.6372 8.53686C30.5249 8.63575 30.6932 10.5108 30.316 12.2589C30.1788 12.8948 30.6262 13.4816 31.2765 13.4607C34.0487 13.3717 40.4863 13.1883 42.7618 13.5377C42.9198 13.562 43.0671 13.6312 43.1884 13.7354C45.1849 15.4492 44.6862 17.0511 44.2008 17.7549C44.0835 17.9249 43.9811 18.109 43.9472 18.3127C42.1006 29.398 43.5212 41.3406 44.8138 46.76C44.9189 47.2007 45.3154 47.5 45.7684 47.5H50.5002C51.0524 47.5 51.5002 47.9477 51.5002 48.5V52.179C51.5002 52.3223 51.384 52.4385 51.2407 52.4385C51.0901 52.4385 50.971 52.5653 50.9818 52.7156C51.1542 55.1137 51.4428 59.1524 50.962 63C49.9932 66.8744 44.9576 73.4329 40.8922 73.9673C40.6414 74.0003 40.4006 74.1013 40.2168 74.2751C37.0988 77.2222 36.1169 75.3886 32.5916 75.9841C32.5318 75.9942 32.4701 76.0113 32.4131 76.0323C28.6268 77.4289 26.6958 76.5943 24.3582 74.7823C24.1296 74.6051 23.8353 74.5312 23.5498 74.5775C18.4012 75.4123 17.5696 73.7083 17.0002 72C16.7432 71.2292 16.0513 63.1819 15.7839 62.4147C15.5341 61.6981 15.2891 61.1445 15.0002 61C14.3606 60.6802 12.9774 60.0173 11.9682 59.2856C11.7279 59.1114 11.5981 58.8275 11.5981 58.5307V57.4695C11.5981 57.1609 11.4566 56.8734 11.2211 56.6739C8.07532 54.009 2.24757 46.502 3.01879 35.2799C4.00016 21 11.5981 21 10.0838 19.1307C8.15874 16.7542 15.0841 14.5586 19.4671 14.0913C20.1867 14.0145 20.6616 13.2521 20.4766 12.5525C19.7589 9.83887 21.306 9.04973 22.8777 8.69181C23.3544 8.58327 23.7096 8.17449 23.7096 7.68565V4.33775C23.7096 3.84693 24.0628 3.42884 24.5478 3.35338C29.9631 2.51081 39.3542 1.32749 39.3542 2.47679C39.3542 3.27177 39.785 5.00011 40.58 5.00011H53.9993C54.5515 5.00011 54.9993 5.44782 54.9993 6.00011Z" fill="black" fill-opacity="0.2" stroke="url(#paint0_linear_320_385105)" stroke-width="4"/>
<defs>
<linearGradient id="paint0_linear_320_385105" x1="28.9742" y1="2" x2="28.9742" y2="76.7326" gradientUnits="userSpaceOnUse">
<stop stop-color="#FCFAF5"/>
<stop offset="1" stop-color="#E2D7C4"/>
</linearGradient>
</defs>
</svg>
