<svg width="132" height="132" viewBox="0 0 132 132" fill="none" xmlns="http://www.w3.org/2000/svg">
<g clip-path="url(#clip0_7_52)">
<path opacity="0.5" d="M115.187 131.9H21.8164C17.3216 131.9 13.0094 130.113 9.82168 126.929C6.634 123.746 4.82991 119.425 4.80347 114.909V21.112C4.81657 18.8676 5.26961 16.6478 6.13672 14.5793C7.00382 12.5108 8.26802 10.6341 9.85711 9.05644C11.4462 7.47875 13.3291 6.23095 15.3982 5.38428C17.4674 4.5376 19.6823 4.10864 21.9165 4.12188H115.287C119.73 4.20058 123.966 6.02214 127.089 9.1971C130.212 12.3721 131.975 16.6485 132 21.112V114.909C132 119.442 130.208 123.789 127.017 126.994C123.827 130.2 119.499 132 114.987 132L115.187 131.9Z" fill="black"/>
<path d="M110.284 127.778H16.9128C12.4181 127.751 8.11646 125.939 4.94753 122.737C1.77861 119.534 -7.77632e-05 115.202 2.54989e-09 110.687V16.8896C0.0523995 12.4091 1.85425 8.12859 5.01754 4.96964C8.18084 1.81069 12.4525 0.0260481 16.9128 4.09858e-08H110.284C114.761 -0.000311257 119.059 1.77268 122.243 4.93444C125.428 8.0962 127.244 12.3918 127.297 16.8896V110.788C127.27 115.303 125.466 119.624 122.278 122.808C119.091 125.991 114.779 127.778 110.284 127.778Z" fill="#EAE9E4"/>
<path d="M28.4215 97.1153C32.8248 96.9142 35.4268 102.946 32.1243 105.962C29.122 109.28 22.9173 106.766 23.2175 102.343C23.1893 101.649 23.3046 100.956 23.5561 100.309C23.8077 99.6622 24.19 99.0745 24.679 98.5833C25.1679 98.0921 25.753 97.7081 26.3971 97.4554C27.0413 97.2027 27.7306 97.0869 28.4215 97.1153ZM46.0349 97.1153C50.4382 96.9142 53.0402 102.946 49.7377 105.962C46.7354 109.28 40.5307 106.766 40.8309 102.343C40.8027 101.649 40.918 100.956 41.1695 100.309C41.421 99.6622 41.8033 99.0745 42.2923 98.5833C42.7813 98.0921 43.3663 97.7081 44.0105 97.4554C44.6546 97.2027 45.3439 97.0869 46.0349 97.1153ZM63.6482 97.1153C68.0516 96.9142 70.6536 102.946 67.351 105.962C64.3488 109.28 58.1441 106.766 58.4443 102.343C58.416 101.649 58.5313 100.956 58.7829 100.309C59.0344 99.6622 59.4167 99.0745 59.9057 98.5833C60.3947 98.0921 60.9797 97.7081 61.6238 97.4554C62.268 97.2027 62.9573 97.0869 63.6482 97.1153ZM81.2616 97.1153C85.5649 96.9142 88.2669 102.946 84.9644 105.962C81.9621 109.28 75.7574 106.766 76.0577 102.343C76.0294 101.649 76.1447 100.956 76.3962 100.309C76.6478 99.6622 77.0301 99.0745 77.5191 98.5833C78.008 98.0921 78.5931 97.7081 79.2372 97.4554C79.8814 97.2027 80.5707 97.0869 81.2616 97.1153ZM98.875 97.1153C103.178 96.9142 105.88 102.946 102.578 105.962C99.5755 109.28 93.3708 106.766 93.671 102.343C93.6428 101.649 93.7581 100.956 94.0096 100.309C94.2611 99.6622 94.6434 99.0745 95.1324 98.5833C95.6214 98.0921 96.2064 97.7081 96.8506 97.4554C97.4947 97.2027 98.184 97.0869 98.875 97.1153Z" fill="#BA1529"/>
<path d="M88.3672 68.7649C88.3672 71.1777 88.067 73.3895 87.3665 75.2996C86.1553 78.9062 83.7999 82.0141 80.6614 84.1465C79.0602 85.1519 77.3589 86.0567 75.5575 86.6599C68.7912 89.0401 61.4685 89.3203 54.5415 87.4641C51.5393 86.6599 49.0374 85.4535 46.6355 83.7444C44.3411 82.0978 42.4292 79.9714 41.0313 77.5113C39.5308 74.8466 38.7704 71.8259 38.8296 68.7649C38.8773 64.5551 40.4011 60.4969 43.1329 57.3042C44.1336 56.2988 45.1344 55.394 46.4354 54.6903C44.5384 53.0304 43.0266 50.973 42.0064 48.6629C40.9863 46.3528 40.4826 43.8461 40.5309 41.3194C40.5309 38.3034 41.2314 35.4884 42.5324 33.2767C43.9335 30.8639 45.7349 28.9538 47.8365 27.4458C50.0792 25.8201 52.5845 24.5957 55.2421 23.8266C61.5168 22.0429 68.2029 22.3964 74.2565 24.8319C75.8577 25.4351 77.4589 26.3399 78.9601 27.3453C81.8305 29.4457 84.0229 32.3474 85.2649 35.6895C86.6972 39.9605 86.5192 44.611 84.7645 48.7588C83.7637 50.9706 82.3627 52.9812 80.3612 54.7908C83.2634 56.1983 85.3649 58.1084 86.5659 60.5212C87.7668 62.934 88.3672 65.5479 88.3672 68.7649ZM70.954 45.6423C70.954 44.637 70.7539 43.6316 70.2535 42.9279C69.8532 42.1236 69.2527 41.4199 68.5522 40.9172C67.1382 39.7589 65.3728 39.1205 63.5484 39.1076C61.6976 39.1438 59.9078 39.7784 58.4445 40.9172C57.744 41.4199 57.1435 42.1236 56.7432 42.9279C56.2873 43.7411 56.0477 44.6587 56.0477 45.592C56.0477 46.5254 56.2873 47.4429 56.7432 48.2562C57.6489 49.8181 59.1181 50.97 60.8463 51.4732C62.1335 51.904 63.5045 52.0193 64.845 51.8094C66.1855 51.5996 67.4566 51.0707 68.5522 50.2668C69.2527 49.6636 69.8532 49.0604 70.2535 48.2562C70.7539 47.4519 70.954 46.5471 70.954 45.5418V45.6423ZM70.8539 66.6537C70.8539 65.6484 70.6538 64.7436 70.1534 63.9394C69.7531 63.1351 69.1526 62.5319 68.5522 61.9287C67.8517 61.426 67.051 60.9234 66.1504 60.7223C64.8811 60.2831 63.5239 60.1634 62.1979 60.3737C60.8718 60.584 59.6174 61.118 58.5446 61.9287C57.8441 62.5319 57.2436 63.1351 56.7432 63.9394C56.3429 64.7436 56.1428 65.6484 56.1428 66.6537C56.1428 67.6591 56.3429 68.4633 56.7432 69.1671C57.2436 69.9713 57.744 70.6751 58.5446 71.1777C59.6164 71.9898 60.8661 72.5323 62.1894 72.7596C63.5126 72.987 64.8708 72.8927 66.1504 72.4847C67.1511 72.1831 67.8517 71.6804 68.5522 71.1777C69.2527 70.6751 69.7531 69.9713 70.1534 69.1671C70.6538 68.4633 70.8539 67.5585 70.8539 66.6537Z" fill="#CC0000"/>
</g>
<defs>
<clipPath id="clip0_7_52">
<rect width="132" height="132" fill="white"/>
</clipPath>
</defs>
</svg>
