<svg width="95" height="95" viewBox="0 0 95 95" fill="none" xmlns="http://www.w3.org/2000/svg">
<g clip-path="url(#clip0_1542_160478)">
<path d="M83.2018 94.2939H15.2987C8.84866 94.2939 0.587646 89.1072 0.587646 82.7066L1.34564 14.5944C1.34564 8.1958 8.09066 3.00847 14.5407 3.00847L83.2025 0C89.6518 0 94.8815 8.1958 94.8815 14.5944V82.7066C94.8809 89.1072 89.6512 94.2939 83.2018 94.2939V94.2939Z" fill="url(#paint0_linear_1542_160478)"/>
<path d="M12.2162 88.5477C6.92538 88.5477 2.62085 84.2439 2.62085 78.955V11.6196C2.62085 6.32943 6.92472 2.0249 12.2162 2.0249H79.5503C84.8405 2.0249 89.1443 6.32943 89.1443 11.6196V78.955C89.1443 84.2439 84.8405 88.5477 79.5503 88.5477H12.2162Z" fill="url(#paint1_radial_1542_160478)"/>
<path d="M79.55 3.88338C83.8161 3.88338 87.2866 7.35454 87.2866 11.62V78.9555C87.2866 83.2203 83.8168 86.6908 79.55 86.6908H12.2158C7.94902 86.6908 4.47786 83.221 4.47786 78.9555V11.62C4.47786 7.35454 7.94902 3.88338 12.2158 3.88338H79.55V3.88338ZM79.55 0.167969H12.2158C5.89108 0.167969 0.762451 5.29528 0.762451 11.62V78.9555C0.762451 85.2802 5.88976 90.4062 12.2158 90.4062H79.55C85.8747 90.4062 91.002 85.2802 91.002 78.9555V11.62C91.002 5.29528 85.874 0.167969 79.55 0.167969V0.167969Z" fill="#F6FFFF"/>
</g>
<defs>
<linearGradient id="paint0_linear_1542_160478" x1="47.734" y1="0.000267837" x2="47.734" y2="94.294" gradientUnits="userSpaceOnUse">
<stop stop-color="#9ED1EE"/>
<stop offset="0.2109" stop-color="#99C8E6"/>
<stop offset="0.5547" stop-color="#8BB0D1"/>
<stop offset="0.9866" stop-color="#7588AE"/>
<stop offset="1" stop-color="#7487AD"/>
</linearGradient>
<radialGradient id="paint1_radial_1542_160478" cx="0" cy="0" r="1" gradientUnits="userSpaceOnUse" gradientTransform="translate(45.8826 45.2863) rotate(-0.489437) scale(57.4176 57.4171)">
<stop stop-color="#F9ED32"/>
<stop offset="0.0572917" stop-color="#F8E932"/>
<stop offset="0.208333" stop-color="#F4DC32"/>
<stop offset="0.494792" stop-color="#EEC832"/>
<stop offset="0.854167" stop-color="#E6AB33"/>
<stop offset="1" stop-color="#DF9133"/>
</radialGradient>
<clipPath id="clip0_1542_160478">
<rect width="94.2939" height="94.2939" fill="white" transform="translate(0.587646)"/>
</clipPath>
</defs>
</svg>
