<svg width="132" height="132" viewBox="0 0 132 132" fill="none" xmlns="http://www.w3.org/2000/svg">
<g clip-path="url(#clip0_7_68)">
<path opacity="0.5" d="M115.187 131.9H21.8164C17.3216 131.9 13.0094 130.113 9.82168 126.929C6.634 123.746 4.82991 119.425 4.80347 114.909V21.112C4.81657 18.8676 5.26961 16.6478 6.13672 14.5793C7.00382 12.5108 8.26802 10.6341 9.85711 9.05644C11.4462 7.47875 13.3291 6.23095 15.3982 5.38428C17.4674 4.5376 19.6823 4.10864 21.9165 4.12188H115.287C119.73 4.20058 123.966 6.02214 127.089 9.1971C130.212 12.3721 131.975 16.6485 132 21.112V114.909C132 119.442 130.208 123.789 127.017 126.994C123.827 130.2 119.499 132 114.987 132L115.187 131.9Z" fill="black"/>
<path d="M110.284 127.778H16.9128C12.4181 127.751 8.11646 125.939 4.94753 122.737C1.77861 119.534 -7.77632e-05 115.202 2.54989e-09 110.687V16.8896C0.0523995 12.4091 1.85425 8.12859 5.01754 4.96964C8.18084 1.81069 12.4525 0.0260481 16.9128 4.09858e-08H110.284C114.761 -0.000311257 119.059 1.77268 122.243 4.93444C125.428 8.0962 127.244 12.3918 127.297 16.8896V110.788C127.27 115.303 125.466 119.624 122.278 122.808C119.091 125.991 114.779 127.778 110.284 127.778Z" fill="#EAE9E4"/>
<path d="M54.9417 97.1153C59.245 96.9142 61.9471 102.946 58.5445 105.962C55.5422 109.28 49.3375 106.766 49.6377 102.343C49.6095 101.649 49.7248 100.956 49.9763 100.309C50.2278 99.6622 50.6101 99.0745 51.0991 98.5833C51.5881 98.0921 52.1731 97.7081 52.8173 97.4554C53.4614 97.2027 54.1507 97.0869 54.8417 97.1153H54.9417ZM72.455 97.1153C76.7583 96.9142 79.4603 102.946 76.1578 105.962C73.1556 109.28 66.9509 106.766 67.2511 102.343C67.2228 101.649 67.3381 100.956 67.5897 100.309C67.8412 99.6622 68.2235 99.0745 68.7125 98.5833C69.2015 98.0921 69.7865 97.7081 70.4306 97.4554C71.0748 97.2027 71.7641 97.0869 72.455 97.1153Z" fill="#004405"/>
<path d="M60.746 24.9321L58.2441 87.7653L39.0295 86.8605L40.0303 45.0387L33.0249 49.9649L26.4199 34.8849L40.9309 23.9268L60.9461 24.8316L60.746 24.9321ZM96.4731 24.9321L93.9712 87.7653L74.7566 86.8605L75.7574 45.0387L68.7521 49.9649L62.147 34.8849L76.4579 23.9268L96.4731 24.8316V24.9321Z" fill="#004405"/>
</g>
<defs>
<clipPath id="clip0_7_68">
<rect width="132" height="132" fill="white"/>
</clipPath>
</defs>
</svg>
