<svg xmlns="http://www.w3.org/2000/svg" width="115" height="197" fill="none"  xmlns:v="https://vecta.io/nano"><path d="M6.468 192.002A2.47 2.47 0 0 1 4 189.534V42.467A2.47 2.47 0 0 1 6.468 40h101.265a2.47 2.47 0 0 1 2.468 2.467v147.067a2.47 2.47 0 0 1-2.468 2.468H6.468z" fill="url(#A)"/><path d="M106.201 44v144.002H8V44h98.201zm1.532-8H6.468A6.47 6.47 0 0 0 0 42.467v147.067a6.47 6.47 0 0 0 6.468 6.468h101.265a6.47 6.47 0 0 0 6.468-6.468V42.467A6.47 6.47 0 0 0 107.733 36z" fill="#66c2e2"/><path d="M107.733 40a2.47 2.47 0 0 1 2.468 2.467v147.067a2.47 2.47 0 0 1-2.468 2.468H6.468A2.47 2.47 0 0 1 4 189.534V42.467A2.47 2.47 0 0 1 6.468 40h101.265zm0-4H6.468A6.47 6.47 0 0 0 0 42.467v147.067a6.47 6.47 0 0 0 6.468 6.468h101.265a6.47 6.47 0 0 0 6.468-6.468V42.467A6.47 6.47 0 0 0 107.733 36z" fill="#414042"/><path d="M55.947 150.817c-1.616 0-3.193-.416-4.562-1.206-2.963-1.708-4.733-4.743-4.733-8.118s1.769-6.41 4.733-8.119c1.369-.789 2.947-1.206 4.562-1.206s3.193.417 4.562 1.207c2.963 1.708 4.732 4.743 4.732 8.118s-1.769 6.41-4.732 8.119a9.14 9.14 0 0 1-4.562 1.205z" fill="url(#B)"/><path d="M55.947 133.168c1.411 0 2.822.358 4.062 1.073 5.642 3.253 5.642 11.251 0 14.504-1.24.716-2.651 1.073-4.062 1.073s-2.822-.358-4.062-1.073c-5.643-3.253-5.643-11.251 0-14.504 1.241-.715 2.651-1.073 4.063-1.073zm0-2c-1.791 0-3.541.464-5.062 1.34-3.276 1.89-5.233 5.248-5.233 8.985s1.957 7.096 5.234 8.985c1.52.877 3.27 1.34 5.061 1.34s3.541-.463 5.061-1.34c3.276-1.889 5.233-5.248 5.233-8.985s-1.956-7.095-5.233-8.985c-1.52-.876-3.27-1.34-5.061-1.34z" fill="#223948"/><path d="M49.458 122.987a1.25 1.25 0 0 1-.896-.378c-.117-.119-.209-.26-.27-.415a1.26 1.26 0 0 1-.089-.488c.135-6.086 4.526-11.731 8.592-14.985 4.913-3.929 7.845-8.173 7.845-11.353 0-5.346-4.952-6.144-7.905-6.144-5.013 0-8.485 2.559-10.615 7.824-.092.23-.252.428-.457.567s-.448.213-.697.213c-.216 0-.428-.057-.616-.165l-11.118-6.408c-.263-.152-.461-.394-.559-.682s-.088-.6.027-.881c4-9.756 13.169-15.581 24.525-15.581 5.999 0 11.375 1.816 15.979 5.396s6.943 8.591 6.943 14.882c0 8.676-5.621 14.012-10.138 18.301-3.322 3.154-6.191 5.877-6.302 9.102a1.23 1.23 0 0 1-1.232 1.197H49.458z" fill="url(#C)"/><path d="M57.224 75.109c5.871 0 10.961 1.76 15.365 5.186s6.557 8.123 6.557 14.092c0 14.452-16.148 18.907-16.439 27.368-.001.062-.026.12-.069.164s-.102.067-.164.068H49.457c-.068-.001-.133-.028-.181-.077s-.075-.113-.075-.182c.126-5.682 4.362-11.141 8.217-14.226 3.916-3.132 8.221-7.829 8.221-12.134 0-4.6-3.326-7.144-8.905-7.144-5.396 0-9.276 2.846-11.542 8.448-.018.046-.05.085-.09.112s-.088.043-.137.043c-.041 0-.081-.011-.116-.031l-11.119-6.408c-.053-.031-.092-.08-.112-.138s-.018-.121.005-.178c3.96-9.657 13.105-14.963 23.601-14.963zm0-2c-5.615 0-10.908 1.438-15.304 4.16-4.566 2.826-8.075 6.991-10.147 12.044a2.26 2.26 0 0 0 .96 2.808l11.118 6.408a2.24 2.24 0 0 0 1.848.177 2.24 2.24 0 0 0 1.346-1.278c1.961-4.85 5.13-7.204 9.69-7.204 3.15 0 6.905.892 6.905 5.144 0 2.879-2.792 6.831-7.47 10.571-4.242 3.396-8.825 9.315-8.968 15.745a2.27 2.27 0 0 0 .158.876c.11.278.275.532.484.747s.461.385.738.501.574.178.874.178h13.018c.58.001 1.137-.223 1.554-.627s.66-.952.678-1.532c.097-2.819 2.828-5.412 5.991-8.415 4.655-4.419 10.449-9.92 10.449-19.025 0-6.615-2.466-11.888-7.329-15.671-4.784-3.72-10.367-5.607-16.593-5.607z" fill="#223948"/><path d="M81.005 27.889c-.002 2.285-1.855 4.146-4.134 4.146h-6.802v19.789c-.001.957-.382 1.874-1.058 2.551s-1.594 1.057-2.551 1.058H47.542c-.957-.001-1.874-.382-2.551-1.058s-1.057-1.594-1.058-2.551V32.035H37.13c-1.098-.003-2.149-.441-2.925-1.218s-1.21-1.83-1.209-2.928a4.05 4.05 0 0 1 1.023-2.695L53.889 2.408A4.13 4.13 0 0 1 57.001.995a4.13 4.13 0 0 1 3.111 1.413l19.871 22.786c.66.743 1.023 1.702 1.022 2.695z" fill="url(#D)"/><path d="M33.991 27.89c0-.706.241-1.427.778-2.042L54.64 3.064A3.13 3.13 0 0 1 57 1.99a3.13 3.13 0 0 1 2.361 1.074l19.871 22.787c.5.562.777 1.288.778 2.04 0 1.617-1.266 3.151-3.138 3.151h-7.798v20.783c0 .693-.275 1.358-.766 1.848s-1.155.765-1.848.765H47.542c-.693 0-1.358-.275-1.848-.765s-.766-1.155-.766-1.848V31.04h-7.799c-1.872 0-3.137-1.534-3.137-3.15zm-1.991 0c0 2.835 2.302 5.142 5.129 5.142h5.808v18.793a4.61 4.61 0 0 0 4.605 4.605h18.918a4.61 4.61 0 0 0 4.605-4.605V33.031h5.807c2.829 0 5.13-2.306 5.13-5.142a5.1 5.1 0 0 0-1.268-3.349L60.862 1.755c-.481-.551-1.075-.993-1.741-1.296S57.732 0 57 0s-1.455.157-2.121.459-1.259.745-1.741 1.296L33.268 24.54c-.813.927-1.263 2.117-1.267 3.349z" fill="#4f0c16"/><defs><radialGradient id="A" cx="0" cy="0" r="1" gradientUnits="userSpaceOnUse" gradientTransform="translate(57.0988 116.001) rotate(-90) scale(65.5585 67.6236)"><stop stop-color="#32b4ba"/><stop offset=".163" stop-color="#30abba"/><stop offset=".429" stop-color="#2b93ba"/><stop offset=".762" stop-color="#236bba"/><stop offset="1" stop-color="#1d4bba"/></radialGradient><linearGradient id="B" x1="55.947" y1="150.817" x2="55.947" y2="132.168" gradientUnits="userSpaceOnUse"><stop stop-color="#70aefe"/><stop offset=".16" stop-color="#83bcfe"/><stop offset=".527" stop-color="#abd7fe"/><stop offset=".82" stop-color="#c3e9fe"/><stop offset="1" stop-color="#cceffe"/></linearGradient><linearGradient id="C" x1="56.377" y1="122.987" x2="56.377" y2="74.109" gradientUnits="userSpaceOnUse"><stop stop-color="#70aefe"/><stop offset=".16" stop-color="#83bcfe"/><stop offset=".527" stop-color="#abd7fe"/><stop offset=".82" stop-color="#c3e9fe"/><stop offset="1" stop-color="#cceffe"/></linearGradient><linearGradient id="D" x1="37.222" y1="19.484" x2="76.279" y2="42.034" gradientUnits="userSpaceOnUse"><stop stop-color="#ec6f66"/><stop offset=".008" stop-color="#ec6d65"/><stop offset=".17" stop-color="#ec504d"/><stop offset=".341" stop-color="#ec393b"/><stop offset=".525" stop-color="#ec292e"/><stop offset=".731" stop-color="#ec1f26"/><stop offset="1" stop-color="#ec1c24"/></linearGradient></defs></svg>