<svg viewBox="0 0 740 250" width="740px" height="250px" fill="none" xmlns="http://www.w3.org/2000/svg">
<path d="M 626.543 110.408 L 619.5 110.408 L 619.5 116.359 L 619.5 225.86 C 619.5 231.776 625.176 236.572 632.177 236.572 L 659.544 236.572 L 677.694 236.572 L 684.737 236.572 L 727.139 236.572 C 730.051 236.572 732.182 235.24 733.349 233.93 C 734.514 232.622 735.021 231.079 734.999 229.624 C 734.864 220.683 732.909 211.834 729.223 203.543 C 725.4 194.942 719.781 187.092 712.658 180.455 C 709.953 177.935 707.051 175.607 703.975 173.49 C 707.051 171.373 709.953 169.046 712.658 166.525 C 719.781 159.888 725.4 152.038 729.223 143.438 C 732.909 135.146 734.864 126.297 734.999 117.356 C 735.021 115.901 734.514 114.359 733.349 113.051 C 732.182 111.74 730.051 110.408 727.139 110.408 L 684.737 110.408 L 677.694 110.408 L 657.894 110.408 L 650.851 110.408 L 626.543 110.408 Z" fill="#EEE7DA" stroke="#3A3A37" stroke-width="10" style="" transform="matrix(1, 0, 0, 1, 0, -2.842170943040401e-14)"/>
<path d="M 113.457 110.408 L 120.5 110.408 L 120.5 116.359 L 120.5 225.86 C 120.5 231.776 114.824 236.572 107.823 236.572 L 80.457 236.572 L 62.306 236.572 L 55.263 236.572 L 12.861 236.572 C 9.949 236.572 7.818 235.24 6.651 233.93 C 5.486 232.622 4.979 231.079 5.001 229.624 C 5.136 220.683 7.091 211.834 10.777 203.543 C 14.6 194.942 20.219 187.092 27.342 180.455 C 30.047 177.935 32.949 175.607 36.025 173.49 C 32.949 171.373 30.047 169.046 27.342 166.525 C 20.219 159.888 14.6 152.038 10.777 143.438 C 7.091 135.146 5.136 126.297 5.001 117.356 C 4.979 115.901 5.486 114.359 6.651 113.051 C 7.818 111.74 9.949 110.408 12.861 110.408 L 55.263 110.408 L 62.306 110.408 L 82.106 110.408 L 89.149 110.408 L 113.457 110.408 Z" fill="#EEE7DA" stroke="#3A3A37" stroke-width="10" style="" transform="matrix(1, 0, 0, 1, 0, -2.842170943040401e-14)"/>
<rect x="70" y="12" width="600" height="197.657" rx="30" fill="url(#paint0_radial)" stroke="#3A3A37" stroke-width="10" style="" transform="matrix(1, 0, 0, 1, 0, -2.842170943040401e-14)"/>
<rect x="80" y="21.252" width="580" height="179.994" rx="20" stroke="#FAF8F2" stroke-width="10" style="" transform="matrix(1, 0, 0, 1, 0, -2.842170943040401e-14)"/>
<defs>
<radialGradient id="paint0_radial" cx="0" cy="0" r="1" gradientUnits="userSpaceOnUse" gradientTransform="matrix(0, 94.623215, -295, 0, 370, 110.82869)">
<stop offset="0.0729" stop-color="#FCFAF5"/>
<stop offset="0.9999" stop-color="#EDE5D6"/>
</radialGradient>
</defs>
</svg>