<svg xmlns="http://www.w3.org/2000/svg" width="130" height="130"><path fill="none" stroke="#000" stroke-width="5" stroke-linejoin="round" stroke-miterlimit="10" d="M19.125 37.5c-5.438.25-6.375 4.625-6.375 4.625L5.5 77.313c-.125 2.063 1.063 4.875 1.063 4.875s1.938 3.938 3.813 7.375 5.5 3 5.5 3 96.188 0 99.063-.063 4.375-2.313 4.375-2.313 2.938-5.813 3.75-7.438 1.313-3.25 1.5-4.125-7.375-36.563-7.375-36.563-1.344-4.5-6.438-4.625l-91.626.064z"/><linearGradient id="a" gradientUnits="userSpaceOnUse" x1="64.977" y1="76.408" x2="64.977" y2="91.125"><stop offset="0" stop-color="#d5d5d5"/><stop offset=".167" stop-color="#d0d0d0"/><stop offset=".355" stop-color="#c3c3c3"/><stop offset=".554" stop-color="#acacac"/><stop offset=".76" stop-color="#8d8d8d"/><stop offset=".97" stop-color="#646464"/><stop offset="1" stop-color="#5e5e5e"/></linearGradient><path fill="url(#a)" d="M16.749 91.084l-.448.004c-1.599 0-3.397-.146-4.522-1.904-.402-.629-3.836-6.967-4.32-9.002-.281-1.18.089-1.971.449-2.426.946-1.199 2.727-1.299 4.468-1.299l43.281-.034c.067-.009.135-.015.203-.015l9.118.008 9.116-.008c.069 0 .139.006.207.015l43.278.034c1.74 0 3.521.1 4.467 1.299.36.455.73 1.246.449 2.426-.484 2.035-3.918 8.373-4.32 9.002-1.125 1.758-2.924 1.904-4.521 1.904l-.48-.005-47.506.042-48.919-.041z"/><path fill="#4F4F4F" d="M74.094 77.908v.015l43.484.034c1.968 0 3.875.127 3.458 1.877s-3.732 7.928-4.125 8.541c-.616.963-1.516 1.213-3.259 1.213-.144 0-.294-.001-.449-.004l-47.537.041-48.916-.041c-.156.003-.306.004-.449.004-1.742 0-2.643-.25-3.259-1.213-.393-.613-3.708-6.791-4.125-8.541s1.49-1.877 3.458-1.877l43.484-.034v-.015l9.117.008 9.118-.008m-18.235-3c-.099 0-.196.006-.293.015l-43.193.034c-1.558 0-4.167 0-5.644 1.869-.799 1.012-1.059 2.327-.73 3.703.562 2.359 4.2 8.969 4.516 9.463 1.662 2.596 4.447 2.596 5.786 2.596.153 0 .313-.001.478-.004l48.885.041 47.512-.041c.165.003.324.004.478.004 1.339 0 4.124 0 5.785-2.596.316-.494 3.955-7.104 4.517-9.463.328-1.376.068-2.691-.73-3.703-1.477-1.869-4.086-1.869-5.646-1.869l-43.194-.034a3.093 3.093 0 00-.29-.015h-.002l-9.117.008-9.113-.008h-.005z"/><g><linearGradient id="b" gradientUnits="userSpaceOnUse" x1="65.001" y1="82.103" x2="65.001" y2="38.982"><stop offset="0" stop-color="#d5d5d5"/><stop offset=".167" stop-color="#d0d0d0"/><stop offset=".355" stop-color="#c3c3c3"/><stop offset=".554" stop-color="#acacac"/><stop offset=".76" stop-color="#8d8d8d"/><stop offset=".97" stop-color="#646464"/><stop offset="1" stop-color="#5e5e5e"/></linearGradient><path fill="url(#b)" d="M10.992 82.104c-2.752 0-3.984-2.08-3.984-4.141 0-.101.01-.201.03-.299l7.143-35.132c.473-2.134 2.576-3.55 5.238-3.55h91.102c2.507 0 4.241 1.1 5.154 3.267.038.091.067.185.087.282l7.024 34.39c.382.966.229 2.222-.415 3.271-.744 1.215-1.989 1.911-3.417 1.911H10.992z"/><path fill="#4F4F4F" d="M110.521 40.482c2.097 0 3.167.913 3.771 2.349l7.057 34.546c.497.976-.299 3.227-2.395 3.227H10.992c-2.096 0-2.484-1.658-2.484-2.641l7.143-35.132c.289-1.303 1.672-2.349 3.769-2.349h91.101m0-3H19.419c-3.382 0-6.073 1.889-6.697 4.699l-.011.052-7.143 35.132c-.04.197-.061.396-.061.598 0 3.321 2.255 5.641 5.484 5.641h107.962c1.961 0 3.673-.957 4.696-2.627.854-1.396 1.064-3.09.584-4.463l-7.003-34.283a2.986 2.986 0 00-.175-.563c-1.151-2.738-3.411-4.186-6.534-4.186z"/></g></svg>