<svg xmlns="http://www.w3.org/2000/svg" width="94.568" height="94.568"><path d="M69.617 15.321H24.95c-2.099 0-3.814-1.718-3.814-3.816V5.53c0-2.098 1.715-3.812 3.814-3.812h44.667c2.097 0 3.815 1.714 3.815 3.812v5.975c.003 2.098-1.715 3.816-3.815 3.816zM69.617 92.851H24.95c-2.099 0-3.814-1.717-3.814-3.816v-5.973c0-2.098 1.715-3.812 3.814-3.812h44.667c2.097 0 3.815 1.715 3.815 3.812v5.973c.003 2.097-1.715 3.816-3.815 3.816z" fill="#102733"/><path d="M56.805 45.423l7.188-6.56c.602-.376.968-1.032.968-1.739V22.701c0-1.589-1.288-2.876-2.878-2.876H32.549c-1.626 0-2.943 1.317-2.943 2.943v14.353c0 .708.366 1.363.967 1.739l7.188 6.559c.353.217.569.608.569 1.023v1.675c0 .418-.217.805-.569 1.023l-7.188 6.56a2.048 2.048 0 00-.967 1.74v14.422c0 1.588 1.289 2.875 2.876 2.875h29.6c1.59 0 2.878-1.287 2.878-2.875V57.441c0-.707-.367-1.365-.968-1.74l-7.188-6.559a1.201 1.201 0 01-.569-1.023v-1.675c.001-.415.217-.805.57-1.021z" fill="#f6ffff" fill-opacity=".6" stroke="#102733" stroke-width="2" stroke-miterlimit="10"/><path d="M34.227 33.815l11.105 12.13c.106.118.169.27.172.431l.479 18.153a.6592.6592 0 01-.371.613l-6.041 3.004c-.626.311-.404 1.258.295 1.258h15.646c.687 0 .921-.916.322-1.244l-5.719-3.145a.664.664 0 01-.344-.58V46.376c0-.159.057-.313.161-.433l10.483-12.141c.372-.428.069-1.094-.502-1.094H34.712c-.573-.002-.878.682-.485 1.107z" fill="#f6ffff"/><path d="M60.578 32.706c0 .742-4.677 1.34-12.452 1.34-6.494 0-14.076-.598-14.076-1.34 0-.74 6.302-1.34 14.076-1.34 7.774-.001 12.452.598 12.452 1.34z" fill="#7290a7"/></svg>