<svg width="46" height="202" viewBox="0 0 46 202" fill="none" xmlns="http://www.w3.org/2000/svg">
<g clip-path="url(#clip0_4_2)">
<path fill-rule="evenodd" clip-rule="evenodd" d="M23.972 1.12199C23.6687 0.94757 23.3249 0.855774 22.975 0.855774C22.6251 0.855774 22.2813 0.94757 21.978 1.12199L1.003 13.18C0.698115 13.3553 0.444856 13.6079 0.268761 13.9124C0.092665 14.2168 -3.87568e-05 14.5623 3.46453e-08 14.914V187.08C-6.53495e-05 187.431 0.0924171 187.776 0.268143 188.081C0.443868 188.385 0.696635 188.638 1.001 188.813L21.977 200.903C22.2805 201.078 22.6246 201.17 22.9749 201.17C23.3252 201.17 23.6693 201.079 23.973 200.904L44.997 188.812C45.3017 188.637 45.5549 188.384 45.731 188.08C45.9071 187.776 45.9999 187.431 46 187.079V14.944C46 14.5923 45.9073 14.2468 45.7312 13.9424C45.5551 13.6379 45.3019 13.3853 44.997 13.21L23.972 1.12199Z" fill="black"/>
</g>
<defs>
<clipPath id="clip0_4_2">
<rect width="46" height="202" fill="white"/>
</clipPath>
</defs>
</svg>
