<svg width="120" height="120" viewBox="0 0 120 120" fill="none" xmlns="http://www.w3.org/2000/svg">
<g opacity="0.2">
<path opacity="0.2" d="M36.8999 52.4558H86.4589C87.4103 52.4558 87.7429 51.195 86.9168 50.7252L62.4265 36.814C62.1462 36.6536 61.8024 36.653 61.5203 36.8092L36.4504 50.7205C35.6148 51.1843 35.9438 52.4558 36.8999 52.4558V52.4558ZM36.5169 55.9444H86.7749C86.9186 55.9444 87.035 55.828 87.035 55.6842V54.4222C87.035 54.2791 86.9192 54.1621 86.7749 54.1621H36.5169C36.3732 54.1621 36.2568 54.2779 36.2568 54.4222V55.6842C36.2568 55.828 36.3732 55.9444 36.5169 55.9444ZM36.5317 84.7469H86.8265C86.8904 84.7467 86.9517 84.7212 86.9969 84.6761C87.042 84.6309 87.0675 84.5696 87.0676 84.5057V83.2063C87.0676 83.0727 86.959 82.9652 86.8265 82.9652H82.8772V82.5198H84.565C84.8655 82.5198 85.0817 82.2305 84.9962 81.9413L84.0744 78.8329C84.018 78.6423 83.8416 78.511 83.6421 78.511H82.8766V60.2008H83.6053C83.8042 60.2008 83.98 60.0695 84.0364 59.8789L84.9587 56.7699C85.0443 56.4824 84.8275 56.192 84.5264 56.192H82.8766V56.0922H40.8588V56.192H39.2838C38.9833 56.192 38.7671 56.4812 38.8521 56.7699L39.7744 59.8789C39.8021 59.9719 39.8591 60.0534 39.9369 60.1114C40.0147 60.1694 40.1091 60.2007 40.2061 60.2008H40.86V78.511H40.2435C40.044 78.511 39.8682 78.6423 39.8118 78.8329L38.8901 81.9413C38.8039 82.2294 39.0207 82.5198 39.3218 82.5198H40.86V82.9652H36.5323C36.3987 82.9652 36.2912 83.0739 36.2912 83.2063V84.5057C36.2906 84.6388 36.3987 84.7469 36.5317 84.7469V84.7469ZM89.0958 86.3801H34.6408C34.5077 86.3801 34.3997 86.4881 34.3997 86.6212V87.9206C34.3997 88.0536 34.5083 88.1617 34.6408 88.1617H89.0958C89.2288 88.1617 89.3363 88.0524 89.3363 87.9206V86.6212C89.3364 86.5895 89.3303 86.5582 89.3182 86.5289C89.3062 86.4997 89.2885 86.4731 89.2661 86.4507C89.2438 86.4283 89.2172 86.4105 89.188 86.3984C89.1588 86.3863 89.1274 86.38 89.0958 86.3801V86.3801Z" fill="black" stroke="black" stroke-width="2" stroke-miterlimit="10"/>
</g>
<path d="M35.1184 50.6746H84.6774C85.6288 50.6746 85.9614 49.4138 85.1353 48.944L60.645 35.0327C60.3647 34.8724 60.0209 34.8718 59.7388 35.028L34.6689 48.9392C33.8333 49.4031 34.1623 50.6746 35.1184 50.6746V50.6746ZM34.7354 54.1631H84.9934C85.1371 54.1631 85.2535 54.0467 85.2535 53.903V52.641C85.2535 52.4978 85.1377 52.3808 84.9934 52.3808H34.7354C34.5917 52.3808 34.4753 52.4967 34.4753 52.641V53.903C34.4753 54.0467 34.5917 54.1631 34.7354 54.1631ZM34.7502 82.9656H85.045C85.1089 82.9654 85.1702 82.94 85.2154 82.8948C85.2605 82.8496 85.286 82.7884 85.2862 82.7245V81.4251C85.2862 81.2914 85.1775 81.1839 85.045 81.1839H81.0957V80.7385H82.7835C83.084 80.7385 83.3002 80.4493 83.2147 80.1601L82.2929 77.0516C82.2365 76.861 82.0601 76.7298 81.8606 76.7298H81.0951V58.4195H81.8238C82.0227 58.4195 82.1985 58.2883 82.2549 58.0976L83.1772 54.9886C83.2628 54.7012 83.046 54.4108 82.7449 54.4108H81.0951V54.311H39.0773V54.4108H37.5023C37.2018 54.4108 36.9856 54.7 37.0706 54.9886L37.9929 58.0976C38.0206 58.1906 38.0776 58.2721 38.1554 58.3301C38.2332 58.3881 38.3276 58.4195 38.4246 58.4195H39.0785V76.7298H38.462C38.2625 76.7298 38.0867 76.861 38.0303 77.0516L37.1086 80.1601C37.0225 80.4481 37.2392 80.7385 37.5403 80.7385H39.0785V81.1839H34.7508C34.6172 81.1839 34.5097 81.2926 34.5097 81.4251V82.7245C34.5091 82.8575 34.6172 82.9656 34.7502 82.9656V82.9656ZM87.3143 84.5988H32.8593C32.7263 84.5988 32.6182 84.7069 32.6182 84.8399V86.1394C32.6182 86.2724 32.7268 86.3805 32.8593 86.3805H87.3143C87.4473 86.3805 87.5548 86.2712 87.5548 86.1394V84.8399C87.5549 84.8083 87.5488 84.7769 87.5367 84.7477C87.5247 84.7184 87.507 84.6918 87.4846 84.6694C87.4623 84.647 87.4357 84.6293 87.4065 84.6171C87.3773 84.605 87.3459 84.5988 87.3143 84.5988V84.5988Z" fill="#B2925C" stroke="#563E2A" stroke-miterlimit="10"/>
<path d="M39.0779 54.3105H81.0956V82.9652H39.0779V54.3105Z" fill="#45361F"/>
<path d="M39.3998 77.1755C38.895 77.1755 38.4846 76.7651 38.4846 76.2597V58.7898C38.4846 58.2838 38.895 57.874 39.3998 57.874H43.6562C44.1622 57.874 44.572 58.2838 44.572 58.7898V76.2597C44.572 76.7651 44.1622 77.1755 43.6562 77.1755H39.3998Z" fill="#EDD4A6"/>
<path d="M43.6562 58.4681C43.8344 58.4681 43.9781 58.6118 43.9781 58.7899V76.2598C43.9781 76.438 43.8344 76.5817 43.6562 76.5817H39.3998C39.3575 76.5817 39.3157 76.5734 39.2766 76.5572C39.2375 76.5411 39.2021 76.5174 39.1722 76.4875C39.1423 76.4576 39.1186 76.4221 39.1024 76.383C39.0862 76.344 39.0779 76.3021 39.0779 76.2598V58.7899C39.0779 58.6118 39.2222 58.4681 39.3998 58.4681H43.6562V58.4681ZM43.6562 57.2803H39.3998C38.5684 57.2803 37.8901 57.9573 37.8901 58.7899V76.2598C37.8901 77.0913 38.5678 77.7695 39.3998 77.7695H43.6562C44.4883 77.7695 45.1659 77.0913 45.1659 76.2598V58.7899C45.1653 57.9573 44.4883 57.2803 43.6562 57.2803Z" fill="#77593C"/>
<path d="M57.5133 77.1755C57.0085 77.1755 56.5981 76.7651 56.5981 76.2597V58.7898C56.5981 58.2838 57.0085 57.874 57.5133 57.874H61.7697C62.2757 57.874 62.6855 58.2838 62.6855 58.7898V76.2597C62.6855 76.7651 62.2757 77.1755 61.7697 77.1755H57.5133Z" fill="#EDD4A6"/>
<path d="M61.7697 58.4681C61.9479 58.4681 62.0916 58.6118 62.0916 58.7899V76.2598C62.0916 76.438 61.9479 76.5817 61.7697 76.5817H57.5133C57.4711 76.5817 57.4292 76.5734 57.3901 76.5572C57.3511 76.5411 57.3156 76.5174 57.2857 76.4875C57.2558 76.4576 57.2321 76.4221 57.2159 76.383C57.1997 76.344 57.1914 76.3021 57.1914 76.2598V58.7899C57.1914 58.6118 57.3358 58.4681 57.5133 58.4681H61.7697ZM61.7697 57.2803H57.5133C56.6819 57.2803 56.0037 57.9573 56.0037 58.7899V76.2598C56.0037 77.0913 56.6813 77.7695 57.5133 77.7695H61.7697C62.6018 77.7695 63.2794 77.0913 63.2794 76.2598V58.7899C63.2788 57.9573 62.6018 57.2803 61.7697 57.2803Z" fill="#77593C"/>
<path d="M76.518 77.1755C76.0132 77.1755 75.6028 76.7651 75.6028 76.2597V58.7898C75.6028 58.2838 76.0132 57.874 76.518 57.874H80.7744C81.2804 57.874 81.6902 58.2838 81.6902 58.7898V76.2597C81.6902 76.7651 81.2804 77.1755 80.7744 77.1755H76.518Z" fill="#EDD4A6"/>
<path d="M80.7744 58.4681C80.9526 58.4681 81.0963 58.6118 81.0963 58.7899V76.2598C81.0963 76.438 80.9526 76.5817 80.7744 76.5817H76.518C76.4757 76.5817 76.4338 76.5734 76.3948 76.5572C76.3557 76.5411 76.3202 76.5174 76.2903 76.4875C76.2604 76.4576 76.2367 76.4221 76.2206 76.383C76.2044 76.344 76.1961 76.3021 76.1961 76.2598V58.7899C76.1961 58.6118 76.3404 58.4681 76.518 58.4681H80.7744ZM80.7744 57.2803H76.518C75.6865 57.2803 75.0083 57.9573 75.0083 58.7899V76.2598C75.0083 77.0913 75.6859 77.7695 76.518 77.7695H80.7744C81.6064 77.7695 82.2841 77.0913 82.2841 76.2598V58.7899C82.2835 57.9573 81.6064 57.2803 80.7744 57.2803Z" fill="#77593C"/>
<path d="M35.1184 51.2681C34.4147 51.2681 33.8238 50.8102 33.6468 50.1296C33.4704 49.449 33.765 48.7613 34.3802 48.4198L59.4501 34.5085C59.6752 34.3832 59.9306 34.3179 60.1865 34.3179C60.449 34.3179 60.7098 34.3862 60.9384 34.5162L85.4269 48.4275C86.0356 48.7732 86.3254 49.4597 86.1461 50.1367C85.9667 50.8144 85.3764 51.2681 84.6762 51.2681H35.1184Z" fill="#EDD4A6"/>
<path d="M60.1878 34.9119C60.3457 34.9119 60.5031 34.9517 60.6451 35.0325L85.1347 48.9438C85.9614 49.4135 85.6283 50.6743 84.6768 50.6743H35.1179C34.1629 50.6743 33.8333 49.4028 34.6689 48.939L59.7388 35.0277C59.8784 34.9499 60.0334 34.9119 60.1878 34.9119ZM60.1878 33.7241C59.8291 33.7241 59.4757 33.8156 59.1621 33.989L34.0928 47.9009C33.237 48.3754 32.8272 49.331 33.0725 50.2782C33.3178 51.2261 34.1397 51.8621 35.1179 51.8621H84.6774C85.6514 51.8621 86.4722 51.2302 86.7204 50.2889C86.9693 49.3476 86.5678 48.3926 85.7203 47.911L61.2318 33.9997C60.9135 33.8191 60.5538 33.7242 60.1878 33.7241V33.7241Z" fill="#77593C"/>
<path d="M44.8171 76.7296H38.4613C38.2618 76.7296 38.086 76.8609 38.0296 77.0521L37.1079 80.1599C37.0217 80.448 37.2385 80.7384 37.5396 80.7384H45.7395C46.04 80.7384 46.2561 80.4492 46.1706 80.1599L45.2489 77.0521C45.2213 76.959 45.1643 76.8773 45.0865 76.8192C45.0087 76.7611 44.9142 76.7297 44.8171 76.7296V76.7296ZM62.8566 76.7296H56.5007C56.3012 76.7296 56.1254 76.8609 56.069 77.0521L55.1473 80.1599C55.0612 80.448 55.2779 80.7384 55.579 80.7384H63.7789C64.0794 80.7384 64.2956 80.4492 64.21 80.1599L63.2883 77.0521C63.2606 76.9591 63.2037 76.8774 63.1259 76.8193C63.0481 76.7612 62.9537 76.7298 62.8566 76.7296V76.7296ZM81.8611 76.7296H75.5052C75.3057 76.7296 75.1299 76.8609 75.0735 77.0521L74.1518 80.1599C74.0656 80.448 74.2824 80.7384 74.5835 80.7384H82.7834C83.0839 80.7384 83.3 80.4492 83.2145 80.1599L82.2928 77.0521C82.2651 76.9591 82.2082 76.8774 82.1304 76.8193C82.0526 76.7612 81.9581 76.7298 81.8611 76.7296V76.7296ZM44.7797 58.4194H38.4239C38.3269 58.4194 38.2325 58.388 38.1547 58.33C38.0769 58.272 38.0199 58.1905 37.9922 58.0975L37.0698 54.9885C36.9843 54.7011 37.2011 54.4106 37.5016 54.4106H45.7009C46.002 54.4106 46.2181 54.6999 46.1332 54.9885L45.2109 58.0975C45.1834 58.1905 45.1265 58.2721 45.0488 58.3301C44.9711 58.3881 44.8767 58.4194 44.7797 58.4194V58.4194ZM62.8191 58.4194H56.4633C56.3663 58.4194 56.2719 58.388 56.1941 58.33C56.1163 58.272 56.0593 58.1905 56.0316 58.0975L55.1093 54.9885C55.0237 54.7011 55.2405 54.4106 55.541 54.4106H63.7403C64.0414 54.4106 64.2576 54.6999 64.1726 54.9885L63.2503 58.0975C63.2228 58.1905 63.1659 58.2721 63.0882 58.3301C63.0105 58.3881 62.9161 58.4194 62.8191 58.4194V58.4194ZM81.8236 58.4194H75.4678C75.3708 58.4194 75.2764 58.388 75.1986 58.33C75.1208 58.272 75.0638 58.1905 75.0361 58.0975L74.1138 54.9885C74.0282 54.7011 74.245 54.4106 74.5455 54.4106H82.7448C83.0459 54.4106 83.262 54.6999 83.1771 54.9885L82.2548 58.0975C82.2273 58.1905 82.1704 58.2721 82.0927 58.3301C82.015 58.3881 81.9206 58.4194 81.8236 58.4194Z" fill="#B2925C" stroke="#563E2A" stroke-width="0.5" stroke-miterlimit="10"/>
<path d="M34.7354 54.7562C34.2644 54.7562 33.8813 54.3725 33.8813 53.9022V52.6401C33.8813 52.1692 34.265 51.7861 34.7354 51.7861H84.9933C85.4643 51.7861 85.8473 52.1692 85.8473 52.6401V53.9022C85.8473 54.3731 85.4643 54.7562 84.9933 54.7562H34.7354Z" fill="#EDD4A6"/>
<path d="M84.9932 52.3811C85.137 52.3811 85.2534 52.4969 85.2534 52.6413V53.9033C85.2534 54.0464 85.1376 54.1634 84.9932 54.1634H34.7353C34.7011 54.1634 34.6673 54.1567 34.6357 54.1436C34.6041 54.1306 34.5755 54.1114 34.5513 54.0872C34.5271 54.0631 34.508 54.0344 34.4949 54.0028C34.4818 53.9713 34.4751 53.9374 34.4751 53.9033V52.6413C34.4751 52.4981 34.5915 52.3811 34.7353 52.3811H84.9932ZM84.9932 51.1934H34.7353C33.9371 51.1934 33.2874 51.8425 33.2874 52.6413V53.9033C33.2874 54.7021 33.9371 55.3512 34.7353 55.3512H84.9932C85.7914 55.3512 86.4411 54.7015 86.4411 53.9033V52.6413C86.4405 51.8425 85.7914 51.1934 84.9932 51.1934Z" fill="#77593C"/>
<path d="M34.7503 83.5593C34.29 83.5593 33.9153 83.1846 33.9153 82.7243V81.4249C33.9153 80.9646 34.29 80.5898 34.7503 80.5898H85.0457C85.506 80.5898 85.8807 80.9646 85.8807 81.4249V82.7243C85.8807 83.1846 85.506 83.5593 85.0457 83.5593H34.7503Z" fill="#EDD4A6"/>
<path d="M85.0456 81.1839C85.1786 81.1839 85.2867 81.2926 85.2867 81.425V82.7244C85.2867 82.8581 85.178 82.9655 85.0456 82.9655H34.7502C34.7185 82.9656 34.6871 82.9594 34.6579 82.9473C34.6286 82.9351 34.602 82.9174 34.5796 82.895C34.5572 82.8726 34.5395 82.846 34.5274 82.8167C34.5153 82.7875 34.509 82.7561 34.5091 82.7244V81.425C34.5091 81.2914 34.6172 81.1839 34.7502 81.1839H85.0456ZM85.0456 79.9961H34.7502C33.9621 79.9961 33.3213 80.6375 33.3213 81.425V82.7244C33.3213 83.5125 33.9621 84.1533 34.7502 84.1533H85.0456C85.8337 84.1533 86.4745 83.5125 86.4745 82.7244V81.425C86.4745 80.6375 85.8331 79.9961 85.0456 79.9961Z" fill="#77593C"/>
<path d="M32.8594 86.9738C32.3998 86.9738 32.0244 86.5991 32.0244 86.1388V84.8394C32.0244 84.3791 32.3998 84.0044 32.8594 84.0044H87.3144C87.7741 84.0044 88.1488 84.3791 88.1488 84.8394V86.1388C88.1488 86.5991 87.7741 86.9738 87.3144 86.9738H32.8594Z" fill="#EDD4A6"/>
<path d="M87.3143 84.5984C87.4473 84.5984 87.5548 84.7065 87.5548 84.8395V86.139C87.5548 86.2028 87.5295 86.2641 87.4844 86.3093C87.4393 86.3545 87.3782 86.3799 87.3143 86.3801H32.8593C32.7263 86.3801 32.6182 86.2708 32.6182 86.139V84.8395C32.6182 84.7053 32.7269 84.5984 32.8593 84.5984H87.3143ZM87.3143 83.4106H32.8593C32.0712 83.4106 31.4304 84.0515 31.4304 84.8395V86.139C31.4304 86.9265 32.0718 87.5679 32.8593 87.5679H87.3143C88.1024 87.5679 88.7426 86.9265 88.7426 86.139V84.8395C88.7432 84.0515 88.1024 83.4106 87.3143 83.4106Z" fill="#77593C"/>
<path d="M38.766 49.1165H80.9619C81.3741 49.1165 81.519 48.5701 81.1597 48.3658L60.3094 36.5218C60.2496 36.488 60.1821 36.47 60.1133 36.4697C60.0446 36.4694 59.9769 36.4867 59.9168 36.5201L38.5712 48.364C38.2089 48.5653 38.3521 49.1165 38.766 49.1165Z" fill="#C9A27B"/>
<g opacity="0.5">
<path opacity="0.5" d="M38.766 49.1165L60.0867 37.5332L80.9619 49.1165C81.3741 49.1165 81.519 48.5701 81.1597 48.3658L60.3094 36.5218C60.2496 36.488 60.1821 36.47 60.1133 36.4697C60.0446 36.4694 59.9769 36.4867 59.9168 36.5201L38.5712 48.364C38.2089 48.5653 38.3521 49.1165 38.766 49.1165Z" fill="#997656"/>
</g>
<g opacity="0.2">
<path opacity="0.2" d="M51.9678 42.8403V33.2941L60.2359 28.521L68.5035 33.2941V42.8403L60.2359 47.614L51.9678 42.8403Z" fill="black"/>
<path opacity="0.2" d="M60.2352 29.2063L67.9095 33.6367V42.4975L60.2352 46.9285L52.5616 42.4975V33.6367L60.2352 29.2063V29.2063ZM60.2352 27.835L59.6413 28.1776L51.9677 32.6081L51.3738 32.9513V43.1823L51.9677 43.5255L59.6413 47.956L60.2352 48.2986L60.8291 47.956L68.5034 43.5255L69.0973 43.1823V32.9513L68.5034 32.6081L60.8291 28.1776L60.2352 27.835V27.835Z" fill="black"/>
</g>
<path d="M51.3738 42.2465V32.7003L59.6419 27.9272L67.9095 32.7003V42.2465L59.6419 47.0202L51.3738 42.2465Z" fill="#EDD4A6"/>
<path d="M59.6412 28.6125L67.3155 33.0429V41.9038L59.6412 46.3348L51.9676 41.9038V33.0429L59.6412 28.6125V28.6125ZM59.6412 27.2412L59.0473 27.5839L51.3737 32.0143L50.7798 32.3576V42.5885L51.3737 42.9318L59.0473 47.3622L59.6412 47.7049L60.2351 47.3622L67.9094 42.9318L68.5033 42.5885V32.3576L67.9094 32.0143L60.2351 27.5839L59.6412 27.2412V27.2412Z" fill="#77593C"/>
<path d="M59.9384 42.9511C56.9185 42.9511 54.4609 40.493 54.4609 37.4731C54.4609 34.4531 56.9185 31.9956 59.9384 31.9956C61.9891 31.9956 63.8515 33.1258 64.7982 34.9455L64.9009 35.1426L62.7712 36.2508L62.6566 36.1481C62.3056 35.8339 61.859 35.6605 61.4005 35.6605C60.3565 35.6605 59.5072 36.5098 59.5072 37.5538C59.5072 38.5973 60.3565 39.4466 61.4005 39.4466C61.7414 39.4466 62.0699 39.3533 62.3745 39.1686L62.5022 39.0908L64.4757 40.5512L64.3427 40.73C63.3129 42.1214 61.6672 42.9511 59.9384 42.9511V42.9511Z" fill="#FFEED2"/>
<path d="M59.9377 32.2193C61.8946 32.2193 63.6964 33.3133 64.5997 35.0498L62.8044 35.9834C62.4303 35.6497 61.9409 35.4388 61.3993 35.4388C60.2311 35.4388 59.2838 36.3861 59.2838 37.5543C59.2838 38.7224 60.2311 39.6697 61.3993 39.6697C61.7996 39.6697 62.1695 39.5521 62.4879 39.3603L64.1626 40.5985C63.1726 41.9372 61.603 42.7288 59.9383 42.7288C57.0556 42.7288 54.6836 40.3568 54.6836 37.4735C54.683 34.5907 57.0556 32.2193 59.9377 32.2193ZM59.9377 31.7739C56.7948 31.7739 54.2375 34.3312 54.2375 37.4741C54.2375 40.617 56.7948 43.1748 59.9377 43.1748C61.7372 43.1748 63.45 42.3113 64.5208 40.8634L64.785 40.5053L64.4269 40.2404L62.7522 39.0016L62.5122 38.824L62.2568 38.9784C61.9866 39.1417 61.6992 39.2249 61.3987 39.2249C60.4776 39.2249 59.7287 38.4754 59.7287 37.5549C59.7287 36.6343 60.4781 35.8848 61.3987 35.8848C61.8031 35.8848 62.1963 36.0381 62.5063 36.3166L62.7355 36.5221L63.0093 36.3801L64.8046 35.4465L65.2002 35.2411L64.9947 34.8455C64.01 32.9498 62.0722 31.7739 59.9377 31.7739V31.7739Z" fill="#77593C"/>
<path d="M92.1613 29.406C91.8272 29.406 91.5133 29.2773 91.2769 29.0434L81.9189 19.7845C81.4124 19.2834 81.4124 18.4679 81.9189 17.967L84.6981 15.2177C84.9433 14.9749 85.2694 14.8412 85.6165 14.8412C85.9637 14.8412 86.2898 14.9749 86.535 15.2177L92.1467 20.7705L101.453 10.9855C101.712 10.7282 102.038 10.5947 102.385 10.5947C102.732 10.5947 103.058 10.7285 103.304 10.9713L106.082 13.7209C106.588 14.222 106.588 15.0372 106.082 15.5383L93.0564 29.0326C92.8096 29.2773 92.4954 29.406 92.1613 29.406Z" fill="#FFFFFE"/>
<path d="M102.384 11.2515C102.547 11.2515 102.71 11.3127 102.833 11.4354L105.612 14.185C105.86 14.4304 105.86 14.828 105.612 15.0735L92.5758 28.5785C92.4614 28.692 92.311 28.7485 92.161 28.7485C92.0109 28.7485 91.8606 28.6918 91.7461 28.5785L82.3882 19.3199C82.1404 19.0745 82.1404 18.6768 82.3882 18.4317L85.1671 15.6818C85.2911 15.5591 85.4534 15.4979 85.6159 15.4979C85.7785 15.4979 85.9407 15.5591 86.0648 15.6818L92.161 21.7137L101.936 11.4354C102.06 11.3127 102.222 11.2515 102.384 11.2515V11.2515ZM102.384 9.9375C101.86 9.9375 101.367 10.1398 100.996 10.5067L100.982 10.5206L100.969 10.5351L92.132 19.8268L87.0039 14.7529C86.6334 14.386 86.1405 14.1839 85.6159 14.1839C85.0914 14.1839 84.5984 14.3863 84.2277 14.7531L81.449 17.5027C80.6838 18.2593 80.6836 19.4912 81.4488 20.2486L90.8067 29.5075C91.1684 29.8654 91.6494 30.0625 92.1607 30.0625C92.6722 30.0625 93.1532 29.8654 93.515 29.5072L93.5256 29.4967L93.5359 29.4859L106.565 15.9888C107.316 15.2304 107.312 14.0086 106.551 13.2563L103.772 10.5064C103.402 10.1396 102.909 9.9375 102.384 9.9375V9.9375Z" fill="#223948"/>
</svg>
