<svg width="120" height="120" viewBox="0 0 120 120" fill="none" xmlns="http://www.w3.org/2000/svg">
<path d="M72.2108 79.1126C62.0178 79.1126 57.4773 77.8671 57.1067 75.0201C56.9213 73.7746 56.9213 71.8173 57.014 69.6821V66.6572C57.014 63.4544 60.9058 57.1377 66.4656 56.337L67.0216 56.248L67.207 56.5149C67.5776 56.5149 68.6896 56.8708 72.2108 57.0488C75.8246 56.8708 76.8439 56.6039 77.2146 56.5149L77.3999 56.248H77.9559C83.5157 57.1377 87.3149 63.4544 87.3149 66.6572L87.5002 69.6821V75.0201C87.0369 77.8671 82.4964 79.1126 72.3034 79.1126H72.2108Z" fill="white"/>
<path d="M77.7759 57.2249C82.7797 57.9366 86.3936 63.7195 86.3936 66.6554C86.3936 69.5024 86.6716 73.15 86.3936 74.8404C86.1156 76.7087 83.1504 78.2211 72.2161 78.2211C61.2818 78.2211 58.3166 76.7087 57.9459 74.8404C57.7606 73.061 57.9459 69.5024 57.9459 66.6554C57.9459 63.7195 61.6525 57.9366 66.6563 57.1359C66.6563 57.1359 67.0269 57.6697 72.2161 57.9366C77.3126 57.7587 77.7759 57.1359 77.7759 57.1359V57.2249ZM67.4903 55.2676L66.3783 55.4455C60.5405 56.3352 56.1853 62.8298 56.1853 66.6554L56 69.6803V75.1073C56.556 78.666 61.2818 80.0005 72.1234 80.0005C82.965 80.0005 87.6909 78.577 88.1542 75.1073C88.3395 73.8618 88.3395 71.8155 88.2468 69.7693V66.6554C88.2468 62.8298 83.799 56.2462 78.0539 55.4455L76.9419 55.2676L76.5713 55.7124C73.6309 56.2344 70.6159 56.2344 67.6756 55.7124L67.3049 55.2676H67.4903Z" fill="#223948"/>
<path d="M72.1222 58.1146C71.4735 58.1146 69.8983 58.1146 69.3423 57.9367C66.4697 57.4029 59.8906 54.9118 59.8906 43.7019C59.8906 35.428 64.1531 30.8906 72.0295 30.8906C79.9986 30.8906 84.5391 35.5169 84.5391 43.613C84.5391 54.2001 79.2573 57.225 74.7168 57.9367L72.1222 58.0257V58.1146Z" fill="white"/>
<path d="M72.0265 31.7793C80.7368 31.7793 83.6094 37.2953 83.6094 43.612C83.6094 52.5087 79.7175 56.2454 74.5284 57.0461C72.8357 57.2418 71.1246 57.2418 69.4319 57.0461C64.9841 56.1564 60.8142 52.4198 60.8142 43.701C60.8142 37.2953 63.4088 31.7793 72.0265 31.7793V31.7793ZM72.0265 30C63.5941 30 58.9609 34.8042 58.9609 43.612C58.9609 55.5336 66.0033 58.2027 69.1539 58.7365C69.8025 58.9144 71.0072 58.9144 72.1191 58.9144L74.899 58.8254C79.7175 58.0247 85.4626 54.8219 85.4626 43.701C85.4626 34.9822 80.5515 30 72.0265 30Z" fill="#223948"/>
<path d="M44.2108 79.1126C34.0178 79.1126 29.4773 77.8671 29.1067 75.0201C28.9213 73.7746 28.9213 71.8173 29.014 69.6821V66.6572C29.014 63.4544 32.9058 57.1377 38.4656 56.337L39.0216 56.248L39.207 56.5149C39.5776 56.5149 40.6896 56.8708 44.2108 57.0488C47.8246 56.8708 48.8439 56.6039 49.2146 56.5149L49.3999 56.248H49.9559C55.5157 57.1377 59.3149 63.4544 59.3149 66.6572L59.5002 69.6821V75.0201C59.0369 77.8671 54.4964 79.1126 44.3034 79.1126H44.2108Z" fill="white"/>
<path d="M49.7759 57.2249C54.7797 57.9366 58.3936 63.7195 58.3936 66.6554C58.3936 69.5024 58.6716 73.15 58.3936 74.8404C58.1156 76.7087 55.1504 78.2211 44.2161 78.2211C33.2818 78.2211 30.3166 76.7087 29.9459 74.8404C29.7606 73.061 29.9459 69.5024 29.9459 66.6554C29.9459 63.7195 33.6525 57.9366 38.6563 57.1359C38.6563 57.1359 39.0269 57.6697 44.2161 57.9366C49.3126 57.7587 49.7759 57.1359 49.7759 57.1359V57.2249ZM39.4903 55.2676L38.3783 55.4455C32.5405 56.3352 28.1853 62.8298 28.1853 66.6554L28 69.6803V75.1073C28.556 78.666 33.2818 80.0005 44.1234 80.0005C54.965 80.0005 59.6909 78.577 60.1542 75.1073C60.3395 73.8618 60.3395 71.8155 60.2468 69.7693V66.6554C60.2468 62.8298 55.799 56.2462 50.0539 55.4455L48.9419 55.2676L48.5713 55.7124C45.6309 56.2344 42.6159 56.2344 39.6756 55.7124L39.3049 55.2676H39.4903Z" fill="#223948"/>
<path d="M44.1222 58.1146C43.4735 58.1146 41.8983 58.1146 41.3423 57.9367C38.4697 57.4029 31.8906 54.9118 31.8906 43.7019C31.8906 35.428 36.1531 30.8906 44.0295 30.8906C51.9986 30.8906 56.5391 35.5169 56.5391 43.613C56.5391 54.2001 51.2573 57.225 46.7168 57.9367L44.1222 58.0257V58.1146Z" fill="white"/>
<path d="M44.0265 31.7793C52.7368 31.7793 55.6094 37.2953 55.6094 43.612C55.6094 52.5087 51.7175 56.2454 46.5284 57.0461C44.8357 57.2418 43.1246 57.2418 41.4319 57.0461C36.9841 56.1564 32.8142 52.4198 32.8142 43.701C32.8142 37.2953 35.4088 31.7793 44.0265 31.7793V31.7793ZM44.0265 30C35.5941 30 30.9609 34.8042 30.9609 43.612C30.9609 55.5336 38.0033 58.2027 41.1539 58.7365C41.8025 58.9144 43.0072 58.9144 44.1191 58.9144L46.899 58.8254C51.7175 58.0247 57.4626 54.8219 57.4626 43.701C57.4626 34.9822 52.5515 30 44.0265 30Z" fill="#223948"/>
<path d="M58.2108 89.1126C48.0178 89.1126 43.4773 87.8671 43.1067 85.0201C42.9213 83.7746 42.9213 81.8173 43.014 79.6821V76.6572C43.014 73.4544 46.9058 67.1377 52.4656 66.337L53.0216 66.248L53.207 66.5149C53.5776 66.5149 54.6896 66.8708 58.2108 67.0488C61.8246 66.8708 62.8439 66.6039 63.2146 66.5149L63.3999 66.248H63.9559C69.5157 67.1377 73.3149 73.4544 73.3149 76.6572L73.5002 79.6821V85.0201C73.0369 87.8671 68.4964 89.1126 58.3034 89.1126H58.2108Z" fill="white"/>
<path d="M63.7759 67.2249C68.7797 67.9366 72.3936 73.7195 72.3936 76.6554C72.3936 79.5024 72.6716 83.15 72.3936 84.8404C72.1156 86.7087 69.1504 88.2211 58.2161 88.2211C47.2818 88.2211 44.3166 86.7087 43.9459 84.8404C43.7606 83.061 43.9459 79.5024 43.9459 76.6554C43.9459 73.7195 47.6525 67.9366 52.6563 67.1359C52.6563 67.1359 53.0269 67.6697 58.2161 67.9366C63.3126 67.7587 63.7759 67.1359 63.7759 67.1359V67.2249ZM53.4903 65.2676L52.3783 65.4455C46.5405 66.3352 42.1853 72.8298 42.1853 76.6554L42 79.6803V85.1073C42.556 88.666 47.2818 90.0005 58.1234 90.0005C68.965 90.0005 73.6909 88.577 74.1542 85.1073C74.3395 83.8618 74.3395 81.8155 74.2468 79.7693V76.6554C74.2468 72.8298 69.799 66.2462 64.0539 65.4455L62.9419 65.2676L62.5713 65.7124C59.6309 66.2344 56.6159 66.2344 53.6756 65.7124L53.3049 65.2676H53.4903Z" fill="#223948"/>
<path d="M58.1222 68.1146C57.4735 68.1146 55.8983 68.1146 55.3423 67.9367C52.4697 67.4029 45.8906 64.9118 45.8906 53.7019C45.8906 45.428 50.1531 40.8906 58.0295 40.8906C65.9986 40.8906 70.5391 45.5169 70.5391 53.613C70.5391 64.2001 65.2573 67.225 60.7168 67.9367L58.1222 68.0257V68.1146Z" fill="white"/>
<path d="M58.0265 41.7793C66.7368 41.7793 69.6094 47.2953 69.6094 53.612C69.6094 62.5087 65.7175 66.2454 60.5284 67.0461C58.8357 67.2418 57.1246 67.2418 55.4319 67.0461C50.9841 66.1564 46.8142 62.4198 46.8142 53.701C46.8142 47.2953 49.4088 41.7793 58.0265 41.7793V41.7793ZM58.0265 40C49.5941 40 44.9609 44.8042 44.9609 53.612C44.9609 65.5336 52.0033 68.2027 55.1539 68.7365C55.8025 68.9144 57.0072 68.9144 58.1191 68.9144L60.899 68.8254C65.7175 68.0247 71.4626 64.8219 71.4626 53.701C71.4626 44.9822 66.5515 40 58.0265 40Z" fill="#223948"/>
<path d="M92.1613 31.406C91.8272 31.406 91.5133 31.2773 91.2769 31.0434L81.9189 21.7845C81.4124 21.2834 81.4124 20.4679 81.9189 19.967L84.6981 17.2177C84.9433 16.9749 85.2694 16.8412 85.6165 16.8412C85.9637 16.8412 86.2898 16.9749 86.535 17.2177L92.1467 22.7705L101.453 12.9855C101.712 12.7282 102.038 12.5947 102.385 12.5947C102.732 12.5947 103.058 12.7285 103.304 12.9713L106.082 15.7209C106.588 16.222 106.588 17.0372 106.082 17.5383L93.0564 31.0326C92.8096 31.2773 92.4954 31.406 92.1613 31.406Z" fill="#FFFFFE"/>
<path d="M102.384 13.2515C102.547 13.2515 102.71 13.3127 102.833 13.4354L105.612 16.185C105.86 16.4304 105.86 16.828 105.612 17.0735L92.5758 30.5785C92.4614 30.692 92.311 30.7485 92.161 30.7485C92.0109 30.7485 91.8606 30.6918 91.7461 30.5785L82.3882 21.3199C82.1404 21.0745 82.1404 20.6769 82.3882 20.4317L85.1671 17.6818C85.2911 17.5591 85.4534 17.4979 85.6159 17.4979C85.7785 17.4979 85.9407 17.5591 86.0648 17.6818L92.161 23.7137L101.936 13.4354C102.06 13.3127 102.222 13.2515 102.384 13.2515V13.2515ZM102.384 11.9375C101.86 11.9375 101.367 12.1398 100.996 12.5067L100.982 12.5206L100.969 12.5351L92.132 21.8268L87.0039 16.7529C86.6334 16.386 86.1405 16.1839 85.6159 16.1839C85.0914 16.1839 84.5984 16.3863 84.2277 16.7531L81.449 19.5027C80.6838 20.2593 80.6836 21.4912 81.4488 22.2486L90.8067 31.5075C91.1684 31.8654 91.6494 32.0625 92.1607 32.0625C92.6722 32.0625 93.1532 31.8654 93.515 31.5072L93.5256 31.4967L93.5359 31.4859L106.565 17.9888C107.316 17.2304 107.312 16.0086 106.551 15.2563L103.772 12.5064C103.402 12.1396 102.909 11.9375 102.384 11.9375V11.9375Z" fill="#223948"/>
</svg>
