<svg width="128" height="128" viewBox="0 0 128 128" fill="none" xmlns="http://www.w3.org/2000/svg">
<path d="M65.6629 19.0099C65.9627 19.0099 98.6413 46.0633 98.6413 46.0633C98.9411 46.2637 99.041 46.5643 99.1409 46.8649L106.936 93.958C107.136 94.9599 106.836 95.6613 106.336 95.6613C106.136 95.6613 105.837 95.5611 105.637 95.3607L100.24 91.0522L98.4414 94.0582L89.2474 109.99H38.6806L29.4866 94.9599L27.2881 91.453L22.2913 95.3607L21.6917 95.6613C21.0921 95.6613 20.8923 94.9599 21.0921 94.0582L28.887 46.8649C28.887 46.5643 29.0869 46.2637 29.2868 46.0633C29.2868 46.0633 61.9653 19.0099 62.2651 19.0099H65.6629ZM62.2651 14C60.4663 14 59.6668 14.6012 57.6681 16.2044C52.5538 20.2828 47.4901 24.4247 42.4781 28.6289L26.0889 42.1556C24.9106 43.1503 24.1299 44.5378 23.8903 46.0633L16.0954 93.1564C15.7956 95.1603 16.1953 97.1643 17.3946 98.6673C18.3939 99.8696 19.9928 100.671 21.6917 100.671C23.0815 100.659 24.4238 100.163 25.4892 99.2684L25.9889 98.8677L34.3834 112.595C34.8318 113.333 35.4632 113.943 36.2163 114.364C36.9693 114.786 37.8182 115.005 38.6806 115H89.2474C90.1363 115.012 91.0125 114.786 91.7854 114.346C92.5584 113.906 93.2001 113.267 93.6445 112.495L101.639 98.5671L102.539 99.2684C103.604 100.163 104.947 100.659 106.336 100.671C107.935 100.671 109.534 99.8696 110.633 98.6673C111.226 97.8942 111.641 96.9992 111.848 96.0464C112.056 95.0937 112.05 94.1068 111.833 93.1564L104.038 46.0633V45.8629C103.738 44.4602 103.038 43.1576 101.839 42.1556L85.4499 28.6289L74.1573 19.4107C67.5617 14.1002 67.5617 14.1002 65.7628 14.1002H62.2651H62.1652L62.2651 14Z" fill="black"/>
<path d="M38.0809 111.192L27.5878 94.3587L64.0639 65.8023L100.64 93.5572L90.3467 111.192H38.0809Z" fill="url(#paint0_linear_2_429)"/>
<path d="M64.064 67.7061L98.6413 93.8578L89.4473 109.689H38.8805L29.6865 94.7595L64.1639 67.7061M64.1639 63.8986L62.2652 65.3013L27.7878 92.3548L25.6891 94.0581L27.0882 96.3627L36.2822 111.392L37.1816 112.695H91.0463L91.9457 111.192L101.14 95.4609L102.439 93.1564L100.44 91.5532L65.8628 65.3013L63.9641 63.8986H64.1639Z" fill="#0072BC"/>
<path d="M21.7917 96.9639C21.4814 96.9639 21.1754 96.8915 20.8978 96.7523C20.6203 96.6132 20.3789 96.4112 20.1927 96.1623C19.693 95.5611 19.4932 94.5591 19.693 93.5572L27.4879 46.3639C27.6878 45.6625 27.9876 45.0614 28.4873 44.6606C61.6655 17.2063 61.6655 17.2063 62.465 17.2063H63.964V62.4958C63.964 63.3976 63.5643 64.1992 62.8647 64.7002L23.4906 96.2625C22.9909 96.6633 22.3913 96.9639 21.7917 96.9639Z" fill="url(#paint1_linear_2_429)"/>
<path d="M62.465 18.7093V62.4958C62.465 62.8966 62.2651 63.2974 61.9653 63.4978L22.4912 95.0601C22.2913 95.3607 21.9915 95.4609 21.7917 95.4609C21.292 95.4609 20.9922 94.7595 21.1921 93.8578L29.0869 46.4641C40.1604 37.1161 51.2866 27.8309 62.465 18.6091M62.465 15.6032C61.3657 15.6032 61.3657 15.6032 55.3697 20.6131L44.0771 29.8313L27.5879 43.4582C26.7884 44.1596 26.2887 45.0614 26.0889 46.0633L18.294 93.2566C17.9942 94.7595 18.294 96.1623 19.0934 97.1643C19.793 97.9659 20.7923 98.4669 21.7917 98.4669C22.7495 98.4558 23.6716 98.1002 24.39 97.4649L63.7641 65.9025C64.7635 65.0007 65.463 63.8986 65.463 62.4958V15.7034H62.465V15.6032Z" fill="#0072BC"/>
<path d="M106.436 96.9639C105.936 96.9639 105.337 96.6633 104.837 96.2625L65.463 64.7002C64.7634 64.1992 64.3637 63.3976 64.3637 62.4958V17.2063H65.8627C66.6622 17.2063 67.0619 17.5069 99.8404 44.6606C100.34 45.0614 100.64 45.6625 100.84 46.3639L108.535 93.5572C108.735 94.5591 108.535 95.5611 108.035 96.1623C107.849 96.4112 107.607 96.6132 107.33 96.7523C107.052 96.8915 106.746 96.9639 106.436 96.9639Z" fill="url(#paint2_linear_2_429)"/>
<path d="M65.8627 18.7093C66.1625 18.7093 98.8411 45.7627 98.8411 45.7627C99.041 46.0633 99.2408 46.2637 99.2408 46.5643L107.036 93.8578C107.236 94.7595 107.036 95.4609 106.436 95.4609C106.236 95.4609 106.036 95.3607 105.737 95.0601L66.3624 63.4978C66.0626 63.2974 65.8627 62.8966 65.8627 62.4958V18.7093ZM65.8627 15.7034H62.8647V62.4958C62.8647 63.7984 63.4643 65.0008 64.4636 65.9025L104.038 97.4649C105.037 98.2665 105.936 98.4669 106.536 98.4669C107.535 98.4669 108.535 97.9659 109.334 97.1643C110.134 96.1623 110.334 94.7595 110.134 93.2566L102.339 46.1635V46.0633C102.139 45.0614 101.639 44.1596 100.84 43.4582L84.3506 30.0317L73.058 20.6131C67.0619 15.7034 67.0619 15.7034 65.8627 15.7034Z" fill="#0072BC"/>
<path d="M69.8601 112.996H58.4676L57.4682 101.172C57.4604 100.052 57.7651 98.9515 58.3478 97.9955C58.9305 97.0394 59.7681 96.2657 60.7661 95.7615C62.7647 94.7595 65.1632 94.7595 67.1619 95.7615H67.3617C68.3938 96.2589 69.2622 97.0422 69.8644 98.0188C70.4665 98.9954 70.7771 100.124 70.7595 101.272L69.7602 112.996H69.8601Z" fill="black"/>
<defs>
<linearGradient id="paint0_linear_2_429" x1="64.1638" y1="65.8023" x2="64.1638" y2="111.192" gradientUnits="userSpaceOnUse">
<stop offset="0.1" stop-color="#D1EBFF"/>
<stop offset="0.3" stop-color="#CDE8FE"/>
<stop offset="0.5" stop-color="#C0E0FC"/>
<stop offset="0.7" stop-color="#AAD1F9"/>
<stop offset="0.9" stop-color="#8CBEF5"/>
<stop offset="1" stop-color="#70ABF1"/>
</linearGradient>
<linearGradient id="paint1_linear_2_429" x1="61.2658" y1="67.9065" x2="26.4428" y2="47.8461" gradientUnits="userSpaceOnUse">
<stop offset="0.1" stop-color="#D1EBFF"/>
<stop offset="0.3" stop-color="#CDE8FE"/>
<stop offset="0.4" stop-color="#C0E0FC"/>
<stop offset="0.6" stop-color="#AAD1F9"/>
<stop offset="0.8" stop-color="#8CBEF5"/>
<stop offset="0.9" stop-color="#70ABF1"/>
</linearGradient>
<linearGradient id="paint2_linear_2_429" x1="101.739" y1="47.7667" x2="67.0161" y2="67.8272" gradientUnits="userSpaceOnUse">
<stop offset="0.1" stop-color="#70ABF1"/>
<stop offset="0.2" stop-color="#8CBEF5"/>
<stop offset="0.4" stop-color="#AAD1F9"/>
<stop offset="0.6" stop-color="#C0E0FC"/>
<stop offset="0.7" stop-color="#CDE8FE"/>
<stop offset="0.9" stop-color="#D1EBFF"/>
</linearGradient>
</defs>
</svg>
