<svg width="347" height="401" viewBox="0 0 347 401" fill="none" xmlns="http://www.w3.org/2000/svg">
<g clip-path="url(#clip0_73_2)">
<path d="M347.75 124.305L150.395 14.92L139.27 21.6047C139.273 21.7813 140.094 26.3907 141.203 30.1599C142.103 33.2204 142.922 36.0066 142.938 36.1497C143.309 39.3523 144.301 40.9777 145.294 42.6036C146.288 44.231 147.283 45.8589 147.654 49.0694C148.114 53.0452 149.621 56.474 151.128 59.9006C151.475 60.6893 151.821 61.4778 152.155 62.2729C156.169 71.7939 165.053 75.6502 174.064 79.5614C179.504 81.923 184.991 84.3046 189.479 87.9654C191.172 89.3496 192.734 90.923 194.294 92.4943C196.342 94.5579 198.387 96.6178 200.72 98.2408C203.841 100.385 207.399 101.694 210.967 103.007C214.019 104.13 217.078 105.255 219.874 106.908C224.135 109.469 227.642 113.235 231.129 116.98C235.914 122.119 240.661 127.217 247.266 129.103C249.619 129.773 252.114 130.002 254.611 130.232C255.942 130.354 257.274 130.477 258.585 130.666C263.329 131.517 267.974 132.85 272.446 134.645L272.69 134.733C281.669 137.996 290.73 141.289 299.087 145.891C301.104 147.16 303.28 148.154 305.559 148.849C309.939 149.923 314.886 148.586 319.654 147.263C320.791 146.944 322.046 146.789 323.326 146.631C325.685 146.339 328.126 146.037 330.06 144.681C335.215 141.067 343.285 137.693 347.982 137.611L347.75 124.305Z" fill="#57AFD6"/>
<path d="M347.559 113.203L160.053 9.123L146.952 16.9947C148.041 18.8064 149.162 18.3014 150.24 19.9408C151.322 21.5866 152.41 23.2416 152.428 23.4316C152.799 26.629 153.454 28.2053 154.109 29.7821C154.764 31.3604 155.42 32.9392 155.791 36.1449C156.346 41.0259 156.963 45.9859 158.717 50.216C162.731 59.737 171.615 63.5933 180.625 67.5045C186.066 69.8661 191.553 72.2477 196.041 75.9085C197.734 77.2927 199.296 78.8661 200.855 80.4374C202.904 82.501 204.948 84.5609 207.282 86.1839C210.398 88.3294 213.959 89.6387 217.53 90.9515C220.582 92.0739 223.642 93.1988 226.436 94.8509C230.697 97.4116 234.204 101.178 237.691 104.923C242.476 110.062 247.223 115.16 253.828 117.046C256.173 117.716 258.668 117.945 261.162 118.175C262.495 118.297 263.827 118.42 265.137 118.609C269.884 119.46 274.532 120.793 279.008 122.588L279.411 122.734C288.338 125.978 297.341 129.25 305.639 133.835C307.659 135.097 309.834 136.091 312.111 136.792C316.491 137.866 321.448 136.529 326.216 135.206C327.35 134.887 328.603 134.732 329.882 134.574C332.238 134.282 334.678 133.98 336.612 132.624C337.526 131.993 339.129 131.322 340.994 130.542C343.164 129.635 345.556 128.669 347.828 128.629L347.559 113.203Z" fill="#80CFF3"/>
<path d="M347.449 104.026L167.943 4.36668L156.45 11.2754C158.874 14.9237 162.166 16.8393 162.898 23.2375C163.463 28.1284 164.07 33.0785 165.824 37.3186C169.842 46.8283 178.717 50.6832 187.721 54.5939C193.165 56.9584 198.656 59.3434 203.148 63.0111C204.844 64.3931 206.407 65.9686 207.969 67.5422C210.015 69.6033 212.058 71.6611 214.389 73.2765C217.509 75.421 221.068 76.7301 224.635 78.0424C227.688 79.1653 230.747 80.2905 233.543 81.9435C237.804 84.5042 241.311 88.2706 244.798 92.0155C249.582 97.1542 254.329 102.252 260.935 104.139C263.289 104.816 265.785 105.043 268.282 105.27C269.613 105.391 270.943 105.512 272.254 105.702C276.996 106.557 281.641 107.89 286.115 109.68L286.359 109.769C295.338 113.032 304.399 116.325 312.755 120.927C314.772 122.195 316.949 123.19 319.228 123.885C323.607 124.958 328.555 123.622 333.323 122.298C334.723 121.906 335.168 120.25 336.631 119.302C340.283 116.937 347.625 117.5 347.625 117.5L347.449 104.026Z" fill="#F2E8C0"/>
<path d="M166.716 5.08962L169.214 7.41827C170.438 8.74712 170.596 9.23442 171.211 11.8141C172.366 16.6547 173.968 16.7667 175.123 21.5873C176.007 25.2824 176.913 29.0472 178.791 32.3549C185.551 44.2988 201.74 46.3966 212.695 54.6566C216.303 57.3741 219.354 60.7914 223.127 63.2659C228.378 66.7148 234.724 68.1542 240.131 71.3604C249.226 76.7325 255.294 86.8381 265.284 90.2243C268.443 91.2893 271.799 91.6108 275.053 92.3341C279.199 93.3756 283.254 94.7532 287.176 96.4531C295.234 99.673 303.231 102.904 310.795 107.043C312.609 108.158 314.536 109.08 316.544 109.793C320.364 110.956 324.465 110.375 328.415 109.785C331.089 109.379 339.112 108.369 340.931 107.137C343.758 105.227 345.773 106.066 347.423 105.457L347.307 98.8441L172.295 1.74391L166.716 5.08962Z" fill="url(#paint0_linear_73_2)"/>
<path d="M151.302 387.909L346.709 275.08V262.101C346.556 262.013 342.182 260.343 338.38 259.352C335.294 258.547 332.483 257.814 332.352 257.754C329.416 256.423 327.512 256.436 325.607 256.45C323.7 256.464 321.792 256.478 318.849 255.143C315.204 253.489 311.489 253.015 307.776 252.542C306.921 252.433 306.067 252.324 305.213 252.201C294.985 250.737 287.104 256.366 279.111 262.075C274.284 265.523 269.417 268.999 263.967 270.961C261.909 271.699 259.756 272.228 257.606 272.755C254.782 273.448 251.963 274.14 249.37 275.304C245.925 276.874 242.97 279.251 240.007 281.633C237.473 283.671 234.933 285.713 232.076 287.259C227.686 289.592 222.652 290.658 217.646 291.718C210.777 293.173 203.962 294.616 198.943 299.306C197.157 300.979 195.675 302.999 194.193 305.021C193.402 306.099 192.611 307.177 191.774 308.204C188.601 311.832 185.066 315.126 181.224 318.036L181.023 318.199C173.601 324.215 166.112 330.286 157.863 335.079C155.737 336.155 153.763 337.508 151.994 339.104C148.818 342.305 147.416 347.234 146.095 352.002C145.782 353.141 145.269 354.297 144.745 355.475C143.78 357.647 142.782 359.895 142.948 362.252C143.39 368.531 142.126 377.186 139.777 381.255L151.302 387.909Z" fill="#57AFD6"/>
<path d="M160.917 393.463L346.704 286.344V271.061C344.59 271.061 344.445 272.282 342.485 272.361C340.517 272.441 338.538 272.521 338.366 272.439C335.434 271.11 333.746 270.86 332.057 270.609C330.366 270.358 328.675 270.107 325.736 268.774C321.267 266.736 316.697 264.71 312.168 264.035C301.94 262.571 294.059 268.2 286.065 273.909C281.239 277.357 276.372 280.833 270.922 282.795C268.864 283.533 266.71 284.062 264.56 284.589C261.737 285.282 258.918 285.974 256.325 287.138C252.881 288.704 249.924 291.082 246.96 293.467C244.426 295.505 241.886 297.548 239.03 299.093C234.641 301.426 229.606 302.492 224.601 303.552C217.731 305.007 210.917 306.45 205.898 311.14C204.116 312.806 202.634 314.826 201.153 316.846C200.361 317.925 199.57 319.004 198.733 320.029C195.559 323.66 192.023 326.958 188.179 329.87L187.846 330.14C180.467 336.121 173.026 342.153 164.823 346.904C162.7 347.986 160.727 349.339 158.954 350.929C155.778 354.13 154.371 359.068 153.049 363.836C152.738 364.973 152.226 366.127 151.703 367.304C150.739 369.474 149.741 371.721 149.908 374.077C149.978 375.186 149.727 376.905 149.435 378.906C149.096 381.233 148.692 383.781 147.556 385.749L160.917 393.463Z" fill="#80CFF3"/>
<path d="M168.841 398.095L346.718 295.557L346.715 282.147C342.34 282.346 339.002 284.181 333.141 281.513C328.657 279.479 324.102 277.449 319.564 276.769C309.343 275.315 301.467 280.938 293.478 286.641C288.647 290.09 283.775 293.568 278.318 295.53C276.26 296.271 274.104 296.8 271.95 297.329C269.13 298.021 266.314 298.712 263.729 299.878C260.284 301.448 257.329 303.824 254.366 306.206C251.832 308.245 249.292 310.287 246.435 311.832C242.045 314.166 237.011 315.232 232.005 316.292C225.136 317.747 218.321 319.19 213.302 323.88C211.509 325.55 210.029 327.572 208.548 329.595C207.759 330.673 206.97 331.752 206.133 332.777C202.957 336.402 199.422 339.697 195.583 342.61L195.382 342.773C187.96 348.789 180.471 354.86 172.222 359.653C170.096 360.728 168.122 362.082 166.353 363.677C163.177 366.878 161.775 371.807 160.454 376.576C160.069 377.978 161.259 379.213 161.318 380.955C161.464 385.303 157.201 391.306 157.201 391.306L168.841 398.095Z" fill="#F2E8C0"/>
<path d="M346.73 294.133L343.447 295.076C341.678 295.44 341.178 295.325 338.65 294.523C333.906 293.02 332.985 294.336 328.258 292.842C324.636 291.697 320.942 290.535 317.139 290.441C303.42 290.084 293.284 302.88 280.561 308.017C276.374 309.71 271.873 310.564 267.809 312.524C262.148 315.249 257.646 319.947 252.113 322.931C242.824 327.96 231.037 327.956 222.988 334.775C220.449 336.935 218.444 339.646 216.149 342.062C213.121 345.079 209.852 347.845 206.374 350.332C199.464 355.58 192.576 360.772 185.133 365.123C183.242 366.104 181.459 367.281 179.815 368.635C176.849 371.31 175.236 375.125 173.706 378.814C172.678 381.315 169.412 388.713 169.531 390.907C169.712 394.313 167.955 395.608 167.627 397.336L173.355 400.643L346.724 300.639L346.73 294.133Z" fill="url(#paint1_linear_73_2)"/>
<path d="M22.6519 87.7374L22.661 313.379L33.9011 319.869C34.054 319.78 37.687 316.827 40.4463 314.03C42.6869 311.759 44.7265 309.692 44.844 309.609C47.4652 307.732 48.4055 306.076 49.3461 304.419C50.2876 302.76 51.2293 301.102 53.8573 299.22C57.1118 296.891 59.3798 293.91 61.6464 290.931C62.168 290.245 62.6896 289.56 63.2232 288.882C69.6045 280.756 68.6702 271.116 67.7226 261.339C67.1505 255.436 66.5735 249.482 67.5993 243.782C67.9892 241.63 68.6081 239.501 69.2263 237.376C70.0381 234.584 70.8485 231.797 71.1366 228.969C71.4995 225.2 70.9191 221.453 70.3373 217.696C69.8395 214.482 69.3406 211.261 69.4308 208.014C69.6048 203.046 71.1987 198.153 72.7836 193.288C74.9583 186.612 77.1159 179.988 75.5636 173.297C75.0086 170.913 73.9997 168.62 72.99 166.326C72.4516 165.102 71.913 163.878 71.4428 162.639C69.887 158.078 68.8013 153.369 68.2025 148.587L68.1618 148.331C66.6628 138.895 65.1501 129.374 65.1236 119.834C65.2551 117.455 65.0697 115.069 64.5723 112.739C63.3883 108.388 59.8207 104.709 56.3519 101.181C55.5217 100.341 54.7775 99.3181 54.019 98.276C52.6203 96.354 51.173 94.3654 49.0484 93.3309C43.3891 90.5743 36.5258 85.152 34.1768 81.0835L22.6519 87.7374Z" fill="#57AFD6"/>
<path d="M13.034 93.2871L12.9087 307.742L26.1448 315.384C27.2016 313.554 26.2164 312.818 27.1277 311.081C28.0425 309.336 28.9624 307.582 29.1197 307.474C31.7365 305.6 32.7978 304.263 33.8594 302.926C34.9221 301.587 35.9851 300.248 38.6089 298.37C42.6087 295.518 46.6479 292.574 49.4971 288.989C55.8784 280.862 54.9442 271.222 53.9966 261.446C53.4245 255.542 52.8475 249.589 53.8733 243.888C54.2631 241.736 54.8821 239.608 55.5003 237.482C56.3121 234.69 57.1225 231.903 57.4106 229.075C57.7763 225.309 57.195 221.56 56.6122 217.801C56.114 214.587 55.6146 211.366 55.7048 208.121C55.8788 203.153 57.4727 198.259 59.0576 193.394C61.2323 186.718 63.3899 180.094 61.8376 173.403C61.2862 171.027 60.2772 168.733 59.2685 166.441C58.7296 165.216 58.1907 163.991 57.7218 162.754C56.1643 158.19 55.0769 153.478 54.4764 148.693L54.4091 148.269C52.9186 138.889 51.4155 129.429 51.4026 119.949C51.5274 117.57 51.342 115.185 50.8513 112.854C49.6672 108.503 46.0947 104.815 42.6258 101.287C41.797 100.45 41.0537 99.4283 40.2955 98.3869C38.8985 96.4678 37.4514 94.4799 35.3274 93.4457C34.3326 92.9524 32.9686 91.8752 31.382 90.6222C29.5367 89.1648 27.532 87.5409 26.3957 85.5728L13.034 93.2871Z" fill="#80CFF3"/>
<path d="M5.06111 97.8324L4.92334 303.148L16.5379 309.851C18.5535 305.962 18.6328 302.153 23.874 298.411C27.8775 295.546 31.913 292.615 34.7709 289.026C41.1404 280.901 40.2092 271.27 39.2645 261.499C38.6932 255.591 38.1171 249.632 39.1471 243.925C39.5338 241.772 40.1536 239.641 40.7726 237.511C41.5834 234.723 42.3929 231.939 42.6757 229.117C43.0386 225.348 42.4582 221.601 41.8764 217.844C41.3786 214.63 40.8797 211.409 40.9699 208.162C41.1439 203.194 42.7378 198.301 44.3227 193.436C46.4974 186.76 48.655 180.136 47.1027 173.445C46.5531 171.057 45.5419 168.764 44.53 166.47C43.9909 165.248 43.4517 164.025 42.9819 162.787C41.4307 158.224 40.3451 153.516 39.7416 148.735L39.7009 148.479C38.2019 139.043 36.6892 129.522 36.6627 119.982C36.7942 117.603 36.6088 115.217 36.1114 112.887C34.9274 108.536 31.3598 104.857 27.891 101.329C26.8689 100.295 25.2044 100.708 23.6664 99.888C19.8276 97.8407 16.7604 91.1465 16.7604 91.1465L5.06111 97.8324Z" fill="#F2E8C0"/>
<path d="M6.15068 303.87L6.97603 300.556C7.54516 298.842 7.89451 298.467 9.85252 296.678C13.5264 293.322 12.8476 291.866 16.5042 288.519C19.3072 285.954 22.1607 283.337 24.1433 280.091C31.3125 268.388 25.2987 253.212 27.2116 239.625C27.8391 235.152 29.3493 230.828 29.684 226.327C30.1547 220.063 28.3371 213.814 28.5199 207.531C28.8091 196.972 34.7062 186.766 32.8242 176.386C32.2242 173.107 30.8783 170.016 29.9338 166.82C28.8345 162.689 28.0736 158.474 27.6587 154.219C26.5685 145.611 25.517 137.05 25.47 128.428C25.5663 126.3 25.4383 124.168 25.0881 122.067C24.2534 118.161 21.7567 114.857 19.3263 111.687C17.6746 109.546 12.9011 103.019 10.9419 102.025C7.9011 100.478 7.65793 98.3092 6.32564 97.1616L0.519531 100.535L0.519531 300.613L6.15068 303.87Z" fill="url(#paint2_linear_73_2)"/>
</g>
<defs>
<linearGradient id="paint0_linear_73_2" x1="244.373" y1="79.0185" x2="260.173" y2="50.5147" gradientUnits="userSpaceOnUse">
<stop stop-color="#E8CF96"/>
<stop offset="0.95" stop-color="#E0B568"/>
</linearGradient>
<linearGradient id="paint1_linear_73_2" x1="243.364" y1="322.622" x2="259.659" y2="350.846" gradientUnits="userSpaceOnUse">
<stop stop-color="#E8CF96"/>
<stop offset="0.95" stop-color="#E0B568"/>
</linearGradient>
<linearGradient id="paint2_linear_73_2" x1="33.1614" y1="200.108" x2="0.571415" y2="200.108" gradientUnits="userSpaceOnUse">
<stop stop-color="#E8CF96"/>
<stop offset="0.95" stop-color="#E0B568"/>
</linearGradient>
<clipPath id="clip0_73_2">
<rect width="346.21" height="399.65" fill="white" transform="translate(0.519531 0.650879)"/>
</clipPath>
</defs>
</svg>
