<svg width="740" height="313" viewBox="0 0 740 313" fill="none" xmlns="http://www.w3.org/2000/svg">
<path d="M626.543 156H619.5V163.075V293.264C619.5 300.298 625.176 306 632.177 306H659.544H677.694H684.737H727.139C730.051 306 732.182 304.416 733.349 302.858C734.514 301.303 735.021 299.469 734.999 297.739C734.864 287.109 732.909 276.588 729.223 266.73C725.4 256.505 719.781 247.172 712.658 239.281C709.953 236.284 707.051 233.517 703.975 231C707.051 228.483 709.953 225.716 712.658 222.719C719.781 214.828 725.4 205.495 729.223 195.27C732.909 185.412 734.864 174.891 734.999 164.261C735.021 162.531 734.514 160.697 733.349 159.142C732.182 157.584 730.051 156 727.139 156H684.737H677.694H657.894H650.851H626.543Z" fill="#EEE7DA" stroke="#3A3A37" stroke-width="10"/>
<path d="M113.457 156H120.5V163.075V293.264C120.5 300.298 114.824 306 107.823 306H80.4565H62.3055H55.2628H12.8609C9.94861 306 7.81832 304.416 6.65093 302.858C5.48635 301.303 4.97872 299.469 5.00069 297.739C5.13647 287.109 7.09095 276.588 10.7768 266.73C14.5996 256.505 20.2185 247.172 27.3423 239.281C30.0473 236.284 32.9494 233.517 36.0245 231C32.9494 228.483 30.0473 225.716 27.3423 222.719C20.2185 214.828 14.5996 205.495 10.7768 195.27C7.09095 185.412 5.13647 174.891 5.00069 164.261C4.97872 162.531 5.48635 160.697 6.65093 159.142C7.81832 157.584 9.94861 156 12.8609 156H55.2628H62.3055H82.1062H89.1488H113.457Z" fill="#EEE7DA" stroke="#3A3A37" stroke-width="10"/>
<rect x="70" y="39" width="600" height="235" rx="30" fill="url(#paint0_radial)" stroke="#3A3A37" stroke-width="10"/>
<rect x="80" y="50" width="580" height="214" rx="20" stroke="#FAF8F2" stroke-width="10"/>
<defs>
<radialGradient id="paint0_radial" cx="0" cy="0" r="1" gradientUnits="userSpaceOnUse" gradientTransform="translate(370 156.5) rotate(90) scale(112.5 295)">
<stop offset="0.0729167" stop-color="#FCFAF5"/>
<stop offset="0.9999" stop-color="#EDE5D6"/>
</radialGradient>
</defs>
</svg>
