<svg width="132" height="132" viewBox="0 0 132 132" fill="none" xmlns="http://www.w3.org/2000/svg">
<g clip-path="url(#clip0_7_36)">
<path opacity="0.5" d="M115.1 131.9H21.8999C17.4085 131.9 13.0996 130.113 9.9143 126.929C6.72905 123.746 4.92632 119.425 4.8999 114.909V21.1117C4.92614 16.6138 6.7151 12.3076 9.87879 9.12703C13.0425 5.94646 17.3258 4.14796 21.7999 4.12158H115.1C119.574 4.14796 123.857 5.94646 127.021 9.12703C130.185 12.3076 131.974 16.6138 132 21.1117V114.909C132 119.425 130.223 123.757 127.056 126.959C123.89 130.161 119.591 131.974 115.1 132V131.9Z" fill="black"/>
<path d="M110.2 127.778H16.9C12.4087 127.751 8.1103 125.939 4.94378 122.737C1.77726 119.535 -7.77041e-05 115.203 2.54795e-09 110.687V16.8896C0.0523597 12.4092 1.85284 8.1286 5.01373 4.96965C8.17463 1.8107 12.4431 0.0260482 16.9 4.09859e-08H110.2C114.674 -0.000311257 118.968 1.77268 122.151 4.93445C125.333 8.09622 127.147 12.3918 127.2 16.8896V110.788C127.174 115.303 125.371 119.624 122.186 122.808C119 125.991 114.691 127.778 110.2 127.778Z" fill="#EAE9E4"/>
<path d="M37.2 97.1153C41.6 96.9142 44.2 102.946 40.9 105.962C37.9 109.28 31.7 106.766 32 102.343C31.9718 101.649 32.087 100.956 32.3383 100.309C32.5897 99.6622 32.9717 99.0745 33.4603 98.5833C33.9489 98.0921 34.5335 97.7081 35.1772 97.4554C35.8208 97.2027 36.5096 97.0869 37.2 97.1153ZM54.9 97.1153C59.2 96.9142 61.9 102.946 58.5 105.962C55.5 109.28 49.3 106.766 49.6 102.343C49.5718 101.649 49.687 100.956 49.9383 100.309C50.1897 99.6622 50.5717 99.0745 51.0603 98.5833C51.5489 98.0921 52.1335 97.7081 52.7772 97.4554C53.4208 97.2027 54.1096 97.0869 54.8 97.1153H54.9ZM72.4 97.1153C76.7 96.9142 79.4 102.946 76.1 105.962C73.1 109.28 66.9 106.766 67.2 102.343C67.1718 101.649 67.287 100.956 67.5383 100.309C67.7897 99.6622 68.1717 99.0745 68.6603 98.5833C69.1489 98.0921 69.7335 97.7081 70.3772 97.4554C71.0208 97.2027 71.7096 97.0869 72.4 97.1153ZM90 97.1153C94.3 96.9142 97 102.946 93.7 105.962C90.7 109.28 84.5 106.766 84.8 102.343C84.7718 101.649 84.887 100.956 85.1383 100.309C85.3897 99.6622 85.7717 99.0745 86.2603 98.5833C86.7489 98.0921 87.3335 97.7081 87.9772 97.4554C88.6208 97.2027 89.3096 97.0869 90 97.1153Z" fill="#004405"/>
<path d="M86.4 66.3522C86.4 70.1725 85.7 73.3895 84.4 76.305C83.1 79.2205 81.2 81.4322 78.8 83.3423C76.3582 85.2376 73.5732 86.6375 70.5999 87.4642C63.9999 89.3692 57 89.3692 50.4 87.4642C47.0815 86.628 43.8372 85.5184 40.7 84.1466L42.4 66.5533C46.9466 69.0538 52.0193 70.4322 57.2 70.5746L59.8 70.4741C60.8 70.273 61.9 70.0719 62.8 69.6698C63.8 69.2677 64.7 68.765 65.3 68.1618C66 67.5586 66.3 66.7543 66.3 65.6485C66.3511 64.7557 66.1047 63.8714 65.5999 63.1351C65.0311 62.4195 64.3147 61.8364 63.5 61.4261C59.7325 59.9966 55.7255 59.3138 51.7 59.4154C49.0125 59.4864 46.336 59.7891 43.7 60.3202L45.5 24.6308L81.0999 23.6255L82.0999 42.1236L59.9 40.8167L59.4 48.7588C62.0184 48.1106 64.7034 47.7731 67.4 47.7535C70 47.7535 72.4 48.1556 74.8 49.0604C77.0122 49.9084 79.0352 51.1892 80.7517 52.8286C82.4683 54.468 83.8442 56.4334 84.8 58.6111C85.8301 61.0585 86.341 63.695 86.3 66.3522H86.4Z" fill="#004405"/>
</g>
<defs>
<clipPath id="clip0_7_36">
<rect width="132" height="132" fill="white"/>
</clipPath>
</defs>
</svg>
