<svg version="1.1" id="Layer_1" xmlns="http://www.w3.org/2000/svg" x="0" y="0" width="100" height="100" xml:space="preserve"><style><![CDATA[.st0{fill:#E6AB23}.st1{fill:#808285}.st2{opacity:0.15}.st3{opacity:0.61}.st4{fill:#1B75BC}.st5{fill:#55A4B0}.st6{fill:#561706}.st7{fill:#58595B}.st9{fill:#231F20}.st10{fill:#5B2A2A}.st12{fill:#C1C1C1}.st13{fill:url(#SVGID_1_)}.st14{fill:url(#SVGID_2_)}.st15{fill:url(#SVGID_3_)}.st16{fill:url(#SVGID_4_)}.st17{fill:url(#SVGID_5_)}.st18{fill:url(#SVGID_6_)}.st19{fill:url(#SVGID_7_)}.st20{fill:url(#SVGID_8_)}.st21{fill:url(#SVGID_9_)}.st22{fill:#CCEFFE;stroke:#223948;stroke-width:6;stroke-miterlimit:10}.st23{fill:none;stroke:#58595B;stroke-width:0.75;stroke-miterlimit:10}.st24{fill:#603913}.st25{fill:#FEF4C6}.st26{fill:#FF8E6D}.st27{fill:#FFFFFF}.st28{fill:#66C2E2}.st29{fill:#CCD7CF}.st30{fill:#CCEFFE}.st31{opacity:0.42;fill:#6D330C}.st32{fill:#B4510E;stroke:#4F1607;stroke-width:0.3;stroke-miterlimit:10}.st33{fill:#D35437}.st34{fill:url(#SVGID_10_)}.st35{fill:url(#SVGID_11_)}.st36{fill:url(#SVGID_12_)}.st37{fill:url(#SVGID_13_)}.st38{fill:url(#SVGID_14_)}.st39{fill:url(#SVGID_15_)}.st40{fill:url(#SVGID_16_)}.st41{fill:#B4510E;stroke:#4F1607;stroke-width:2;stroke-miterlimit:10}.st42{fill:#A7A9AC}.st43{fill:#DD952F}.st44{fill:#414042}]]></style><g id="V_1_"><path d="M43.075 84.761c-1.258 0-2.44-.49-3.33-1.38L4.511 48.148c-1.907-1.907-1.907-5.01 0-6.916L14.975 30.77c.923-.924 2.151-1.433 3.458-1.433s2.535.509 3.458 1.433L43.02 51.9l35.038-37.235c.976-.979 2.204-1.487 3.511-1.487s2.535.509 3.458 1.433L95.49 25.074c1.905 1.907 1.905 5.009 0 6.916L46.445 83.34c-.929.931-2.112 1.421-3.37 1.421z" fill="#FFFFFE"/><path d="M81.568 15.678c.612 0 1.224.233 1.69.7l10.463 10.463c.933.934.933 2.447 0 3.381L44.637 81.613c-.431.432-.997.647-1.562.647-.565 0-1.131-.216-1.562-.647L6.279 46.381c-.933-.934-.933-2.447 0-3.38l10.463-10.464c.467-.467 1.078-.7 1.69-.7s1.223.233 1.69.7L43.075 55.49l36.804-39.112c.466-.467 1.078-.7 1.689-.7m0-5c-1.975 0-3.831.77-5.227 2.166l-.053.053-.051.055L42.966 48.31 23.658 29.002c-1.395-1.396-3.251-2.165-5.226-2.165s-3.831.77-5.227 2.166L2.743 39.466c-2.881 2.879-2.882 7.567-.001 10.449l35.234 35.233c1.362 1.362 3.173 2.112 5.098 2.112 1.926 0 3.737-.75 5.099-2.113l.04-.04.039-.041 49.056-51.361c2.828-2.886 2.812-7.535-.051-10.398L86.794 12.843c-1.395-1.396-3.251-2.165-5.226-2.165z" fill="#223948"/></g></svg>