<svg width="349" height="402" viewBox="0 0 349 402" fill="none" xmlns="http://www.w3.org/2000/svg">
<path d="M324.582 114.084L151.36 13.9341L139.983 20.5027C139.982 20.6788 140.724 25.3024 141.766 29.0898C142.612 32.1647 143.382 34.9651 143.396 35.1085C143.711 38.3182 144.676 39.9603 145.64 41.6026C146.605 43.2466 147.571 44.8921 147.886 48.1089C148.276 52.092 149.723 55.546 151.171 59C151.503 59.7936 151.837 60.5889 152.156 61.3898C156.003 70.9777 164.819 74.99 173.759 79.0569C179.158 81.5129 184.602 83.9897 189.027 87.7296C190.694 89.1416 192.229 90.7431 193.761 92.3417C195.772 94.4394 197.781 96.5359 200.086 98.1982C203.168 100.397 206.704 101.768 210.248 103.143C213.281 104.319 216.319 105.497 219.086 107.199C223.301 109.833 226.742 113.66 230.163 117.465C234.857 122.687 239.515 127.867 246.086 129.869C248.428 130.58 250.918 130.853 253.41 131.125L253.427 131.129C254.751 131.274 256.074 131.418 257.376 131.63C262.231 132.588 259.617 138.48 261.381 142.742C264.138 149.404 270.991 152.068 272.966 158.631C274.822 164.799 272.174 169.642 273.352 174.694C275.388 183.432 271.308 184.533 274.445 194.165C276.03 199.03 277.624 203.924 277.798 208.891C277.889 212.138 277.389 215.358 276.891 218.573C276.31 222.33 275.73 226.077 276.093 229.846C276.311 231.995 276.833 234.123 277.426 236.245C277.614 236.915 277.808 237.583 278.002 238.252C278.621 240.378 279.24 242.508 279.629 244.658C280.656 250.36 280.078 256.313 279.506 262.216C278.558 271.992 277.625 281.633 284.005 289.758C284.539 290.436 285.061 291.122 285.582 291.807C287.849 294.787 290.117 297.768 293.371 300.097C296 301.978 296.942 303.638 297.883 305.296C298.823 306.952 299.763 308.608 302.385 310.486C302.457 310.537 303.263 311.345 304.398 312.493L306.782 314.907C309.541 317.703 313.175 320.657 313.327 320.745L324.705 314.176L324.582 114.084Z" fill="#57AFD6"/>
<path d="M334.198 108.535L160.982 8.38135L147.746 16.0232C148.293 16.9704 148.918 17.407 149.462 17.6953C149.969 17.9641 150.474 18.2318 150.98 19.0311L151.001 19.0642C152.047 20.7178 153.093 22.3714 153.107 22.5594C153.422 25.7628 154.049 27.3514 154.676 28.938C155.305 30.5283 155.933 32.1189 156.247 35.3293C156.718 40.2199 157.247 45.1894 158.927 49.4492C162.774 59.0391 171.59 63.0494 180.531 67.1181C185.929 69.574 191.373 72.0511 195.797 75.7893C197.459 77.1976 198.989 78.7929 200.515 80.3838L200.532 80.4011C202.544 82.5005 204.552 84.5956 206.857 86.2596C209.935 88.4587 213.473 89.8303 217.021 91.2058C220.052 92.3806 223.092 93.5594 225.858 95.2601C230.073 97.8943 233.514 101.722 236.935 105.527C241.629 110.748 246.286 115.928 252.857 117.93C255.19 118.64 257.681 118.914 260.171 119.186C261.501 119.331 262.831 119.477 264.138 119.69C272.326 121.305 267.254 129.119 269.928 134.057C273.146 139.998 276.493 138.748 279.69 146.628C281.766 151.744 286.716 154.923 287.624 160.37C288.549 165.918 285.943 171.906 285.392 174.281C283.84 180.973 285.997 187.596 288.172 194.272C289.757 199.138 291.351 204.031 291.525 208.999C291.615 212.244 291.116 215.466 290.617 218.679C290.035 222.439 289.454 226.189 289.819 229.954C290.108 232.782 290.918 235.569 291.73 238.361C292.055 239.479 292.38 240.598 292.672 241.721C292.935 242.733 293.172 243.749 293.357 244.767C294.382 250.467 293.805 256.421 293.233 262.324C292.286 272.101 291.351 281.741 297.733 289.868C300.582 293.453 304.621 296.396 308.621 299.249C311.244 301.126 312.308 302.465 313.371 303.805C314.431 305.141 315.493 306.478 318.11 308.353C318.266 308.459 319.175 310.192 320.084 311.925L320.102 311.959C320.801 313.292 320.336 313.951 320.559 315.013C320.626 315.335 320.839 315.838 321.086 316.264L334.322 308.622L334.198 108.535Z" fill="#80CFF3"/>
<path d="M342.165 103.931L168.946 3.76221L157.334 10.4707C157.973 11.4688 158.762 12.4891 159.453 13.342C161.314 15.6392 163.123 17.8718 163.575 22.5476C164.056 27.4482 164.575 32.4076 166.256 36.6786C170.107 46.2568 178.913 50.2657 187.847 54.332C193.25 56.7923 198.697 59.2718 203.126 63.0184C204.796 64.4289 206.333 66.0316 207.867 67.6332C209.877 69.7294 211.883 71.8214 214.185 73.4778C217.268 75.6767 220.803 77.0476 224.347 78.4226C227.379 79.5971 230.419 80.7765 233.186 82.4784C237.401 85.1126 240.842 88.9399 244.263 92.7451C248.957 97.9667 253.614 103.146 260.186 105.149C261.166 105.449 262.172 105.671 263.193 105.848C264.613 106.093 267.513 106.408 267.513 106.408C267.513 106.408 270.169 106.696 271.475 106.907C276.202 107.845 275.161 111.166 279.605 113.035C284.048 114.903 280.312 121.886 282.936 125.436C285.534 128.952 291.927 130.279 293.671 133.646C295.616 137.4 294.913 140.771 296.175 145.395C298.06 152.3 303.876 151.999 302.501 160.646C301.757 166.545 301.447 168.567 300.122 174.321C298.57 181.013 300.727 187.636 302.902 194.312C304.487 199.177 306.081 204.071 306.255 209.038C306.345 212.285 305.847 215.507 305.348 218.72C304.767 222.477 304.186 226.225 304.55 229.993C304.833 232.816 305.642 235.599 306.452 238.387C307.072 240.517 307.692 242.649 308.078 244.801C309.108 250.509 308.532 256.467 307.961 262.376C307.016 272.146 306.085 281.777 312.454 289.901C315.312 293.492 319.348 296.422 323.351 299.288C327.175 302.018 328.204 304.701 329.263 307.461C329.656 308.485 330.134 309.661 330.679 310.713L342.294 304.011L342.165 103.931Z" fill="#F2E8C0"/>
<path d="M347.973 100.748L174.534 0.612793L167.674 4.4912C167.674 4.4912 173.422 11.9216 173.842 14.5409C174.416 17.835 175.647 20.9799 177.461 23.7885C179.511 26.9876 179.291 31.3365 181.83 34.1658C188.878 42.0337 201.895 46.4226 212.712 54.8704C216.261 57.6497 219.25 61.1188 222.979 63.6581C228.168 67.1972 234.486 68.7468 239.835 72.0459C248.833 77.5745 254.731 87.7818 264.648 91.3409C267.788 92.4606 271.137 92.8305 274.376 93.6203C288.833 97.0954 294.206 114.495 294.206 114.495C294.206 114.495 296.866 120.886 299.949 122.613" fill="url(#paint0_linear_65_14)"/>
<path d="M347.973 100.748L174.534 0.612793L167.674 4.4912C167.674 4.4912 173.422 11.9216 173.842 14.5409C174.416 17.835 175.647 20.9799 177.461 23.7885C179.511 26.9876 179.291 31.3365 181.83 34.1658C188.878 42.0337 201.895 46.4226 212.712 54.8704C216.261 57.6497 219.25 61.1188 222.979 63.6581C228.168 67.1972 234.486 68.7468 239.835 72.0459C248.833 77.5745 254.731 87.7818 264.648 91.3409C267.788 92.4606 271.137 92.8305 274.376 93.6203C288.833 97.0954 294.206 114.495 294.206 114.495C294.206 114.495 296.866 120.886 299.949 122.613" fill="url(#paint1_linear_65_14)"/>
<path d="M299.948 122.596C311.186 128.434 306.843 133.787 310.789 141.374C314.902 149.281 321.832 148.14 319.912 161.726C319.282 166.195 317.783 170.524 317.443 175.013C316.963 181.281 318.783 187.529 318.603 193.808C318.303 204.345 312.424 214.572 314.304 224.95C314.904 228.229 316.253 231.308 317.193 234.507C318.29 238.641 319.049 242.857 319.462 247.114C320.532 255.682 321.612 264.269 321.622 272.907C321.531 275.038 321.662 277.172 322.012 279.276C322.842 283.175 325.341 286.474 327.77 289.643C329.298 291.884 331.211 293.837 333.419 295.411C335.278 296.571 339.73 303.567 341.06 304.717L348.159 300.476L347.973 100.748" fill="url(#paint2_linear_65_14)"/>
<path d="M299.948 122.596C311.186 128.434 306.843 133.787 310.789 141.374C314.902 149.281 321.832 148.14 319.912 161.726C319.282 166.195 317.783 170.524 317.443 175.013C316.963 181.281 318.783 187.529 318.603 193.808C318.303 204.345 312.424 214.572 314.304 224.95C314.904 228.229 316.253 231.308 317.193 234.507C318.29 238.641 319.049 242.857 319.462 247.114C320.532 255.682 321.612 264.269 321.622 272.907C321.531 275.038 321.662 277.172 322.012 279.276C322.842 283.175 325.341 286.474 327.77 289.643C329.298 291.884 331.211 293.837 333.419 295.411C335.278 296.571 339.73 303.567 341.06 304.717L348.159 300.476L347.973 100.748" fill="url(#paint3_linear_65_14)"/>
<path d="M22.1785 288.219L195.4 388.37L206.778 381.801C206.778 381.625 206.036 377.001 204.995 373.214C204.149 370.139 203.378 367.339 203.365 367.195C203.049 363.986 202.085 362.343 201.121 360.701C200.156 359.057 199.189 357.412 198.874 354.195C198.484 350.212 197.037 346.758 195.59 343.304C195.257 342.51 194.924 341.715 194.604 340.914C190.758 331.326 181.941 327.314 173.001 323.247C167.603 320.791 162.158 318.314 157.734 314.574C156.066 313.162 154.531 311.561 152.999 309.962C150.988 307.864 148.979 305.768 146.674 304.106C143.592 301.907 140.057 300.536 136.512 299.161C133.479 297.984 130.441 296.807 127.674 295.105C123.459 292.471 120.018 288.643 116.597 284.838C111.903 279.617 107.246 274.437 100.674 272.435C98.3324 271.723 95.8428 271.451 93.3505 271.178L93.3332 271.175C92.0097 271.03 90.6859 270.885 89.3838 270.674C84.5289 269.716 87.1429 263.824 85.3792 259.562C82.6224 252.899 75.7696 250.236 73.7946 243.673C71.9385 237.505 74.5861 232.661 73.4088 227.609C71.3726 218.872 75.4526 217.771 72.3149 208.139C70.73 203.274 69.136 198.38 68.9625 193.413C68.8717 190.166 69.371 186.945 69.8689 183.731C70.4502 179.974 71.0307 176.226 70.6676 172.458C70.4489 170.308 69.9274 168.181 69.334 166.058C69.1464 165.388 68.9523 164.72 68.7582 164.052C68.1397 161.926 67.52 159.796 67.1311 157.646C66.1046 151.944 66.6818 145.991 67.2541 140.087C68.2021 130.312 69.1355 120.67 62.7553 112.545C62.2216 111.868 61.6996 111.182 61.1785 110.497C58.9109 107.517 56.6433 104.536 53.3888 102.207C50.7606 100.326 49.8187 98.6659 48.8775 97.0082C47.9371 95.3522 46.9973 93.6959 44.3754 91.8178C44.3032 91.767 43.4969 90.9583 42.3627 89.8111L39.9781 87.3967C37.2189 84.601 33.5856 81.6469 33.4329 81.5591L22.0557 88.1277L22.1785 288.219Z" fill="#57AFD6"/>
<path d="M12.5625 293.769L185.778 393.922L199.014 386.281C198.467 385.333 197.842 384.897 197.298 384.608C196.791 384.34 196.286 384.072 195.78 383.273L195.759 383.239C194.713 381.586 193.667 379.932 193.653 379.744C193.338 376.541 192.711 374.952 192.084 373.366C191.456 371.775 190.828 370.185 190.513 366.974C190.043 362.084 189.513 357.114 187.833 352.854C183.986 343.265 175.171 339.254 166.229 335.186C160.831 332.73 155.387 330.253 150.963 326.514C149.301 325.106 147.771 323.511 146.245 321.92L146.228 321.903C144.216 319.803 142.208 317.708 139.903 316.044C136.825 313.845 133.287 312.473 129.74 311.098C126.708 309.923 123.668 308.744 120.903 307.044C116.688 304.409 113.247 300.582 109.826 296.777C105.131 291.555 100.474 286.375 93.9028 284.373C91.5698 283.664 89.0788 283.39 86.5891 283.118C85.2591 282.972 83.9291 282.827 82.6225 282.614C74.4341 280.999 79.5059 273.185 76.832 268.247C73.6145 262.306 70.2669 263.556 67.0701 255.676C64.9942 250.559 60.0445 247.381 59.1362 241.934C58.2109 236.386 60.8169 230.398 61.3686 228.023C62.9205 221.331 60.7633 214.707 58.5884 208.031C57.0035 203.166 55.4095 198.272 55.2356 193.305C55.1454 190.06 55.6445 186.838 56.143 183.625C56.7254 179.865 57.3066 176.115 56.9411 172.35C56.6527 169.521 55.8423 166.735 55.0303 163.943C54.7054 162.824 54.3806 161.706 54.0883 160.583C53.825 159.571 53.5882 158.555 53.4036 157.536C52.3781 151.836 52.9549 145.883 53.5272 139.98C54.4742 130.202 55.409 120.562 49.0274 112.436C46.1784 108.851 42.1393 105.908 38.1394 103.055C35.5162 101.177 34.4527 99.8383 33.3897 98.499C32.329 97.1629 31.2669 95.8253 28.6501 93.9509C28.4945 93.8446 27.5854 92.1119 26.6764 90.3792L26.6581 90.3446C25.959 89.0116 26.4244 88.3528 26.2014 87.2908C26.1344 86.9686 25.9209 86.466 25.6748 86.0398L12.4387 93.6816L12.5625 293.769Z" fill="#80CFF3"/>
<path d="M4.59564 298.372L177.814 398.542L189.426 391.833C188.788 390.835 187.998 389.815 187.307 388.962C185.446 386.664 183.637 384.432 183.185 379.756C182.705 374.855 182.185 369.896 180.505 365.625C176.653 356.047 167.847 352.038 158.913 347.972C153.511 345.511 148.063 343.032 143.634 339.285C141.964 337.875 140.428 336.272 138.893 334.671C136.883 332.574 134.878 330.482 132.575 328.826C129.493 326.627 125.957 325.256 122.413 323.881C119.381 322.707 116.342 321.527 113.574 319.825C109.36 317.191 105.919 313.364 102.498 309.559C97.8033 304.337 93.1461 299.157 86.5747 297.155C85.5946 296.855 84.5885 296.633 83.5668 296.456C82.1473 296.211 79.2477 295.896 79.2477 295.896C79.2477 295.896 76.5913 295.607 75.2853 295.396C70.5581 294.458 71.5988 291.137 67.1557 289.269C62.7125 287.4 66.4482 280.417 63.8247 276.868C61.2262 273.352 54.8334 272.025 53.0892 268.658C51.1445 264.903 51.8476 261.533 50.5851 256.909C48.6998 250.004 42.8847 250.305 44.2591 241.657C45.0032 235.759 45.3136 233.737 46.6382 227.983C48.19 221.291 46.0328 214.668 43.858 207.992C42.2731 203.127 40.679 198.233 40.5051 193.266C40.4148 190.018 40.9131 186.796 41.412 183.583C41.9933 179.826 42.5738 176.079 42.2107 172.31C41.9275 169.488 41.1186 166.705 40.3081 163.916C39.6885 161.787 39.0687 159.655 38.6823 157.503C37.6519 151.794 38.2284 145.837 38.7991 139.928C39.7444 130.158 40.6758 120.527 34.3065 112.402C31.448 108.811 27.4128 105.882 23.4089 103.015C19.5857 100.286 18.5566 97.6032 17.4975 94.843C17.1044 93.8183 16.6266 92.643 16.0813 91.5912L4.46584 98.2929L4.59564 298.372Z" fill="#F2E8C0"/>
<path d="M0.133144 300.955L173.258 401.182L179.086 397.813C179.086 397.813 173.338 390.382 172.918 387.763C172.344 384.469 171.114 381.324 169.299 378.515C167.25 375.316 167.47 370.967 164.93 368.138C157.882 360.27 144.865 355.881 134.048 347.433C130.499 344.654 127.51 341.185 123.781 338.646C118.592 335.107 112.274 333.557 106.925 330.258C97.9277 324.729 92.0292 314.522 82.1118 310.963C78.9726 309.843 75.6235 309.473 72.3843 308.683C57.9277 305.208 52.554 287.809 52.554 287.809C52.554 287.809 49.8939 281.417 46.811 279.691" fill="url(#paint4_linear_65_14)"/>
<path d="M0.133144 300.955L173.258 401.182L179.086 397.813C179.086 397.813 173.338 390.382 172.918 387.763C172.344 384.469 171.114 381.324 169.299 378.515C167.25 375.316 167.47 370.967 164.93 368.138C157.882 360.27 144.865 355.881 134.048 347.433C130.499 344.654 127.51 341.185 123.781 338.646C118.592 335.107 112.274 333.557 106.925 330.258C97.9277 324.729 92.0292 314.522 82.1118 310.963C78.9726 309.843 75.6235 309.473 72.3843 308.683C57.9277 305.208 52.554 287.809 52.554 287.809C52.554 287.809 49.8939 281.417 46.811 279.691" fill="url(#paint5_linear_65_14)"/>
<path d="M46.8127 279.708C35.5742 273.87 39.9176 268.516 35.9711 260.929C31.8586 253.023 24.9284 254.164 26.8479 240.578C27.4778 236.109 28.9774 231.78 29.3173 227.291C29.7971 221.023 27.9776 214.775 28.1576 208.496C28.4575 197.959 34.3359 187.732 32.4564 177.354C31.8566 174.075 30.507 170.996 29.5672 167.797C28.4706 163.663 27.7117 159.447 27.2978 155.19C26.228 146.622 25.1484 138.034 25.1384 129.397C25.2291 127.266 25.0984 125.132 24.7485 123.028C23.9187 119.129 21.4193 115.83 18.9899 112.661C17.462 110.42 15.5497 108.467 13.3414 106.893C11.4819 105.733 7.03012 98.7365 5.70047 97.5868L0.0423646 100.896L0.134884 300.972" fill="url(#paint6_linear_65_14)"/>
<path d="M46.8127 279.708C35.5742 273.87 39.9176 268.516 35.9711 260.929C31.8586 253.023 24.9284 254.164 26.8479 240.578C27.4778 236.109 28.9774 231.78 29.3173 227.291C29.7971 221.023 27.9776 214.775 28.1576 208.496C28.4575 197.959 34.3359 187.732 32.4564 177.354C31.8566 174.075 30.507 170.996 29.5672 167.797C28.4706 163.663 27.7117 159.447 27.2978 155.19C26.228 146.622 25.1484 138.034 25.1384 129.397C25.2291 127.266 25.0984 125.132 24.7485 123.028C23.9187 119.129 21.4193 115.83 18.9899 112.661C17.462 110.42 15.5497 108.467 13.3414 106.893C11.4819 105.733 7.03012 98.7365 5.70047 97.5868L0.0423646 100.896L0.134884 300.972" fill="url(#paint7_linear_65_14)"/>
<defs>
<linearGradient id="paint0_linear_65_14" x1="266.129" y1="55.0434" x2="248.996" y2="83.3356" gradientUnits="userSpaceOnUse">
<stop offset="0.05" stop-color="#E0B568"/>
<stop offset="1" stop-color="#E8CF96"/>
</linearGradient>
<linearGradient id="paint1_linear_65_14" x1="333.755" y1="108.177" x2="317.57" y2="100.213" gradientUnits="userSpaceOnUse">
<stop stop-color="#E0B568"/>
<stop offset="1" stop-color="#E0B568" stop-opacity="0"/>
</linearGradient>
<linearGradient id="paint2_linear_65_14" x1="346.625" y1="202.841" x2="313.482" y2="202.841" gradientUnits="userSpaceOnUse">
<stop offset="0.05" stop-color="#E0B568"/>
<stop offset="1" stop-color="#E8CF96"/>
</linearGradient>
<linearGradient id="paint3_linear_65_14" x1="335.296" y1="106.635" x2="331.614" y2="125.132" gradientUnits="userSpaceOnUse">
<stop stop-color="#E0B568"/>
<stop offset="1" stop-color="#E0B568" stop-opacity="0"/>
</linearGradient>
<linearGradient id="paint4_linear_65_14" x1="80.6314" y1="347.261" x2="97.7639" y2="318.968" gradientUnits="userSpaceOnUse">
<stop offset="0.05" stop-color="#E0B568"/>
<stop offset="1" stop-color="#E8CF96"/>
</linearGradient>
<linearGradient id="paint5_linear_65_14" x1="13.0054" y1="294.127" x2="29.1902" y2="302.091" gradientUnits="userSpaceOnUse">
<stop stop-color="#E0B568"/>
<stop offset="1" stop-color="#E0B568" stop-opacity="0"/>
</linearGradient>
<linearGradient id="paint6_linear_65_14" x1="0.135241" y1="199.463" x2="33.2783" y2="199.463" gradientUnits="userSpaceOnUse">
<stop offset="0.05" stop-color="#E0B568"/>
<stop offset="1" stop-color="#E8CF96"/>
</linearGradient>
<linearGradient id="paint7_linear_65_14" x1="11.464" y1="295.668" x2="15.1462" y2="277.172" gradientUnits="userSpaceOnUse">
<stop stop-color="#E0B568"/>
<stop offset="1" stop-color="#E0B568" stop-opacity="0"/>
</linearGradient>
</defs>
</svg>
