<svg width="128" height="128" viewBox="0 0 128 128" fill="none" xmlns="http://www.w3.org/2000/svg">
<path d="M65.6634 18.0104C65.9632 18.0104 98.6421 45.0642 98.6421 45.0642C98.9419 45.2646 99.0418 45.5651 99.1417 45.8657L106.937 92.9581C107.137 93.9599 106.837 94.6613 106.338 94.6613C106.076 94.6498 105.827 94.5429 105.637 94.3607L100.241 90.0526L98.4423 93.0582L89.2479 108.989H38.6817L29.4873 93.9599L27.2891 90.4534L22.2923 94.3607L21.6928 94.6613C21.0933 94.6613 20.8934 93.9599 21.0933 93.0582L28.8888 45.8657C28.8888 45.5651 29.0886 45.2646 29.2885 45.0642L62.2672 18.0104H65.6654H65.6634ZM62.2652 13.001C60.4667 13.001 59.6674 13.6021 57.668 15.2051L42.4786 27.6295L26.0891 41.1558C24.9107 42.1502 24.1298 43.5377 23.8899 45.0632L16.0954 92.1556C15.7956 94.1593 16.1953 96.1631 17.3943 97.6669C17.9243 98.2917 18.5827 98.7942 19.3245 99.1401C20.0662 99.486 20.8737 99.6669 21.6918 99.6707C23.0816 99.6587 24.4241 99.1629 25.4896 98.268L25.9892 97.8673L34.3833 111.594C34.8315 112.333 35.4628 112.943 36.2158 113.364C36.9691 113.786 37.8174 114.005 38.6797 114H89.2469C90.1357 114.012 91.0117 113.786 91.7848 113.346C92.5582 112.905 93.1996 112.266 93.6443 111.494L101.64 97.5667L102.539 98.268C103.604 99.1629 104.947 99.6587 106.337 99.6707C107.935 99.6707 109.534 98.8691 110.633 97.6669C111.226 96.8938 111.641 95.9988 111.848 95.046C112.056 94.0931 112.05 93.106 111.832 92.1556L104.038 45.0632V44.8628C103.738 43.4602 103.038 42.1577 101.839 41.1558L85.451 27.6295L74.1584 18.4112C67.5628 13.1002 67.5628 13.1002 65.7643 13.1002H62.2662H62.1663L62.2662 13L62.2652 13.001Z" fill="black"/>
<path d="M38.0822 110.191L27.5889 93.3588L64.0647 64.8022L100.641 92.5573L90.348 110.191H38.0822Z" fill="url(#paint0_linear_2_409)"/>
<path d="M64.0648 66.7058L98.6422 92.8579L89.4478 108.689H38.8816L29.6872 93.7596L64.1647 66.7058H64.0648ZM64.1647 62.8987L62.2662 64.3013L27.7888 91.3541L25.6905 93.0572L27.0893 95.3616L36.2837 110.391L37.183 111.693H91.0484L91.9477 110.19L101.142 94.4599L102.441 92.1556L100.443 90.5525L65.8643 64.3013L63.9658 62.8987H64.1647Z" fill="#EC537A"/>
<path d="M21.7927 95.9637C21.4825 95.9637 21.1765 95.8913 20.899 95.7522C20.6215 95.613 20.3802 95.4111 20.194 95.1622C19.6944 94.5611 19.4946 93.5592 19.6944 92.5573L27.49 45.3637C27.6898 44.6624 27.9896 44.0613 28.4892 43.6605L62.4661 16.206H63.9648V61.495C63.9648 62.3967 63.5652 63.1982 62.8657 63.6992L23.4913 95.2624C22.9917 95.6631 22.3922 95.9637 21.7927 95.9637Z" fill="url(#paint1_linear_2_409)"/>
<path d="M62.466 17.7098V61.496C62.466 61.8968 62.2662 62.2975 61.9665 62.4979L22.4921 94.0601C22.2923 94.3607 21.9925 94.4609 21.7927 94.4609C21.2931 94.4609 20.9933 93.7596 21.1932 92.8579L29.0876 45.4649L62.466 17.6096V17.7098ZM62.466 14.604C61.3669 14.604 61.3669 14.604 55.3709 19.6134L44.0772 28.8317L27.5879 42.4583C26.8125 43.1346 26.2849 44.0515 26.0891 45.0632L18.2946 92.2557C17.9948 93.7586 18.2946 95.1612 19.0939 96.1631C19.7933 96.9646 20.7925 97.4655 21.7917 97.4655C22.7494 97.4545 23.6713 97.0989 24.3895 96.4636L63.764 64.9014C64.7631 63.9997 65.4626 62.8976 65.4626 61.495V14.7032H62.464V14.603L62.466 14.604Z" fill="#EC537A"/>
<path d="M106.438 95.9637C105.938 95.9637 105.339 95.6631 104.838 95.2624L65.4646 63.7002C64.7651 63.1992 64.3655 62.3977 64.3655 61.496V16.206H65.8642C66.6636 16.206 67.0633 16.5066 99.8421 43.6605C100.342 44.0613 100.641 44.6624 100.841 45.3637L108.536 92.5573C108.736 93.5592 108.536 94.5611 108.036 95.1622C107.851 95.4107 107.609 95.613 107.331 95.7523C107.054 95.8913 106.748 95.9637 106.438 95.9637Z" fill="url(#paint2_linear_2_409)"/>
<path d="M65.8632 17.7098C66.163 17.7098 98.8419 44.7636 98.8419 44.7636C99.0418 45.0642 99.2416 45.2645 99.2416 45.5651L107.037 92.8579C107.237 93.7596 107.037 94.4609 106.438 94.4609C106.237 94.4609 106.037 94.3607 105.737 94.0601L66.3628 62.4979C66.063 62.2975 65.8632 61.8968 65.8632 61.496V17.7098ZM65.8632 14.7042H62.8647V61.496C62.8647 62.7984 63.4642 64.0007 64.4634 64.9024L104.038 96.4646C105.037 97.2661 105.936 97.4665 106.537 97.4665C107.536 97.4665 108.535 96.9656 109.334 96.1641C110.134 95.1622 110.333 93.7595 110.134 92.2567L102.339 45.1644V45.0642C102.143 44.0525 101.616 43.1356 100.84 42.4593L84.3519 29.0321L73.0593 19.6134C67.0632 14.7042 67.0622 14.7042 65.8632 14.7042Z" fill="#EC537A"/>
<path d="M69.8609 111.995H58.4684L57.4692 100.172C57.4615 99.0512 57.7663 97.951 58.3491 96.995C58.9319 96.039 59.7695 95.2654 60.7675 94.7615C62.7658 93.7596 65.1648 93.7596 67.1632 94.7615H67.363C68.3951 95.2586 69.2636 96.0418 69.8658 97.0183C70.468 97.9948 70.7787 99.1238 70.7612 100.272L69.762 111.995H69.8609Z" fill="black"/>
<defs>
<linearGradient id="paint0_linear_2_409" x1="64.1646" y1="64.8022" x2="64.1646" y2="110.191" gradientUnits="userSpaceOnUse">
<stop offset="0.385" stop-color="#FFCCD9"/>
<stop offset="1" stop-color="#FF8FAC"/>
</linearGradient>
<linearGradient id="paint1_linear_2_409" x1="61.2671" y1="66.9062" x2="26.4438" y2="46.846" gradientUnits="userSpaceOnUse">
<stop offset="0.427" stop-color="#FFCCD9"/>
<stop offset="0.9" stop-color="#FF8FAC"/>
</linearGradient>
<linearGradient id="paint2_linear_2_409" x1="101.741" y1="46.7664" x2="67.0172" y2="66.8277" gradientUnits="userSpaceOnUse">
<stop offset="0.146" stop-color="#FF8FAC"/>
<stop offset="0.563" stop-color="#FFCCD9"/>
</linearGradient>
</defs>
</svg>
