<svg xmlns="http://www.w3.org/2000/svg" width="130" height="130"><path fill="none" stroke="#000" stroke-width="5" stroke-linejoin="round" stroke-miterlimit="10" d="M19.125 37.5c-5.438.25-6.375 4.625-6.375 4.625L5.5 77.313c-.125 2.063 1.063 4.875 1.063 4.875s1.938 3.938 3.813 7.375 5.5 3 5.5 3 96.188 0 99.063-.063 4.375-2.313 4.375-2.313 2.938-5.813 3.75-7.438 1.313-3.25 1.5-4.125-7.375-36.563-7.375-36.563-1.344-4.5-6.438-4.625l-91.626.064z"/><linearGradient id="a" gradientUnits="userSpaceOnUse" x1="64.977" y1="76.457" x2="64.977" y2="91.089"><stop offset="0" stop-color="#7c7d80"/><stop offset=".239" stop-color="#78787b"/><stop offset=".509" stop-color="#6b6b6e"/><stop offset=".792" stop-color="#555557"/><stop offset="1" stop-color="#414042"/></linearGradient><path fill="url(#a)" d="M113.173 91.084H16.75l-.446.005c-1.6 0-3.4-.147-4.525-1.905-.402-.628-3.835-6.963-4.321-9.002-.281-1.179.089-1.97.449-2.426.947-1.198 2.726-1.299 4.468-1.299h105.203c1.742 0 3.521.101 4.468 1.299.36.456.73 1.247.449 2.426-.486 2.039-3.918 8.374-4.321 9.002-1.125 1.758-2.926 1.905-4.525 1.905l-.476-.005z"/><path fill="#231F20" d="M117.578 77.957c1.968 0 3.875.127 3.458 1.877s-3.732 7.928-4.125 8.541c-.617.963-1.518 1.214-3.263 1.214-.143 0-.291-.002-.445-.005H16.75c-.154.003-.303.005-.445.005-1.745 0-2.646-.251-3.263-1.214-.393-.613-3.708-6.791-4.125-8.541s1.49-1.877 3.458-1.877h105.203m0-3H12.375c-1.559 0-4.168 0-5.645 1.87-.799 1.012-1.059 2.326-.731 3.702.563 2.363 4.201 8.97 4.517 9.463 1.662 2.597 4.45 2.597 5.79 2.597.152 0 .311-.002.475-.005h96.395c.164.003.322.005.475.005 1.34 0 4.127 0 5.79-2.597.315-.493 3.953-7.1 4.517-9.463.328-1.376.068-2.69-.731-3.702-1.48-1.87-4.09-1.87-5.649-1.87z"/><g><linearGradient id="b" gradientUnits="userSpaceOnUse" x1="65.001" y1="82.103" x2="65.001" y2="38.982"><stop offset="0" stop-color="#7c7d80"/><stop offset=".239" stop-color="#78787b"/><stop offset=".509" stop-color="#6b6b6e"/><stop offset=".792" stop-color="#555557"/><stop offset="1" stop-color="#414042"/></linearGradient><path fill="url(#b)" d="M10.992 82.104c-2.752 0-3.984-2.08-3.984-4.141 0-.101.01-.201.03-.299l7.143-35.132c.473-2.134 2.576-3.55 5.238-3.55h91.102c2.507 0 4.241 1.1 5.154 3.267.038.091.067.185.087.282l7.024 34.39c.382.966.229 2.222-.415 3.271-.744 1.215-1.989 1.911-3.417 1.911H10.992z"/><path fill="#231F20" d="M110.521 40.482c2.097 0 3.167.913 3.771 2.349l7.057 34.546c.497.976-.299 3.227-2.395 3.227H10.992c-2.096 0-2.484-1.658-2.484-2.641l7.143-35.132c.289-1.303 1.672-2.349 3.769-2.349h91.101m0-3H19.419c-3.382 0-6.073 1.889-6.697 4.699l-.011.052-7.143 35.132c-.04.197-.061.396-.061.598 0 3.321 2.255 5.641 5.484 5.641h107.962c1.961 0 3.673-.957 4.696-2.627.854-1.396 1.064-3.09.584-4.463l-7.003-34.283a2.986 2.986 0 00-.175-.563c-1.151-2.738-3.411-4.186-6.534-4.186z"/></g></svg>