<svg width="100" height="100" viewBox="0 0 100 100" fill="none" xmlns="http://www.w3.org/2000/svg">
<path d="M87.6135 100H15.6013C8.76092 100 0 94.4995 0 87.7115L0.803865 15.4776C0.803865 8.69176 7.95705 3.19053 14.7974 3.19053L87.6142 0C94.4538 0 100 8.69176 100 15.4776V87.7115C99.9993 94.4995 94.4531 100 87.6135 100Z" fill="#54C2E4"/>
<path d="M12.332 93.9066C6.72102 93.9066 2.15601 89.3423 2.15601 83.7334V12.3232C2.15601 6.71296 6.72032 2.14795 12.332 2.14795H83.7408C89.3511 2.14795 93.9154 6.71296 93.9154 12.3232V83.7334C93.9154 89.3423 89.3511 93.9066 83.7408 93.9066H12.332Z" fill="url(#paint0_radial_1205_553111)"/>
<path d="M83.7406 4.11847C88.2649 4.11847 91.9454 7.79968 91.9454 12.3233V83.7335C91.9454 88.2564 88.2656 91.9369 83.7406 91.9369H12.3318C7.80676 91.9369 4.12555 88.2571 4.12555 83.7335V12.3233C4.12555 7.79968 7.80676 4.11847 12.3318 4.11847H83.7406ZM83.7406 0.178223H12.3318C5.62429 0.178223 0.185303 5.61581 0.185303 12.3233V83.7335C0.185303 90.441 5.62289 95.8772 12.3318 95.8772H83.7406C90.4481 95.8772 95.8856 90.441 95.8856 83.7335V12.3233C95.8856 5.61581 90.4474 0.178223 83.7406 0.178223Z" fill="#F6FFFF"/>
<defs>
<radialGradient id="paint0_radial_1205_553111" cx="0" cy="0" r="1" gradientUnits="userSpaceOnUse" gradientTransform="translate(48.0354 48.0277) scale(45.8792 45.8795)">
<stop stop-color="#E4F9FA"/>
<stop offset="0.1826" stop-color="#DBF3FA"/>
<stop offset="0.4803" stop-color="#C3EEFC"/>
<stop offset="0.8541" stop-color="#9BE6FE"/>
<stop offset="1" stop-color="#8AE3FF"/>
</radialGradient>
</defs>
</svg>
