<svg width="347" height="401" viewBox="0 0 347 401" fill="none" xmlns="http://www.w3.org/2000/svg">
<g clip-path="url(#clip0_64_141)">
<path d="M4.39014 104.695V296.695L173.39 396.695L342.39 296.695V104.695L173.39 4.69507L4.39014 104.695Z" fill="url(#paint0_radial_64_141)"/>
<path d="M173.39 34.1951L317.423 117.395V283.995L173.39 367.195L29.3566 283.995V117.395L173.39 34.1951ZM173.39 4.69507L4.39014 104.695V296.695L173.39 396.695L342.39 296.695V104.695L173.39 4.69507Z" fill="url(#paint1_linear_64_141)"/>
<path d="M173.39 29.5951L321.419 115.095V286.295L173.39 371.695L25.3612 286.295V115.095L173.39 29.6951M173.39 4.69507L4.39014 104.695V296.695L173.39 396.695L342.39 296.695V104.695L173.39 4.69507Z" fill="url(#paint2_linear_64_141)"/>
<path d="M173.39 15.6951L333.405 108.195V293.195L173.39 385.695L13.3751 293.195V108.195L173.39 15.6951ZM173.39 4.69507L4.39014 104.695V296.695L173.39 396.695L342.39 296.695V104.695L173.39 4.69507Z" fill="#877D52"/>
<path d="M173.39 13.3951L335.403 106.995V294.295L173.39 387.995L11.3774 294.295V107.095L173.39 13.3951ZM173.39 0.695068L0.390137 100.695V300.695L173.39 400.695L346.39 300.695V100.695L173.39 0.695068Z" fill="#E0B568"/>
<path d="M91.1851 136.295C89.587 136.295 88.0887 136.695 86.7902 137.295C85.9254 135.106 84.405 133.239 82.4377 131.95C80.4704 130.66 78.1527 130.013 75.8029 130.095C69.6101 130.095 64.4161 134.695 64.4161 140.395L64.516 141.695H64.2163C58.9224 141.695 54.6274 144.995 54.6274 149.095C54.6274 153.195 59.0223 155.095 64.3162 155.095C68.9109 155.095 71.408 153.695 73.7053 150.595C74.4045 150.695 77.2013 148.795 77.9005 148.695C80.2977 148.495 82.2954 148.095 84.8924 146.695C86.7902 147.495 89.7867 146.995 92.2839 146.995C96.6788 146.995 99.1759 146.295 99.1759 142.695C99.1759 139.095 95.58 136.295 91.1851 136.295ZM295.249 143.395C293.265 143.383 291.308 143.864 289.556 144.795C288.475 141.866 286.509 139.347 283.93 137.591C281.352 135.834 278.29 134.927 275.172 134.995C266.882 134.995 260.19 141.295 260.19 148.995L260.29 150.695H259.89C252.898 150.695 247.305 155.195 247.305 160.695C247.305 166.195 253.098 168.695 259.99 168.695C266.083 168.695 269.379 166.895 272.276 162.695C273.275 162.895 276.87 160.195 277.869 160.195C280.966 159.895 283.563 159.395 287.158 157.495C289.456 158.495 293.351 157.895 296.747 157.895C302.441 157.895 305.737 156.895 305.737 152.095C305.737 147.295 301.042 143.395 295.349 143.395H295.249Z" fill="#936037"/>
<path d="M64.1165 142.395C60.1211 142.395 56.0259 144.995 56.0259 147.595C56.0259 150.195 59.6217 154.095 63.3175 152.295C69.6102 149.295 70.5091 148.995 70.5091 146.395C70.5091 143.795 68.2118 142.395 64.1165 142.395ZM75.9029 130.895C70.5091 130.895 65.8146 134.295 65.8146 137.495C65.8146 140.695 70.4093 144.795 75.6032 143.295C79.8983 142.095 81.6962 140.295 85.3919 137.495C87.889 135.495 81.3966 130.895 75.9029 130.895ZM92.284 136.795C90.0865 136.795 87.5894 136.995 87.2897 138.995C87.09 141.595 89.2874 140.795 92.284 140.795C95.2805 140.795 98.277 142.095 98.277 140.295C98.277 138.495 94.6812 136.895 92.284 136.795ZM260.689 149.495C255.495 149.095 250.101 152.195 249.702 155.795C249.402 159.395 253.597 165.195 258.492 163.195C266.782 159.795 267.981 159.495 268.28 155.795C268.58 152.195 265.783 149.995 260.689 149.495Z" fill="#D1B886"/>
<path d="M276.97 134.995C270.078 134.395 263.785 138.495 263.386 142.995C262.986 147.495 268.38 153.595 275.072 152.095C280.666 150.895 283.163 148.695 288.157 145.095C291.553 142.695 283.762 135.595 276.97 134.995ZM296.947 144.995C294.15 144.695 290.954 144.695 290.455 147.395C289.755 150.995 292.652 150.095 296.448 150.395C300.243 150.795 303.839 152.995 304.139 150.395C304.339 147.795 299.944 145.395 296.947 144.995Z" fill="#D1B886"/>
<path d="M170.793 152.795C165.199 152.795 161.903 151.595 160.205 148.795C158.607 146.295 158.607 142.995 158.707 138.695V126.395H148.918C148.219 126.395 147.42 126.295 146.721 126.095C142.825 124.795 142.326 120.695 142.326 116.895L142.426 107.595C142.426 105.295 143.425 102.595 148.219 102.595C152.414 102.595 154.312 104.795 154.312 109.395V111.795H158.707V67.0951C158.707 62.9951 164.4 57.6951 170.693 57.6951H174.888C181.581 57.6951 186.974 63.0951 186.974 69.7951V89.8951H190.97V83.6951C190.97 77.3951 194.166 73.9951 199.959 73.9951C205.753 73.9951 209.049 77.3951 209.049 83.6951L208.649 99.7951C208.649 106.095 205.153 108.395 202.257 109.195H202.057C201.058 109.495 200.059 109.595 198.861 109.595H186.974V142.195C187.074 145.195 187.174 148.095 184.977 150.195C183.179 152.095 179.982 152.895 174.988 152.895H170.793V152.795Z" fill="#B5B57C"/>
<path d="M174.888 59.0951C180.781 59.0951 185.476 63.8951 185.476 69.6951V91.2951H192.468V83.5951C192.468 78.0951 194.965 75.3951 199.959 75.3951C204.954 75.3951 207.55 78.0951 207.55 83.5951L207.151 99.5951C207.151 103.995 205.453 106.595 201.857 107.595H201.757C200.758 107.895 199.859 107.995 198.861 107.995H185.476V140.695C185.476 146.595 186.675 151.295 174.888 151.295H170.793C159.806 151.295 160.205 146.595 160.205 137.995V124.895H148.918C148.341 124.877 147.769 124.776 147.22 124.595H147.12C144.923 123.895 143.824 121.895 143.824 116.895L143.924 107.595C143.924 105.295 145.223 104.095 148.219 104.095C151.216 104.095 152.814 105.295 152.814 109.395V113.395H156.809C158.108 113.395 159.206 113.395 160.205 113.595V66.9951C160.205 63.8951 164.9 58.9951 170.793 58.9951H174.888M174.888 55.9951H170.793C167.397 55.9951 164.101 57.2951 161.404 59.5951C158.707 61.6951 157.209 64.5951 157.209 66.9951V110.295H155.81V109.295C155.81 102.595 151.715 101.095 148.219 101.095C141.627 101.095 140.928 105.695 140.928 107.595V116.895C140.928 120.995 141.427 125.895 146.122 127.495H146.321C147.163 127.755 148.038 127.89 148.918 127.895H157.209V138.695C157.209 143.195 157.209 146.695 158.907 149.695C161.504 153.795 166.598 154.295 170.793 154.295H174.888C180.482 154.295 183.878 153.295 186.075 151.095C188.672 148.595 188.572 145.095 188.572 142.095V110.995H198.861C200.142 110.994 201.418 110.826 202.656 110.495C205.453 109.795 210.147 107.395 210.147 99.6951L210.547 83.6951C210.547 76.4951 206.751 72.3951 199.959 72.3951C193.167 72.3951 189.471 76.3951 189.471 83.5951V88.2951H188.473V69.6951C188.473 62.1951 182.479 56.0951 174.888 56.0951V55.9951Z" fill="#4D491A"/>
<path d="M200.159 104.095C198.761 104.095 194.965 105.095 192.468 103.095V91.2951H185.476V69.6951C185.476 63.6951 180.282 59.7951 177.186 59.4951C176.786 62.6951 177.186 146.895 177.186 148.495C177.186 149.995 175.687 150.395 175.388 150.295C167.996 150.795 166.398 149.995 161.903 147.295C160.904 145.995 161.204 123.695 161.204 123.695C160.305 123.495 158.208 123.395 156.809 123.395H152.814L145.822 123.595C145.822 124.995 150.217 124.895 151.815 124.895H160.105V138.095C160.105 146.595 159.806 151.395 170.793 151.395H174.788C186.575 151.395 185.476 146.595 185.476 140.695V107.995H198.861C199.859 107.995 200.858 107.995 201.657 107.695H201.857C205.353 106.695 207.151 103.995 207.151 99.6951L207.451 82.2951C207.451 77.9951 202.556 74.6951 202.057 76.2951C200.259 81.9951 203.455 103.995 200.159 104.195V104.095Z" fill="#918E5A"/>
<path d="M146.921 103.495H145.722V121.895H159.906V120.695H146.921V103.495Z" fill="#4D491A"/>
<path d="M150.616 117.095V103.295H149.418V118.295H160.005V117.095H150.616ZM196.463 74.4951H197.662V97.2951H196.463V74.4951ZM202.756 75.0951H203.955V103.495H202.756V75.0951Z" fill="#4D491A"/>
<path d="M185.376 102.395H203.755V103.595H185.376V102.395ZM185.376 96.095H197.063V97.295H185.376V96.095Z" fill="#4D491A"/>
<path d="M172.291 57.595H173.79V153.395H172.291V57.595ZM164.5 57.595H165.999V153.395H164.5V57.595ZM179.483 57.595H180.981V153.395H179.483V57.595Z" fill="#4D491A"/>
</g>
<defs>
<radialGradient id="paint0_radial_64_141" cx="0" cy="0" r="1" gradientUnits="userSpaceOnUse" gradientTransform="translate(173.39 200.695) scale(186.884 187.1)">
<stop stop-color="#DBD497"/>
<stop offset="0.4" stop-color="#D4CC8E"/>
<stop offset="1" stop-color="#BFB675"/>
</radialGradient>
<linearGradient id="paint1_linear_64_141" x1="173.39" y1="400.695" x2="173.39" y2="0.695072" gradientUnits="userSpaceOnUse">
<stop stop-color="#DED09E"/>
<stop offset="0.2" stop-color="#D8CB9A"/>
<stop offset="0.5" stop-color="#CFC393"/>
<stop offset="0.7" stop-color="#877D52"/>
</linearGradient>
<linearGradient id="paint2_linear_64_141" x1="173.39" y1="0.695069" x2="173.39" y2="400.695" gradientUnits="userSpaceOnUse">
<stop stop-color="#DED09E"/>
<stop offset="0.2" stop-color="#D8CB9A"/>
<stop offset="0.5" stop-color="#CFC393"/>
<stop offset="0.7" stop-color="#877D52"/>
<stop offset="1" stop-color="#CFC393"/>
</linearGradient>
<clipPath id="clip0_64_141">
<rect width="346" height="400" fill="white" transform="translate(0.390137 0.695068)"/>
</clipPath>
</defs>
</svg>
