<?xml version="1.0" encoding="UTF-8"?>
<!DOCTYPE svg PUBLIC "-//W3C//DTD SVG 1.1//EN" "http://www.w3.org/Graphics/SVG/1.1/DTD/svg11.dtd">
<svg xmlns="http://www.w3.org/2000/svg" version="1.1" width="320px" height="320px" style="shape-rendering:geometricPrecision; text-rendering:geometricPrecision; image-rendering:optimizeQuality; fill-rule:evenodd; clip-rule:evenodd" xmlns:xlink="http://www.w3.org/1999/xlink">
<g><path style="opacity:1" fill="#d18712" d="M 181.5,45.5 C 181.5,46.1667 181.167,46.5 180.5,46.5C 177.873,45.9084 175.206,45.5751 172.5,45.5C 168.764,44.0109 164.764,43.3442 160.5,43.5C 160.766,39.4295 160.433,35.4295 159.5,31.5C 159.167,31.1667 158.833,30.8333 158.5,30.5C 157.148,31.5244 155.815,32.5244 154.5,33.5C 156.571,27.808 159.737,27.1414 164,31.5C 164.803,34.2442 165.803,36.9109 167,39.5C 172.36,33.7306 174.693,35.0639 174,43.5C 176.126,41.6234 178.626,40.6234 181.5,40.5C 181.5,42.1667 181.5,43.8333 181.5,45.5 Z"/></g>
<g><path style="opacity:1" fill="#540f0e" d="M 219.5,43.5 C 218.391,43.5569 217.391,43.8902 216.5,44.5C 217.11,39.3449 215.944,34.6782 213,30.5C 210.37,33.7559 207.87,37.0893 205.5,40.5C 204.5,40.1667 203.833,39.5 203.5,38.5C 203.5,37.8333 203.5,37.1667 203.5,36.5C 204.239,36.631 204.906,36.4643 205.5,36C 207.82,32.5153 210.487,29.3487 213.5,26.5C 218.087,31.1477 220.087,36.8144 219.5,43.5 Z"/></g>
<g><path style="opacity:1" fill="#c3312c" d="M 113.5,40.5 C 109.811,45.5581 107.477,51.2248 106.5,57.5C 105.662,57.8417 105.328,58.5084 105.5,59.5C 103.265,55.2126 102.265,50.5459 102.5,45.5C 102.5,45.1667 102.5,44.8333 102.5,44.5C 102.341,39.4466 103.508,34.7799 106,30.5C 107.803,34.4775 110.303,37.8108 113.5,40.5 Z"/></g>
<g><path style="opacity:1" fill="#bf312b" d="M 216.5,44.5 C 216.5,44.8333 216.5,45.1667 216.5,45.5C 216.735,50.5459 215.735,55.2126 213.5,59.5C 212.657,53.9563 210.657,48.9563 207.5,44.5C 207.267,42.9382 206.6,41.6049 205.5,40.5C 207.87,37.0893 210.37,33.7559 213,30.5C 215.944,34.6782 217.11,39.3449 216.5,44.5 Z"/></g>
<g><path style="opacity:1" fill="#500f0e" d="M 116.5,36.5 C 115.89,37.391 115.557,38.391 115.5,39.5C 114.833,39.8333 114.167,40.1667 113.5,40.5C 110.303,37.8108 107.803,34.4775 106,30.5C 103.508,34.7799 102.341,39.4466 102.5,44.5C 101.609,43.8902 100.609,43.5569 99.5,43.5C 98.9125,36.8144 100.913,31.1477 105.5,26.5C 108.503,29.3086 111.169,32.4753 113.5,36C 114.448,36.4828 115.448,36.6495 116.5,36.5 Z"/></g>
<g><path style="opacity:0.992" fill="#8c4101" d="M 183.5,40.5 C 183.167,41.8333 182.833,43.1667 182.5,44.5C 182.5,45.1667 182.167,45.5 181.5,45.5C 181.5,43.8333 181.5,42.1667 181.5,40.5C 178.626,40.6234 176.126,41.6234 174,43.5C 174.693,35.0639 172.36,33.7306 167,39.5C 165.803,36.9109 164.803,34.2442 164,31.5C 159.737,27.1414 156.571,27.808 154.5,33.5C 153.766,34.7079 153.433,36.0413 153.5,37.5C 152.778,37.9175 152.278,38.5842 152,39.5C 146.173,33.3242 143.839,34.6575 145,43.5C 142.092,40.5233 139.259,40.19 136.5,42.5C 135.662,42.1583 135.328,41.4916 135.5,40.5C 135.962,39.1201 136.962,38.4534 138.5,38.5C 140.135,39.0463 141.801,39.3796 143.5,39.5C 143.5,37.8333 143.5,36.1667 143.5,34.5C 146.365,34.0548 148.865,34.7215 151,36.5C 156.612,23.1781 162.279,23.1781 168,36.5C 170.135,34.7215 172.635,34.0548 175.5,34.5C 175.5,36.1667 175.5,37.8333 175.5,39.5C 177.342,39.2767 179.175,38.9434 181,38.5C 182.376,38.6842 183.209,39.3509 183.5,40.5 Z"/></g>
<g><path style="opacity:1" fill="#e8ab28" d="M 160.5,43.5 C 158.167,43.5 155.833,43.5 153.5,43.5C 153.5,41.5 153.5,39.5 153.5,37.5C 153.433,36.0413 153.766,34.7079 154.5,33.5C 155.815,32.5244 157.148,31.5244 158.5,30.5C 158.833,30.8333 159.167,31.1667 159.5,31.5C 160.433,35.4295 160.766,39.4295 160.5,43.5 Z"/></g>
<g><path style="opacity:0.722" fill="#4b4339" d="M 116.5,36.5 C 119.724,36.2035 122.724,36.8702 125.5,38.5C 129.192,37.2841 132.525,37.9507 135.5,40.5C 135.328,41.4916 135.662,42.1583 136.5,42.5C 136.5,43.1667 136.5,43.8333 136.5,44.5C 136.167,44.5 135.833,44.5 135.5,44.5C 132.689,41.0074 129.189,40.0074 125,41.5C 122.297,38.655 119.13,37.9883 115.5,39.5C 115.557,38.391 115.89,37.391 116.5,36.5 Z"/></g>
<g><path style="opacity:1" fill="#483b31" d="M 203.5,36.5 C 203.5,37.1667 203.5,37.8333 203.5,38.5C 199.946,38.1497 196.612,38.8163 193.5,40.5C 190.75,38.9215 188.417,39.2549 186.5,41.5C 185.833,42.8333 184.833,43.8333 183.5,44.5C 183.167,44.5 182.833,44.5 182.5,44.5C 182.833,43.1667 183.167,41.8333 183.5,40.5C 186.475,37.9507 189.808,37.2841 193.5,38.5C 196.612,36.8163 199.946,36.1497 203.5,36.5 Z"/></g>
<g><path style="opacity:1" fill="#807a70" d="M 203.5,38.5 C 203.833,39.5 204.5,40.1667 205.5,40.5C 206.6,41.6049 207.267,42.9382 207.5,44.5C 205.386,42.2129 202.886,40.5463 200,39.5C 197.79,40.0215 195.623,40.6882 193.5,41.5C 191.147,40.1786 188.814,40.1786 186.5,41.5C 188.417,39.2549 190.75,38.9215 193.5,40.5C 196.612,38.8163 199.946,38.1497 203.5,38.5 Z"/></g>
<g><path style="opacity:1" fill="#e5e1e0" d="M 135.5,44.5 C 137.18,50.2334 140.513,54.5667 145.5,57.5C 148.486,60.8357 149.819,64.8357 149.5,69.5C 149.733,71.0618 150.4,72.3951 151.5,73.5C 151.5,76.5 151.5,79.5 151.5,82.5C 148.751,82.2739 146.084,82.6072 143.5,83.5C 142.365,81.2933 141.699,78.9599 141.5,76.5C 141.054,66.7933 136.721,58.9599 128.5,53C 125.449,52.1433 122.783,52.81 120.5,55C 127.683,55.548 132.517,59.048 135,65.5C 133.871,63.8588 132.371,62.8588 130.5,62.5C 128.847,62.3404 127.514,61.6737 126.5,60.5C 121.457,58.5047 117.29,59.838 114,64.5C 107.724,76.4014 108.058,88.0681 115,99.5C 116.741,100.758 118.574,101.758 120.5,102.5C 124.167,102.5 127.833,102.5 131.5,102.5C 134.738,101.262 137.738,99.5958 140.5,97.5C 140.414,98.4959 140.748,99.3292 141.5,100C 138.952,102.442 135.952,104.108 132.5,105C 126.472,105.641 120.472,105.474 114.5,104.5C 112.471,102.142 110.471,99.8082 108.5,97.5C 106.926,95.8984 106.259,93.8984 106.5,91.5C 105.365,80.1814 105.365,68.8481 106.5,57.5C 107.477,51.2248 109.811,45.5581 113.5,40.5C 114.167,40.1667 114.833,39.8333 115.5,39.5C 119.13,37.9883 122.297,38.655 125,41.5C 129.189,40.0074 132.689,41.0074 135.5,44.5 Z"/></g>
<g><path style="opacity:1" fill="#c98310" d="M 153.5,37.5 C 153.5,39.5 153.5,41.5 153.5,43.5C 150.848,43.4095 148.515,44.0762 146.5,45.5C 143.763,45.4013 141.096,45.7347 138.5,46.5C 137.5,46.1667 136.833,45.5 136.5,44.5C 136.5,43.8333 136.5,43.1667 136.5,42.5C 139.259,40.19 142.092,40.5233 145,43.5C 143.839,34.6575 146.173,33.3242 152,39.5C 152.278,38.5842 152.778,37.9175 153.5,37.5 Z"/></g>
<g><path style="opacity:1" fill="#e7e4e3" d="M 207.5,44.5 C 210.657,48.9563 212.657,53.9563 213.5,59.5C 213.5,60.5 213.5,61.5 213.5,62.5C 214.374,70.1517 214.541,77.8184 214,85.5C 212.521,89.4174 211.354,93.4174 210.5,97.5C 208.529,99.8082 206.529,102.142 204.5,104.5C 196.344,106.227 188.344,105.727 180.5,103C 178.561,102.092 177.561,100.592 177.5,98.5C 177.56,97.9569 177.893,97.6236 178.5,97.5C 181.368,99.5318 184.368,101.365 187.5,103C 191.027,103.808 194.36,103.641 197.5,102.5C 203.047,101.456 206.547,98.1225 208,92.5C 209.536,86.2506 209.87,79.9172 209,73.5C 207.131,63.6107 201.297,59.1107 191.5,60C 190.058,60.3768 189.058,61.2101 188.5,62.5C 186.629,62.8588 185.129,63.8588 184,65.5C 186.483,59.048 191.317,55.548 198.5,55C 196.217,52.81 193.551,52.1433 190.5,53C 181.655,59.866 176.988,68.6993 176.5,79.5C 176.5,80.8333 176.5,82.1667 176.5,83.5C 173.545,82.8413 170.545,82.5079 167.5,82.5C 167.5,79.8333 167.5,77.1667 167.5,74.5C 167.328,73.5084 167.662,72.8417 168.5,72.5C 170.101,67.7089 171.767,62.7089 173.5,57.5C 173.5,56.8333 173.833,56.5 174.5,56.5C 175.901,56.0291 177.234,55.3624 178.5,54.5C 180.193,51.1136 181.86,47.7802 183.5,44.5C 184.833,43.8333 185.833,42.8333 186.5,41.5C 188.814,40.1786 191.147,40.1786 193.5,41.5C 195.623,40.6882 197.79,40.0215 200,39.5C 202.886,40.5463 205.386,42.2129 207.5,44.5 Z"/></g>
<g><path style="opacity:1" fill="#86261d" d="M 153.5,43.5 C 155.833,43.5 158.167,43.5 160.5,43.5C 164.764,43.3442 168.764,44.0109 172.5,45.5C 163.827,44.261 155.16,44.261 146.5,45.5C 148.515,44.0762 150.848,43.4095 153.5,43.5 Z"/></g>
<g><path style="opacity:1" fill="#8f8377" d="M 135.5,44.5 C 135.833,44.5 136.167,44.5 136.5,44.5C 136.833,45.5 137.5,46.1667 138.5,46.5C 139.185,50.9076 141.518,53.9076 145.5,55.5C 145.5,56.1667 145.5,56.8333 145.5,57.5C 140.513,54.5667 137.18,50.2334 135.5,44.5 Z"/></g>
<g><path style="opacity:1" fill="#928276" d="M 182.5,44.5 C 182.833,44.5 183.167,44.5 183.5,44.5C 181.86,47.7802 180.193,51.1136 178.5,54.5C 177.234,55.3624 175.901,56.0291 174.5,56.5C 174.5,56.1667 174.5,55.8333 174.5,55.5C 177.579,53.3471 179.579,50.3471 180.5,46.5C 181.167,46.5 181.5,46.1667 181.5,45.5C 182.167,45.5 182.5,45.1667 182.5,44.5 Z"/></g>
<g><path style="opacity:1" fill="#c33430" d="M 172.5,45.5 C 175.206,45.5751 177.873,45.9084 180.5,46.5C 179.579,50.3471 177.579,53.3471 174.5,55.5C 168.292,57.1958 165.458,61.1958 166,67.5C 166.708,68.3805 167.542,69.0472 168.5,69.5C 168.5,70.5 168.5,71.5 168.5,72.5C 167.662,72.8417 167.328,73.5084 167.5,74.5C 167.002,78.2699 166.002,81.9366 164.5,85.5C 161.572,85.3939 158.572,85.7272 155.5,86.5C 154.878,85.3734 154.045,84.3734 153,83.5C 152.821,79.9748 152.321,76.6414 151.5,73.5C 150.4,72.3951 149.733,71.0618 149.5,69.5C 153.146,68.5385 154.313,66.2051 153,62.5C 151.285,59.2832 148.785,56.9498 145.5,55.5C 141.518,53.9076 139.185,50.9076 138.5,46.5C 141.096,45.7347 143.763,45.4013 146.5,45.5C 155.16,44.261 163.827,44.261 172.5,45.5 Z"/></g>
<g><path style="opacity:0.868" fill="#8c4302" d="M 99.5,43.5 C 100.609,43.5569 101.609,43.8902 102.5,44.5C 102.5,44.8333 102.5,45.1667 102.5,45.5C 101.353,49.6463 101.186,53.9796 102,58.5C 102.5,59 103,59.5 103.5,60C 102.02,62.2345 102.353,64.0679 104.5,65.5C 104.5,65.8333 104.5,66.1667 104.5,66.5C 103.833,67.1667 103.167,67.8333 102.5,68.5C 100.905,61.6482 99.5713,54.4815 98.5,47C 98.6483,45.7441 98.9816,44.5774 99.5,43.5 Z"/></g>
<g><path style="opacity:1" fill="#cdcbc7" d="M 141.5,76.5 C 141.167,76.5 140.833,76.5 140.5,76.5C 139.662,76.1583 139.328,75.4916 139.5,74.5C 137.808,69.013 134.141,67.1797 128.5,69C 118.614,74.1343 115.781,81.9676 120,92.5C 123.677,97.4231 128.51,99.7564 134.5,99.5C 132.735,100.461 130.735,100.795 128.5,100.5C 120.145,98.2951 116.145,92.7951 116.5,84C 116.99,73.175 122.657,67.175 133.5,66C 132.29,64.9609 131.29,63.7942 130.5,62.5C 132.371,62.8588 133.871,63.8588 135,65.5C 132.517,59.048 127.683,55.548 120.5,55C 122.783,52.81 125.449,52.1433 128.5,53C 136.721,58.9599 141.054,66.7933 141.5,76.5 Z"/></g>
<g><path style="opacity:1" fill="#cecbc6" d="M 188.5,62.5 C 187.71,63.7942 186.71,64.9609 185.5,66C 201.495,69.5942 206.328,79.0942 200,94.5C 197.71,97.9685 194.544,99.9685 190.5,100.5C 188.265,100.795 186.265,100.461 184.5,99.5C 197.447,98.3733 202.613,91.3733 200,78.5C 196.193,69.8367 190.027,67.1701 181.5,70.5C 179.585,72.0712 178.585,74.0712 178.5,76.5C 177.833,77.5 177.167,78.5 176.5,79.5C 176.988,68.6993 181.655,59.866 190.5,53C 193.551,52.1433 196.217,52.81 198.5,55C 191.317,55.548 186.483,59.048 184,65.5C 185.129,63.8588 186.629,62.8588 188.5,62.5 Z"/></g>
<g><path style="opacity:0.773" fill="#8b4202" d="M 219.5,43.5 C 220.018,44.5774 220.352,45.7441 220.5,47C 219.429,54.4815 218.095,61.6482 216.5,68.5C 215.599,67.7095 214.932,66.7095 214.5,65.5C 216.405,63.951 216.739,62.1176 215.5,60C 217.005,55.9916 218.005,51.8249 218.5,47.5C 218.253,46.2867 217.586,45.62 216.5,45.5C 216.5,45.1667 216.5,44.8333 216.5,44.5C 217.391,43.8902 218.391,43.5569 219.5,43.5 Z"/></g>
<g><path style="opacity:1" fill="#d79a1a" d="M 145.5,55.5 C 148.785,56.9498 151.285,59.2832 153,62.5C 154.313,66.2051 153.146,68.5385 149.5,69.5C 149.819,64.8357 148.486,60.8357 145.5,57.5C 145.5,56.8333 145.5,56.1667 145.5,55.5 Z"/></g>
<g><path style="opacity:1" fill="#d79a1c" d="M 174.5,55.5 C 174.5,55.8333 174.5,56.1667 174.5,56.5C 173.833,56.5 173.5,56.8333 173.5,57.5C 172.21,58.0577 171.377,59.0577 171,60.5C 170.099,63.5196 169.266,66.5196 168.5,69.5C 167.542,69.0472 166.708,68.3805 166,67.5C 165.458,61.1958 168.292,57.1958 174.5,55.5 Z"/></g>
<g><path style="opacity:1" fill="#938672" d="M 173.5,57.5 C 171.767,62.7089 170.101,67.7089 168.5,72.5C 168.5,71.5 168.5,70.5 168.5,69.5C 169.266,66.5196 170.099,63.5196 171,60.5C 171.377,59.0577 172.21,58.0577 173.5,57.5 Z"/></g>
<g><path style="opacity:1" fill="#c78011" d="M 102.5,45.5 C 102.265,50.5459 103.265,55.2126 105.5,59.5C 104.85,61.4352 104.517,63.4352 104.5,65.5C 102.353,64.0679 102.02,62.2345 103.5,60C 103,59.5 102.5,59 102,58.5C 101.186,53.9796 101.353,49.6463 102.5,45.5 Z"/></g>
<g><path style="opacity:1" fill="#c88212" d="M 216.5,45.5 C 217.586,45.62 218.253,46.2867 218.5,47.5C 218.005,51.8249 217.005,55.9916 215.5,60C 216.739,62.1176 216.405,63.951 214.5,65.5C 214.737,64.209 214.404,63.209 213.5,62.5C 213.5,61.5 213.5,60.5 213.5,59.5C 215.735,55.2126 216.735,50.5459 216.5,45.5 Z"/></g>
<g><path style="opacity:1" fill="#e9b11d" d="M 122.5,61.5 C 125.358,61.5954 127.691,62.7621 129.5,65C 122.202,66.2973 117.369,70.4639 115,77.5C 114.57,74.8078 114.737,72.1411 115.5,69.5C 116.431,65.5713 118.764,62.9047 122.5,61.5 Z"/></g>
<g><path style="opacity:1" fill="#d89c30" d="M 122.5,61.5 C 123.568,60.5655 124.901,60.2322 126.5,60.5C 127.514,61.6737 128.847,62.3404 130.5,62.5C 131.29,63.7942 132.29,64.9609 133.5,66C 122.657,67.175 116.99,73.175 116.5,84C 116.145,92.7951 120.145,98.2951 128.5,100.5C 129.5,101.167 130.5,101.833 131.5,102.5C 127.833,102.5 124.167,102.5 120.5,102.5C 111.988,92.4272 110.322,81.4272 115.5,69.5C 114.737,72.1411 114.57,74.8078 115,77.5C 117.369,70.4639 122.202,66.2973 129.5,65C 127.691,62.7621 125.358,61.5954 122.5,61.5 Z"/></g>
<g><path style="opacity:1" fill="#d69b2f" d="M 203.5,69.5 C 208.974,81.8586 206.974,92.8586 197.5,102.5C 194.482,102.665 191.482,102.498 188.5,102C 189.416,101.722 190.082,101.222 190.5,100.5C 194.544,99.9685 197.71,97.9685 200,94.5C 206.328,79.0942 201.495,69.5942 185.5,66C 186.71,64.9609 187.71,63.7942 188.5,62.5C 196.053,59.1074 201.053,61.4407 203.5,69.5 Z"/></g>
<g><path style="opacity:1" fill="#f1b91b" d="M 203.5,69.5 C 204.329,72.4686 204.495,75.4686 204,78.5C 202.062,70.895 197.228,66.395 189.5,65C 190.817,63.3409 192.483,62.1743 194.5,61.5C 198.166,63.5044 201.166,66.1711 203.5,69.5 Z"/></g>
<g><path style="opacity:1" fill="#529fce" d="M 139.5,74.5 C 136.391,74.2641 133.391,74.5975 130.5,75.5C 127.715,74.9162 126.048,75.9162 125.5,78.5C 124.034,79.347 123.2,80.6803 123,82.5C 122.513,91.509 126.68,96.8423 135.5,98.5C 134.833,98.5 134.5,98.8333 134.5,99.5C 128.51,99.7564 123.677,97.4231 120,92.5C 115.781,81.9676 118.614,74.1343 128.5,69C 134.141,67.1797 137.808,69.013 139.5,74.5 Z"/></g>
<g><path style="opacity:1" fill="#539fcc" d="M 184.5,99.5 C 184.5,98.8333 184.167,98.5 183.5,98.5C 192.355,96.8133 196.522,91.48 196,82.5C 195.764,80.8807 194.931,79.8807 193.5,79.5C 193.616,76.0897 191.95,74.7564 188.5,75.5C 184.856,73.8607 181.523,74.194 178.5,76.5C 178.585,74.0712 179.585,72.0712 181.5,70.5C 190.027,67.1701 196.193,69.8367 200,78.5C 202.613,91.3733 197.447,98.3733 184.5,99.5 Z"/></g>
<g><path style="opacity:1" fill="#a39e96" d="M 106.5,57.5 C 105.365,68.8481 105.365,80.1814 106.5,91.5C 105.599,90.7095 104.932,89.7095 104.5,88.5C 104.5,81.1667 104.5,73.8333 104.5,66.5C 104.5,66.1667 104.5,65.8333 104.5,65.5C 104.517,63.4352 104.85,61.4352 105.5,59.5C 105.328,58.5084 105.662,57.8417 106.5,57.5 Z"/></g>
<g><path style="opacity:1" fill="#a8a59d" d="M 126.5,60.5 C 124.901,60.2322 123.568,60.5655 122.5,61.5C 118.764,62.9047 116.431,65.5713 115.5,69.5C 110.322,81.4272 111.988,92.4272 120.5,102.5C 118.574,101.758 116.741,100.758 115,99.5C 108.058,88.0681 107.724,76.4014 114,64.5C 117.29,59.838 121.457,58.5047 126.5,60.5 Z"/></g>
<g><path style="opacity:1" fill="#a9a69e" d="M 197.5,102.5 C 206.974,92.8586 208.974,81.8586 203.5,69.5C 201.053,61.4407 196.053,59.1074 188.5,62.5C 189.058,61.2101 190.058,60.3768 191.5,60C 201.297,59.1107 207.131,63.6107 209,73.5C 209.87,79.9172 209.536,86.2506 208,92.5C 206.547,98.1225 203.047,101.456 197.5,102.5 Z"/></g>
<g><path style="opacity:1" fill="#625b50" d="M 213.5,62.5 C 214.404,63.209 214.737,64.209 214.5,65.5C 214.932,66.7095 215.599,67.7095 216.5,68.5C 216.172,73.8746 216.505,79.2079 217.5,84.5C 218.478,84.9767 219.311,85.6433 220,86.5C 222.239,90.2336 223.739,94.2336 224.5,98.5C 224.194,101.532 223.694,104.532 223,107.5C 222.576,110.025 221.41,112.025 219.5,113.5C 219.5,113.167 219.5,112.833 219.5,112.5C 221.35,108.355 221.85,104.021 221,99.5C 219.33,104.592 218.497,104.592 218.5,99.5C 218.665,95.8183 218.499,92.1516 218,88.5C 217.243,90.3146 216.41,91.9812 215.5,93.5C 215.66,91.8008 215.494,90.1341 215,88.5C 213.942,91.7658 212.442,94.7658 210.5,97.5C 211.354,93.4174 212.521,89.4174 214,85.5C 214.541,77.8184 214.374,70.1517 213.5,62.5 Z"/></g>
<g><path style="opacity:1" fill="#764424" d="M 139.5,74.5 C 139.328,75.4916 139.662,76.1583 140.5,76.5C 140.517,78.5648 140.85,80.5648 141.5,82.5C 139.468,88.1309 135.468,89.9643 129.5,88C 126.959,86.1516 125.959,83.6516 126.5,80.5C 130.255,80.4369 131.588,78.7702 130.5,75.5C 133.391,74.5975 136.391,74.2641 139.5,74.5 Z"/></g>
<g><path style="opacity:1" fill="#764424" d="M 188.5,75.5 C 187.412,78.7702 188.745,80.4369 192.5,80.5C 192.334,87.8085 188.667,90.3085 181.5,88C 180.023,86.1879 178.69,84.3545 177.5,82.5C 178.15,80.5648 178.483,78.5648 178.5,76.5C 181.523,74.194 184.856,73.8607 188.5,75.5 Z"/></g>
<g><path style="opacity:1" fill="#ebeef0" d="M 130.5,75.5 C 131.588,78.7702 130.255,80.4369 126.5,80.5C 126.167,79.8333 125.833,79.1667 125.5,78.5C 126.048,75.9162 127.715,74.9162 130.5,75.5 Z"/></g>
<g><path style="opacity:1" fill="#ebeef0" d="M 188.5,75.5 C 191.95,74.7564 193.616,76.0897 193.5,79.5C 192.833,79.5 192.5,79.8333 192.5,80.5C 188.745,80.4369 187.412,78.7702 188.5,75.5 Z"/></g>
<g><path style="opacity:1" fill="#2d799d" d="M 125.5,78.5 C 125.833,79.1667 126.167,79.8333 126.5,80.5C 124.445,86.5743 126.445,91.0743 132.5,94C 135.036,94.1862 137.369,94.6862 139.5,95.5C 138.564,96.9744 137.23,97.9744 135.5,98.5C 126.68,96.8423 122.513,91.509 123,82.5C 123.2,80.6803 124.034,79.347 125.5,78.5 Z"/></g>
<g><path style="opacity:1" fill="#2c789c" d="M 192.5,80.5 C 192.5,79.8333 192.833,79.5 193.5,79.5C 194.931,79.8807 195.764,80.8807 196,82.5C 196.522,91.48 192.355,96.8133 183.5,98.5C 181.8,97.984 180.467,96.984 179.5,95.5C 181.969,94.8319 184.302,94.1653 186.5,93.5C 192.617,90.9395 194.617,86.6062 192.5,80.5 Z"/></g>
<g><path style="opacity:1" fill="#7c756b" d="M 151.5,73.5 C 152.321,76.6414 152.821,79.9748 153,83.5C 154.045,84.3734 154.878,85.3734 155.5,86.5C 155.5,86.8333 155.5,87.1667 155.5,87.5C 154.5,87.5 153.5,87.5 152.5,87.5C 147.662,85.2947 144.329,86.6281 142.5,91.5C 143.385,96.2682 146.052,97.9348 150.5,96.5C 156.5,97.8333 162.5,97.8333 168.5,96.5C 172.948,97.9348 175.615,96.2682 176.5,91.5C 176.24,89.8129 175.573,88.3129 174.5,87C 171.739,86.2782 169.073,86.4448 166.5,87.5C 165.167,87.5 164.5,86.8333 164.5,85.5C 166.002,81.9366 167.002,78.2699 167.5,74.5C 167.5,77.1667 167.5,79.8333 167.5,82.5C 170.545,82.5079 173.545,82.8413 176.5,83.5C 176.5,82.1667 176.5,80.8333 176.5,79.5C 177.167,78.5 177.833,77.5 178.5,76.5C 178.483,78.5648 178.15,80.5648 177.5,82.5C 178.91,85.9496 179.576,89.6163 179.5,93.5C 181.833,93.5 184.167,93.5 186.5,93.5C 184.302,94.1653 181.969,94.8319 179.5,95.5C 180.467,96.984 181.8,97.984 183.5,98.5C 184.167,98.5 184.5,98.8333 184.5,99.5C 186.265,100.461 188.265,100.795 190.5,100.5C 190.082,101.222 189.416,101.722 188.5,102C 191.482,102.498 194.482,102.665 197.5,102.5C 194.36,103.641 191.027,103.808 187.5,103C 184.368,101.365 181.368,99.5318 178.5,97.5C 177.893,97.6236 177.56,97.9569 177.5,98.5C 175.703,99.7298 173.703,100.396 171.5,100.5C 167.645,99.3647 163.645,98.6981 159.5,98.5C 155.368,98.5771 151.368,99.2437 147.5,100.5C 144.794,100.312 142.461,99.3122 140.5,97.5C 137.738,99.5958 134.738,101.262 131.5,102.5C 130.5,101.833 129.5,101.167 128.5,100.5C 130.735,100.795 132.735,100.461 134.5,99.5C 134.5,98.8333 134.833,98.5 135.5,98.5C 137.23,97.9744 138.564,96.9744 139.5,95.5C 140.709,91.3819 141.376,87.0485 141.5,82.5C 140.85,80.5648 140.517,78.5648 140.5,76.5C 140.833,76.5 141.167,76.5 141.5,76.5C 141.699,78.9599 142.365,81.2933 143.5,83.5C 146.084,82.6072 148.751,82.2739 151.5,82.5C 151.5,79.5 151.5,76.5 151.5,73.5 Z"/></g>
<g><path style="opacity:1" fill="#4e2b1b" d="M 126.5,80.5 C 125.959,83.6516 126.959,86.1516 129.5,88C 135.468,89.9643 139.468,88.1309 141.5,82.5C 141.376,87.0485 140.709,91.3819 139.5,95.5C 137.369,94.6862 135.036,94.1862 132.5,94C 126.445,91.0743 124.445,86.5743 126.5,80.5 Z"/></g>
<g><path style="opacity:1" fill="#4e2614" d="M 192.5,80.5 C 194.617,86.6062 192.617,90.9395 186.5,93.5C 184.167,93.5 181.833,93.5 179.5,93.5C 179.576,89.6163 178.91,85.9496 177.5,82.5C 178.69,84.3545 180.023,86.1879 181.5,88C 188.667,90.3085 192.334,87.8085 192.5,80.5 Z"/></g>
<g><path style="opacity:1" fill="#a02b23" d="M 152.5,87.5 C 149.75,90.0731 149.084,93.0731 150.5,96.5C 146.052,97.9348 143.385,96.2682 142.5,91.5C 144.329,86.6281 147.662,85.2947 152.5,87.5 Z"/></g>
<g><path style="opacity:1" fill="#a12c24" d="M 168.5,96.5 C 169.916,93.0731 169.25,90.0731 166.5,87.5C 169.073,86.4448 171.739,86.2782 174.5,87C 175.573,88.3129 176.24,89.8129 176.5,91.5C 175.615,96.2682 172.948,97.9348 168.5,96.5 Z"/></g>
<g><path style="opacity:1" fill="#524a41" d="M 104.5,66.5 C 104.5,73.8333 104.5,81.1667 104.5,88.5C 103.549,89.9187 103.216,91.5853 103.5,93.5C 102.821,91.3147 101.821,89.9814 100.5,89.5C 99.6862,91.631 99.1862,93.9644 99,96.5C 98.5814,95.3279 97.9147,94.3279 97,93.5C 96.1901,97.3575 96.3567,101.024 97.5,104.5C 97.5838,107.327 98.2504,109.994 99.5,112.5C 99.5,112.833 99.5,113.167 99.5,113.5C 98.2101,112.942 97.3768,111.942 97,110.5C 92.4775,100.629 93.9775,91.9625 101.5,84.5C 102.495,79.2079 102.828,73.8746 102.5,68.5C 103.167,67.8333 103.833,67.1667 104.5,66.5 Z"/></g>
<g><path style="opacity:1" fill="#e9e6e6" d="M 103.5,93.5 C 104.89,94.8993 105.89,96.5659 106.5,98.5C 108.268,101.59 110.935,103.59 114.5,104.5C 119.04,107.296 124.04,108.129 129.5,107C 136.095,106.19 142.095,104.024 147.5,100.5C 151.368,99.2437 155.368,98.5771 159.5,98.5C 163.645,98.6981 167.645,99.3647 171.5,100.5C 181.923,107.593 192.923,108.926 204.5,104.5C 207.674,103.99 210.008,102.323 211.5,99.5C 212.475,97.2048 213.808,95.2048 215.5,93.5C 216.41,91.9812 217.243,90.3146 218,88.5C 218.499,92.1516 218.665,95.8183 218.5,99.5C 215.775,106.728 210.775,111.894 203.5,115C 209.479,114.503 214.145,111.67 217.5,106.5C 218.833,108.167 218.833,109.833 217.5,111.5C 204.979,123.562 191.312,124.729 176.5,115C 170.309,106.788 162.309,104.121 152.5,107C 145.202,113.483 136.869,118.15 127.5,121C 122.472,121.588 117.472,121.422 112.5,120.5C 108.675,118.812 105.175,116.479 102,113.5C 100.454,110.408 98.9541,107.408 97.5,104.5C 97.2116,98.5581 98.0449,98.2248 100,103.5C 100.499,98.8452 100.666,94.1785 100.5,89.5C 101.821,89.9814 102.821,91.3147 103.5,93.5 Z"/></g>
<g><path style="opacity:1" fill="#4d220f" d="M 164.5,85.5 C 164.5,86.8333 165.167,87.5 166.5,87.5C 169.25,90.0731 169.916,93.0731 168.5,96.5C 162.5,97.8333 156.5,97.8333 150.5,96.5C 149.084,93.0731 149.75,90.0731 152.5,87.5C 153.5,87.5 154.5,87.5 155.5,87.5C 155.5,87.1667 155.5,86.8333 155.5,86.5C 158.572,85.7272 161.572,85.3939 164.5,85.5 Z"/></g>
<g><path style="opacity:1" fill="#744222" d="M 155.5,87.5 C 160.14,86.736 164.14,87.9026 167.5,91C 162.229,92.958 156.895,92.958 151.5,91C 152.731,89.5952 154.064,88.4286 155.5,87.5 Z"/></g>
<g><path style="opacity:1" fill="#bd8027" d="M 104.5,88.5 C 104.932,89.7095 105.599,90.7095 106.5,91.5C 106.259,93.8984 106.926,95.8984 108.5,97.5C 108.591,99.6977 107.925,100.031 106.5,98.5C 105.89,96.5659 104.89,94.8993 103.5,93.5C 103.216,91.5853 103.549,89.9187 104.5,88.5 Z"/></g>
<g><path style="opacity:1" fill="#c07e24" d="M 215.5,93.5 C 213.808,95.2048 212.475,97.2048 211.5,99.5C 210.662,99.1583 210.328,98.4916 210.5,97.5C 212.442,94.7658 213.942,91.7658 215,88.5C 215.494,90.1341 215.66,91.8008 215.5,93.5 Z"/></g>
<g><path style="opacity:1" fill="#88857c" d="M 100.5,89.5 C 100.666,94.1785 100.499,98.8452 100,103.5C 98.0449,98.2248 97.2116,98.5581 97.5,104.5C 96.3567,101.024 96.1901,97.3575 97,93.5C 97.9147,94.3279 98.5814,95.3279 99,96.5C 99.1862,93.9644 99.6862,91.631 100.5,89.5 Z"/></g>
<g><path style="opacity:1" fill="#868277" d="M 108.5,97.5 C 110.471,99.8082 112.471,102.142 114.5,104.5C 110.935,103.59 108.268,101.59 106.5,98.5C 107.925,100.031 108.591,99.6977 108.5,97.5 Z"/></g>
<g><path style="opacity:1" fill="#827e72" d="M 210.5,97.5 C 210.328,98.4916 210.662,99.1583 211.5,99.5C 210.008,102.323 207.674,103.99 204.5,104.5C 206.529,102.142 208.529,99.8082 210.5,97.5 Z"/></g>
<g><path style="opacity:1" fill="#a3a099" d="M 140.5,97.5 C 142.461,99.3122 144.794,100.312 147.5,100.5C 142.095,104.024 136.095,106.19 129.5,107C 124.04,108.129 119.04,107.296 114.5,104.5C 120.472,105.474 126.472,105.641 132.5,105C 135.952,104.108 138.952,102.442 141.5,100C 140.748,99.3292 140.414,98.4959 140.5,97.5 Z"/></g>
<g><path style="opacity:1" fill="#a19f97" d="M 177.5,98.5 C 177.561,100.592 178.561,102.092 180.5,103C 188.344,105.727 196.344,106.227 204.5,104.5C 192.923,108.926 181.923,107.593 171.5,100.5C 173.703,100.396 175.703,99.7298 177.5,98.5 Z"/></g>
<g><path style="opacity:1" fill="#b8b6b1" d="M 218.5,99.5 C 218.497,104.592 219.33,104.592 221,99.5C 221.85,104.021 221.35,108.355 219.5,112.5C 217.844,114.46 216.177,116.46 214.5,118.5C 213.508,118.328 212.842,118.662 212.5,119.5C 211.833,119.5 211.5,119.833 211.5,120.5C 210.167,120.833 208.833,121.167 207.5,121.5C 199.039,124.401 190.705,124.067 182.5,120.5C 183.016,121.758 182.35,122.758 180.5,123.5C 178.404,122.38 178.07,120.88 179.5,119C 176.271,116.259 172.938,113.759 169.5,111.5C 162.833,106.167 156.167,106.167 149.5,111.5C 146.775,112.713 144.441,114.546 142.5,117C 132.974,123.751 122.974,124.918 112.5,120.5C 117.472,121.422 122.472,121.588 127.5,121C 136.869,118.15 145.202,113.483 152.5,107C 162.309,104.121 170.309,106.788 176.5,115C 191.312,124.729 204.979,123.562 217.5,111.5C 218.833,109.833 218.833,108.167 217.5,106.5C 214.145,111.67 209.479,114.503 203.5,115C 210.775,111.894 215.775,106.728 218.5,99.5 Z"/></g>
<g><path style="opacity:0.78" fill="#984e02" d="M 99.5,112.5 C 101.137,114.475 102.804,116.475 104.5,118.5C 104.011,119.995 103.345,121.329 102.5,122.5C 99.925,120.155 98.925,117.155 99.5,113.5C 99.5,113.167 99.5,112.833 99.5,112.5 Z"/></g>
<g><path style="opacity:0.78" fill="#964d05" d="M 219.5,112.5 C 219.5,112.833 219.5,113.167 219.5,113.5C 220.075,117.155 219.075,120.155 216.5,122.5C 215.655,121.329 214.989,119.995 214.5,118.5C 216.177,116.46 217.844,114.46 219.5,112.5 Z"/></g>
<g><path style="opacity:1" fill="#bab9b7" d="M 193.5,143.5 C 193.5,146.5 193.5,149.5 193.5,152.5C 191.448,159.055 187.114,163.555 180.5,166C 164.882,171.199 149.549,170.532 134.5,164C 131.706,162.465 129.706,160.298 128.5,157.5C 125.91,153.262 124.91,148.595 125.5,143.5C 125.961,136.616 128.294,130.45 132.5,125C 135.46,125.32 138.46,125.32 141.5,125C 142.893,123.829 143.727,122.329 144,120.5C 148.445,124.911 151.945,124.244 154.5,118.5C 157.705,122.408 161.038,122.408 164.5,118.5C 166.567,123.779 169.9,124.779 174.5,121.5C 175.845,122.347 176.845,123.513 177.5,125C 180.54,125.32 183.54,125.32 186.5,125C 190.703,130.441 193.037,136.607 193.5,143.5 Z"/></g>
<g><path style="opacity:1" fill="#d49014" d="M 107.5,120.5 C 110.822,121.877 113.822,123.543 116.5,125.5C 115.833,127.833 115.167,130.167 114.5,132.5C 110.689,129.44 108.355,125.44 107.5,120.5 Z"/></g>
<g><path style="opacity:1" fill="#d28e13" d="M 211.5,120.5 C 210.798,125.372 208.464,129.039 204.5,131.5C 203.542,129.698 202.875,127.698 202.5,125.5C 203.827,123.818 205.494,122.485 207.5,121.5C 208.833,121.167 210.167,120.833 211.5,120.5 Z"/></g>
<g><path style="opacity:1" fill="#51110e" d="M 212.5,119.5 C 212.842,118.662 213.508,118.328 214.5,118.5C 214.989,119.995 215.655,121.329 216.5,122.5C 217.272,126.452 217.605,130.452 217.5,134.5C 216.022,133.552 215.022,132.219 214.5,130.5C 214.795,128.265 214.461,126.265 213.5,124.5C 213.784,122.585 213.451,120.919 212.5,119.5 Z"/></g>
<g><path style="opacity:1" fill="#c4322b" d="M 105.5,119.5 C 106.492,119.328 107.158,119.662 107.5,120.5C 108.355,125.44 110.689,129.44 114.5,132.5C 114.069,136.337 113.402,140.003 112.5,143.5C 112.5,143.167 112.5,142.833 112.5,142.5C 110.983,141.265 109.316,141.265 107.5,142.5C 105.731,135.971 105.064,129.304 105.5,122.5C 105.5,121.5 105.5,120.5 105.5,119.5 Z"/></g>
<g><path style="opacity:1" fill="#c4332a" d="M 212.5,119.5 C 213.451,120.919 213.784,122.585 213.5,124.5C 213.9,130.642 213.233,136.642 211.5,142.5C 209.684,141.265 208.017,141.265 206.5,142.5C 206.5,142.833 206.5,143.167 206.5,143.5C 205.518,139.684 204.851,135.684 204.5,131.5C 208.464,129.039 210.798,125.372 211.5,120.5C 211.5,119.833 211.833,119.5 212.5,119.5 Z"/></g>
<g><path style="opacity:0.702" fill="#480d0b" d="M 104.5,118.5 C 105.167,118.5 105.5,118.833 105.5,119.5C 105.5,120.5 105.5,121.5 105.5,122.5C 104.527,124.948 104.194,127.615 104.5,130.5C 103.978,132.219 102.978,133.552 101.5,134.5C 101.395,130.452 101.728,126.452 102.5,122.5C 103.345,121.329 104.011,119.995 104.5,118.5 Z"/></g>
<g><path style="opacity:1" fill="#87847a" d="M 97.5,104.5 C 98.9541,107.408 100.454,110.408 102,113.5C 105.175,116.479 108.675,118.812 112.5,120.5C 122.974,124.918 132.974,123.751 142.5,117C 144.441,114.546 146.775,112.713 149.5,111.5C 156.167,106.167 162.833,106.167 169.5,111.5C 172.938,113.759 176.271,116.259 179.5,119C 178.07,120.88 178.404,122.38 180.5,123.5C 182.35,122.758 183.016,121.758 182.5,120.5C 190.705,124.067 199.039,124.401 207.5,121.5C 205.494,122.485 203.827,123.818 202.5,125.5C 200.797,124.34 200.131,125.007 200.5,127.5C 198.638,124.67 195.971,123.837 192.5,125C 195.552,129.873 196.885,135.206 196.5,141C 196.978,145.355 195.978,149.189 193.5,152.5C 193.5,149.5 193.5,146.5 193.5,143.5C 194.222,143.918 194.722,144.584 195,145.5C 195.831,138.489 194.664,131.822 191.5,125.5C 189.258,124.308 186.925,123.308 184.5,122.5C 179.631,125.851 176.631,124.518 175.5,118.5C 173.368,120.117 171.035,120.617 168.5,120C 167.206,117.913 166.039,115.746 165,113.5C 163.68,117.182 161.18,118.682 157.5,118C 156.177,117.184 155.511,116.017 155.5,114.5C 154.883,114.389 154.383,114.056 154,113.5C 152.961,115.746 151.794,117.913 150.5,120C 147.965,120.617 145.632,120.117 143.5,118.5C 142.369,124.518 139.369,125.851 134.5,122.5C 127.417,124.284 123.917,128.951 124,136.5C 123.333,139.5 123.333,142.5 124,145.5C 124.278,144.584 124.778,143.918 125.5,143.5C 124.91,148.595 125.91,153.262 128.5,157.5C 125.259,154.656 123.426,150.99 123,146.5C 121.979,138.935 122.812,131.601 125.5,124.5C 122.325,123.909 119.991,124.909 118.5,127.5C 118.869,125.007 118.203,124.34 116.5,125.5C 113.822,123.543 110.822,121.877 107.5,120.5C 107.158,119.662 106.492,119.328 105.5,119.5C 105.5,118.833 105.167,118.5 104.5,118.5C 102.804,116.475 101.137,114.475 99.5,112.5C 98.2504,109.994 97.5838,107.327 97.5,104.5 Z"/></g>
<g><path style="opacity:1" fill="#dddbd8" d="M 149.5,111.5 C 150.496,111.586 151.329,111.252 152,110.5C 152.514,114.14 151.348,117.14 148.5,119.5C 146.998,118.917 145.665,118.084 144.5,117C 146.373,115.296 148.04,113.463 149.5,111.5 Z"/></g>
<g><path style="opacity:1" fill="#e9e7e5" d="M 169.5,111.5 C 170.96,113.463 172.627,115.296 174.5,117C 173.335,118.084 172.002,118.917 170.5,119.5C 167.652,117.14 166.486,114.14 167,110.5C 167.671,111.252 168.504,111.586 169.5,111.5 Z"/></g>
<g><path style="opacity:1" fill="#7b7c7c" d="M 155.5,114.5 C 155.511,116.017 156.177,117.184 157.5,118C 161.18,118.682 163.68,117.182 165,113.5C 166.039,115.746 167.206,117.913 168.5,120C 171.035,120.617 173.368,120.117 175.5,118.5C 176.631,124.518 179.631,125.851 184.5,122.5C 186.925,123.308 189.258,124.308 191.5,125.5C 194.664,131.822 195.831,138.489 195,145.5C 194.722,144.584 194.222,143.918 193.5,143.5C 193.037,136.607 190.703,130.441 186.5,125C 183.54,125.32 180.54,125.32 177.5,125C 176.845,123.513 175.845,122.347 174.5,121.5C 169.9,124.779 166.567,123.779 164.5,118.5C 161.038,122.408 157.705,122.408 154.5,118.5C 151.945,124.244 148.445,124.911 144,120.5C 143.727,122.329 142.893,123.829 141.5,125C 138.46,125.32 135.46,125.32 132.5,125C 128.294,130.45 125.961,136.616 125.5,143.5C 124.778,143.918 124.278,144.584 124,145.5C 123.333,142.5 123.333,139.5 124,136.5C 123.917,128.951 127.417,124.284 134.5,122.5C 139.369,125.851 142.369,124.518 143.5,118.5C 145.632,120.117 147.965,120.617 150.5,120C 151.794,117.913 152.961,115.746 154,113.5C 154.383,114.056 154.883,114.389 155.5,114.5 Z"/></g>
<g><path style="opacity:1" fill="#eeeceb" d="M 155.5,114.5 C 154.962,112.883 154.629,111.216 154.5,109.5C 157.833,109.5 161.167,109.5 164.5,109.5C 163.874,112.315 162.54,114.815 160.5,117C 158.565,116.942 156.898,116.109 155.5,114.5 Z"/></g>
<g><path style="opacity:1" fill="#f1ad4c" d="M 213.5,124.5 C 214.461,126.265 214.795,128.265 214.5,130.5C 214.5,132.167 214.5,133.833 214.5,135.5C 213.779,140.17 212.946,144.837 212,149.5C 211.023,150.774 210.189,150.774 209.5,149.5C 211.377,148.341 211.877,146.674 211,144.5C 209.89,142.963 208.39,142.297 206.5,142.5C 208.017,141.265 209.684,141.265 211.5,142.5C 213.233,136.642 213.9,130.642 213.5,124.5 Z"/></g>
<g><path style="opacity:1" fill="#6ba3c6" d="M 112.5,142.5 C 112.5,142.833 112.5,143.167 112.5,143.5C 112.688,145.103 112.188,146.437 111,147.5C 111.077,146.262 110.911,145.262 110.5,144.5C 109.081,145.005 108.415,146.005 108.5,147.5C 107.337,144.294 108.67,142.627 112.5,142.5 Z"/></g>
<g><path style="opacity:1" fill="#78a9c4" d="M 206.5,142.5 C 208.39,142.297 209.89,142.963 211,144.5C 211.877,146.674 211.377,148.341 209.5,149.5C 209.167,148.833 208.833,148.167 208.5,147.5C 208.938,147.565 209.272,147.399 209.5,147C 208.934,146.005 208.267,145.172 207.5,144.5C 206.833,144.5 206.5,144.167 206.5,143.5C 206.5,143.167 206.5,142.833 206.5,142.5 Z"/></g>
<g><path style="opacity:0.835" fill="#893e03" d="M 104.5,130.5 C 104.5,132.167 104.5,133.833 104.5,135.5C 103.662,135.842 103.328,136.508 103.5,137.5C 100.635,140.413 99.3012,144.079 99.5,148.5C 97.8819,151.171 97.2153,154.171 97.5,157.5C 96.8333,157.833 96.1667,158.167 95.5,158.5C 95.9381,150.081 97.9381,142.081 101.5,134.5C 102.978,133.552 103.978,132.219 104.5,130.5 Z"/></g>
<g><path style="opacity:1" fill="#e0b965" d="M 207.5,144.5 C 208.267,145.172 208.934,146.005 209.5,147C 209.272,147.399 208.938,147.565 208.5,147.5C 206.519,146.895 206.185,145.895 207.5,144.5 Z"/></g>
<g><path style="opacity:0.835" fill="#883d03" d="M 214.5,130.5 C 215.022,132.219 216.022,133.552 217.5,134.5C 221.062,142.081 223.062,150.081 223.5,158.5C 222.833,158.167 222.167,157.833 221.5,157.5C 221.436,153.78 220.936,150.114 220,146.5C 219.337,142.965 217.837,139.965 215.5,137.5C 215.672,136.508 215.338,135.842 214.5,135.5C 214.5,133.833 214.5,132.167 214.5,130.5 Z"/></g>
<g><path style="opacity:1" fill="#da921b" d="M 103.5,137.5 C 102.992,143.809 104.492,149.476 108,154.5C 110.085,153.876 111.918,152.876 113.5,151.5C 114.779,155.42 116.112,159.42 117.5,163.5C 116.5,163.833 115.833,164.5 115.5,165.5C 114.883,165.611 114.383,165.944 114,166.5C 114.581,158.65 112.581,157.317 108,162.5C 106.603,159.441 104.437,158.775 101.5,160.5C 101.666,155.489 101.499,150.489 101,145.5C 100.768,146.737 100.268,147.737 99.5,148.5C 99.3012,144.079 100.635,140.413 103.5,137.5 Z"/></g>
<g><path style="opacity:1" fill="#eca84e" d="M 105.5,122.5 C 105.064,129.304 105.731,135.971 107.5,142.5C 109.316,141.265 110.983,141.265 112.5,142.5C 108.67,142.627 107.337,144.294 108.5,147.5C 108.328,148.492 108.662,149.158 109.5,149.5C 108.811,150.774 107.977,150.774 107,149.5C 106.054,144.837 105.221,140.17 104.5,135.5C 104.5,133.833 104.5,132.167 104.5,130.5C 104.194,127.615 104.527,124.948 105.5,122.5 Z"/></g>
<g><path style="opacity:1" fill="#a42e21" d="M 104.5,135.5 C 105.221,140.17 106.054,144.837 107,149.5C 107.977,150.774 108.811,150.774 109.5,149.5C 110.583,149.461 111.583,149.127 112.5,148.5C 113.386,149.325 113.719,150.325 113.5,151.5C 111.918,152.876 110.085,153.876 108,154.5C 104.492,149.476 102.992,143.809 103.5,137.5C 103.328,136.508 103.662,135.842 104.5,135.5 Z"/></g>
<g><path style="opacity:1" fill="#a42e21" d="M 214.5,135.5 C 215.338,135.842 215.672,136.508 215.5,137.5C 216.008,143.809 214.508,149.476 211,154.5C 208.915,153.876 207.082,152.876 205.5,151.5C 205.281,150.325 205.614,149.325 206.5,148.5C 207.417,149.127 208.417,149.461 209.5,149.5C 210.189,150.774 211.023,150.774 212,149.5C 212.946,144.837 213.779,140.17 214.5,135.5 Z"/></g>
<g><path style="opacity:1" fill="#d74f2a" d="M 115.5,165.5 C 115.567,166.959 115.234,168.292 114.5,169.5C 112.554,167.266 111.387,164.599 111,161.5C 108.646,164.688 105.812,167.355 102.5,169.5C 101.575,168.643 100.908,167.643 100.5,166.5C 100.205,164.265 100.539,162.265 101.5,160.5C 104.437,158.775 106.603,159.441 108,162.5C 112.581,157.317 114.581,158.65 114,166.5C 114.383,165.944 114.883,165.611 115.5,165.5 Z"/></g>
<g><path style="opacity:1" fill="#6d8fb4" d="M 103.5,160.5 C 105.252,160.418 106.252,161.251 106.5,163C 105.063,168.269 103.396,168.603 101.5,164C 101.862,162.566 102.528,161.399 103.5,160.5 Z"/></g>
<g><path style="opacity:1" fill="#eb761a" d="M 101.5,160.5 C 100.539,162.265 100.205,164.265 100.5,166.5C 99.5104,160.69 99.1771,154.69 99.5,148.5C 100.268,147.737 100.768,146.737 101,145.5C 101.499,150.489 101.666,155.489 101.5,160.5 Z"/></g>
<g><path style="opacity:1" fill="#d28911" d="M 99.5,148.5 C 99.1771,154.69 99.5104,160.69 100.5,166.5C 100.908,167.643 101.575,168.643 102.5,169.5C 105.812,167.355 108.646,164.688 111,161.5C 111.387,164.599 112.554,167.266 114.5,169.5C 115.167,170.833 115.833,172.167 116.5,173.5C 116.5,174.167 116.167,174.5 115.5,174.5C 113.292,173.106 111.792,171.106 111,168.5C 108.876,169.622 107.043,171.122 105.5,173C 103.105,175.145 100.938,174.978 99,172.5C 98.304,169.522 97.804,166.522 97.5,163.5C 97.5,161.5 97.5,159.5 97.5,157.5C 97.2153,154.171 97.8819,151.171 99.5,148.5 Z"/></g>
<g><path style="opacity:1" fill="#c53734" d="M 102.5,162.5 C 104.646,162.696 104.812,163.696 103,165.5C 102.517,164.552 102.351,163.552 102.5,162.5 Z"/></g>
<g><path style="opacity:1" fill="#d68c15" d="M 215.5,137.5 C 217.837,139.965 219.337,142.965 220,146.5C 220.936,150.114 221.436,153.78 221.5,157.5C 221.5,159.5 221.5,161.5 221.5,163.5C 221.438,167.337 220.438,170.837 218.5,174C 216.711,174.52 215.044,174.187 213.5,173C 211.957,171.122 210.124,169.622 208,168.5C 207.208,171.106 205.708,173.106 203.5,174.5C 202.662,174.158 202.328,173.492 202.5,172.5C 205.357,169.454 207.19,165.787 208,161.5C 210.185,164.887 213.019,167.554 216.5,169.5C 217.298,169.043 217.631,168.376 217.5,167.5C 218.117,167.389 218.617,167.056 219,166.5C 219.667,160.5 219.667,154.5 219,148.5C 218.929,152.687 218.262,156.687 217,160.5C 214.224,158.86 212.224,159.527 211,162.5C 209.736,160.393 207.903,159.393 205.5,159.5C 205.663,161.857 205.497,164.19 205,166.5C 203.961,165.29 202.794,164.29 201.5,163.5C 202.888,159.42 204.221,155.42 205.5,151.5C 207.082,152.876 208.915,153.876 211,154.5C 214.508,149.476 216.008,143.809 215.5,137.5 Z"/></g>
<g><path style="opacity:1" fill="#c03f2c" d="M 117.5,163.5 C 116.575,166.211 116.575,169.211 117.5,172.5C 117.5,173.167 117.167,173.5 116.5,173.5C 115.833,172.167 115.167,170.833 114.5,169.5C 115.234,168.292 115.567,166.959 115.5,165.5C 115.833,164.5 116.5,163.833 117.5,163.5 Z"/></g>
<g><path style="opacity:1" fill="#db5325" d="M 217.5,167.5 C 217.631,168.376 217.298,169.043 216.5,169.5C 213.019,167.554 210.185,164.887 208,161.5C 207.19,165.787 205.357,169.454 202.5,172.5C 201.494,172.062 201.494,171.396 202.5,170.5C 202.771,168.179 202.104,166.179 200.5,164.5C 200.624,163.893 200.957,163.56 201.5,163.5C 202.794,164.29 203.961,165.29 205,166.5C 205.497,164.19 205.663,161.857 205.5,159.5C 207.903,159.393 209.736,160.393 211,162.5C 212.224,159.527 214.224,158.86 217,160.5C 218.262,156.687 218.929,152.687 219,148.5C 219.667,154.5 219.667,160.5 219,166.5C 218.617,167.056 218.117,167.389 217.5,167.5 Z"/></g>
<g><path style="opacity:1" fill="#ab5a5e" d="M 217.5,164.5 C 218.833,164.833 218.833,165.167 217.5,165.5C 216.041,165.567 214.708,165.234 213.5,164.5C 213.369,163.624 213.702,162.957 214.5,162.5C 215.265,163.612 216.265,164.279 217.5,164.5 Z"/></g>
<g><path style="opacity:1" fill="#7188ac" d="M 217.5,164.5 C 216.265,164.279 215.265,163.612 214.5,162.5C 213.702,162.957 213.369,163.624 213.5,164.5C 212.133,162.907 212.466,161.574 214.5,160.5C 216.55,161.077 217.55,162.41 217.5,164.5 Z"/></g>
<g><path style="opacity:1" fill="#6d94b8" d="M 213.5,164.5 C 214.708,165.234 216.041,165.567 217.5,165.5C 217.5,166.167 217.5,166.833 217.5,167.5C 215.027,167.912 213.694,166.912 213.5,164.5 Z"/></g>
<g><path style="opacity:1" fill="#571310" d="M 221.5,157.5 C 222.167,157.833 222.833,158.167 223.5,158.5C 229.349,171.559 232.182,185.226 232,199.5C 231.29,200.973 230.124,201.64 228.5,201.5C 228.167,201.5 227.833,201.5 227.5,201.5C 226.5,200.5 225.5,199.5 224.5,198.5C 226.167,198.5 227.833,198.5 229.5,198.5C 229.818,193.968 229.485,189.634 228.5,185.5C 228.435,182.572 227.768,179.905 226.5,177.5C 225.999,172.324 224.332,167.658 221.5,163.5C 221.5,161.5 221.5,159.5 221.5,157.5 Z"/></g>
<g><path style="opacity:1" fill="#300c0a" d="M 121.5,171.5 C 114.512,180.616 110.346,190.949 109,202.5C 106.774,216.893 107.107,231.227 110,245.5C 115.291,264.293 127.458,275.627 146.5,279.5C 150.203,281.055 154.203,281.722 158.5,281.5C 164.535,281.865 170.202,280.865 175.5,278.5C 192.341,273.827 203.508,263.16 209,246.5C 213.501,224.353 211.834,202.686 204,181.5C 202.072,177.968 199.905,174.634 197.5,171.5C 197.328,170.508 197.662,169.842 198.5,169.5C 199.391,170.11 200.391,170.443 201.5,170.5C 201.833,170.5 202.167,170.5 202.5,170.5C 201.494,171.396 201.494,172.062 202.5,172.5C 202.328,173.492 202.662,174.158 203.5,174.5C 205.329,179.493 207.162,184.493 209,189.5C 209.417,190.756 210.25,191.423 211.5,191.5C 212.341,193.379 212.675,195.379 212.5,197.5C 211.276,201.03 211.61,204.363 213.5,207.5C 213.5,207.833 213.5,208.167 213.5,208.5C 213.5,210.833 213.5,213.167 213.5,215.5C 213.5,221.5 213.5,227.5 213.5,233.5C 213.06,237.371 213.06,241.038 213.5,244.5C 212.962,246.117 212.629,247.784 212.5,249.5C 208.334,252.326 207.667,255.66 210.5,259.5C 212.438,263.981 213.771,268.648 214.5,273.5C 214.5,274.167 214.5,274.833 214.5,275.5C 214.5,277.167 214.5,278.833 214.5,280.5C 212.755,288.338 208.755,294.671 202.5,299.5C 203.325,300.386 204.325,300.719 205.5,300.5C 208.167,301.167 210.833,301.833 213.5,302.5C 209.155,303.374 204.821,303.041 200.5,301.5C 172.896,313.475 145.229,313.475 117.5,301.5C 115.547,302.156 113.547,302.489 111.5,302.5C 111.062,302.565 110.728,302.399 110.5,302C 111.737,301.768 112.737,301.268 113.5,300.5C 114.675,300.719 115.675,300.386 116.5,299.5C 112.402,296.735 109.402,293.068 107.5,288.5C 106.5,285.833 105.5,283.167 104.5,280.5C 104.5,278.5 104.5,276.5 104.5,274.5C 104.5,274.167 104.5,273.833 104.5,273.5C 105.229,268.648 106.562,263.981 108.5,259.5C 111.36,255.591 110.694,252.257 106.5,249.5C 106.371,247.784 106.038,246.117 105.5,244.5C 106.782,241.269 106.782,237.936 105.5,234.5C 105.5,228.167 105.5,221.833 105.5,215.5C 105.5,213.167 105.5,210.833 105.5,208.5C 105.5,208.167 105.5,207.833 105.5,207.5C 106.205,204.772 106.872,201.939 107.5,199C 106.944,198.617 106.611,198.117 106.5,197.5C 107.738,195.786 108.405,193.786 108.5,191.5C 111.061,186.03 113.394,180.363 115.5,174.5C 116.167,174.5 116.5,174.167 116.5,173.5C 117.167,173.5 117.5,173.167 117.5,172.5C 118.338,172.158 118.672,171.492 118.5,170.5C 118.833,170.5 119.167,170.5 119.5,170.5C 120.925,168.969 121.591,169.302 121.5,171.5 Z"/></g>
<g><path style="opacity:1" fill="#bd3128" d="M 97.5,163.5 C 97.804,166.522 98.304,169.522 99,172.5C 100.938,174.978 103.105,175.145 105.5,173C 107.043,171.122 108.876,169.622 111,168.5C 111.792,171.106 113.292,173.106 115.5,174.5C 113.394,180.363 111.061,186.03 108.5,191.5C 108.167,191.5 107.833,191.5 107.5,191.5C 106.466,188.872 106.799,186.205 108.5,183.5C 106.877,182.524 105.543,183.024 104.5,185C 105.14,189.268 105.807,193.435 106.5,197.5C 106.611,198.117 106.944,198.617 107.5,199C 106.872,201.939 106.205,204.772 105.5,207.5C 104.449,203.173 103.282,198.84 102,194.5C 99.8425,196.494 97.3425,197.828 94.5,198.5C 92.8333,198.5 91.1667,198.5 89.5,198.5C 89.1832,194.298 89.5166,190.298 90.5,186.5C 90.2924,188.92 90.6258,191.253 91.5,193.5C 92.6136,194.776 93.6136,194.776 94.5,193.5C 96.1405,192.853 97.4739,191.853 98.5,190.5C 100.196,190.315 101.529,189.481 102.5,188C 101.551,187.383 100.718,187.549 100,188.5C 99.059,186.939 97.8924,185.605 96.5,184.5C 95.2638,185.246 93.9305,185.579 92.5,185.5C 92.5,182.833 92.5,180.167 92.5,177.5C 93.001,172.324 94.6676,167.658 97.5,163.5 Z"/></g>
<g><path style="opacity:1" fill="#c1302a" d="M 221.5,163.5 C 224.332,167.658 225.999,172.324 226.5,177.5C 226.5,180.167 226.5,182.833 226.5,185.5C 225.07,185.579 223.736,185.246 222.5,184.5C 221.702,184.957 221.369,185.624 221.5,186.5C 220.542,186.953 219.708,187.619 219,188.5C 216.933,185.93 214.433,183.93 211.5,182.5C 211.941,185.494 211.941,188.494 211.5,191.5C 210.25,191.423 209.417,190.756 209,189.5C 207.162,184.493 205.329,179.493 203.5,174.5C 205.708,173.106 207.208,171.106 208,168.5C 210.124,169.622 211.957,171.122 213.5,173C 215.044,174.187 216.711,174.52 218.5,174C 220.438,170.837 221.438,167.337 221.5,163.5 Z"/></g>
<g><path style="opacity:1" fill="#be2622" d="M 121.5,171.5 C 122.833,172.167 123.833,173.167 124.5,174.5C 115.487,200.118 115.32,225.785 124,251.5C 128.316,264.146 136.482,273.313 148.5,279C 147.906,279.464 147.239,279.631 146.5,279.5C 127.458,275.627 115.291,264.293 110,245.5C 107.107,231.227 106.774,216.893 109,202.5C 110.346,190.949 114.512,180.616 121.5,171.5 Z"/></g>
<g><path style="opacity:1" fill="#6d0605" d="M 197.5,171.5 C 199.905,174.634 202.072,177.968 204,181.5C 211.834,202.686 213.501,224.353 209,246.5C 203.508,263.16 192.341,273.827 175.5,278.5C 195.241,262.326 204.575,241.326 203.5,215.5C 203.794,203.056 201.627,191.056 197,179.5C 196.502,177.456 195.335,176.122 193.5,175.5C 194.5,173.833 195.833,172.5 197.5,171.5 Z"/></g>
<g><path style="opacity:1" fill="#a8231f" d="M 124.5,174.5 C 128.565,178.572 132.898,182.238 137.5,185.5C 137.062,185.435 136.728,185.601 136.5,186C 141.26,193.052 147.927,197.052 156.5,198C 157.423,200.041 157.756,202.208 157.5,204.5C 154.482,204.335 151.482,204.502 148.5,205C 147.167,206 147.167,207 148.5,208C 151.482,208.498 154.482,208.665 157.5,208.5C 157.5,210.167 157.5,211.833 157.5,213.5C 154.167,213.5 150.833,213.5 147.5,213.5C 147.33,214.822 147.663,215.989 148.5,217C 151.482,217.498 154.482,217.665 157.5,217.5C 157.5,219.167 157.5,220.833 157.5,222.5C 154.482,222.335 151.482,222.502 148.5,223C 147.167,224 147.167,225 148.5,226C 151.482,226.498 154.482,226.665 157.5,226.5C 157.5,228.167 157.5,229.833 157.5,231.5C 154.167,231.5 150.833,231.5 147.5,231.5C 147.5,232.5 147.5,233.5 147.5,234.5C 150.833,234.5 154.167,234.5 157.5,234.5C 157.116,236.665 157.783,238.332 159.5,239.5C 161.217,238.332 161.884,236.665 161.5,234.5C 164.833,234.5 168.167,234.5 171.5,234.5C 171.5,233.5 171.5,232.5 171.5,231.5C 168.167,231.5 164.833,231.5 161.5,231.5C 161.5,229.833 161.5,228.167 161.5,226.5C 164.518,226.665 167.518,226.498 170.5,226C 171.833,225 171.833,224 170.5,223C 167.518,222.502 164.518,222.335 161.5,222.5C 161.5,220.833 161.5,219.167 161.5,217.5C 164.518,217.665 167.518,217.498 170.5,217C 171.337,215.989 171.67,214.822 171.5,213.5C 168.167,213.5 164.833,213.5 161.5,213.5C 161.5,211.833 161.5,210.167 161.5,208.5C 164.518,208.665 167.518,208.498 170.5,208C 171.833,207 171.833,206 170.5,205C 167.518,204.502 164.518,204.335 161.5,204.5C 161.5,202.167 161.5,199.833 161.5,197.5C 171.306,197.442 178.306,193.109 182.5,184.5C 186.457,181.878 190.124,178.878 193.5,175.5C 195.335,176.122 196.502,177.456 197,179.5C 201.627,191.056 203.794,203.056 203.5,215.5C 204.575,241.326 195.241,262.326 175.5,278.5C 170.202,280.865 164.535,281.865 158.5,281.5C 154.203,281.722 150.203,281.055 146.5,279.5C 147.239,279.631 147.906,279.464 148.5,279C 136.482,273.313 128.316,264.146 124,251.5C 115.32,225.785 115.487,200.118 124.5,174.5 Z"/></g>
<g><path style="opacity:1" fill="#56120f" d="M 97.5,157.5 C 97.5,159.5 97.5,161.5 97.5,163.5C 94.6676,167.658 93.001,172.324 92.5,177.5C 91.087,180.219 90.4203,183.219 90.5,186.5C 89.5166,190.298 89.1832,194.298 89.5,198.5C 91.1667,198.5 92.8333,198.5 94.5,198.5C 93.5,199.5 92.5,200.5 91.5,201.5C 91.1667,201.5 90.8333,201.5 90.5,201.5C 89.5,201.5 88.5,201.5 87.5,201.5C 86.4897,186.53 89.1564,172.196 95.5,158.5C 96.1667,158.167 96.8333,157.833 97.5,157.5 Z"/></g>
<g><path style="opacity:1" fill="#504b45" d="M 118.5,127.5 C 117.193,132.066 116.526,136.733 116.5,141.5C 117.191,161.524 127.191,174.19 146.5,179.5C 150.319,180.166 154.319,180.499 158.5,180.5C 164.098,180.724 169.431,180.057 174.5,178.5C 192.956,173.047 202.289,160.714 202.5,141.5C 202.474,136.733 201.807,132.066 200.5,127.5C 200.131,125.007 200.797,124.34 202.5,125.5C 202.875,127.698 203.542,129.698 204.5,131.5C 204.851,135.684 205.518,139.684 206.5,143.5C 206.5,144.167 206.833,144.5 207.5,144.5C 206.185,145.895 206.519,146.895 208.5,147.5C 208.833,148.167 209.167,148.833 209.5,149.5C 208.417,149.461 207.417,149.127 206.5,148.5C 205.614,149.325 205.281,150.325 205.5,151.5C 204.221,155.42 202.888,159.42 201.5,163.5C 200.957,163.56 200.624,163.893 200.5,164.5C 202.104,166.179 202.771,168.179 202.5,170.5C 202.167,170.5 201.833,170.5 201.5,170.5C 200.852,166.014 199.852,165.68 198.5,169.5C 197.662,169.842 197.328,170.508 197.5,171.5C 195.833,172.5 194.5,173.833 193.5,175.5C 190.124,178.878 186.457,181.878 182.5,184.5C 179.833,185.833 177.167,187.167 174.5,188.5C 171.689,188.826 169.022,189.659 166.5,191C 162.514,191.499 158.514,191.666 154.5,191.5C 151.167,190.5 147.833,189.5 144.5,188.5C 142.287,187.227 139.954,186.227 137.5,185.5C 132.898,182.238 128.565,178.572 124.5,174.5C 123.833,173.167 122.833,172.167 121.5,171.5C 121.591,169.302 120.925,168.969 119.5,170.5C 119.762,169.022 119.429,167.689 118.5,166.5C 117.218,167.958 117.218,169.292 118.5,170.5C 118.672,171.492 118.338,172.158 117.5,172.5C 116.575,169.211 116.575,166.211 117.5,163.5C 116.112,159.42 114.779,155.42 113.5,151.5C 113.719,150.325 113.386,149.325 112.5,148.5C 111.583,149.127 110.583,149.461 109.5,149.5C 108.662,149.158 108.328,148.492 108.5,147.5C 108.415,146.005 109.081,145.005 110.5,144.5C 110.911,145.262 111.077,146.262 111,147.5C 112.188,146.437 112.688,145.103 112.5,143.5C 113.402,140.003 114.069,136.337 114.5,132.5C 115.167,130.167 115.833,127.833 116.5,125.5C 118.203,124.34 118.869,125.007 118.5,127.5 Z"/></g>
<g><path style="opacity:1" fill="#767674" d="M 128.5,175.5 C 128.56,174.957 128.893,174.624 129.5,174.5C 143.552,182.537 158.552,184.704 174.5,181C 180.134,179.35 185.467,177.35 190.5,175C 175.756,188.055 159.089,191.055 140.5,184C 136.295,181.403 132.295,178.569 128.5,175.5 Z"/></g>
<g><path style="opacity:1" fill="#7a776d" d="M 174.5,178.5 C 169.431,180.057 164.098,180.724 158.5,180.5C 154.319,180.499 150.319,180.166 146.5,179.5C 155.857,179.65 165.191,179.317 174.5,178.5 Z"/></g>
<g><path style="opacity:1" fill="#9c4b3c" d="M 119.5,170.5 C 119.167,170.5 118.833,170.5 118.5,170.5C 117.218,169.292 117.218,167.958 118.5,166.5C 119.429,167.689 119.762,169.022 119.5,170.5 Z"/></g>
<g><path style="opacity:1" fill="#9a4033" d="M 201.5,170.5 C 200.391,170.443 199.391,170.11 198.5,169.5C 199.852,165.68 200.852,166.014 201.5,170.5 Z"/></g>
<g><path style="opacity:1" fill="#bcbbb8" d="M 116.5,141.5 C 121.125,164.104 135.125,175.437 158.5,175.5C 176.147,176.262 189.647,169.262 199,154.5C 200.318,150.071 201.484,145.738 202.5,141.5C 202.289,160.714 192.956,173.047 174.5,178.5C 165.191,179.317 155.857,179.65 146.5,179.5C 127.191,174.19 117.191,161.524 116.5,141.5 Z"/></g>
<g><path style="opacity:1" fill="#eae7e7" d="M 128.5,157.5 C 129.706,160.298 131.706,162.465 134.5,164C 149.549,170.532 164.882,171.199 180.5,166C 187.114,163.555 191.448,159.055 193.5,152.5C 195.978,149.189 196.978,145.355 196.5,141C 196.885,135.206 195.552,129.873 192.5,125C 195.971,123.837 198.638,124.67 200.5,127.5C 201.807,132.066 202.474,136.733 202.5,141.5C 201.484,145.738 200.318,150.071 199,154.5C 189.647,169.262 176.147,176.262 158.5,175.5C 135.125,175.437 121.125,164.104 116.5,141.5C 116.526,136.733 117.193,132.066 118.5,127.5C 119.991,124.909 122.325,123.909 125.5,124.5C 122.812,131.601 121.979,138.935 123,146.5C 123.426,150.99 125.259,154.656 128.5,157.5 Z"/></g>
<g><path style="opacity:1" fill="#efa749" d="M 92.5,177.5 C 92.5,180.167 92.5,182.833 92.5,185.5C 93.9305,185.579 95.2638,185.246 96.5,184.5C 97.8924,185.605 99.059,186.939 100,188.5C 100.718,187.549 101.551,187.383 102.5,188C 101.529,189.481 100.196,190.315 98.5,190.5C 97.8074,186.83 95.8074,185.83 92.5,187.5C 90.9924,190.312 91.6591,192.312 94.5,193.5C 93.6136,194.776 92.6136,194.776 91.5,193.5C 90.6258,191.253 90.2924,188.92 90.5,186.5C 90.4203,183.219 91.087,180.219 92.5,177.5 Z"/></g>
<g><path style="opacity:1" fill="#ed9741" d="M 221.5,186.5 C 221.167,187.833 220.833,189.167 220.5,190.5C 217.944,189.457 215.777,187.79 214,185.5C 213.824,189.688 213.324,193.688 212.5,197.5C 212.675,195.379 212.341,193.379 211.5,191.5C 211.941,188.494 211.941,185.494 211.5,182.5C 214.433,183.93 216.933,185.93 219,188.5C 219.708,187.619 220.542,186.953 221.5,186.5 Z"/></g>
<g><path style="opacity:1" fill="#eba74e" d="M 226.5,177.5 C 227.768,179.905 228.435,182.572 228.5,185.5C 228.663,187.857 228.497,190.19 228,192.5C 227.076,194.495 225.91,194.828 224.5,193.5C 226.121,193.213 227.121,192.213 227.5,190.5C 226.754,189.264 226.421,187.93 226.5,186.5C 224.833,186.5 223.167,186.5 221.5,186.5C 221.369,185.624 221.702,184.957 222.5,184.5C 223.736,185.246 225.07,185.579 226.5,185.5C 226.5,182.833 226.5,180.167 226.5,177.5 Z"/></g>
<g><path style="opacity:1" fill="#ab2f21" d="M 220.5,190.5 C 221.526,191.853 222.859,192.853 224.5,193.5C 225.91,194.828 227.076,194.495 228,192.5C 228.497,190.19 228.663,187.857 228.5,185.5C 229.485,189.634 229.818,193.968 229.5,198.5C 227.833,198.5 226.167,198.5 224.5,198.5C 221.657,197.828 219.157,196.495 217,194.5C 215.718,198.84 214.551,203.173 213.5,207.5C 211.61,204.363 211.276,201.03 212.5,197.5C 213.324,193.688 213.824,189.688 214,185.5C 215.777,187.79 217.944,189.457 220.5,190.5 Z"/></g>
<g><path style="opacity:1" fill="#74a5c0" d="M 98.5,190.5 C 97.4739,191.853 96.1405,192.853 94.5,193.5C 91.6591,192.312 90.9924,190.312 92.5,187.5C 95.8074,185.83 97.8074,186.83 98.5,190.5 Z"/></g>
<g><path style="opacity:1" fill="#87a8b4" d="M 221.5,186.5 C 223.167,186.5 224.833,186.5 226.5,186.5C 226.421,187.93 226.754,189.264 227.5,190.5C 227.121,192.213 226.121,193.213 224.5,193.5C 222.859,192.853 221.526,191.853 220.5,190.5C 220.833,189.167 221.167,187.833 221.5,186.5 Z"/></g>
<g><path style="opacity:1" fill="#ddbb6d" d="M 94.5,187.5 C 94.9302,188.955 94.9302,190.288 94.5,191.5C 93.3744,190.192 93.3744,188.858 94.5,187.5 Z"/></g>
<g><path style="opacity:1" fill="#f0a445" d="M 107.5,191.5 C 106.659,193.379 106.325,195.379 106.5,197.5C 105.807,193.435 105.14,189.268 104.5,185C 105.543,183.024 106.877,182.524 108.5,183.5C 106.799,186.205 106.466,188.872 107.5,191.5 Z"/></g>
<g><path style="opacity:1" fill="#625f5d" d="M 107.5,191.5 C 107.833,191.5 108.167,191.5 108.5,191.5C 108.405,193.786 107.738,195.786 106.5,197.5C 106.325,195.379 106.659,193.379 107.5,191.5 Z"/></g>
<g><path style="opacity:1" fill="#eaad29" d="M 225.5,215.5 C 225.803,218.588 224.47,220.254 221.5,220.5C 221.217,219.711 220.717,219.044 220,218.5C 218.662,221.082 216.829,221.749 214.5,220.5C 214.784,218.585 214.451,216.919 213.5,215.5C 213.5,213.167 213.5,210.833 213.5,208.5C 214.967,205.479 216.633,202.479 218.5,199.5C 220.667,200.948 223,202.115 225.5,203C 226.74,207.134 226.74,211.301 225.5,215.5 Z"/></g>
<g><path style="opacity:1" fill="#e9ac29" d="M 105.5,208.5 C 105.5,210.833 105.5,213.167 105.5,215.5C 104.549,216.919 104.216,218.585 104.5,220.5C 103.167,221.833 101.833,221.833 100.5,220.5C 99.5,217.833 98.5,217.833 97.5,220.5C 94.5299,220.254 93.1966,218.588 93.5,215.5C 90.3248,207.667 92.4914,202.334 100,199.5C 100.5,199.833 101,200.167 101.5,200.5C 102.337,203.507 103.67,206.174 105.5,208.5 Z"/></g>
<g><path style="opacity:1" fill="#e7aa38" d="M 182.5,184.5 C 178.306,193.109 171.306,197.442 161.5,197.5C 161.5,199.833 161.5,202.167 161.5,204.5C 164.518,204.335 167.518,204.502 170.5,205C 171.833,206 171.833,207 170.5,208C 167.518,208.498 164.518,208.665 161.5,208.5C 161.5,210.167 161.5,211.833 161.5,213.5C 164.833,213.5 168.167,213.5 171.5,213.5C 171.67,214.822 171.337,215.989 170.5,217C 167.518,217.498 164.518,217.665 161.5,217.5C 161.5,219.167 161.5,220.833 161.5,222.5C 164.518,222.335 167.518,222.502 170.5,223C 171.833,224 171.833,225 170.5,226C 167.518,226.498 164.518,226.665 161.5,226.5C 161.5,228.167 161.5,229.833 161.5,231.5C 164.833,231.5 168.167,231.5 171.5,231.5C 171.5,232.5 171.5,233.5 171.5,234.5C 168.167,234.5 164.833,234.5 161.5,234.5C 161.884,236.665 161.217,238.332 159.5,239.5C 157.783,238.332 157.116,236.665 157.5,234.5C 154.167,234.5 150.833,234.5 147.5,234.5C 147.5,233.5 147.5,232.5 147.5,231.5C 150.833,231.5 154.167,231.5 157.5,231.5C 157.5,229.833 157.5,228.167 157.5,226.5C 154.482,226.665 151.482,226.498 148.5,226C 147.167,225 147.167,224 148.5,223C 151.482,222.502 154.482,222.335 157.5,222.5C 157.5,220.833 157.5,219.167 157.5,217.5C 154.482,217.665 151.482,217.498 148.5,217C 147.663,215.989 147.33,214.822 147.5,213.5C 150.833,213.5 154.167,213.5 157.5,213.5C 157.5,211.833 157.5,210.167 157.5,208.5C 154.482,208.665 151.482,208.498 148.5,208C 147.167,207 147.167,206 148.5,205C 151.482,204.502 154.482,204.335 157.5,204.5C 157.756,202.208 157.423,200.041 156.5,198C 147.927,197.052 141.26,193.052 136.5,186C 136.728,185.601 137.062,185.435 137.5,185.5C 139.954,186.227 142.287,187.227 144.5,188.5C 149.806,192.434 155.806,194.268 162.5,194C 163.737,193.768 164.737,193.268 165.5,192.5C 168.912,191.958 171.912,190.625 174.5,188.5C 177.167,187.167 179.833,185.833 182.5,184.5 Z"/></g>
<g><path style="opacity:1" fill="#77150e" d="M 144.5,188.5 C 147.833,189.5 151.167,190.5 154.5,191.5C 157.962,192.482 161.629,192.815 165.5,192.5C 164.737,193.268 163.737,193.768 162.5,194C 155.806,194.268 149.806,192.434 144.5,188.5 Z"/></g>
<g><path style="opacity:1" fill="#3e0a09" d="M 174.5,188.5 C 171.912,190.625 168.912,191.958 165.5,192.5C 161.629,192.815 157.962,192.482 154.5,191.5C 158.514,191.666 162.514,191.499 166.5,191C 169.022,189.659 171.689,188.826 174.5,188.5 Z"/></g>
<g><path style="opacity:0.808" fill="#8b4303" d="M 90.5,201.5 C 90.8333,201.5 91.1667,201.5 91.5,201.5C 90.6442,211.481 91.8109,221.147 95,230.5C 95.7589,232.063 96.9256,233.063 98.5,233.5C 98.1667,234.167 97.8333,234.833 97.5,235.5C 91.5825,228.917 88.9158,221.084 89.5,212C 89.6352,208.466 89.9685,204.966 90.5,201.5 Z"/></g>
<g><path style="opacity:0.808" fill="#8b4303" d="M 227.5,201.5 C 227.833,201.5 228.167,201.5 228.5,201.5C 229.91,209.188 229.744,216.855 228,224.5C 226.828,228.858 224.661,232.525 221.5,235.5C 221.167,234.833 220.833,234.167 220.5,233.5C 224.414,230.537 226.581,226.537 227,221.5C 227.5,214.842 227.666,208.175 227.5,201.5 Z"/></g>
<g><path style="opacity:1" fill="#c77b10" d="M 105.5,207.5 C 105.5,207.833 105.5,208.167 105.5,208.5C 103.67,206.174 102.337,203.507 101.5,200.5C 101,200.167 100.5,199.833 100,199.5C 92.4914,202.334 90.3248,207.667 93.5,215.5C 92.3871,216.946 92.2204,218.613 93,220.5C 93.7285,223.187 94.8951,225.52 96.5,227.5C 97.7767,229.914 99.4434,230.081 101.5,228C 102.642,225.55 103.642,223.05 104.5,220.5C 104.216,218.585 104.549,216.919 105.5,215.5C 105.5,221.833 105.5,228.167 105.5,234.5C 104.59,232.981 103.757,231.315 103,229.5C 101.519,230.471 100.685,231.804 100.5,233.5C 99.8333,233.5 99.1667,233.5 98.5,233.5C 96.9256,233.063 95.7589,232.063 95,230.5C 91.8109,221.147 90.6442,211.481 91.5,201.5C 92.5,200.5 93.5,199.5 94.5,198.5C 97.3425,197.828 99.8425,196.494 102,194.5C 103.282,198.84 104.449,203.173 105.5,207.5 Z"/></g>
<g><path style="opacity:1" fill="#ca3b29" d="M 100.5,220.5 C 101.833,221.833 103.167,221.833 104.5,220.5C 103.642,223.05 102.642,225.55 101.5,228C 99.4434,230.081 97.7767,229.914 96.5,227.5C 101.451,227.47 102.784,225.137 100.5,220.5 Z"/></g>
<g><path style="opacity:1" fill="#808da0" d="M 97.5,220.5 C 98.5,220.5 99.5,220.5 100.5,220.5C 102.784,225.137 101.451,227.47 96.5,227.5C 96.298,225.05 96.6314,222.717 97.5,220.5 Z"/></g>
<g><path style="opacity:1" fill="#db3a22" d="M 97.5,222.5 C 99.6456,222.696 99.8122,223.696 98,225.5C 97.5172,224.552 97.3505,223.552 97.5,222.5 Z"/></g>
<g><path style="opacity:1" fill="#e44f1d" d="M 93.5,215.5 C 93.1966,218.588 94.5299,220.254 97.5,220.5C 96.6314,222.717 96.298,225.05 96.5,227.5C 94.8951,225.52 93.7285,223.187 93,220.5C 92.2204,218.613 92.3871,216.946 93.5,215.5 Z"/></g>
<g><path style="opacity:1" fill="#cf3d2f" d="M 100.5,220.5 C 99.5,220.5 98.5,220.5 97.5,220.5C 98.5,217.833 99.5,217.833 100.5,220.5 Z"/></g>
<g><path style="opacity:1" fill="#c77c10" d="M 224.5,198.5 C 225.5,199.5 226.5,200.5 227.5,201.5C 227.666,208.175 227.5,214.842 227,221.5C 226.581,226.537 224.414,230.537 220.5,233.5C 220.167,233.5 219.833,233.5 219.5,233.5C 218.571,232.064 217.405,230.731 216,229.5C 215.392,231.066 214.558,232.4 213.5,233.5C 213.5,227.5 213.5,221.5 213.5,215.5C 214.451,216.919 214.784,218.585 214.5,220.5C 215.051,224.523 217.051,227.523 220.5,229.5C 221.522,229.145 222.189,228.478 222.5,227.5C 224.105,225.52 225.272,223.187 226,220.5C 226.78,218.613 226.613,216.946 225.5,215.5C 226.74,211.301 226.74,207.134 225.5,203C 223,202.115 220.667,200.948 218.5,199.5C 216.633,202.479 214.967,205.479 213.5,208.5C 213.5,208.167 213.5,207.833 213.5,207.5C 214.551,203.173 215.718,198.84 217,194.5C 219.157,196.495 221.657,197.828 224.5,198.5 Z"/></g>
<g><path style="opacity:1" fill="#cb3c2a" d="M 221.5,220.5 C 217.736,221.385 216.736,223.552 218.5,227C 219.793,227.49 221.127,227.657 222.5,227.5C 222.189,228.478 221.522,229.145 220.5,229.5C 217.051,227.523 215.051,224.523 214.5,220.5C 216.829,221.749 218.662,221.082 220,218.5C 220.717,219.044 221.217,219.711 221.5,220.5 Z"/></g>
<g><path style="opacity:1" fill="#7596ab" d="M 221.5,220.5 C 222.369,222.717 222.702,225.05 222.5,227.5C 221.127,227.657 219.793,227.49 218.5,227C 216.736,223.552 217.736,221.385 221.5,220.5 Z"/></g>
<g><path style="opacity:1" fill="#ae665a" d="M 219.5,222.5 C 220.239,222.369 220.906,222.536 221.5,223C 221.273,224.135 220.94,225.302 220.5,226.5C 218.358,225.563 218.024,224.23 219.5,222.5 Z"/></g>
<g><path style="opacity:1" fill="#e4511d" d="M 225.5,215.5 C 226.613,216.946 226.78,218.613 226,220.5C 225.272,223.187 224.105,225.52 222.5,227.5C 222.702,225.05 222.369,222.717 221.5,220.5C 224.47,220.254 225.803,218.588 225.5,215.5 Z"/></g>
<g><path style="opacity:1" fill="#ac2c21" d="M 219.5,233.5 C 219.663,235.857 219.497,238.19 219,240.5C 217.485,244.856 215.985,249.19 214.5,253.5C 213.508,253.328 212.842,253.662 212.5,254.5C 211.058,255.82 210.392,257.486 210.5,259.5C 207.667,255.66 208.334,252.326 212.5,249.5C 214.132,248.804 215.465,247.138 216.5,244.5C 215.767,243.913 214.767,243.913 213.5,244.5C 213.06,241.038 213.06,237.371 213.5,233.5C 214.558,232.4 215.392,231.066 216,229.5C 217.405,230.731 218.571,232.064 219.5,233.5 Z"/></g>
<g><path style="opacity:1" fill="#b62f24" d="M 105.5,234.5 C 106.782,237.936 106.782,241.269 105.5,244.5C 104.233,243.913 103.233,243.913 102.5,244.5C 103.535,247.138 104.868,248.804 106.5,249.5C 110.694,252.257 111.36,255.591 108.5,259.5C 108.107,257.716 107.441,256.05 106.5,254.5C 106.158,253.662 105.492,253.328 104.5,253.5C 103.677,250.129 102.511,246.796 101,243.5C 100.502,240.183 100.335,236.85 100.5,233.5C 100.685,231.804 101.519,230.471 103,229.5C 103.757,231.315 104.59,232.981 105.5,234.5 Z"/></g>
<g><path style="opacity:1" fill="#e9a542" d="M 105.5,244.5 C 106.038,246.117 106.371,247.784 106.5,249.5C 104.868,248.804 103.535,247.138 102.5,244.5C 103.233,243.913 104.233,243.913 105.5,244.5 Z"/></g>
<g><path style="opacity:1" fill="#eba541" d="M 212.5,249.5 C 212.629,247.784 212.962,246.117 213.5,244.5C 214.767,243.913 215.767,243.913 216.5,244.5C 215.465,247.138 214.132,248.804 212.5,249.5 Z"/></g>
<g><path style="opacity:0.784" fill="#410a0a" d="M 98.5,233.5 C 99.1667,233.5 99.8333,233.5 100.5,233.5C 100.335,236.85 100.502,240.183 101,243.5C 102.511,246.796 103.677,250.129 104.5,253.5C 104.167,253.5 103.833,253.5 103.5,253.5C 100.903,247.71 98.9035,241.71 97.5,235.5C 97.8333,234.833 98.1667,234.167 98.5,233.5 Z"/></g>
<g><path style="opacity:0.784" fill="#3e0b09" d="M 219.5,233.5 C 219.833,233.5 220.167,233.5 220.5,233.5C 220.833,234.167 221.167,234.833 221.5,235.5C 220.42,241.824 218.42,247.824 215.5,253.5C 215.167,253.5 214.833,253.5 214.5,253.5C 215.985,249.19 217.485,244.856 219,240.5C 219.497,238.19 219.663,235.857 219.5,233.5 Z"/></g>
<g><path style="opacity:1" fill="#db9413" d="M 106.5,254.5 C 107.441,256.05 108.107,257.716 108.5,259.5C 106.562,263.981 105.229,268.648 104.5,273.5C 103.414,273.38 102.747,272.713 102.5,271.5C 101.184,265.156 102.517,259.49 106.5,254.5 Z"/></g>
<g><path style="opacity:1" fill="#420404" d="M 107.5,276.5 C 109.561,280.475 111.727,284.475 114,288.5C 116.086,291.094 118.586,293.094 121.5,294.5C 135.775,302.283 151.108,305.116 167.5,303C 183.292,303.863 195.792,298.03 205,285.5C 209.933,272.473 207.766,270.306 198.5,279C 175.369,290.504 152.369,290.17 129.5,278C 123.622,274.62 118.955,270.12 115.5,264.5C 140.169,287.887 166.835,290.387 195.5,272C 199.702,268.133 203.535,263.967 207,259.5C 217.134,282.068 210.301,296.901 186.5,304C 166.305,308.983 146.305,308.317 126.5,302C 114.528,297.549 108.194,289.049 107.5,276.5 Z"/></g>
<g><path style="opacity:0.898" fill="#893e02" d="M 212.5,254.5 C 212.842,253.662 213.508,253.328 214.5,253.5C 214.833,253.5 215.167,253.5 215.5,253.5C 216.53,259.567 218.697,265.234 222,270.5C 224.726,273.717 227.226,277.05 229.5,280.5C 229.392,281.442 229.059,282.275 228.5,283C 226.26,283.977 223.927,284.477 221.5,284.5C 221.5,283.833 221.167,283.5 220.5,283.5C 219.833,283.5 219.167,283.5 218.5,283.5C 217.662,283.158 217.328,282.492 217.5,281.5C 220.408,282.569 223.408,282.736 226.5,282C 227.022,281.439 227.355,280.772 227.5,280C 221.229,273.231 216.896,265.398 214.5,256.5C 214.253,255.287 213.586,254.62 212.5,254.5 Z"/></g>
<g><path style="opacity:1" fill="#871614" d="M 113.5,261.5 C 112.314,273.772 115.647,284.606 123.5,294C 122.906,294.464 122.239,294.631 121.5,294.5C 118.586,293.094 116.086,291.094 114,288.5C 111.727,284.475 109.561,280.475 107.5,276.5C 107.463,270.441 108.963,264.775 112,259.5C 112.717,260.044 113.217,260.711 113.5,261.5 Z"/></g>
<g><path style="opacity:1" fill="#691210" d="M 113.5,261.5 C 114.167,262.5 114.833,263.5 115.5,264.5C 118.955,270.12 123.622,274.62 129.5,278C 152.369,290.17 175.369,290.504 198.5,279C 207.766,270.306 209.933,272.473 205,285.5C 195.792,298.03 183.292,303.863 167.5,303C 151.108,305.116 135.775,302.283 121.5,294.5C 122.239,294.631 122.906,294.464 123.5,294C 115.647,284.606 112.314,273.772 113.5,261.5 Z"/></g>
<g><path style="opacity:1" fill="#cb4222" d="M 214.5,275.5 C 214.5,274.833 214.5,274.167 214.5,273.5C 215.943,272.665 216.943,271.332 217.5,269.5C 217.498,273.66 219.498,276.16 223.5,277C 220.271,277.586 217.271,277.086 214.5,275.5 Z"/></g>
<g><path style="opacity:0.992" fill="#9a4409" d="M 103.5,253.5 C 103.833,253.5 104.167,253.5 104.5,253.5C 105.492,253.328 106.158,253.662 106.5,254.5C 102.517,259.49 101.184,265.156 102.5,271.5C 102.747,272.713 103.414,273.38 104.5,273.5C 104.5,273.833 104.5,274.167 104.5,274.5C 103.027,275.072 101.693,275.905 100.5,277C 98.2568,277.797 96.9234,277.63 96.5,276.5C 99.9549,275.872 101.122,273.872 100,270.5C 99.5017,272.544 98.335,273.878 96.5,274.5C 89.085,280.886 90.4183,283.553 100.5,282.5C 100.5,282.833 100.5,283.167 100.5,283.5C 99.8333,283.5 99.1667,283.5 98.5,283.5C 97.8333,283.5 97.5,283.833 97.5,284.5C 95.0733,284.477 92.74,283.977 90.5,283C 89.9415,282.275 89.6082,281.442 89.5,280.5C 94.4026,274.376 98.5693,267.71 102,260.5C 102.662,258.187 103.162,255.854 103.5,253.5 Z"/></g>
<g><path style="opacity:1" fill="#8f7462" d="M 96.5,276.5 C 96.5,275.833 96.5,275.167 96.5,274.5C 98.335,273.878 99.5017,272.544 100,270.5C 101.122,273.872 99.9549,275.872 96.5,276.5 Z"/></g>
<g><path style="opacity:1" fill="#cf8111" d="M 96.5,274.5 C 96.5,275.167 96.5,275.833 96.5,276.5C 96.9234,277.63 98.2568,277.797 100.5,277C 101.693,275.905 103.027,275.072 104.5,274.5C 104.5,276.5 104.5,278.5 104.5,280.5C 103.005,280.989 101.671,281.655 100.5,282.5C 90.4183,283.553 89.085,280.886 96.5,274.5 Z"/></g>
<g><path style="opacity:1" fill="#cd841b" d="M 212.5,254.5 C 213.586,254.62 214.253,255.287 214.5,256.5C 216.896,265.398 221.229,273.231 227.5,280C 227.355,280.772 227.022,281.439 226.5,282C 223.408,282.736 220.408,282.569 217.5,281.5C 216.391,281.443 215.391,281.11 214.5,280.5C 214.5,278.833 214.5,277.167 214.5,275.5C 217.271,277.086 220.271,277.586 223.5,277C 219.498,276.16 217.498,273.66 217.5,269.5C 216.943,271.332 215.943,272.665 214.5,273.5C 213.771,268.648 212.438,263.981 210.5,259.5C 210.392,257.486 211.058,255.82 212.5,254.5 Z"/></g>
<g><path style="opacity:1" fill="#951e1a" d="M 104.5,280.5 C 105.5,283.167 106.5,285.833 107.5,288.5C 106.5,288.5 105.5,288.5 104.5,288.5C 104.762,287.022 104.429,285.689 103.5,284.5C 101.64,285.26 99.973,286.26 98.5,287.5C 98.7329,285.938 99.3995,284.605 100.5,283.5C 100.5,283.167 100.5,282.833 100.5,282.5C 101.671,281.655 103.005,280.989 104.5,280.5 Z"/></g>
<g><path style="opacity:1" fill="#ab2820" d="M 107.5,288.5 C 109.402,293.068 112.402,296.735 116.5,299.5C 115.675,300.386 114.675,300.719 113.5,300.5C 110.833,300.5 108.167,300.5 105.5,300.5C 105.657,299.127 105.49,297.793 105,296.5C 100.129,299.006 94.9625,299.839 89.5,299C 85.7554,297.147 86.0888,295.647 90.5,294.5C 91.209,295.404 92.209,295.737 93.5,295.5C 96.5158,295.159 99.1825,293.993 101.5,292C 100.451,291.508 99.451,291.674 98.5,292.5C 98.0357,291.364 97.7024,290.364 97.5,289.5C 97.8333,288.833 98.1667,288.167 98.5,287.5C 99.973,286.26 101.64,285.26 103.5,284.5C 104.429,285.689 104.762,287.022 104.5,288.5C 105.5,288.5 106.5,288.5 107.5,288.5 Z"/></g>
<g><path style="opacity:1" fill="#ab2820" d="M 214.5,280.5 C 215.391,281.11 216.391,281.443 217.5,281.5C 217.328,282.492 217.662,283.158 218.5,283.5C 218.975,285.784 219.975,287.784 221.5,289.5C 221.298,290.364 220.964,291.364 220.5,292.5C 219.549,291.674 218.549,291.508 217.5,292C 220.079,293.467 222.746,294.634 225.5,295.5C 226.791,295.737 227.791,295.404 228.5,294.5C 232.911,295.647 233.245,297.147 229.5,299C 223.992,299.459 218.658,298.625 213.5,296.5C 213.094,297.557 213.094,298.891 213.5,300.5C 210.833,300.5 208.167,300.5 205.5,300.5C 204.325,300.719 203.325,300.386 202.5,299.5C 208.755,294.671 212.755,288.338 214.5,280.5 Z"/></g>
<g><path style="opacity:0.702" fill="#50120f" d="M 98.5,283.5 C 99.1667,283.5 99.8333,283.5 100.5,283.5C 99.3995,284.605 98.7329,285.938 98.5,287.5C 98.1667,288.167 97.8333,288.833 97.5,289.5C 96.8333,289.5 96.5,289.833 96.5,290.5C 94.5,291.833 92.5,293.167 90.5,294.5C 86.0888,295.647 85.7554,297.147 89.5,299C 94.9625,299.839 100.129,299.006 105,296.5C 105.49,297.793 105.657,299.127 105.5,300.5C 108.167,300.5 110.833,300.5 113.5,300.5C 112.737,301.268 111.737,301.768 110.5,302C 110.728,302.399 111.062,302.565 111.5,302.5C 109.274,303.559 106.941,303.392 104.5,302C 103.874,301.25 103.374,300.416 103,299.5C 97.093,302.028 91.2597,302.028 85.5,299.5C 84.1667,297.833 84.1667,296.167 85.5,294.5C 90.4207,292.244 94.4207,288.91 97.5,284.5C 98.1667,284.5 98.5,284.167 98.5,283.5 Z"/></g>
<g><path style="opacity:1" fill="#ed9740" d="M 97.5,289.5 C 97.7024,290.364 98.0357,291.364 98.5,292.5C 99.451,291.674 100.451,291.508 101.5,292C 99.1825,293.993 96.5158,295.159 93.5,295.5C 95.2503,294.341 96.2503,292.674 96.5,290.5C 96.5,289.833 96.8333,289.5 97.5,289.5 Z"/></g>
<g><path style="opacity:1" fill="#ef9941" d="M 221.5,289.5 C 222.167,289.5 222.5,289.833 222.5,290.5C 222.75,292.674 223.75,294.341 225.5,295.5C 222.746,294.634 220.079,293.467 217.5,292C 218.549,291.508 219.549,291.674 220.5,292.5C 220.964,291.364 221.298,290.364 221.5,289.5 Z"/></g>
<g><path style="opacity:1" fill="#969fa0" d="M 96.5,290.5 C 96.2503,292.674 95.2503,294.341 93.5,295.5C 92.209,295.737 91.209,295.404 90.5,294.5C 92.5,293.167 94.5,291.833 96.5,290.5 Z"/></g>
<g><path style="opacity:1" fill="#8aa4b0" d="M 222.5,290.5 C 224.5,291.833 226.5,293.167 228.5,294.5C 227.791,295.404 226.791,295.737 225.5,295.5C 223.75,294.341 222.75,292.674 222.5,290.5 Z"/></g>
<g><path style="opacity:1" fill="#53110e" d="M 218.5,283.5 C 219.167,283.5 219.833,283.5 220.5,283.5C 221.167,283.5 221.5,283.833 221.5,284.5C 224.579,288.91 228.579,292.244 233.5,294.5C 234.833,296.167 234.833,297.833 233.5,299.5C 227.74,302.028 221.907,302.028 216,299.5C 215.623,300.942 214.79,301.942 213.5,302.5C 210.833,301.833 208.167,301.167 205.5,300.5C 208.167,300.5 210.833,300.5 213.5,300.5C 213.094,298.891 213.094,297.557 213.5,296.5C 218.658,298.625 223.992,299.459 229.5,299C 233.245,297.147 232.911,295.647 228.5,294.5C 226.5,293.167 224.5,291.833 222.5,290.5C 222.5,289.833 222.167,289.5 221.5,289.5C 219.975,287.784 218.975,285.784 218.5,283.5 Z"/></g>
</svg>
