<svg width="141" height="141" viewBox="0 0 141 141" fill="none" xmlns="http://www.w3.org/2000/svg">
<g clip-path="url(#clip0_6_38)">
<path d="M123.537 141H21.9984C12.3541 141 0 133.305 0 123.812L1.13297 22.7646C1.13297 13.2728 11.2191 5.57839 20.8634 5.57839L123.537 1.11523C133.181 1.11523 141 13.2738 141 22.7656V123.813C141 133.305 133.181 141 123.537 141Z" fill="#5BEFB6"/>
<path d="M17.4646 132.631C9.39693 132.631 2.83252 126.172 2.83252 118.234V17.1862C2.83252 9.24617 9.39492 2.78662 17.4646 2.78662H120.135C128.203 2.78662 134.767 9.24518 134.767 17.1862V118.234C134.767 126.172 128.204 132.631 120.135 132.631H17.4646Z" fill="url(#paint0_radial_6_38)"/>
<path d="M120.134 5.57524C126.641 5.57524 131.934 10.7841 131.934 17.1862V118.234C131.934 124.634 126.641 129.845 120.134 129.845H17.4645C10.9584 129.845 5.66585 124.634 5.66585 118.234V17.1862C5.66585 10.7841 10.9584 5.57524 17.4645 5.57524H120.134ZM120.134 0H17.4645C7.82011 0 0.000976562 7.69442 0.000976562 17.1862V118.234C0.000976562 127.724 7.81911 135.42 17.4645 135.42H120.135C129.781 135.42 137.599 127.724 137.599 118.234V17.1862C137.599 7.69442 129.78 0 120.134 0Z" fill="#F6FFFF"/>
</g>
<defs>
<radialGradient id="paint0_radial_6_38" cx="0" cy="0" r="1" gradientUnits="userSpaceOnUse" gradientTransform="translate(68.7992 67.7095) scale(65.9664 64.9226)">
<stop stop-color="#E4FAF5"/>
<stop offset="0.1826" stop-color="#DBFAF2"/>
<stop offset="0.4803" stop-color="#C3FCEA"/>
<stop offset="0.8541" stop-color="#9BFEDC"/>
<stop offset="1" stop-color="#8AFFD6"/>
</radialGradient>
<clipPath id="clip0_6_38">
<rect width="141" height="141" fill="white"/>
</clipPath>
</defs>
</svg>
