<svg width="348" height="400" viewBox="0 0 348 400" fill="none" xmlns="http://www.w3.org/2000/svg">
<g clip-path="url(#clip0_44_577)">
<path d="M324.971 287.291L325.092 87.2014L313.715 80.6328C313.563 80.7206 309.929 83.6747 307.17 86.4704C304.93 88.7406 302.89 90.8081 302.773 90.8914C300.151 92.7696 299.211 94.4259 298.271 96.0819C297.329 97.7396 296.388 99.3992 293.759 101.28C290.505 103.61 288.237 106.59 285.97 109.571C285.449 110.255 284.927 110.942 284.393 111.619C278.013 119.744 278.946 129.385 279.894 139.161C280.466 145.064 281.044 151.018 280.017 156.72C279.628 158.87 279.009 161 278.39 163.126C277.579 165.916 276.768 168.705 276.481 171.531C276.118 175.3 276.698 179.048 277.279 182.804C277.777 186.019 278.277 189.239 278.186 192.486C278.012 197.454 276.418 202.348 274.833 207.213C272.658 213.889 270.501 220.512 272.053 227.204C272.608 229.588 273.617 231.88 274.627 234.175L274.632 234.192C275.169 235.41 275.705 236.629 276.174 237.862C277.771 242.546 271.362 243.228 268.552 246.887C264.161 252.605 265.281 259.872 260.584 264.864C256.171 269.555 250.652 269.684 246.866 273.229C240.317 279.362 237.324 276.379 230.551 283.912C227.13 287.717 223.689 291.544 219.474 294.178C216.707 295.881 213.669 297.058 210.636 298.234C207.092 299.609 203.556 300.98 200.474 303.179C198.722 304.443 197.14 305.959 195.598 307.534C195.112 308.031 194.631 308.533 194.149 309.036C192.617 310.634 191.082 312.236 189.415 313.648C184.99 317.388 179.546 319.865 174.147 322.32C165.207 326.387 156.391 330.4 152.544 339.988C152.224 340.789 151.891 341.584 151.559 342.377C150.111 345.831 148.664 349.285 148.274 353.269C147.959 356.485 146.993 358.131 146.028 359.775C145.064 361.417 144.099 363.059 143.784 366.269C143.776 366.357 143.479 367.459 143.052 369.015L142.154 372.288C141.112 376.075 140.37 380.699 140.371 380.875L151.748 387.443L324.971 287.291Z" fill="#57AFD6"/>
<path d="M325.124 112.659L151.902 12.5088L140.524 19.0774C140.524 19.2535 141.266 23.8771 142.307 27.6645C143.153 30.7394 143.924 33.5398 143.937 33.6832C144.253 36.8929 145.217 38.535 146.181 40.1773C147.146 41.8213 148.113 43.4668 148.428 46.6836C148.818 50.6667 150.265 54.1207 151.712 57.5747C152.045 58.3683 152.378 59.1636 152.698 59.9645C156.544 69.5524 165.361 73.5647 174.301 77.6316C179.699 80.0876 185.144 82.5644 189.568 86.3043C191.236 87.7163 192.771 89.3178 194.303 90.9164C196.314 93.0141 198.323 95.1106 200.628 96.7729C203.71 98.9717 207.245 100.343 210.79 101.718C213.823 102.894 216.861 104.072 219.628 105.774C223.843 108.408 227.284 112.235 230.705 116.04C235.399 121.262 240.056 126.442 246.628 128.444C248.97 129.155 251.459 129.427 253.952 129.7L253.969 129.704C255.292 129.848 256.616 129.993 257.918 130.204C262.773 131.162 260.159 137.054 261.923 141.317C264.68 147.979 271.532 150.643 273.507 157.206C275.363 163.373 272.716 168.217 273.893 173.269C275.929 182.007 271.849 183.107 274.987 192.739C276.572 197.604 278.166 202.498 278.34 207.466C278.43 210.713 277.931 213.933 277.433 217.148C276.852 220.905 276.271 224.652 276.634 228.421C276.853 230.57 277.375 232.698 277.968 234.82C278.156 235.49 278.35 236.158 278.544 236.826C279.162 238.952 279.782 241.082 280.171 243.232C281.197 248.934 280.62 254.888 280.048 260.791C279.1 270.567 278.167 280.208 284.547 288.333C285.08 289.01 285.602 289.697 286.124 290.382C288.391 293.362 290.659 296.342 293.913 298.672C296.541 300.553 297.483 302.213 298.425 303.87C299.365 305.526 300.305 307.182 302.927 309.061C302.999 309.111 303.805 309.92 304.939 311.067L307.324 313.482C310.083 316.277 313.716 319.232 313.869 319.319L325.246 312.751L325.124 112.659Z" fill="#57AFD6"/>
<path d="M334.74 107.109L161.524 6.95605L148.288 14.5979C148.835 15.5451 149.46 15.9817 150.004 16.27C150.511 16.5388 151.016 16.8065 151.522 17.6058L151.543 17.6389C152.589 19.2925 153.635 20.9461 153.649 21.1341C153.964 24.3375 154.591 25.9261 155.218 27.5128C155.846 29.103 156.474 30.6936 156.789 33.904C157.259 38.7946 157.789 43.7641 159.469 48.024C163.316 57.6138 172.132 61.6241 181.073 65.6928C186.471 68.1487 191.915 70.6258 196.339 74.364C198.001 75.7723 199.531 77.3676 201.057 78.9585L201.074 78.9758C203.086 81.0753 205.094 83.1703 207.399 84.8343C210.477 87.0334 214.015 88.405 217.562 89.7805C220.594 90.9553 223.634 92.1341 226.399 93.8348C230.614 96.469 234.055 100.296 237.476 104.102C242.171 109.323 246.828 114.503 253.399 116.505C255.732 117.215 258.223 117.488 260.713 117.761C262.043 117.906 263.373 118.052 264.679 118.265C272.868 119.88 267.796 127.694 270.47 132.631C273.687 138.572 277.035 137.323 280.232 145.202C282.308 150.319 287.258 153.498 288.166 158.944C289.091 164.493 286.485 170.48 285.933 172.856C284.382 179.548 286.539 186.171 288.714 192.847C290.299 197.712 291.893 202.606 292.066 207.573C292.157 210.818 291.658 214.041 291.159 217.254C290.577 221.013 289.995 224.764 290.361 228.529C290.649 231.357 291.46 234.143 292.272 236.936C292.597 238.054 292.921 239.172 293.214 240.296C293.477 241.308 293.714 242.323 293.898 243.342C294.924 249.042 294.347 254.995 293.775 260.899C292.828 270.676 291.893 280.316 298.275 288.442C301.124 292.027 305.163 294.971 309.163 297.824C311.786 299.701 312.849 301.04 313.912 302.379C314.973 303.716 316.035 305.053 318.652 306.927C318.808 307.034 319.717 308.767 320.626 310.499L320.644 310.534C321.343 311.867 320.878 312.526 321.101 313.588C321.168 313.91 321.381 314.412 321.627 314.839L334.863 307.197L334.74 107.109Z" fill="#80CFF3"/>
<path d="M334.585 292.844L334.713 92.7585L321.477 85.1167C320.93 86.0639 320.864 86.8234 320.887 87.4384C320.907 88.0119 320.928 88.5832 320.489 89.4212L320.471 89.4557C319.562 91.1884 318.652 92.9211 318.497 93.0275C315.88 94.9018 314.818 96.2395 313.757 97.5756C312.694 98.915 311.631 100.254 309.008 102.131C305.008 104.984 300.969 107.928 298.12 111.513C291.738 119.639 292.673 129.279 293.62 139.056C294.192 144.96 294.769 150.913 293.743 156.613C293.355 158.757 292.738 160.879 292.123 162.996L292.117 163.019C291.305 165.811 290.494 168.598 290.206 171.426C289.84 175.191 290.422 178.942 291.004 182.701C291.502 185.914 292.002 189.136 291.911 192.382C291.738 197.349 290.143 202.243 288.559 207.108C286.384 213.784 284.226 220.407 285.778 227.099C286.33 229.475 287.339 231.769 288.348 234.061C288.887 235.285 289.426 236.51 289.895 237.748C292.59 245.647 283.287 245.162 280.348 249.946C276.812 255.703 279.567 257.977 274.342 264.686C270.949 269.042 270.671 274.918 266.408 278.428C262.066 282.003 255.577 282.74 253.244 283.45C246.673 285.452 242.016 290.632 237.321 295.853C233.9 299.659 230.459 303.486 226.244 306.12C223.479 307.821 220.439 309 217.407 310.174C213.86 311.55 210.322 312.922 207.244 315.121C204.939 316.785 202.931 318.88 200.918 320.979C200.112 321.82 199.306 322.66 198.48 323.475C197.735 324.209 196.974 324.922 196.184 325.591C191.76 329.329 186.316 331.806 180.918 334.262C171.976 338.331 163.161 342.341 159.314 351.931C157.634 356.191 157.104 361.16 156.634 366.051C156.319 369.261 155.691 370.852 155.063 372.442C154.436 374.029 153.809 375.617 153.494 378.821C153.48 379.009 152.434 380.662 151.388 382.316L151.367 382.349C150.562 383.621 149.759 383.547 148.95 384.272C148.705 384.491 148.376 384.927 148.13 385.353L161.366 392.995L334.585 292.844Z" fill="#80CFF3"/>
<path d="M342.555 297.442L342.695 97.3457L331.079 90.644C330.534 91.6959 330.045 92.8901 329.652 93.9147C328.593 96.6749 327.564 99.3577 323.741 102.087C319.737 104.954 315.702 107.883 312.843 111.474C306.474 119.599 307.405 129.23 308.35 139C308.921 144.909 309.498 150.866 308.467 156.575C308.081 158.726 307.461 160.858 306.841 162.988C306.031 165.777 305.222 168.56 304.939 171.382C304.576 175.151 305.156 178.898 305.738 182.655C306.236 185.868 306.735 189.09 306.644 192.337C306.471 197.304 304.876 202.198 303.292 207.063C301.117 213.74 298.959 220.363 300.511 227.055C300.741 228.054 301.052 229.036 301.41 230.009C301.908 231.361 303.084 234.03 303.084 234.03C303.084 234.03 304.163 236.475 304.633 237.711C306.184 242.274 302.788 243.033 303.391 247.815C303.994 252.598 296.079 252.854 294.317 256.901C292.571 260.909 294.619 267.109 292.575 270.303C290.296 273.864 287.025 274.941 283.652 278.346C278.614 283.431 281.783 288.317 273.607 291.45C268.126 293.755 266.22 294.497 260.575 296.227C254.003 298.229 249.346 303.409 244.652 308.63C241.231 312.436 237.79 316.263 233.575 318.897C230.808 320.599 227.769 321.778 224.737 322.953C221.192 324.328 217.657 325.699 214.575 327.898C212.272 329.554 210.266 331.646 208.257 333.742C206.722 335.344 205.185 336.947 203.515 338.357C199.087 342.104 193.639 344.583 188.236 347.043C179.303 351.11 170.496 355.119 166.645 364.697C164.964 368.968 164.445 373.927 163.964 378.828C163.512 383.504 161.703 385.736 159.842 388.034C159.152 388.886 158.373 389.888 157.734 390.886L169.346 397.594L342.555 297.442Z" fill="#F2E8C0"/>
<path d="M342.706 102.506L169.488 2.33691L157.876 9.04538C158.514 10.0435 159.304 11.0638 159.995 11.9167C161.856 14.2139 163.665 16.4465 164.117 21.1223C164.597 26.0229 165.117 30.9823 166.797 35.2533C170.649 44.8315 179.455 48.8405 188.389 52.9067C193.791 55.367 199.239 57.8465 203.668 61.5931C205.338 63.0036 206.874 64.6064 208.409 66.2079C210.419 68.3041 212.424 70.3961 214.727 72.0526C217.809 74.2514 221.345 75.6223 224.889 76.9973C227.921 78.1718 230.96 79.3512 233.728 81.0531C237.942 83.6873 241.383 87.5146 244.804 91.3198C249.499 96.5414 254.156 101.721 260.727 103.723C261.707 104.023 262.713 104.245 263.735 104.422C265.155 104.667 268.054 104.982 268.054 104.982C268.054 104.982 270.711 105.271 272.017 105.482C276.744 106.42 275.703 109.741 280.146 111.61C284.59 113.478 280.854 120.461 283.477 124.011C286.076 127.527 292.469 128.853 294.213 132.22C296.157 135.975 295.454 139.346 296.717 143.97C298.602 150.875 304.417 150.574 303.043 159.221C302.299 165.12 301.988 167.142 300.664 172.895C299.112 179.587 301.269 186.21 303.444 192.887C305.029 197.752 306.623 202.646 306.797 207.613C306.887 210.86 306.389 214.082 305.89 217.295C305.309 221.052 304.728 224.799 305.091 228.568C305.375 231.39 306.183 234.173 306.994 236.962C307.614 239.092 308.233 241.224 308.62 243.376C309.65 249.084 309.074 255.042 308.503 260.951C307.558 270.721 306.626 280.352 312.995 288.476C315.854 292.067 319.889 294.997 323.893 297.863C327.716 300.592 328.745 303.275 329.804 306.035C330.198 307.06 330.675 308.235 331.221 309.287L342.836 302.586L342.706 102.506Z" fill="#F2E8C0"/>
<path d="M347.169 99.923L174.044 -0.303223L168.216 3.06591C168.216 3.06591 173.964 10.4963 174.384 13.1156C174.958 16.4097 176.188 19.5546 178.003 22.3632C180.052 25.5623 179.832 29.9112 182.372 32.7405C189.42 40.6084 202.437 44.9973 213.254 53.4451C216.803 56.2244 219.792 59.6935 223.521 62.2328C228.71 65.7719 235.028 67.3215 240.377 70.6206C249.374 76.1492 255.273 86.3565 265.19 89.9156C268.329 91.0353 271.679 91.4052 274.918 92.195C289.374 95.6702 294.748 113.069 294.748 113.069C294.748 113.069 297.408 119.461 300.491 121.187" fill="url(#paint0_linear_44_577)"/>
<path d="M347.169 99.923L174.044 -0.303223L168.216 3.06591C168.216 3.06591 173.964 10.4963 174.384 13.1156C174.958 16.4097 176.188 19.5546 178.003 22.3632C180.052 25.5623 179.832 29.9112 182.372 32.7405C189.42 40.6084 202.437 44.9973 213.254 53.4451C216.803 56.2244 219.792 59.6935 223.521 62.2328C228.71 65.7719 235.028 67.3215 240.377 70.6206C249.374 76.1492 255.273 86.3565 265.19 89.9156C268.329 91.0353 271.679 91.4052 274.918 92.195C289.374 95.6702 294.748 113.069 294.748 113.069C294.748 113.069 297.408 119.461 300.491 121.187" fill="url(#paint1_linear_44_577)"/>
<path d="M300.489 121.171C311.728 127.009 307.384 132.362 311.331 139.949C315.443 147.855 322.374 146.714 320.454 160.301C319.824 164.769 318.325 169.098 317.985 173.587C317.505 179.856 319.324 186.104 319.144 192.382C318.845 202.92 312.966 213.147 314.846 223.524C315.445 226.803 316.795 229.883 317.735 233.082C318.831 237.216 319.59 241.432 320.004 245.688C321.074 254.256 322.154 262.844 322.164 271.482C322.073 273.612 322.204 275.746 322.554 277.85C323.383 281.749 325.883 285.048 328.312 288.217C329.84 290.458 331.752 292.411 333.961 293.986C335.82 295.146 340.272 302.142 341.602 303.292L347.26 299.982L347.167 99.9062" fill="url(#paint2_linear_44_577)"/>
<path d="M300.489 121.171C311.728 127.009 307.384 132.362 311.331 139.949C315.443 147.855 322.374 146.714 320.454 160.301C319.824 164.769 318.325 169.098 317.985 173.587C317.505 179.856 319.324 186.104 319.144 192.382C318.845 202.92 312.966 213.147 314.846 223.524C315.445 226.803 316.795 229.883 317.735 233.082C318.831 237.216 319.59 241.432 320.004 245.688C321.074 254.256 322.154 262.844 322.164 271.482C322.073 273.612 322.204 275.746 322.554 277.85C323.383 281.749 325.883 285.048 328.312 288.217C329.84 290.458 331.752 292.411 333.961 293.986C335.82 295.146 340.272 302.142 341.602 303.292L347.26 299.982L347.167 99.9062" fill="url(#paint3_linear_44_577)"/>
<path d="M347.023 300.016L347.26 125.834L341.428 122.471C341.428 122.471 337.867 131.164 335.808 132.838C333.242 134.982 331.134 137.62 329.609 140.596C327.863 143.97 323.987 145.954 322.807 149.568C319.517 159.606 322.224 147.211 320.317 160.803C319.685 165.266 318.175 169.589 317.84 174.088C317.37 180.351 319.187 186.598 319.004 192.88C318.715 203.436 312.824 213.648 314.701 224.016C315.301 227.295 316.655 230.38 317.59 233.58C321.809 247.838 309.428 261.191 309.428 261.191C309.428 261.191 305.223 266.69 305.269 270.224" fill="url(#paint4_linear_44_577)"/>
<path d="M347.023 300.016L347.26 125.834L341.428 122.471C341.428 122.471 337.867 131.164 335.808 132.838C333.242 134.982 331.134 137.62 329.609 140.596C327.863 143.97 323.987 145.954 322.807 149.568C319.517 159.606 322.224 147.211 320.317 160.803C319.685 165.266 318.175 169.589 317.84 174.088C317.37 180.351 319.187 186.598 319.004 192.88C318.715 203.436 312.824 213.648 314.701 224.016C315.301 227.295 316.655 230.38 317.59 233.58C321.809 247.838 309.428 261.191 309.428 261.191C309.428 261.191 305.223 266.69 305.269 270.224" fill="url(#paint5_linear_44_577)"/>
<path d="M305.282 270.213C305.846 282.865 299.038 281.78 294.441 288.992C289.65 296.506 294.103 301.937 281.377 307.068C277.192 308.757 272.694 309.623 268.636 311.573C262.968 314.292 258.466 318.992 252.939 321.975C243.663 326.984 231.867 327.007 223.82 333.823C221.28 335.982 219.288 338.691 216.987 341.104C213.956 344.121 210.684 346.886 207.204 349.373C200.319 354.583 193.422 359.812 185.946 364.139C184.056 365.126 182.273 366.306 180.626 367.661C177.664 370.329 176.057 374.143 174.527 377.832C173.35 380.276 172.615 382.908 172.356 385.608C172.281 387.798 168.448 395.152 168.117 396.878L173.812 400.123L347.037 300.005" fill="url(#paint6_linear_44_577)"/>
<path d="M305.282 270.213C305.846 282.865 299.038 281.78 294.441 288.992C289.65 296.506 294.103 301.937 281.377 307.068C277.192 308.757 272.694 309.623 268.636 311.573C262.968 314.292 258.466 318.992 252.939 321.975C243.663 326.984 231.867 327.007 223.82 333.823C221.28 335.982 219.288 338.691 216.987 341.104C213.956 344.121 210.684 346.886 207.204 349.373C200.319 354.583 193.422 359.812 185.946 364.139C184.056 365.126 182.273 366.306 180.626 367.661C177.664 370.329 176.057 374.143 174.527 377.832C173.35 380.276 172.615 382.908 172.356 385.608C172.281 387.798 168.448 395.152 168.117 396.878L173.812 400.123L347.037 300.005" fill="url(#paint7_linear_44_577)"/>
</g>
<defs>
<linearGradient id="paint0_linear_44_577" x1="266.671" y1="53.6177" x2="249.538" y2="81.9099" gradientUnits="userSpaceOnUse">
<stop offset="0.05" stop-color="#E0B568"/>
<stop offset="1" stop-color="#E8CF96"/>
</linearGradient>
<linearGradient id="paint1_linear_44_577" x1="334.297" y1="106.751" x2="318.112" y2="98.7874" gradientUnits="userSpaceOnUse">
<stop stop-color="#E0B568"/>
<stop offset="1" stop-color="#E0B568" stop-opacity="0"/>
</linearGradient>
<linearGradient id="paint2_linear_44_577" x1="347.167" y1="201.416" x2="314.024" y2="201.416" gradientUnits="userSpaceOnUse">
<stop offset="0.05" stop-color="#E0B568"/>
<stop offset="1" stop-color="#E8CF96"/>
</linearGradient>
<linearGradient id="paint3_linear_44_577" x1="335.838" y1="105.21" x2="332.156" y2="123.707" gradientUnits="userSpaceOnUse">
<stop stop-color="#E0B568"/>
<stop offset="1" stop-color="#E0B568" stop-opacity="0"/>
</linearGradient>
<linearGradient id="paint4_linear_44_577" x1="346.876" y1="207.149" x2="313.808" y2="206.458" gradientUnits="userSpaceOnUse">
<stop offset="0.05" stop-color="#E0B568"/>
<stop offset="1" stop-color="#E8CF96"/>
</linearGradient>
<linearGradient id="paint5_linear_44_577" x1="334.674" y1="292.282" x2="333.478" y2="274.283" gradientUnits="userSpaceOnUse">
<stop stop-color="#E0B568"/>
<stop offset="1" stop-color="#E0B568" stop-opacity="0"/>
</linearGradient>
<linearGradient id="paint6_linear_44_577" x1="259.127" y1="350.76" x2="242.555" y2="322.057" gradientUnits="userSpaceOnUse">
<stop offset="0.05" stop-color="#E0B568"/>
<stop offset="1" stop-color="#E8CF96"/>
</linearGradient>
<linearGradient id="paint7_linear_44_577" x1="336.779" y1="292.846" x2="318.919" y2="298.905" gradientUnits="userSpaceOnUse">
<stop stop-color="#E0B568"/>
<stop offset="1" stop-color="#E0B568" stop-opacity="0"/>
</linearGradient>
<clipPath id="clip0_44_577">
<rect width="346.34" height="399.76" fill="white" transform="translate(0.919434 0.0300293)"/>
</clipPath>
</defs>
</svg>
