<svg width="347" height="401" viewBox="0 0 347 401" fill="none" xmlns="http://www.w3.org/2000/svg">
<g clip-path="url(#clip0_43_330)">
<path d="M21.874 288.079L195.096 388.229L206.473 381.661C206.474 381.485 205.732 376.861 204.69 373.074C203.844 369.999 203.074 367.198 203.06 367.055C202.745 363.845 201.78 362.203 200.816 360.561C199.851 358.917 198.885 357.271 198.57 354.055C198.18 350.072 196.732 346.618 195.285 343.164C194.953 342.37 194.619 341.575 194.3 340.774C190.453 331.186 181.637 327.174 172.697 323.107C167.298 320.651 161.854 318.174 157.429 314.434C155.761 313.022 154.227 311.42 152.695 309.822C150.684 307.724 148.674 305.628 146.37 303.965C143.288 301.767 139.752 300.396 136.208 299.021C133.175 297.844 130.137 296.667 127.37 294.965C123.155 292.331 119.714 288.503 116.293 284.698C111.598 279.477 106.941 274.297 100.37 272.295C98.0279 271.583 95.5383 271.311 93.046 271.038L93.0287 271.035C91.7053 270.89 90.3814 270.745 89.0794 270.534C84.2245 269.576 86.8385 263.684 85.0747 259.421C82.3179 252.759 75.4651 250.096 73.4901 243.533C71.6341 237.365 74.2816 232.521 73.1043 227.469C71.0682 218.731 75.1481 217.631 72.0104 207.999C70.4256 203.134 68.8315 198.24 68.658 193.273C68.5673 190.026 69.0666 186.805 69.5645 183.591C70.1457 179.834 70.7263 176.086 70.3631 172.318C70.1444 170.168 69.6229 168.041 69.0296 165.918C68.842 165.248 68.6478 164.58 68.4537 163.912C67.8352 161.786 67.2156 159.656 66.8266 157.506C65.8001 151.804 66.3773 145.851 66.9497 139.947C67.8977 130.171 68.8311 120.53 62.4509 112.405C61.9171 111.728 61.3951 111.041 60.874 110.357C58.6065 107.376 56.3388 104.396 53.0843 102.067C50.4561 100.185 49.5143 98.5257 48.573 96.8681C47.6327 95.2121 46.6928 93.5558 44.0709 91.6776C43.9987 91.6268 43.1924 90.8181 42.0582 89.671L39.6736 87.2566C36.9144 84.4609 33.2811 81.5067 33.1284 81.419L21.7513 87.9876L21.874 288.079Z" fill="#57AFD6"/>
<path d="M324.257 288.216L324.379 88.1262L313.002 81.5576C312.849 81.6454 309.216 84.5995 306.457 87.3952C304.217 89.6654 302.177 91.7329 302.059 91.8162C299.438 93.6944 298.498 95.3507 297.557 97.0067C296.616 98.6644 295.674 100.324 293.046 102.205C289.792 104.535 287.524 107.515 285.256 110.495C284.735 111.18 284.213 111.866 283.68 112.544C277.299 120.669 278.233 130.31 279.181 140.086C279.753 145.989 280.33 151.943 279.304 157.644C278.915 159.795 278.295 161.924 277.677 164.05C276.866 166.841 276.055 169.629 275.767 172.456C275.404 176.225 275.985 179.972 276.566 183.729C277.064 186.944 277.563 190.164 277.472 193.411C277.299 198.379 275.705 203.272 274.12 208.138C271.945 214.814 269.788 221.437 271.34 228.129C271.894 230.513 272.904 232.805 273.913 235.1L273.919 235.116C274.455 236.335 274.992 237.554 275.46 238.787C277.058 243.471 270.648 244.153 267.839 247.811C263.447 253.53 264.567 260.797 259.871 265.788C255.457 270.48 249.939 270.609 246.152 274.154C239.603 280.286 236.61 277.303 229.838 284.837C226.417 288.642 222.976 292.469 218.76 295.103C215.994 296.805 212.955 297.983 209.922 299.159C206.378 300.534 202.843 301.905 199.76 304.104C198.008 305.368 196.426 306.884 194.885 308.459C194.399 308.956 193.917 309.458 193.435 309.96C191.904 311.559 190.369 313.161 188.701 314.573C184.277 318.312 178.832 320.789 173.434 323.245C164.493 327.312 155.677 331.325 151.831 340.912C151.511 341.713 151.178 342.509 150.845 343.302C149.398 346.756 147.951 350.21 147.561 354.193C147.246 357.41 146.279 359.056 145.314 360.7C144.35 362.342 143.386 363.984 143.07 367.194C143.062 367.282 142.765 368.384 142.339 369.94L141.44 373.212C140.399 377 139.657 381.623 139.657 381.799L151.034 388.368L324.257 288.216Z" fill="#57AFD6"/>
<path d="M173.069 375.581L346.413 275.642V262.505C346.261 262.416 341.886 260.747 338.085 259.755C334.999 258.95 332.189 258.218 332.058 258.158C329.12 256.826 327.216 256.84 325.312 256.854C323.405 256.867 321.497 256.882 318.554 255.546C314.909 253.892 311.194 253.419 307.48 252.945C306.626 252.836 305.771 252.727 304.917 252.604C294.69 251.141 286.808 256.77 278.815 262.479C273.989 265.926 269.122 269.403 263.671 271.365C261.614 272.103 259.46 272.631 257.31 273.159C254.487 273.851 251.667 274.543 249.075 275.708C245.63 277.278 242.675 279.654 239.712 282.036C237.177 284.075 234.638 286.117 231.78 287.662C227.392 289.995 222.356 291.062 217.351 292.122C210.481 293.576 203.667 295.02 198.647 299.71C196.86 301.382 195.38 303.402 193.897 305.424L193.886 305.437C193.099 306.511 192.312 307.585 191.478 308.607C188.22 312.333 184.425 307.123 179.851 306.519C172.703 305.575 166.97 310.178 160.299 308.607C154.03 307.131 151.159 302.416 146.195 300.91C137.61 298.304 138.696 294.22 128.786 292.122C123.78 291.062 118.745 289.995 114.356 287.662C111.499 286.117 108.96 284.075 106.425 282.036C103.462 279.654 100.507 277.278 97.0615 275.708C95.0908 274.823 92.9873 274.21 90.8526 273.663C90.1787 273.491 89.503 273.325 88.8272 273.159C86.6768 272.631 84.5225 272.103 82.4658 271.365C77.0147 269.403 72.1475 265.926 67.3213 262.479C59.3291 256.77 51.4463 251.141 41.2197 252.604C40.3662 252.727 39.5108 252.836 38.6572 252.945C34.9424 253.419 31.2276 253.892 27.583 255.546C24.6397 256.882 22.7315 256.867 20.8252 256.854C18.9209 256.84 17.0166 256.826 14.0791 258.158C13.999 258.195 12.8955 258.489 11.335 258.897L8.05177 259.755C4.25099 260.747 -0.124017 262.416 -0.276361 262.505L-0.276367 275.642L173.069 375.581Z" fill="#57AFD6"/>
<path d="M173.068 386.684L346.411 286.752V271.468C345.317 271.468 344.626 271.791 344.105 272.118C343.619 272.422 343.134 272.726 342.189 272.765L342.15 272.766C340.195 272.845 338.24 272.924 338.07 272.843C335.138 271.514 333.449 271.263 331.761 271.012C330.07 270.761 328.378 270.51 325.441 269.177C320.97 267.139 316.402 265.113 311.873 264.438C301.644 262.975 293.763 268.604 285.769 274.313C280.943 277.76 276.076 281.236 270.626 283.198C268.576 283.934 266.429 284.461 264.289 284.987L264.265 284.993C261.441 285.685 258.623 286.377 256.029 287.541C252.585 289.107 249.628 291.486 246.664 293.87C244.13 295.908 241.589 297.952 238.734 299.496C234.345 301.829 229.31 302.895 224.304 303.956C217.435 305.41 210.621 306.853 205.601 311.543C203.82 313.209 202.337 315.229 200.857 317.249C200.066 318.329 199.275 319.408 198.437 320.433C192.944 326.716 188.713 318.417 183.1 318.264C176.346 318.08 175.754 321.604 167.332 320.433C161.863 319.672 156.635 322.369 151.464 320.433C146.197 318.46 142.314 313.209 140.533 311.543C135.513 306.853 128.699 305.41 121.83 303.955C116.824 302.895 111.789 301.829 107.4 299.496C104.544 297.952 102.003 295.908 99.4702 293.87C96.5054 291.486 93.5484 289.107 90.105 287.541C87.5113 286.377 84.6929 285.685 81.8687 284.993C80.7378 284.715 79.607 284.437 78.4878 284.128C77.48 283.851 76.482 283.548 75.5074 283.198C70.0581 281.236 65.1909 277.76 60.3648 274.313C52.3706 268.604 44.4898 262.975 34.2612 264.438C29.7319 265.113 25.1636 267.139 20.6929 269.177C17.7554 270.51 16.064 270.761 14.3726 271.012C12.6851 271.263 10.9957 271.514 8.06401 272.843C7.89409 272.924 5.93901 272.845 3.98394 272.766L3.94486 272.765C2.44095 272.704 2.10306 271.971 1.07181 271.633C0.75931 271.53 0.217288 271.464 -0.2749 271.464L-0.274902 286.747L173.068 386.684Z" fill="#80CFF3"/>
<path d="M324.41 113.584L151.188 13.4336L139.811 20.0022C139.811 20.1783 140.552 24.8019 141.594 28.5893C142.44 31.6642 143.211 34.4646 143.224 34.608C143.54 37.8177 144.504 39.4598 145.468 41.1021C146.433 42.7462 147.399 44.3916 147.714 47.6084C148.105 51.5915 149.552 55.0455 150.999 58.4995C151.331 59.2931 151.665 60.0884 151.985 60.8893C155.831 70.4772 164.647 74.4895 173.587 78.5564C178.986 81.0124 184.43 83.4892 188.855 87.2291C190.523 88.6411 192.057 90.2426 193.589 91.8412C195.6 93.9389 197.61 96.0354 199.914 97.6977C202.996 99.8965 206.532 101.267 210.076 102.642C213.109 103.819 216.148 104.996 218.914 106.699C223.129 109.332 226.571 113.16 229.992 116.965C234.686 122.187 239.343 127.366 245.914 129.368C248.256 130.08 250.746 130.352 253.238 130.625L253.255 130.628C254.579 130.773 255.903 130.918 257.205 131.129C262.06 132.087 259.446 137.979 261.209 142.242C263.966 148.904 270.819 151.567 272.794 158.13C274.65 164.298 272.003 169.142 273.18 174.194C275.216 182.932 271.136 184.032 274.274 193.664C275.859 198.529 277.453 203.423 277.626 208.391C277.717 211.638 277.218 214.858 276.72 218.073C276.138 221.829 275.558 225.577 275.921 229.345C276.14 231.495 276.661 233.623 277.255 235.745C277.442 236.415 277.636 237.083 277.83 237.751C278.449 239.877 279.069 242.007 279.458 244.157C280.484 249.859 279.907 255.812 279.335 261.716C278.387 271.492 277.453 281.133 283.833 289.258C284.367 289.935 284.889 290.622 285.41 291.306C287.678 294.287 289.945 297.267 293.2 299.596C295.828 301.478 296.77 303.137 297.711 304.795C298.652 306.451 299.591 308.107 302.213 309.985C302.285 310.036 303.092 310.845 304.226 311.992L306.611 314.406C309.37 317.202 313.003 320.156 313.156 320.244L324.533 313.675L324.41 113.584Z" fill="#57AFD6"/>
<path d="M334.026 108.034L160.811 7.88086L147.575 15.5227C148.122 16.4699 148.747 16.9065 149.29 17.1948C149.797 17.4636 150.302 17.7313 150.808 18.5307L150.829 18.5638C151.875 20.2173 152.921 21.8709 152.936 22.0589C153.25 25.2623 153.878 26.8509 154.505 28.4376C155.133 30.0278 155.761 31.6184 156.075 34.8288C156.546 39.7194 157.075 44.6889 158.756 48.9488C162.602 58.5386 171.418 62.5489 180.359 66.6176C185.758 69.0735 191.202 71.5506 195.625 75.2888C197.288 76.6972 198.818 78.2924 200.343 79.8833L200.36 79.9007C202.372 82.0001 204.38 84.0951 206.686 85.7591C209.763 87.9582 213.302 89.3298 216.849 90.7053C219.881 91.8801 222.921 93.059 225.686 94.7596C229.901 97.3938 233.342 101.221 236.763 105.026C241.457 110.248 246.114 115.428 252.686 117.43C255.019 118.14 257.51 118.413 259.999 118.685C261.33 118.831 262.66 118.976 263.966 119.189C272.155 120.805 267.083 128.619 269.757 133.556C272.974 139.497 276.322 138.248 279.518 146.127C281.594 151.244 286.544 154.422 287.452 159.869C288.378 165.417 285.772 171.405 285.22 173.781C283.668 180.473 285.825 187.096 288 193.772C289.585 198.637 291.179 203.531 291.353 208.498C291.443 211.743 290.944 214.966 290.446 218.178C289.863 221.938 289.282 225.688 289.648 229.453C289.936 232.282 290.746 235.068 291.558 237.861C291.883 238.979 292.208 240.097 292.5 241.221C292.764 242.232 293 243.248 293.185 244.267C294.211 249.967 293.634 255.92 293.061 261.823C292.114 271.601 291.18 281.241 297.561 289.367C300.41 292.952 304.449 295.895 308.449 298.748C311.072 300.626 312.136 301.965 313.199 303.304C314.26 304.64 315.322 305.978 317.939 307.852C318.094 307.959 319.003 309.691 319.912 311.424L319.931 311.459C320.63 312.792 320.164 313.45 320.387 314.512C320.454 314.835 320.668 315.337 320.914 315.763L334.15 308.122L334.026 108.034Z" fill="#80CFF3"/>
<path d="M333.872 293.769L334 93.6834L320.764 86.0415C320.217 86.9887 320.151 87.7482 320.173 88.3632C320.194 88.9367 320.215 89.508 319.775 90.346L319.757 90.3805C318.848 92.1132 317.939 93.8459 317.784 93.9523C315.167 95.8267 314.105 97.1643 313.044 98.5004C311.981 99.8398 310.917 101.179 308.294 103.056C304.294 105.909 300.255 108.852 297.406 112.437C291.025 120.564 291.959 130.204 292.906 139.981C293.479 145.884 294.055 151.838 293.03 157.538C292.641 159.681 292.025 161.804 291.41 163.921L291.403 163.944C290.591 166.736 289.781 169.523 289.492 172.351C289.127 176.116 289.708 179.866 290.291 183.626C290.789 186.839 291.288 190.061 291.198 193.306C291.024 198.274 289.43 203.167 287.845 208.033C285.67 214.709 283.513 221.332 285.065 228.024C285.617 230.399 286.625 232.693 287.634 234.986C288.173 236.21 288.712 237.435 289.181 238.673C291.877 246.572 282.574 246.086 279.635 250.871C276.098 256.628 278.854 258.902 273.629 265.61C270.235 269.966 269.958 275.842 265.695 279.352C261.352 282.928 254.864 283.665 252.531 284.375C245.959 286.377 241.302 291.557 236.608 296.778C233.187 300.583 229.746 304.411 225.531 307.045C222.766 308.746 219.726 309.925 216.694 311.099C213.147 312.475 209.608 313.846 206.531 316.046C204.225 317.709 202.217 319.805 200.205 321.904C199.399 322.744 198.593 323.585 197.766 324.4C197.022 325.134 196.26 325.847 195.47 326.516C191.047 330.254 185.603 332.731 180.204 335.187C171.263 339.256 162.447 343.266 158.6 352.856C156.92 357.116 156.391 362.085 155.92 366.976C155.606 370.186 154.978 371.777 154.35 373.367C153.723 374.954 153.095 376.542 152.781 379.746C152.766 379.934 151.72 381.587 150.674 383.241L150.653 383.274C149.849 384.546 149.045 384.472 148.237 385.196C147.992 385.416 147.663 385.852 147.417 386.278L160.653 393.92L333.872 293.769Z" fill="#80CFF3"/>
<path d="M341.841 298.367L341.981 98.2705L330.366 91.5688C329.82 92.6207 329.332 93.8149 328.939 94.8396C327.88 97.5997 326.85 100.283 323.027 103.012C319.023 105.878 314.988 108.808 312.13 112.399C305.76 120.523 306.692 130.154 307.637 139.924C308.208 145.833 308.784 151.791 307.754 157.499C307.367 159.651 306.748 161.783 306.128 163.913C305.318 166.702 304.509 169.484 304.225 172.307C303.862 176.076 304.443 179.823 305.024 183.58C305.523 186.793 306.021 190.015 305.931 193.262C305.757 198.229 304.163 203.123 302.578 207.988C300.403 214.664 298.246 221.288 299.798 227.98C300.028 228.979 300.339 229.961 300.696 230.934C301.194 232.286 302.371 234.955 302.371 234.955C302.371 234.955 303.449 237.399 303.919 238.636C305.471 243.199 302.074 243.958 302.678 248.74C303.281 253.522 295.366 253.779 293.603 257.825C291.858 261.834 293.905 268.033 291.861 271.228C289.582 274.789 286.311 275.865 282.938 279.271C277.901 284.356 281.069 289.242 272.893 292.375C267.413 294.68 265.507 295.422 259.861 297.152C253.29 299.154 248.633 304.334 243.939 309.555C240.518 313.36 237.076 317.188 232.862 319.822C230.095 321.524 227.055 322.703 224.023 323.878C220.479 325.253 216.943 326.624 213.861 328.822C211.559 330.479 209.553 332.571 207.543 334.667C206.008 336.269 204.472 337.871 202.802 339.282C198.373 343.028 192.926 345.508 187.523 347.968C178.589 352.035 169.783 356.043 165.931 365.622C164.251 369.893 163.731 374.852 163.251 379.753C162.799 384.428 160.99 386.661 159.129 388.958C158.438 389.811 157.659 390.813 157.021 391.811L168.633 398.519L341.841 298.367Z" fill="#F2E8C0"/>
<path d="M341.993 103.431L168.774 3.26172L157.163 9.97018C157.801 10.9683 158.591 11.9887 159.282 12.8415C161.142 15.1388 162.951 17.3713 163.403 22.0471C163.884 26.9478 164.403 31.9071 166.084 36.1782C169.935 45.7563 178.742 49.7653 187.675 53.8315C193.078 56.2918 198.526 58.7713 202.954 62.5179C204.624 63.9284 206.161 65.5312 207.696 67.1327C209.705 69.2289 211.711 71.3209 214.014 72.9774C217.096 75.1762 220.632 76.5471 224.176 77.9221C227.208 79.0966 230.247 80.276 233.014 81.9779C237.229 84.6121 240.67 88.4394 244.091 92.2446C248.785 97.4662 253.443 102.646 260.014 104.648C260.994 104.948 262 105.17 263.022 105.347C264.441 105.592 267.341 105.907 267.341 105.907C267.341 105.907 269.997 106.196 271.303 106.407C276.031 107.345 274.99 110.666 279.433 112.534C283.876 114.403 280.14 121.386 282.764 124.935C285.362 128.452 291.755 129.778 293.499 133.145C295.444 136.9 294.741 140.271 296.004 144.895C297.889 151.8 303.704 151.498 302.33 160.146C301.585 166.044 301.275 168.066 299.95 173.82C298.399 180.512 300.556 187.135 302.731 193.811C304.316 198.677 305.91 203.57 306.084 208.538C306.174 211.785 305.676 215.007 305.177 218.22C304.595 221.977 304.015 225.724 304.378 229.493C304.661 232.315 305.47 235.098 306.281 237.887C306.9 240.017 307.52 242.149 307.906 244.3C308.937 250.009 308.36 255.966 307.79 261.875C306.844 271.645 305.913 281.276 312.282 289.401C315.141 292.992 319.176 295.921 323.18 298.788C327.003 301.517 328.032 304.2 329.091 306.96C329.484 307.985 329.962 309.16 330.507 310.212L342.123 303.51L341.993 103.431Z" fill="#F2E8C0"/>
<path d="M346.455 100.848L173.331 0.621582L167.502 3.99071C167.502 3.99071 173.251 11.4211 173.67 14.0404C174.244 17.3345 175.475 20.4794 177.289 23.288C179.339 26.4872 179.119 30.836 181.658 33.6653C188.707 41.5332 201.723 45.9221 212.54 54.3699C216.089 57.1492 219.079 60.6183 222.808 63.1576C227.996 66.6967 234.315 68.2463 239.663 71.5454C248.661 77.074 254.559 87.2813 264.477 90.8404C267.616 91.9601 270.965 92.33 274.204 93.1198C288.661 96.595 294.035 113.994 294.035 113.994C294.035 113.994 296.695 120.386 299.778 122.112" fill="url(#paint0_linear_43_330)"/>
<path d="M346.455 100.848L173.331 0.621582L167.502 3.99071C167.502 3.99071 173.251 11.4211 173.67 14.0404C174.244 17.3345 175.475 20.4794 177.289 23.288C179.339 26.4872 179.119 30.836 181.658 33.6653C188.707 41.5332 201.723 45.9221 212.54 54.3699C216.089 57.1492 219.079 60.6183 222.808 63.1576C227.996 66.6967 234.315 68.2463 239.663 71.5454C248.661 77.074 254.559 87.2813 264.477 90.8404C267.616 91.9601 270.965 92.33 274.204 93.1198C288.661 96.595 294.035 113.994 294.035 113.994C294.035 113.994 296.695 120.386 299.778 122.112" fill="url(#paint1_linear_43_330)"/>
<path d="M299.776 122.096C311.014 127.934 306.671 133.287 310.618 140.874C314.73 148.78 321.66 147.639 319.741 161.225C319.111 165.694 317.611 170.023 317.271 174.512C316.791 180.78 318.611 187.029 318.431 193.307C318.131 203.844 312.253 214.072 314.132 224.449C314.732 227.728 316.082 230.807 317.021 234.006C318.118 238.14 318.877 242.356 319.291 246.613C320.361 255.181 321.44 263.769 321.45 272.407C321.36 274.537 321.49 276.671 321.84 278.775C322.67 282.674 325.169 285.973 327.599 289.142C329.127 291.383 331.039 293.336 333.247 294.911C335.107 296.07 339.559 303.067 340.888 304.216L346.546 300.907L346.454 100.831" fill="url(#paint2_linear_43_330)"/>
<path d="M299.776 122.096C311.014 127.934 306.671 133.287 310.618 140.874C314.73 148.78 321.66 147.639 319.741 161.225C319.111 165.694 317.611 170.023 317.271 174.512C316.791 180.78 318.611 187.029 318.431 193.307C318.131 203.844 312.253 214.072 314.132 224.449C314.732 227.728 316.082 230.807 317.021 234.006C318.118 238.14 318.877 242.356 319.291 246.613C320.361 255.181 321.44 263.769 321.45 272.407C321.36 274.537 321.49 276.671 321.84 278.775C322.67 282.674 325.169 285.973 327.599 289.142C329.127 291.383 331.039 293.336 333.247 294.911C335.107 296.07 339.559 303.067 340.888 304.216L346.546 300.907L346.454 100.831" fill="url(#paint3_linear_43_330)"/>
<path d="M12.2581 293.629L185.473 393.782L198.709 386.14C198.163 385.193 197.538 384.757 196.994 384.468C196.487 384.199 195.982 383.932 195.476 383.132L195.455 383.099C194.409 381.446 193.363 379.792 193.348 379.604C193.034 376.401 192.406 374.812 191.78 373.226C191.151 371.635 190.523 370.045 190.209 366.834C189.738 361.944 189.209 356.974 187.529 352.714C183.682 343.124 174.866 339.114 165.925 335.046C160.526 332.59 155.082 330.112 150.659 326.374C148.996 324.966 147.467 323.371 145.941 321.78L145.924 321.762C143.912 319.663 141.904 317.568 139.599 315.904C136.521 313.705 132.982 312.333 129.435 310.958C126.404 309.783 123.363 308.604 120.598 306.903C116.383 304.269 112.942 300.442 109.521 296.637C104.827 291.415 100.17 286.235 93.5984 284.233C91.2653 283.523 88.7743 283.25 86.2847 282.978C84.9547 282.832 83.6246 282.687 82.3181 282.474C74.1297 280.859 79.2015 273.045 76.5275 268.107C73.3101 262.166 69.9625 263.415 66.7657 255.536C64.6898 250.419 59.7401 247.241 58.8318 241.794C57.9065 236.246 60.5124 230.258 61.0642 227.882C62.616 221.19 60.4588 214.567 58.284 207.891C56.6991 203.026 55.105 198.132 54.9311 193.165C54.8409 189.92 55.3401 186.697 55.8385 183.485C56.4209 179.725 57.0022 175.975 56.6366 172.21C56.3483 169.381 55.5379 166.595 54.7258 163.802C54.401 162.684 54.0762 161.566 53.7839 160.442C53.5206 159.431 53.2837 158.415 53.0992 157.396C52.0736 151.696 52.6504 145.743 53.2227 139.84C54.1698 130.062 55.1046 120.422 48.723 112.296C45.8739 108.711 41.8349 105.768 37.8349 102.915C35.2118 101.037 34.1483 99.6982 33.0852 98.3589C32.0245 97.0227 30.9625 95.6851 28.3456 93.8108C28.19 93.7044 27.281 91.9717 26.372 90.239L26.3537 90.2045C25.6546 88.8715 26.1199 88.2127 25.8969 87.1507C25.8299 86.8285 25.6164 86.3259 25.3703 85.8996L12.1343 93.5415L12.2581 293.629Z" fill="#80CFF3"/>
<path d="M4.29119 298.232L177.51 398.401L189.122 391.693C188.483 390.695 187.693 389.674 187.003 388.822C185.142 386.524 183.333 384.292 182.881 379.616C182.4 374.715 181.881 369.756 180.2 365.485C176.349 355.907 167.542 351.898 158.609 347.832C153.206 345.371 147.759 342.892 143.33 339.145C141.66 337.735 140.123 336.132 138.589 334.53C136.579 332.434 134.573 330.342 132.27 328.686C129.188 326.487 125.653 325.116 122.108 323.741C119.076 322.566 116.037 321.387 113.27 319.685C109.055 317.051 105.614 313.224 102.193 309.418C97.4989 304.197 92.8416 299.017 86.2703 297.015C85.2902 296.715 84.2841 296.493 83.2624 296.316C81.8428 296.071 78.9433 295.756 78.9433 295.756C78.9433 295.756 76.2869 295.467 74.9809 295.256C70.2536 294.318 71.2944 290.997 66.8512 289.129C62.4081 287.26 66.1437 280.277 63.5203 276.728C60.9217 273.212 54.5289 271.885 52.7848 268.518C50.8401 264.763 51.5432 261.392 50.2807 256.769C48.3954 249.864 42.5802 250.165 43.9547 241.517C44.6988 235.619 45.0091 233.597 46.3338 227.843C47.8856 221.151 45.7284 214.528 43.5535 207.852C41.9686 202.986 40.3746 198.093 40.2007 193.125C40.1103 189.878 40.6087 186.656 41.1075 183.443C41.6888 179.686 42.2694 175.939 41.9062 172.17C41.623 169.348 40.8142 166.565 40.0036 163.776C39.384 161.646 38.7643 159.514 38.3779 157.363C37.3474 151.654 37.9239 145.697 38.4946 139.788C39.4399 130.018 40.3713 120.387 34.0021 112.262C31.1435 108.671 27.1083 105.742 23.1045 102.875C19.2813 100.146 18.2522 97.463 17.1931 94.7029C16.8 93.6782 16.3222 92.5029 15.7769 91.451L4.16139 98.1528L4.29119 298.232Z" fill="#F2E8C0"/>
<path d="M173.071 395.886L346.429 295.958L346.425 282.548C345.242 282.602 343.963 282.776 342.879 282.948C339.959 283.41 337.121 283.861 332.846 281.914C328.362 279.88 323.807 277.85 319.268 277.17C309.047 275.717 301.172 281.339 293.184 287.042C288.352 290.491 283.481 293.969 278.022 295.931C275.965 296.672 273.809 297.201 271.655 297.73C268.834 298.422 266.02 299.113 263.434 300.279C259.989 301.849 257.034 304.225 254.071 306.607C251.537 308.646 248.996 310.688 246.139 312.234C241.75 314.567 236.715 315.633 231.709 316.693C224.84 318.148 218.026 319.591 213.006 324.281C212.256 324.98 211.561 325.74 210.897 326.536C209.975 327.643 208.252 329.997 208.252 329.997C208.252 329.997 206.674 332.153 205.838 333.178C202.662 336.803 200.307 334.242 196.467 337.155C192.627 340.069 188.448 333.342 184.062 333.839C179.717 334.332 175.372 339.205 171.584 339.032C167.36 338.839 164.793 336.544 160.157 335.326C153.234 333.506 150.587 338.692 143.786 333.178C139.05 329.585 137.454 328.305 133.133 324.281C128.114 319.591 121.299 318.148 114.43 316.693C109.424 315.633 104.389 314.567 100 312.234C97.1429 310.688 94.6019 308.646 92.0687 306.607C89.1058 304.225 86.1507 301.849 82.7054 300.279C80.1195 299.113 77.305 298.422 74.4847 297.73C72.3304 297.201 70.1742 296.672 68.1175 295.931C62.6586 293.969 57.7874 290.491 52.9554 287.042C44.9671 281.339 37.0921 275.717 26.8714 277.17C22.3324 277.85 17.7777 279.88 13.2933 281.914C9.0179 283.861 6.18002 283.41 3.2601 282.948C2.17611 282.776 0.919414 282.602 -0.26418 282.548L-0.268066 295.958L173.071 395.886Z" fill="#F2E8C0"/>
<path d="M173.077 401.042L346.437 301.224L346.434 294.492C346.434 294.492 337.125 295.755 334.647 294.809C331.507 293.659 328.168 293.152 324.828 293.319C321.033 293.495 317.377 291.13 313.657 291.914C303.319 294.084 293.01 303.163 280.285 308.307C276.104 309.991 271.605 310.845 267.541 312.805C261.882 315.529 257.381 320.226 251.849 323.208C242.563 328.236 230.774 328.24 222.733 335.05C220.193 337.208 218.198 339.924 215.895 342.334C205.657 353.116 187.902 349.071 187.902 349.071C187.902 349.071 181.037 348.179 178 349.985" fill="url(#paint4_linear_43_330)"/>
<path d="M173.077 401.042L346.437 301.224L346.434 294.492C346.434 294.492 337.125 295.755 334.647 294.809C331.507 293.659 328.168 293.152 324.828 293.319C321.033 293.495 317.377 291.13 313.657 291.914C303.319 294.084 293.01 303.163 280.285 308.307C276.104 309.991 271.605 310.845 267.541 312.805C261.882 315.529 257.381 320.226 251.849 323.208C242.563 328.236 230.774 328.24 222.733 335.05C220.193 337.208 218.198 339.924 215.895 342.334C205.657 353.116 187.902 349.071 187.902 349.071C187.902 349.071 181.037 348.179 178 349.985" fill="url(#paint5_linear_43_330)"/>
<path d="M178.015 349.992C167.34 356.806 164.876 350.368 156.332 349.992C147.429 349.6 144.952 356.173 134.145 347.717C130.59 344.937 127.591 341.474 123.874 338.935C118.685 335.385 112.364 333.837 107.017 330.542C98.0411 325.014 92.1232 314.809 82.1964 311.248C79.0567 310.128 75.7152 309.757 72.4747 308.971C68.3464 307.854 64.3157 306.403 60.4223 304.633C52.4675 301.276 44.4904 297.917 37.0049 293.607C35.2052 292.463 33.2915 291.509 31.2948 290.76C27.5033 289.53 23.3965 290.044 19.4372 290.564C16.7326 290.767 14.0851 291.446 11.6173 292.571C9.6832 293.602 1.39829 293.959 -0.262207 294.536L-0.225284 301.09L173.092 401.048" fill="url(#paint6_linear_43_330)"/>
<path d="M178.015 349.992C167.34 356.806 164.876 350.368 156.332 349.992C147.429 349.6 144.952 356.173 134.145 347.717C130.59 344.937 127.591 341.474 123.874 338.935C118.685 335.385 112.364 333.837 107.017 330.542C98.0411 325.014 92.1232 314.809 82.1964 311.248C79.0567 310.128 75.7152 309.757 72.4747 308.971C68.3464 307.854 64.3157 306.403 60.4223 304.633C52.4675 301.276 44.4904 297.917 37.0049 293.607C35.2052 292.463 33.2915 291.509 31.2948 290.76C27.5033 289.53 23.3965 290.044 19.4372 290.564C16.7326 290.767 14.0851 291.446 11.6173 292.571C9.6832 293.602 1.39829 293.959 -0.262207 294.536L-0.225284 301.09L173.092 401.048" fill="url(#paint7_linear_43_330)"/>
<path d="M304.569 271.138C305.132 283.79 298.325 282.705 293.727 289.916C288.936 297.431 293.39 302.862 280.664 307.993C276.479 309.682 271.98 310.548 267.923 312.498C262.254 315.217 257.753 319.916 252.225 322.9C242.95 327.909 231.154 327.931 223.106 334.748C220.566 336.907 218.574 339.615 216.274 342.029C213.242 345.045 209.97 347.811 206.491 350.298C199.606 355.508 205.181 352.941 197.706 357.269C195.815 358.256 194.032 359.436 192.386 360.791C189.424 363.459 193.915 363.433 192.385 367.121C191.208 369.565 190.473 372.197 190.214 374.897C190.139 377.087 186.306 384.441 185.975 386.167L191.67 389.413L346.323 300.93" fill="url(#paint8_linear_43_330)"/>
<path d="M304.569 271.138C305.132 283.79 298.325 282.705 293.727 289.916C288.936 297.431 293.39 302.862 280.664 307.993C276.479 309.682 271.98 310.548 267.923 312.498C262.254 315.217 257.753 319.916 252.225 322.9C242.95 327.909 231.154 327.931 223.106 334.748C220.566 336.907 218.574 339.615 216.274 342.029C213.242 345.045 209.97 347.811 206.491 350.298C199.606 355.508 205.181 352.941 197.706 357.269C195.815 358.256 194.032 359.436 192.386 360.791C189.424 363.459 193.915 363.433 192.385 367.121C191.208 369.565 190.473 372.197 190.214 374.897C190.139 377.087 186.306 384.441 185.975 386.167L191.67 389.413L346.323 300.93" fill="url(#paint9_linear_43_330)"/>
<path d="M346.31 300.94L346.546 126.759L340.714 123.396C340.714 123.396 337.153 132.089 335.095 133.762C332.529 135.906 330.421 138.545 328.896 141.52C327.15 144.895 323.274 146.879 322.093 150.493C318.804 160.531 321.511 148.136 319.604 161.727C318.971 166.191 317.461 170.514 317.127 175.013C316.656 181.276 318.473 187.523 318.291 193.804C318.001 204.361 312.111 214.573 313.987 224.941C314.587 228.219 315.941 231.305 316.877 234.505C321.096 248.762 308.715 262.116 308.715 262.116C308.715 262.116 304.509 267.615 304.556 271.148" fill="url(#paint10_linear_43_330)"/>
<path d="M346.31 300.94L346.546 126.759L340.714 123.396C340.714 123.396 337.153 132.089 335.095 133.762C332.529 135.906 330.421 138.545 328.896 141.52C327.15 144.895 323.274 146.879 322.093 150.493C318.804 160.531 321.511 148.136 319.604 161.727C318.971 166.191 317.461 170.514 317.127 175.013C316.656 181.276 318.473 187.523 318.291 193.804C318.001 204.361 312.111 214.573 313.987 224.941C314.587 228.219 315.941 231.305 316.877 234.505C321.096 248.762 308.715 262.116 308.715 262.116C308.715 262.116 304.509 267.615 304.556 271.148" fill="url(#paint11_linear_43_330)"/>
<path d="M46.5083 279.568C35.2698 273.73 39.6131 268.377 35.6667 260.79C31.5542 252.884 24.624 254.025 26.5435 240.438C27.1733 235.969 28.6729 231.64 29.0128 227.152C29.4927 220.883 27.6732 214.635 27.8531 208.357C28.153 197.819 34.0315 187.592 32.152 177.215C31.5521 173.935 30.2025 170.856 29.2628 167.657C28.1662 163.523 27.4072 159.307 26.9933 155.05C25.9236 146.483 24.8439 137.895 24.8339 129.257C24.9247 127.127 24.794 124.992 24.444 122.889C23.6142 118.99 21.1149 115.691 18.6855 112.521C17.1576 110.28 15.2453 108.328 13.037 106.753C11.1775 105.593 6.72567 98.5969 5.39602 97.4472L-0.262083 100.757L-0.169559 300.833" fill="url(#paint12_linear_43_330)"/>
<path d="M46.5083 279.568C35.2698 273.73 39.6131 268.377 35.6667 260.79C31.5542 252.884 24.624 254.025 26.5435 240.438C27.1733 235.969 28.6729 231.64 29.0128 227.152C29.4927 220.883 27.6732 214.635 27.8531 208.357C28.153 197.819 34.0315 187.592 32.152 177.215C31.5521 173.935 30.2025 170.856 29.2628 167.657C28.1662 163.523 27.4072 159.307 26.9933 155.05C25.9236 146.483 24.8439 137.895 24.8339 129.257C24.9247 127.127 24.794 124.992 24.444 122.889C23.6142 118.99 21.1149 115.691 18.6855 112.521C17.1576 110.28 15.2453 108.328 13.037 106.753C11.1775 105.593 6.72567 98.5969 5.39602 97.4472L-0.262083 100.757L-0.169559 300.833" fill="url(#paint13_linear_43_330)"/>
<path d="M-0.171349 300.813L151.577 388.494L157.406 385.125C157.406 385.125 151.658 377.695 151.238 375.075C150.664 371.781 149.433 368.636 147.619 365.828C145.569 362.629 145.789 358.28 143.25 355.45C136.202 347.582 144.561 355.739 133.744 347.291C130.195 344.512 127.206 341.043 123.477 338.503C118.288 334.964 111.97 333.415 106.621 330.116C97.6233 324.587 91.7248 314.38 81.8074 310.821C78.6682 309.701 75.319 309.331 72.0799 308.541C57.6233 305.066 52.2495 287.667 52.2495 287.667C52.2495 287.667 49.5894 281.275 46.5065 279.549" fill="url(#paint14_linear_43_330)"/>
<path d="M-0.171349 300.813L151.577 388.494L157.406 385.125C157.406 385.125 151.658 377.695 151.238 375.075C150.664 371.781 149.433 368.636 147.619 365.828C145.569 362.629 145.789 358.28 143.25 355.45C136.202 347.582 144.561 355.739 133.744 347.291C130.195 344.512 127.206 341.043 123.477 338.503C118.288 334.964 111.97 333.415 106.621 330.116C97.6233 324.587 91.7248 314.38 81.8074 310.821C78.6682 309.701 75.319 309.331 72.0799 308.541C57.6233 305.066 52.2495 287.667 52.2495 287.667C52.2495 287.667 49.5894 281.275 46.5065 279.549" fill="url(#paint15_linear_43_330)"/>
</g>
<defs>
<linearGradient id="paint0_linear_43_330" x1="265.957" y1="54.5425" x2="248.825" y2="82.8347" gradientUnits="userSpaceOnUse">
<stop offset="0.05" stop-color="#E0B568"/>
<stop offset="1" stop-color="#E8CF96"/>
</linearGradient>
<linearGradient id="paint1_linear_43_330" x1="333.583" y1="107.676" x2="317.398" y2="99.7122" gradientUnits="userSpaceOnUse">
<stop stop-color="#E0B568"/>
<stop offset="1" stop-color="#E0B568" stop-opacity="0"/>
</linearGradient>
<linearGradient id="paint2_linear_43_330" x1="346.453" y1="202.341" x2="313.31" y2="202.341" gradientUnits="userSpaceOnUse">
<stop offset="0.05" stop-color="#E0B568"/>
<stop offset="1" stop-color="#E8CF96"/>
</linearGradient>
<linearGradient id="paint3_linear_43_330" x1="335.125" y1="106.135" x2="331.442" y2="124.632" gradientUnits="userSpaceOnUse">
<stop stop-color="#E0B568"/>
<stop offset="1" stop-color="#E0B568" stop-opacity="0"/>
</linearGradient>
<linearGradient id="paint4_linear_43_330" x1="253.427" y1="354.481" x2="237.492" y2="325.497" gradientUnits="userSpaceOnUse">
<stop offset="0.05" stop-color="#E0B568"/>
<stop offset="1" stop-color="#E8CF96"/>
</linearGradient>
<linearGradient id="paint5_linear_43_330" x1="173.599" y1="386.48" x2="188.589" y2="376.445" gradientUnits="userSpaceOnUse">
<stop stop-color="#E0B568"/>
<stop offset="1" stop-color="#E0B568" stop-opacity="0"/>
</linearGradient>
<linearGradient id="paint6_linear_43_330" x1="85.1821" y1="350.293" x2="101.754" y2="321.59" gradientUnits="userSpaceOnUse">
<stop offset="0.05" stop-color="#E0B568"/>
<stop offset="1" stop-color="#E8CF96"/>
</linearGradient>
<linearGradient id="paint7_linear_43_330" x1="174.163" y1="388.585" x2="159.985" y2="376.148" gradientUnits="userSpaceOnUse">
<stop stop-color="#E0B568"/>
<stop offset="1" stop-color="#E0B568" stop-opacity="0"/>
</linearGradient>
<linearGradient id="paint8_linear_43_330" x1="258.413" y1="351.685" x2="241.842" y2="322.982" gradientUnits="userSpaceOnUse">
<stop offset="0.05" stop-color="#E0B568"/>
<stop offset="1" stop-color="#E8CF96"/>
</linearGradient>
<linearGradient id="paint9_linear_43_330" x1="336.065" y1="293.771" x2="318.206" y2="299.83" gradientUnits="userSpaceOnUse">
<stop stop-color="#E0B568"/>
<stop offset="1" stop-color="#E0B568" stop-opacity="0"/>
</linearGradient>
<linearGradient id="paint10_linear_43_330" x1="346.162" y1="208.074" x2="313.094" y2="207.383" gradientUnits="userSpaceOnUse">
<stop offset="0.05" stop-color="#E0B568"/>
<stop offset="1" stop-color="#E8CF96"/>
</linearGradient>
<linearGradient id="paint11_linear_43_330" x1="333.96" y1="293.207" x2="332.765" y2="275.208" gradientUnits="userSpaceOnUse">
<stop stop-color="#E0B568"/>
<stop offset="1" stop-color="#E0B568" stop-opacity="0"/>
</linearGradient>
<linearGradient id="paint12_linear_43_330" x1="-0.169204" y1="199.323" x2="32.9739" y2="199.323" gradientUnits="userSpaceOnUse">
<stop offset="0.05" stop-color="#E0B568"/>
<stop offset="1" stop-color="#E8CF96"/>
</linearGradient>
<linearGradient id="paint13_linear_43_330" x1="11.1595" y1="295.529" x2="14.8418" y2="277.032" gradientUnits="userSpaceOnUse">
<stop stop-color="#E0B568"/>
<stop offset="1" stop-color="#E0B568" stop-opacity="0"/>
</linearGradient>
<linearGradient id="paint14_linear_43_330" x1="80.327" y1="347.121" x2="97.4595" y2="318.828" gradientUnits="userSpaceOnUse">
<stop offset="0.05" stop-color="#E0B568"/>
<stop offset="1" stop-color="#E8CF96"/>
</linearGradient>
<linearGradient id="paint15_linear_43_330" x1="12.7009" y1="293.987" x2="28.8857" y2="301.951" gradientUnits="userSpaceOnUse">
<stop stop-color="#E0B568"/>
<stop offset="1" stop-color="#E0B568" stop-opacity="0"/>
</linearGradient>
<clipPath id="clip0_43_330">
<rect width="346.21" height="399.91" fill="white" transform="translate(0.0297852 0.879883)"/>
</clipPath>
</defs>
</svg>
