<svg width="128" height="128" viewBox="0 0 128 128" fill="none" xmlns="http://www.w3.org/2000/svg">
<path d="M65.7175 18.0194C65.9772 18.0194 98.6691 45.1004 98.6691 45.1004C98.9089 45.3008 99.0787 45.5813 99.1387 45.8919L106.932 93.0806C107.112 93.9823 106.832 94.6937 106.303 94.6937C106.103 94.6937 105.873 94.5935 105.613 94.3931L100.268 90.105L98.4892 93.1808L89.2972 109.001H38.7007L29.5086 94.0324L27.2706 90.4757L22.3848 94.3831C22.125 94.6035 21.8852 94.6937 21.6854 94.6937C21.1558 94.6937 20.8861 93.9924 21.0659 93.0907L28.8592 45.8919C28.9191 45.5913 29.089 45.3008 29.3288 45.1004C29.3288 45.1004 62.0306 18.0194 62.2704 18.0194H65.7175ZM62.2704 13.01C60.472 13.01 59.6427 13.6713 57.6544 15.2743L53.8577 18.3701L42.5374 27.6776L26.1515 41.2331C24.9805 42.2026 24.1938 43.5601 23.9334 45.0603L16.1401 92.209C15.9427 93.1553 15.954 94.1334 16.1732 95.0749C16.3924 96.0164 16.8142 96.8984 17.4091 97.6593C17.9296 98.2944 18.5838 98.8062 19.3249 99.1578C20.066 99.5095 20.8755 99.6922 21.6954 99.6931C22.6445 99.6931 24.0933 99.4426 25.542 98.2604L26.0116 97.8897L34.4544 111.616C34.9007 112.343 35.5252 112.944 36.2684 113.361C37.0116 113.779 37.8489 113.999 38.7007 114H89.2972C90.1704 114 91.0285 113.771 91.7858 113.335C92.5432 112.899 93.1733 112.272 93.6134 111.515L101.677 97.6392L102.476 98.2804C103.549 99.183 104.902 99.6825 106.303 99.6931C107.971 99.6931 109.53 98.9517 110.599 97.6593C111.192 96.8976 111.612 96.0152 111.829 95.0738C112.047 94.1323 112.057 93.1546 111.858 92.209L104.064 45.0603L104.044 44.9501C103.769 43.4986 102.999 42.1882 101.866 41.2431C92.6357 33.6015 83.3937 25.9738 74.1402 18.3601C67.6158 13.02 67.6158 13.02 65.7874 13H62.2804L62.2704 13.01Z" fill="black"/>
<path d="M38.0213 110.554L27.6802 93.7319L64.1388 65.1281L100.607 92.8402L90.3162 110.554H38.0213Z" fill="url(#paint0_linear_2_451)"/>
<path d="M64.1488 67.0216L98.6491 93.241L89.457 109.051H38.8506L29.6585 94.0825L64.1388 67.0316M64.1088 63.2245L62.3004 64.6572L27.8001 91.7181L25.7019 93.3712L27.1007 95.6655L36.2928 110.634L37.172 112.056H91.1755L92.0348 110.574L101.237 94.7438L102.576 92.4495L100.458 90.8464L65.9672 64.6271L64.1288 63.2245H64.1088Z" fill="#4F0066"/>
<path d="M21.8452 96.2566C21.2258 96.2566 20.6563 95.9861 20.2466 95.4952C19.7271 94.854 19.5472 93.9222 19.747 92.8602L27.5403 45.7015C27.6702 45.0102 28.0199 44.4191 28.5395 43.9983C61.631 16.5567 61.661 16.5567 62.4203 16.5567H63.919V61.8118C63.919 62.6734 63.5393 63.4749 62.8699 64.016L23.4738 95.6154C22.9643 96.0362 22.4147 96.2566 21.8452 96.2566Z" fill="url(#paint1_linear_2_451)"/>
<path d="M62.4303 18.0695V61.8218C62.4303 62.2226 62.2505 62.6133 61.9308 62.8638L22.5547 94.4432C22.2949 94.6536 22.0551 94.7438 21.8553 94.7438C21.3257 94.7438 21.056 94.0424 21.2258 93.1407L29.0191 45.952C29.089 45.6414 29.2489 45.3509 29.4887 45.1605C29.4887 45.1605 62.1906 18.0695 62.4403 18.0695M62.4403 15.0639H62.4004C61.2713 15.0839 61.2713 15.0839 55.2865 19.9731L43.9662 29.2906L27.5803 42.8461C26.8018 43.4904 26.2718 44.3868 26.0816 45.3809V45.421L26.0716 45.451L18.2784 92.6198C18.1256 93.2811 18.1207 93.9681 18.2641 94.6316C18.4075 95.295 18.6955 95.9184 19.1076 96.457C19.797 97.2785 20.7962 97.7594 21.8553 97.7594C22.4847 97.7594 23.4539 97.5891 24.443 96.7776L63.8092 65.2182C64.3186 64.8098 64.7297 64.2914 65.0116 63.7016C65.2936 63.1119 65.4393 62.4659 65.4378 61.8118V15.0739H62.4403V15.0639Z" fill="#4F0066"/>
<path d="M106.462 96.2566C105.893 96.2566 105.343 96.0362 104.824 95.6054L65.4377 64.046C65.1067 63.7781 64.8398 63.4393 64.6565 63.0544C64.4732 62.6695 64.3783 62.2484 64.3786 61.8218V16.5767H65.8973C66.6367 16.5767 67.0363 16.8773 99.7781 43.9983C100.288 44.4191 100.637 45.0102 100.767 45.6614L108.561 92.9003C108.673 93.3453 108.685 93.8097 108.597 94.2601C108.509 94.7105 108.323 95.1357 108.051 95.5052C107.651 95.9861 107.082 96.2566 106.452 96.2566H106.462Z" fill="url(#paint2_linear_2_451)"/>
<path d="M65.8773 18.0695C66.1271 18.0695 98.829 45.1605 98.829 45.1605C99.0687 45.3609 99.2286 45.6414 99.2986 45.942L107.092 93.1407C107.262 94.0424 106.992 94.7438 106.462 94.7438C106.263 94.7438 106.033 94.6536 105.763 94.4432L66.3869 62.8638C66.0672 62.6133 65.8873 62.2226 65.8873 61.8218V18.0595M65.8873 15.0539H62.8899V61.8118C62.8899 63.1143 63.4694 64.3566 64.4885 65.1882L103.905 96.7776C104.884 97.5791 105.843 97.7494 106.472 97.7494C107.531 97.7494 108.531 97.2685 109.22 96.447C109.631 95.9081 109.919 95.2847 110.063 94.6213C110.206 93.958 110.201 93.2711 110.049 92.6097L102.256 45.441V45.3709C102.056 44.369 101.527 43.4673 100.737 42.8261L84.3614 29.2906C80.2649 25.9043 76.1385 22.5179 73.0412 19.9731C67.0463 15.0639 67.0463 15.0639 65.8873 15.0639V15.0539Z" fill="#4F0066"/>
<path d="M69.8439 112.307H58.4637L57.4946 100.485C57.4951 99.3686 57.8033 98.2746 58.3852 97.3233C58.9671 96.3721 59.7999 95.6007 60.7917 95.0944C61.78 94.5891 62.8715 94.3199 63.9808 94.3077C65.0901 94.2955 66.1871 94.5408 67.1862 95.0243L67.406 95.1245C69.4842 96.1364 70.8031 98.2504 70.8031 100.575L69.8439 112.307Z" fill="black"/>
<defs>
<linearGradient id="paint0_linear_2_451" x1="64.1488" y1="65.1281" x2="64.1488" y2="110.554" gradientUnits="userSpaceOnUse">
<stop offset="0.11" stop-color="#D04DF7"/>
<stop offset="0.38" stop-color="#CD4BF5"/>
<stop offset="0.55" stop-color="#C545ED"/>
<stop offset="0.69" stop-color="#B73AE1"/>
<stop offset="0.81" stop-color="#A32ACF"/>
<stop offset="0.92" stop-color="#8916B8"/>
<stop offset="1" stop-color="#7003A3"/>
</linearGradient>
<linearGradient id="paint1_linear_2_451" x1="61.2713" y1="67.212" x2="26.4836" y2="47.1868" gradientUnits="userSpaceOnUse">
<stop offset="0.11" stop-color="#D04DF7"/>
<stop offset="0.28" stop-color="#CC4AF3"/>
<stop offset="0.47" stop-color="#BF40E8"/>
<stop offset="0.66" stop-color="#A92FD5"/>
<stop offset="0.86" stop-color="#8B18BB"/>
<stop offset="1" stop-color="#7003A3"/>
</linearGradient>
<linearGradient id="paint2_linear_2_451" x1="101.776" y1="47.1042" x2="66.9987" y2="67.1293" gradientUnits="userSpaceOnUse">
<stop stop-color="#7003A3"/>
<stop offset="0.14" stop-color="#8B18BB"/>
<stop offset="0.34" stop-color="#A92FD5"/>
<stop offset="0.53" stop-color="#BF40E8"/>
<stop offset="0.72" stop-color="#CC4AF3"/>
<stop offset="0.89" stop-color="#D04DF7"/>
</linearGradient>
</defs>
</svg>
