<svg width="347" height="401" viewBox="0 0 347 401" fill="none" xmlns="http://www.w3.org/2000/svg">
<g clip-path="url(#clip0_67_115)">
<path d="M324.074 113.936L150.852 13.7852L139.475 20.3538C139.474 20.5299 140.216 25.1535 141.258 28.9409C142.104 32.0157 142.874 34.8162 142.888 34.9595C143.203 38.1693 144.168 39.8114 145.132 41.4537C146.097 43.0977 147.063 44.7432 147.378 47.9599C147.768 51.9431 149.215 55.3971 150.663 58.851C150.995 59.6446 151.328 60.4399 151.648 61.2409C155.495 70.8288 164.311 74.841 173.251 78.908C178.65 81.3639 184.094 83.8408 188.519 87.5807C190.186 88.9926 191.721 90.5941 193.253 92.1928C195.264 94.2905 197.273 96.387 199.578 98.0493C202.66 100.248 206.196 101.619 209.74 102.994C212.773 104.17 215.811 105.348 218.578 107.05C222.793 109.684 226.234 113.511 229.655 117.317C234.349 122.538 239.007 127.718 245.578 129.72C247.92 130.432 250.409 130.704 252.902 130.976L252.919 130.98C254.242 131.125 255.566 131.269 256.868 131.481C261.723 132.439 259.109 138.331 260.873 142.593C263.63 149.256 270.483 151.919 272.458 158.482C274.314 164.65 271.666 169.493 272.843 174.545C274.88 183.283 270.8 184.384 273.937 194.016C275.522 198.881 277.116 203.775 277.29 208.742C277.381 211.989 276.881 215.209 276.383 218.424C275.802 222.181 275.221 225.928 275.585 229.697C275.803 231.846 276.325 233.974 276.918 236.097C277.106 236.766 277.3 237.435 277.494 238.103C278.113 240.229 278.732 242.359 279.121 244.509C280.148 250.211 279.57 256.164 278.998 262.067C278.05 271.843 277.117 281.484 283.497 289.609C284.031 290.287 284.553 290.973 285.074 291.658C287.341 294.638 289.609 297.619 292.863 299.948C295.492 301.829 296.433 303.489 297.375 305.147C298.315 306.803 299.255 308.459 301.877 310.337C301.949 310.388 302.755 311.197 303.89 312.344L306.274 314.758C309.033 317.554 312.667 320.508 312.819 320.596L324.197 314.027L324.074 113.936Z" fill="#57AFD6"/>
<path d="M333.69 108.386L160.474 8.23242L147.238 15.8743C147.785 16.8215 148.41 17.2581 148.954 17.5464C149.461 17.8152 149.966 18.0828 150.472 18.8822L150.493 18.9153C151.539 20.5689 152.585 22.2225 152.599 22.4104C152.914 25.6139 153.541 27.2025 154.168 28.7891C154.797 30.3794 155.425 31.9699 155.739 35.1804C156.21 40.0709 156.739 45.0404 158.419 49.3003C162.266 58.8902 171.082 62.9005 180.023 66.9691C185.421 69.4251 190.865 71.9022 195.289 75.6404C196.951 77.0487 198.481 78.644 200.007 80.2348L200.024 80.2522C202.036 82.3516 204.044 84.4467 206.349 86.1107C209.427 88.3097 212.965 89.6814 216.513 91.0569C219.544 92.2317 222.584 93.4105 225.35 95.1112C229.564 97.7454 233.006 101.573 236.427 105.378C241.121 110.6 245.778 115.779 252.349 117.781C254.682 118.491 257.173 118.765 259.663 119.037C260.993 119.182 262.323 119.328 263.63 119.541C271.818 121.156 266.746 128.97 269.42 133.908C272.638 139.849 275.985 138.599 279.182 146.479C281.258 151.595 286.208 154.774 287.116 160.221C288.041 165.769 285.435 171.757 284.884 174.132C283.332 180.824 285.489 187.447 287.664 194.124C289.249 198.989 290.843 203.883 291.017 208.85C291.107 212.095 290.608 215.317 290.109 218.53C289.527 222.29 288.946 226.04 289.311 229.805C289.599 232.633 290.41 235.42 291.222 238.212C291.547 239.33 291.872 240.449 292.164 241.572C292.427 242.584 292.664 243.6 292.849 244.618C293.874 250.319 293.297 256.272 292.725 262.175C291.778 271.953 290.843 281.592 297.225 289.719C300.074 293.304 304.113 296.247 308.113 299.1C310.736 300.977 311.8 302.316 312.863 303.656C313.923 304.992 314.985 306.33 317.602 308.204C317.758 308.31 318.667 310.043 319.576 311.776L319.594 311.81C320.293 313.143 319.828 313.802 320.051 314.864C320.118 315.186 320.331 315.689 320.577 316.115L333.814 308.473L333.69 108.386Z" fill="#80CFF3"/>
<path d="M341.657 103.783L168.438 3.61328L156.826 10.3217C157.464 11.3199 158.254 12.3402 158.945 13.193C160.806 15.4903 162.615 17.7229 163.067 22.3986C163.547 27.2993 164.067 32.2587 165.747 36.5297C169.599 46.1079 178.405 50.1168 187.339 54.1831C192.742 56.6434 198.189 59.1228 202.618 62.8695C204.288 64.28 205.825 65.8827 207.359 67.4842C209.369 69.5805 211.375 71.6724 213.677 73.3289C216.759 75.5277 220.295 76.8986 223.839 78.2737C226.871 79.4482 229.911 80.6275 232.678 82.3294C236.893 84.9636 240.334 88.791 243.755 92.5962C248.449 97.8177 253.106 102.998 259.677 105C260.658 105.3 261.664 105.522 262.685 105.699C264.105 105.944 267.004 106.259 267.004 106.259C267.004 106.259 269.661 106.547 270.967 106.759C275.694 107.696 274.653 111.017 279.097 112.886C283.54 114.755 279.804 121.737 282.427 125.287C285.026 128.803 291.419 130.13 293.163 133.497C295.108 137.251 294.405 140.622 295.667 145.246C297.552 152.151 303.368 151.85 301.993 160.497C301.249 166.396 300.939 168.418 299.614 174.172C298.062 180.864 300.219 187.487 302.394 194.163C303.979 199.028 305.573 203.922 305.747 208.889C305.837 212.137 305.339 215.358 304.84 218.571C304.259 222.328 303.678 226.076 304.042 229.844C304.325 232.667 305.134 235.45 305.944 238.238C306.564 240.368 307.183 242.5 307.57 244.652C308.6 250.36 308.024 256.318 307.453 262.227C306.508 271.997 305.576 281.628 311.946 289.752C314.804 293.343 318.839 296.273 322.843 299.139C326.667 301.869 327.696 304.552 328.755 307.312C329.148 308.336 329.626 309.512 330.171 310.564L341.786 303.862L341.657 103.783Z" fill="#F2E8C0"/>
<path d="M346.119 101.199L172.994 0.973145L167.166 4.34227C167.166 4.34227 172.914 11.7726 173.334 14.3919C173.908 17.686 175.139 20.831 176.953 23.6395C179.003 26.8387 178.783 31.1876 181.322 34.0168C188.37 41.8848 201.387 46.2737 212.204 54.7215C215.753 57.5007 218.742 60.9698 222.471 63.5092C227.66 67.0483 233.978 68.5979 239.327 71.897C248.325 77.4256 254.223 87.6329 264.14 91.192C267.28 92.3117 270.629 92.6816 273.868 93.4714C288.324 96.9465 293.698 114.346 293.698 114.346C293.698 114.346 296.358 120.737 299.441 122.464" fill="url(#paint0_linear_67_115)"/>
<path d="M346.119 101.199L172.994 0.973145L167.166 4.34227C167.166 4.34227 172.914 11.7726 173.334 14.3919C173.908 17.686 175.139 20.831 176.953 23.6395C179.003 26.8387 178.783 31.1876 181.322 34.0168C188.37 41.8848 201.387 46.2737 212.204 54.7215C215.753 57.5007 218.742 60.9698 222.471 63.5092C227.66 67.0483 233.978 68.5979 239.327 71.897C248.325 77.4256 254.223 87.6329 264.14 91.192C267.28 92.3117 270.629 92.6816 273.868 93.4714C288.324 96.9465 293.698 114.346 293.698 114.346C293.698 114.346 296.358 120.737 299.441 122.464" fill="url(#paint1_linear_67_115)"/>
<path d="M299.439 122.447C310.678 128.285 306.335 133.638 310.281 141.225C314.394 149.132 321.324 147.99 319.404 161.577C318.774 166.046 317.275 170.375 316.935 174.864C316.455 181.132 318.275 187.38 318.095 193.659C317.795 204.196 311.916 214.423 313.796 224.801C314.396 228.08 315.745 231.159 316.685 234.358C317.782 238.492 318.541 242.708 318.954 246.965C320.024 255.533 321.104 264.12 321.114 272.758C321.023 274.889 321.154 277.023 321.504 279.126C322.334 283.025 324.833 286.325 327.262 289.494C328.79 291.735 330.702 293.688 332.911 295.262C334.77 296.422 339.222 303.418 340.552 304.568L346.21 301.259L346.117 101.183" fill="url(#paint2_linear_67_115)"/>
<path d="M299.439 122.447C310.678 128.285 306.335 133.638 310.281 141.225C314.394 149.132 321.324 147.99 319.404 161.577C318.774 166.046 317.275 170.375 316.935 174.864C316.455 181.132 318.275 187.38 318.095 193.659C317.795 204.196 311.916 214.423 313.796 224.801C314.396 228.08 315.745 231.159 316.685 234.358C317.782 238.492 318.541 242.708 318.954 246.965C320.024 255.533 321.104 264.12 321.114 272.758C321.023 274.889 321.154 277.023 321.504 279.126C322.334 283.025 324.833 286.325 327.262 289.494C328.79 291.735 330.702 293.688 332.911 295.262C334.77 296.422 339.222 303.418 340.552 304.568L346.21 301.259L346.117 101.183" fill="url(#paint3_linear_67_115)"/>
<path d="M22.4205 90.1398L22.3716 315.565L33.6697 322.271C33.8226 322.183 37.4556 319.229 40.215 316.433C42.4555 314.162 44.4952 312.094 44.6126 312.011C47.2338 310.134 48.1741 308.478 49.1147 306.821C50.0562 305.163 50.998 303.504 53.626 301.623C56.8804 299.293 59.1484 296.312 61.415 293.333C61.9367 292.648 62.4583 291.962 62.9918 291.285C69.3731 283.158 68.4388 273.518 67.4913 263.742C66.9191 257.838 66.3421 251.885 67.3679 246.184C67.7578 244.033 68.3768 241.904 68.9949 239.778C69.8067 236.986 70.6171 234.199 70.9052 231.371C71.2681 227.602 70.6877 223.855 70.1059 220.099C69.6081 216.884 69.1092 213.663 69.1994 210.417C69.3734 205.449 70.9674 200.555 72.5522 195.69C74.727 189.014 76.8846 182.391 75.3323 175.699C74.7772 173.316 73.7683 171.023 72.7586 168.728C72.2202 167.504 71.6816 166.28 71.2115 165.042C69.6557 160.48 68.5699 155.771 67.9711 150.989L67.9304 150.733C66.4314 141.298 64.9188 131.776 64.8923 122.236C65.0238 119.857 64.8384 117.472 64.341 115.141C63.1569 110.791 59.5894 107.111 56.1205 103.583C55.2904 102.743 54.5462 101.721 53.7877 100.678C52.389 98.7564 50.9417 96.7677 48.8171 95.7332C43.1577 92.9766 36.2944 87.5544 33.9455 83.4858L22.4205 90.1398Z" fill="#57AFD6"/>
<path d="M12.8033 95.6899L12.7603 310.003L23.4411 316.222C24.6734 314.088 26.5731 311.469 28.889 309.877C31.5058 308.002 32.5671 306.666 33.6287 305.329C34.6914 303.99 35.7543 302.651 38.3781 300.772C42.378 297.92 46.4172 294.976 49.2664 291.391C55.6477 283.265 54.7135 273.625 53.7659 263.848C53.1938 257.945 52.6168 251.991 53.6426 246.291C54.0324 244.139 54.6514 242.011 55.2696 239.885C56.0814 237.093 56.8918 234.306 57.1799 231.478C57.5456 227.712 56.9643 223.963 56.3815 220.204C55.8833 216.99 55.3839 213.769 55.4741 210.523C55.6481 205.555 57.242 200.662 58.8269 195.797C61.0016 189.121 63.1592 182.497 61.6069 175.806C61.0555 173.43 60.0465 171.136 59.0378 168.844C58.4989 167.619 57.9601 166.394 57.4911 165.157C55.9337 160.593 54.8462 155.881 54.2458 151.096L54.1785 150.672C52.688 141.292 51.1848 131.832 51.1719 122.352C51.2967 119.973 51.1114 117.588 50.6206 115.257C49.4366 110.906 45.864 107.218 42.3952 103.69C41.5664 102.852 40.823 101.831 40.0649 100.79C38.6679 98.8706 37.2208 96.8828 35.0967 95.8486C34.1019 95.3553 32.7379 94.278 31.1513 93.025C29.306 91.5676 27.3013 89.9437 26.165 87.9756L12.8033 95.6899Z" fill="#80CFF3"/>
<path d="M4.83191 100.234L4.78271 305.396L14.4585 310.985C16.4741 307.096 18.4035 304.555 23.6448 300.813C27.6483 297.947 31.6838 295.017 34.5417 291.427C40.9112 283.302 39.9799 273.671 39.0352 263.9C38.464 257.992 37.8879 252.034 38.9178 246.327C39.3046 244.174 39.9243 242.042 40.5434 239.913C41.3541 237.124 42.1636 234.34 42.4465 231.518C42.8093 227.75 42.2289 224.002 41.6472 220.246C41.1493 217.032 40.6505 213.811 40.7407 210.564C40.9146 205.596 42.5086 200.703 44.0935 195.837C46.2682 189.161 48.4258 182.538 46.8735 175.846C46.3239 173.459 45.3127 171.166 44.3007 168.871C43.7617 167.649 43.2225 166.426 42.7527 165.189C41.2015 160.626 40.1158 155.918 39.5123 151.136L39.4717 150.88C37.9727 141.445 36.46 131.924 36.4335 122.383C36.565 120.005 36.3796 117.619 35.8822 115.289C34.6982 110.938 31.1306 107.259 27.6618 103.73C26.6397 102.696 24.9752 103.11 23.4372 102.289C19.5984 100.242 16.5312 93.5479 16.5312 93.5479L4.83191 100.234Z" fill="#F2E8C0"/>
<path d="M5.82143 306.03L6.74438 302.958C7.31351 301.244 7.66286 300.869 9.62086 299.08C13.2947 295.723 12.616 294.268 16.2726 290.921C19.0755 288.356 21.9291 285.739 23.9116 282.492C31.0809 270.79 25.067 255.614 26.98 242.027C27.6075 237.554 29.1176 233.229 29.4523 228.729C29.9231 222.465 28.1054 216.216 28.2883 209.933C28.5774 199.374 34.4745 189.168 32.5926 178.788C31.9925 175.509 30.6467 172.418 29.7022 169.222C28.6028 165.09 27.8419 160.876 27.427 156.621C26.3369 148.013 25.2854 139.452 25.2383 130.83C25.3347 128.702 25.2067 126.57 24.8565 124.469C24.0217 120.563 21.5251 117.259 19.0947 114.089C17.443 111.948 12.6695 105.42 10.7103 104.427C7.66949 102.88 7.42632 100.711 6.09402 99.5635L0.366211 102.87L0.368549 302.875L5.82143 306.03Z" fill="url(#paint4_linear_67_115)"/>
</g>
<defs>
<linearGradient id="paint0_linear_67_115" x1="265.621" y1="54.894" x2="248.488" y2="83.1863" gradientUnits="userSpaceOnUse">
<stop offset="0.05" stop-color="#E0B568"/>
<stop offset="1" stop-color="#E8CF96"/>
</linearGradient>
<linearGradient id="paint1_linear_67_115" x1="333.247" y1="108.028" x2="317.062" y2="100.064" gradientUnits="userSpaceOnUse">
<stop stop-color="#E0B568"/>
<stop offset="1" stop-color="#E0B568" stop-opacity="0"/>
</linearGradient>
<linearGradient id="paint2_linear_67_115" x1="346.117" y1="202.692" x2="312.974" y2="202.692" gradientUnits="userSpaceOnUse">
<stop offset="0.05" stop-color="#E0B568"/>
<stop offset="1" stop-color="#E8CF96"/>
</linearGradient>
<linearGradient id="paint3_linear_67_115" x1="334.788" y1="106.486" x2="331.106" y2="124.983" gradientUnits="userSpaceOnUse">
<stop stop-color="#E0B568"/>
<stop offset="1" stop-color="#E0B568" stop-opacity="0"/>
</linearGradient>
<linearGradient id="paint4_linear_67_115" x1="32.9298" y1="202.511" x2="0.339814" y2="202.511" gradientUnits="userSpaceOnUse">
<stop stop-color="#E8CF96"/>
<stop offset="0.95" stop-color="#E0B568"/>
</linearGradient>
<clipPath id="clip0_67_115">
<rect width="346.21" height="399.65" fill="white" transform="translate(0 0.973145)"/>
</clipPath>
</defs>
</svg>
