<svg width="128" height="128" viewBox="0 0 128 128" fill="none" xmlns="http://www.w3.org/2000/svg">
<path d="M65.7236 17.9994C65.9734 18.0094 98.6768 45.0904 98.6768 45.0904C98.9166 45.2907 99.0765 45.5713 99.1464 45.8819L106.94 93.0706C107.11 93.9823 106.84 94.6837 106.311 94.6837C106.111 94.6837 105.881 94.5835 105.611 94.3831L100.275 90.095L98.4969 93.1708L89.3044 108.991H38.7056L29.5131 94.0224L27.2649 90.4657L22.3888 94.3731C22.1291 94.5935 21.8893 94.6837 21.6894 94.6837C21.1598 94.6837 20.8901 93.9823 21.0699 93.0806L28.8636 45.8819C28.9235 45.5813 29.0834 45.2907 29.3232 45.0904C29.3232 45.0904 62.0266 18.0094 62.2764 18.0094H65.7236M62.2764 13C60.4779 13 59.6485 13.6612 57.6602 15.2643C52.6084 19.3941 47.5658 23.5352 42.5325 27.6876C34.3191 34.4604 26.1458 41.2331 26.1458 41.2331C24.9771 42.2031 24.1936 43.5609 23.9376 45.0603L16.1439 92.209C15.9436 93.1561 15.9525 94.1357 16.17 95.079C16.3875 96.0223 16.8083 96.9064 17.4029 97.6693C17.925 98.3045 18.5813 98.8155 19.3243 99.1654C20.0673 99.5154 20.8785 99.6956 21.6994 99.6931C22.6486 99.6931 24.0975 99.4526 25.5363 98.2704L26.0159 97.8897L34.449 111.616C34.8963 112.344 35.5224 112.946 36.2675 113.364C37.0126 113.781 37.852 114 38.7056 114H89.3044C90.176 113.999 91.0321 113.768 91.7875 113.333C92.543 112.897 93.1716 112.27 93.6109 111.515L101.684 97.6392L102.494 98.2904C103.564 99.1894 104.914 99.6855 106.311 99.6931C107.969 99.6931 109.528 98.9517 110.597 97.6693C111.192 96.9064 111.613 96.0223 111.83 95.079C112.047 94.1357 112.056 93.1561 111.856 92.209L104.062 45.0603L104.052 44.9601C103.777 43.5033 103.003 42.1886 101.864 41.2431C92.6331 33.6015 83.3907 25.9738 74.1368 18.3601C67.6221 13.02 67.6221 13.02 65.7935 13H62.2764Z" fill="black"/>
<path d="M37.8662 110.493L27.5247 93.6617L63.995 65.0579L100.465 92.7801L90.1537 110.493H37.8662Z" fill="url(#paint0_linear_2_507)"/>
<path d="M64.005 66.9615L98.4969 93.1708L89.3044 108.991H38.6956L29.5031 94.0224L63.995 66.9615M63.965 63.1644L62.1465 64.587L27.6546 91.668L25.5563 93.3211L26.9551 95.6154L36.1477 110.574L37.0269 112.006H91.023L91.8923 110.513L101.085 94.6937L102.424 92.3893L100.305 90.7863L65.8135 64.577L63.975 63.1744L63.965 63.1644Z" fill="#4F4F4F"/>
<path d="M21.6994 96.1865C21.0699 96.1865 20.5004 95.916 20.1007 95.4351C19.5711 94.7838 19.3913 93.8521 19.5911 92.7901L27.3848 45.6314C27.5147 44.9401 27.8644 44.349 28.374 43.9282C61.487 16.5066 61.517 16.5066 62.2764 16.5066H63.7752V61.7517C63.7752 62.6133 63.3955 63.4249 62.736 63.9659L23.3281 95.5553C22.8085 95.9761 22.2589 96.1865 21.6994 96.1865Z" fill="url(#paint1_linear_2_507)"/>
<path d="M62.2764 17.9994V61.7517C62.2764 62.1525 62.0965 62.5532 61.7768 62.8037L22.3988 94.3831C22.139 94.5835 21.8992 94.6837 21.6994 94.6837C21.1698 94.6837 20.9 93.9824 21.0699 93.0807L28.8636 45.8919C28.9335 45.5713 29.0934 45.2908 29.3332 45.0904C29.3332 45.0904 62.0366 18.0094 62.2864 18.0094M62.2864 15.0038H62.2464C61.1173 15.0138 61.1173 15.0138 55.1322 19.913L43.8114 29.2305C35.5981 36.0033 27.4247 42.776 27.4247 42.776C26.6468 43.4208 26.1169 44.317 25.926 45.3108V45.3509L25.916 45.3909L18.1223 92.5597C17.9703 93.2194 17.9659 93.9048 18.1093 94.5665C18.2527 95.2281 18.5403 95.8498 18.9516 96.3869C19.6411 97.2184 20.6502 97.6893 21.6994 97.6893C22.3289 97.6893 23.2981 97.519 24.2873 96.7175L63.6553 65.1581C64.1642 64.7492 64.5749 64.2307 64.8568 63.6411C65.1387 63.0514 65.2847 62.4057 65.2839 61.7517V15.0138H62.2864V15.0038Z" fill="#4F4F4F"/>
<path d="M106.311 96.1865C105.741 96.1865 105.191 95.9761 104.672 95.5453L65.2839 63.9759C64.9524 63.7085 64.6851 63.3698 64.5017 62.9848C64.3184 62.5998 64.2237 62.1783 64.2248 61.7517V16.5166L65.7436 16.5066C66.483 16.5066 66.8826 16.8072 99.626 43.9382C100.146 44.359 100.495 44.9501 100.615 45.6013L108.409 92.8302C108.609 93.8521 108.429 94.7939 107.899 95.4351C107.5 95.916 106.93 96.1865 106.301 96.1865H106.311Z" fill="url(#paint2_linear_2_507)"/>
<path d="M65.7236 17.9994C65.9734 17.9994 98.6768 45.0904 98.6768 45.0904C98.9166 45.2907 99.0765 45.5713 99.1464 45.8819L106.94 93.0706C107.11 93.9823 106.84 94.6837 106.311 94.6837C106.111 94.6837 105.881 94.5835 105.611 94.3831L66.2332 62.7937C65.9134 62.5332 65.7336 62.1525 65.7336 61.7417V18.0094M65.7336 15.0038H62.736V61.7517C62.736 63.0742 63.3156 64.2965 64.3347 65.1281L103.753 96.7275C104.732 97.529 105.691 97.6893 106.321 97.6893C107.38 97.6893 108.379 97.2184 109.068 96.3869C109.868 95.405 110.167 94.0425 109.898 92.5497L102.104 45.3909V45.3308C101.904 44.3289 101.385 43.4272 100.605 42.786L84.2086 29.2205L72.8778 19.903C66.8827 14.9937 66.8826 14.9937 65.7236 14.9937L65.7336 15.0038Z" fill="#4F4F4F"/>
<path d="M69.6903 112.237H58.3096L57.3404 100.414C57.3427 99.3002 57.6519 98.2082 58.2337 97.2589C58.8155 96.3096 59.6474 95.5398 60.6377 95.0343C61.6253 94.5275 62.7164 94.2565 63.8257 94.2426C64.9351 94.2287 66.0326 94.4722 67.0325 94.9542L67.2523 95.0644C69.3306 96.0663 70.6496 98.1903 70.6496 100.515L69.6903 112.237Z" fill="black"/>
<defs>
<linearGradient id="paint0_linear_2_507" x1="63.995" y1="65.0579" x2="63.995" y2="110.493" gradientUnits="userSpaceOnUse">
<stop offset="0.11" stop-color="#D5D5D5"/>
<stop offset="0.27" stop-color="#D1D1D1"/>
<stop offset="0.43" stop-color="#C4C4C4"/>
<stop offset="0.6" stop-color="#AEAEAE"/>
<stop offset="0.78" stop-color="#909090"/>
<stop offset="0.95" stop-color="#6A6A6A"/>
<stop offset="1" stop-color="#5E5E5E"/>
</linearGradient>
<linearGradient id="paint1_linear_2_507" x1="61.1073" y1="67.1519" x2="26.3288" y2="47.1252" gradientUnits="userSpaceOnUse">
<stop offset="0.11" stop-color="#D5D5D5"/>
<stop offset="0.27" stop-color="#D1D1D1"/>
<stop offset="0.43" stop-color="#C4C4C4"/>
<stop offset="0.6" stop-color="#AEAEAE"/>
<stop offset="0.78" stop-color="#909090"/>
<stop offset="0.95" stop-color="#6A6A6A"/>
<stop offset="1" stop-color="#5E5E5E"/>
</linearGradient>
<linearGradient id="paint2_linear_2_507" x1="101.624" y1="47.044" x2="66.8459" y2="67.0707" gradientUnits="userSpaceOnUse">
<stop stop-color="#5E5E5E"/>
<stop offset="0.05" stop-color="#6A6A6A"/>
<stop offset="0.22" stop-color="#909090"/>
<stop offset="0.4" stop-color="#AEAEAE"/>
<stop offset="0.57" stop-color="#C4C4C4"/>
<stop offset="0.73" stop-color="#D1D1D1"/>
<stop offset="0.89" stop-color="#D5D5D5"/>
</linearGradient>
</defs>
</svg>
