<svg width="128" height="128" viewBox="0 0 128 128" fill="none" xmlns="http://www.w3.org/2000/svg">
<path d="M65.7275 18.0089C65.9772 18.0089 98.6791 45.0972 98.6791 45.0972C98.9189 45.2976 99.0787 45.5781 99.1387 45.8886L106.932 93.0727C107.112 93.9743 106.842 94.6756 106.303 94.6756C106.103 94.6756 105.873 94.5854 105.613 94.375L100.278 90.0974L98.4992 93.1729L89.2972 108.991H38.7007L29.5086 94.0244L27.2706 90.4681L22.3848 94.375C22.125 94.5854 21.8852 94.6756 21.6954 94.6756C21.1558 94.6756 20.896 93.9743 21.0659 93.0727L28.8592 45.8886C28.9191 45.5781 29.089 45.2875 29.3288 45.0872C29.3288 45.0872 62.0306 18.0089 62.2804 18.0089H65.7275ZM62.2704 13C60.472 13 59.6427 13.6712 57.6544 15.2741C52.6028 19.4035 47.5605 23.5442 42.5274 27.6962C34.3245 34.4582 26.1415 41.2303 26.1415 41.2303C24.9715 42.2033 24.1881 43.5646 23.9334 45.0672L16.1401 92.2112C15.9427 93.1574 15.954 94.1354 16.1732 95.0768C16.3924 96.0182 16.8142 96.9001 17.4091 97.6609C17.9302 98.2978 18.586 98.8107 19.329 99.1624C20.072 99.5141 20.8837 99.6959 21.7054 99.6945C22.6545 99.6945 24.0933 99.4441 25.542 98.262L26.0116 97.8813L34.4544 111.606C34.9004 112.336 35.5259 112.94 36.2711 113.359C37.0163 113.779 37.8563 113.999 38.7107 114H89.2972C90.1714 113.999 91.0301 113.768 91.7876 113.331C92.545 112.893 93.1746 112.264 93.6134 111.506L101.677 97.6308L102.496 98.292C103.564 99.1887 104.91 99.6846 106.303 99.6945C107.971 99.6945 109.53 98.9532 110.599 97.6609C111.192 96.8993 111.612 96.017 111.829 95.0756C112.047 94.1343 112.057 93.1567 111.858 92.2112L104.064 45.0672C104.064 45.0271 104.064 44.987 104.044 44.9469C103.769 43.4956 102.999 42.1853 101.866 41.2403L85.4605 27.6862C81.354 24.3001 77.2375 20.9041 74.1302 18.3696C67.6058 13.0301 67.6058 13.0301 65.7774 13H62.2804H62.2704Z" fill="black"/>
<path d="M38.0213 110.263L27.6802 93.4333L64.1488 64.8324L100.617 92.5518L90.3163 110.263H38.0213Z" fill="url(#paint0_linear_2_474)"/>
<path d="M64.1588 66.7258L98.6491 92.9425L89.457 108.751H38.8506L29.6685 93.794L64.1588 66.7258ZM64.1288 62.939L62.3104 64.3615L27.8101 91.4198L25.6919 93.0827L27.1107 95.3668L36.3028 110.333L37.192 111.756H91.1755L92.0448 110.273L101.237 94.4451L102.576 92.1511L100.458 90.5482L65.9772 64.3315L64.1388 62.929L64.1288 62.939Z" fill="#B25900"/>
<path d="M21.8552 95.9578C21.2257 95.9578 20.6562 95.6873 20.2566 95.1965C19.727 94.5553 19.5572 93.6237 19.757 92.5618L27.5403 45.4077C27.6702 44.7165 28.0199 44.1255 28.5394 43.7047C61.6409 16.2758 61.6709 16.2758 62.4303 16.2758H63.929V61.5365C63.929 62.398 63.5493 63.2095 62.8799 63.7404L23.4838 95.3267C22.9642 95.7474 22.4147 95.9678 21.8552 95.9678V95.9578Z" fill="url(#paint1_linear_2_474)"/>
<path d="M62.4303 17.7785V61.5365C62.4303 61.9372 62.2505 62.3279 61.9307 62.5784L22.5546 94.1446C22.2949 94.355 22.0551 94.4451 21.8552 94.4451C21.3257 94.4451 21.0559 93.7439 21.2358 92.8423L29.0291 45.6582C29.089 45.3476 29.2489 45.0671 29.4887 44.8668C29.4887 44.8668 62.1905 17.7785 62.4403 17.7785M62.4403 14.7732H62.4303C61.2813 14.7732 61.2813 14.7732 55.2964 19.6819L43.9662 28.9985L27.5803 42.5527C26.8024 43.1974 26.2725 44.0935 26.0816 45.0872V45.1273L26.0716 45.1673L18.2783 92.3214C18.1262 92.9833 18.1226 93.6709 18.2677 94.3344C18.4129 94.9979 18.7032 95.6208 19.1176 96.1582C19.797 96.9897 20.7962 97.4605 21.8652 97.4605C22.4947 97.4605 23.4539 97.2902 24.453 96.4788L63.8191 64.9225C64.326 64.5147 64.7347 63.9976 65.0149 63.4097C65.2951 62.8218 65.4397 62.1781 65.4377 61.5265V14.7732H62.4403Z" fill="#B25900"/>
<path d="M106.462 95.9579C105.903 95.9579 105.343 95.7375 104.824 95.3067L65.4378 63.7505C65.1057 63.4836 64.838 63.145 64.6546 62.7599C64.4712 62.3748 64.3769 61.9532 64.3787 61.5265V16.2859H65.8974C66.6367 16.2859 67.0364 16.5864 99.7882 43.7047C100.298 44.1355 100.647 44.7265 100.767 45.3777L108.561 92.6019C108.674 93.0461 108.689 93.51 108.602 93.9604C108.516 94.4107 108.331 94.8363 108.061 95.2065C107.651 95.6874 107.082 95.9579 106.462 95.9579Z" fill="url(#paint2_linear_2_474)"/>
<path d="M65.8774 17.7785C66.1272 17.7785 98.829 44.8668 98.829 44.8668C99.0688 45.0672 99.2287 45.3477 99.2986 45.6582L107.092 92.8423C107.262 93.7439 106.992 94.4452 106.462 94.4452C106.263 94.4452 106.033 94.355 105.763 94.1446L66.3769 62.5683C66.0572 62.3179 65.8774 61.9272 65.8774 61.5265V17.7785ZM65.8774 14.7732H62.8799V61.5365C62.8799 62.8589 63.4694 64.0911 64.4886 64.9225L103.895 96.4988C104.874 97.3002 105.833 97.4705 106.462 97.4705C107.522 97.4705 108.521 96.9897 109.21 96.1682C110.019 95.1765 110.309 93.824 110.039 92.3314L102.246 45.1774V45.1172C102.046 44.1155 101.527 43.2139 100.747 42.5627L84.3615 29.0085L73.0312 19.6919C67.0364 14.7832 67.0364 14.7832 65.8774 14.7832V14.7732Z" fill="#B25900"/>
<path d="M69.8439 112.006H58.4837L57.5145 100.185C57.5122 99.0727 57.816 97.9809 58.3924 97.03C58.9688 96.0792 59.7955 95.3061 60.7817 94.7958C61.77 94.2906 62.8615 94.0213 63.9708 94.0092C65.0801 93.997 66.1771 94.2422 67.1762 94.7257L67.406 94.8259C69.4942 95.8377 70.8031 97.9614 70.8031 100.276L69.8439 112.006Z" fill="black"/>
<defs>
<linearGradient id="paint0_linear_2_474" x1="64.1488" y1="64.8324" x2="64.1488" y2="110.263" gradientUnits="userSpaceOnUse">
<stop offset="0.11" stop-color="#FFFF00"/>
<stop offset="0.26" stop-color="#FFFB00"/>
<stop offset="0.42" stop-color="#FFEE00"/>
<stop offset="0.59" stop-color="#FFD800"/>
<stop offset="0.75" stop-color="#FFBA00"/>
<stop offset="0.92" stop-color="#FF9400"/>
<stop offset="1" stop-color="#FF8000"/>
</linearGradient>
<linearGradient id="paint1_linear_2_474" x1="61.2713" y1="66.9161" x2="26.4953" y2="46.8899" gradientUnits="userSpaceOnUse">
<stop offset="0.11" stop-color="#FFFF00"/>
<stop offset="0.26" stop-color="#FFFB00"/>
<stop offset="0.42" stop-color="#FFEE00"/>
<stop offset="0.59" stop-color="#FFD800"/>
<stop offset="0.75" stop-color="#FFBA00"/>
<stop offset="0.92" stop-color="#FF9400"/>
<stop offset="1" stop-color="#FF8000"/>
</linearGradient>
<linearGradient id="paint2_linear_2_474" x1="101.776" y1="46.8103" x2="67.0005" y2="66.8365" gradientUnits="userSpaceOnUse">
<stop offset="0.07" stop-color="#FF8000"/>
<stop offset="0.1" stop-color="#FF8700"/>
<stop offset="0.26" stop-color="#FFAD00"/>
<stop offset="0.43" stop-color="#FFCB00"/>
<stop offset="0.59" stop-color="#FFE100"/>
<stop offset="0.74" stop-color="#FFEE00"/>
<stop offset="0.89" stop-color="#FFF200"/>
</linearGradient>
</defs>
</svg>
