<svg width="128" height="128" viewBox="0 0 128 128" fill="none" xmlns="http://www.w3.org/2000/svg">
<path d="M65.7174 17.9994C65.9772 18.0094 98.6679 45.0904 98.6679 45.0904C98.9077 45.2907 99.0775 45.5713 99.1375 45.8819L106.93 93.0706C107.1 93.9823 106.831 94.6837 106.301 94.6837C106.101 94.6837 105.871 94.5835 105.602 94.3831L100.266 90.095L98.488 93.1708L89.2963 108.991H38.7016L29.5098 94.0224L27.2718 90.4657L22.3862 94.3731C22.1264 94.5935 21.8866 94.6837 21.6968 94.6837C21.1573 94.6837 20.8975 93.9823 21.0674 93.0806L28.8604 45.8819C28.9203 45.5813 29.0802 45.2907 29.33 45.0904C29.33 45.0904 62.0307 18.0094 62.2705 18.0094H65.7174M62.2705 13C60.4721 13 59.6428 13.6612 57.6546 15.2643C52.6032 19.3941 47.5611 23.5352 42.5282 27.6876L26.1428 41.2331C24.9742 42.2031 24.1908 43.5609 23.9348 45.0603L16.1418 92.209C15.9429 93.1568 15.9534 94.1369 16.1726 95.0802C16.3918 96.0235 16.8144 96.9073 17.4107 97.6693C17.9317 98.3031 18.5862 98.8134 19.3274 99.1633C20.0685 99.5132 20.8777 99.6942 21.6968 99.6931C22.646 99.6931 24.0947 99.4526 25.5434 98.2704L26.013 97.8897L34.4554 111.616C34.9017 112.343 35.5262 112.944 36.2693 113.361C37.0125 113.779 37.8498 113.999 38.7016 114H89.2963C90.1695 114 91.0276 113.771 91.7849 113.335C92.5422 112.899 93.1723 112.272 93.6124 111.515L101.675 97.6392L102.494 98.2904C103.562 99.1873 104.908 99.6832 106.301 99.6931C107.96 99.6931 109.528 98.9517 110.597 97.6693C111.192 96.9064 111.613 96.0223 111.83 95.079C112.047 94.1357 112.056 93.1561 111.856 92.209L104.063 45.0603L104.043 44.9601C103.768 43.5033 102.994 42.1886 101.855 41.2431C92.6281 33.6015 83.3897 25.9739 74.1399 18.3601C67.6157 13.02 67.6157 13.02 65.7873 13H62.2805H62.2705Z" fill="black"/>
<path d="M37.8624 110.493L27.5316 93.6618L63.999 65.068L100.466 92.7901L90.1655 110.503L37.8624 110.493Z" fill="url(#paint0_linear_2_518)"/>
<path d="M63.999 66.9615L98.4881 93.1708L89.2963 108.991H38.7016L29.5098 94.0224L63.999 66.9615ZM63.969 63.1644L62.1506 64.587L27.6615 91.658L25.5434 93.3111L26.9521 95.6054L36.1439 110.564L37.0331 111.996H91.0148L91.884 110.503L101.076 94.6837L102.415 92.3793L100.306 90.7763L65.7973 64.567L63.959 63.1644H63.969Z" fill="#6BB2B0"/>
<path d="M21.6968 96.1865C21.0673 96.1865 20.4979 95.916 20.0982 95.4351C19.5687 94.7839 19.3988 93.8521 19.5987 92.7901L27.3817 45.6314C27.5116 44.9401 27.8613 44.349 28.3808 43.9282C61.4712 16.5166 61.5011 16.5166 62.2605 16.5166H63.7591V61.7617C63.7591 62.6234 63.3795 63.4349 62.72 63.9759L23.3253 95.5553C22.8058 95.9761 22.2563 96.1865 21.6968 96.1865Z" fill="url(#paint1_linear_2_518)"/>
<path d="M62.2705 17.9994V61.7517C62.2705 62.1525 62.0907 62.5532 61.771 62.8037L22.3962 94.3831C22.1365 94.5835 21.8967 94.6837 21.7068 94.6837C21.1673 94.6837 20.9076 93.9823 21.0774 93.0806L28.8704 45.8919C28.9304 45.5713 29.0902 45.2907 29.34 45.0904C29.34 45.0904 62.0307 18.0094 62.2805 18.0094M62.2805 15.0038H62.2405C61.1116 15.0138 61.1116 15.0138 55.1269 19.913L43.8071 29.2305L27.4217 42.776C26.6438 43.4208 26.114 44.317 25.9231 45.3108V45.3509L25.9131 45.3909L18.1201 92.5597C17.9695 93.2202 17.9667 93.9059 18.1118 94.5676C18.2569 95.2293 18.5463 95.8506 18.9593 96.3869C19.6387 97.2184 20.6478 97.6893 21.7068 97.6893C22.3363 97.6893 23.2954 97.519 24.2845 96.7075L63.6593 65.1481C64.1637 64.7403 64.5709 64.2246 64.8509 63.6387C65.131 63.0528 65.2768 62.4115 65.2778 61.7617V14.9937H62.2805V15.0038Z" fill="#6BB2B0"/>
<path d="M106.301 96.1865C105.741 96.1865 105.192 95.9761 104.662 95.5453L65.2777 63.9759C64.9462 63.7085 64.6789 63.3698 64.4955 62.9848C64.3122 62.5998 64.2176 62.1783 64.2186 61.7517V16.5166L65.7373 16.5066C66.4866 16.5066 66.8862 16.8072 99.6269 43.9382C100.136 44.359 100.486 44.9501 100.606 45.6013L108.409 92.8302C108.609 93.8521 108.429 94.7939 107.89 95.4351C107.49 95.916 106.92 96.1865 106.301 96.1865Z" fill="url(#paint2_linear_2_518)"/>
<path d="M65.7173 17.9994C65.9771 17.9994 98.6678 45.0904 98.6678 45.0904C98.9076 45.2908 99.0774 45.5713 99.1374 45.8819L106.93 93.0706C107.1 93.9824 106.83 94.6837 106.301 94.6837C106.101 94.6837 105.871 94.5835 105.602 94.3831L66.2269 62.7937C65.9171 62.5332 65.7273 62.1525 65.7273 61.7417V18.0094M65.7273 15.0038H62.73V61.7517C62.73 63.0742 63.3195 64.2965 64.3286 65.1281L103.753 96.7275C104.722 97.529 105.682 97.6893 106.311 97.6893C107.37 97.6893 108.379 97.2184 109.058 96.3869C109.868 95.405 110.158 94.0425 109.888 92.5497L102.095 45.3909V45.3308C101.905 44.3289 101.375 43.4273 100.596 42.786C100.596 42.786 92.4134 36.0033 84.2107 29.2305L72.8809 19.913C66.8863 15.0038 66.8863 15.0038 65.7273 15.0038Z" fill="#6BB2B0"/>
<path d="M69.6939 112.237H58.3041L57.345 100.414C57.3454 99.3023 57.6515 98.2117 58.2296 97.2626C58.8078 96.3135 59.6355 95.5425 60.622 95.0343C61.6108 94.5258 62.7036 94.254 63.8148 94.2401C64.9259 94.2262 66.0252 94.4706 67.0263 94.9542L67.2461 95.0644C69.3342 96.0662 70.6531 98.1902 70.6531 100.515L69.6839 112.237H69.6939Z" fill="black"/>
<defs>
<linearGradient id="paint0_linear_2_518" x1="63.989" y1="65.0579" x2="63.989" y2="110.493" gradientUnits="userSpaceOnUse">
<stop offset="0.11" stop-color="#FFFBF2"/>
<stop offset="0.31" stop-color="#FBF8F0"/>
<stop offset="0.53" stop-color="#EEF0E9"/>
<stop offset="0.76" stop-color="#D8E1DD"/>
<stop offset="0.98" stop-color="#BACDCD"/>
<stop offset="1" stop-color="#B8CCCC"/>
</linearGradient>
<linearGradient id="paint1_linear_2_518" x1="61.1115" y1="67.1519" x2="26.3344" y2="47.1277" gradientUnits="userSpaceOnUse">
<stop offset="0.11" stop-color="#FFFBF2"/>
<stop offset="0.36" stop-color="#FBF9F1"/>
<stop offset="0.63" stop-color="#EEF3EE"/>
<stop offset="0.9" stop-color="#D8EAE8"/>
<stop offset="1" stop-color="#CFE6E6"/>
</linearGradient>
<linearGradient id="paint2_linear_2_518" x1="101.615" y1="47.044" x2="66.8381" y2="67.0682" gradientUnits="userSpaceOnUse">
<stop stop-color="#CFE6E6"/>
<stop offset="0.1" stop-color="#D8EAE8"/>
<stop offset="0.37" stop-color="#EEF3EE"/>
<stop offset="0.64" stop-color="#FBF9F1"/>
<stop offset="0.89" stop-color="#FFFBF2"/>
</linearGradient>
</defs>
</svg>
