<svg width="347" height="401" viewBox="0 0 347 401" fill="none" xmlns="http://www.w3.org/2000/svg">
<g clip-path="url(#clip0_65_2)">
<path d="M345.12 125.622L149.704 12.8086L138.464 19.2981C138.464 19.4747 139.205 24.0977 140.248 27.8857C141.094 30.9614 141.864 33.7615 141.878 33.9049C142.193 37.1134 143.157 38.7559 144.121 40.3989C145.087 42.0434 146.053 43.6884 146.368 46.9049C146.758 50.8881 148.205 54.3427 149.652 57.7951C149.985 58.5897 150.318 59.3841 150.638 60.1849C154.485 69.7745 163.3 73.7853 172.241 77.8531C177.64 80.3094 183.084 82.7864 187.508 86.5249C189.176 87.9385 190.71 89.5389 192.242 91.1371C194.254 93.2362 196.263 95.3315 198.568 96.9949C201.65 99.1936 205.186 100.565 208.73 101.939C211.762 103.115 214.801 104.293 217.568 105.995C221.783 108.63 225.224 112.457 228.645 116.262C233.339 121.483 237.997 126.663 244.568 128.665C246.909 129.376 249.399 129.649 251.892 129.922C253.221 130.067 254.55 130.213 255.858 130.425C260.586 131.358 265.207 132.772 269.648 134.645L269.89 134.738C278.811 138.157 287.813 141.608 296.088 146.355C298.082 147.658 300.241 148.691 302.508 149.425C306.868 150.575 311.838 149.325 316.628 148.085C317.77 147.786 319.028 147.653 320.31 147.517C322.674 147.267 325.12 147.008 327.078 145.685C332.295 142.162 340.422 138.929 345.12 138.929L345.12 125.622Z" fill="#57AFD6"/>
<path d="M345.122 114.518L159.461 7.18157L146.225 14.8234C147.282 16.6539 148.411 16.1685 149.461 17.8264C150.514 19.4909 151.573 21.1646 151.588 21.355C151.903 24.5583 152.53 26.1458 153.157 27.7337C153.785 29.3233 154.413 30.9133 154.728 34.1249C155.198 39.0149 155.728 43.985 157.408 48.245C161.255 57.8346 170.071 61.8454 179.011 65.9132C184.41 68.3694 189.854 70.8464 194.278 74.585C195.947 75.9985 197.481 77.599 199.013 79.1972C201.025 81.2962 203.033 83.3916 205.338 85.055C208.416 87.2546 211.954 88.6258 215.501 90.0008C218.533 91.1762 221.573 92.3543 224.338 94.055C228.553 96.6896 231.994 100.517 235.415 104.322C240.11 109.543 244.767 114.724 251.338 116.725C253.671 117.435 256.162 117.708 258.652 117.981C259.982 118.127 261.312 118.273 262.618 118.485C267.35 119.418 271.974 120.832 276.418 122.705L276.819 122.859C285.688 126.258 294.632 129.686 302.848 134.415C304.846 135.712 307.004 136.744 309.268 137.485C313.628 138.635 318.608 137.385 323.398 136.145C324.538 135.846 325.794 135.713 327.075 135.577C329.435 135.327 331.88 135.067 333.838 133.745C334.763 133.13 336.378 132.487 338.256 131.74C340.441 130.871 342.849 129.946 345.122 129.946L345.122 114.518Z" fill="#80CFF3"/>
<path d="M345.173 105.34L167.433 2.56334L155.821 9.27042C158.181 12.9604 161.44 14.9332 162.06 21.3432C162.54 26.2432 163.06 31.2032 164.74 35.4732C168.591 45.0516 177.398 49.0609 186.332 53.128C191.734 55.5873 197.182 58.0677 201.61 61.8132C203.281 63.2246 204.817 64.8272 206.352 66.4278C208.361 68.5243 210.368 70.6174 212.67 72.2732C215.752 74.4719 219.288 75.8429 222.832 77.2172C225.864 78.3933 228.903 79.5717 231.67 81.2732C235.885 83.9079 239.326 87.7349 242.747 91.5401C247.441 96.7616 252.099 101.942 258.67 103.943C261.012 104.661 263.504 104.932 265.997 105.203C267.325 105.347 268.653 105.491 269.96 105.703C274.687 106.641 279.307 108.055 283.75 109.923L283.992 110.016C292.913 113.436 301.915 116.886 310.19 121.633C312.184 122.937 314.343 123.969 316.61 124.703C320.97 125.853 325.94 124.603 330.73 123.363C332.137 122.995 332.611 121.347 334.09 120.425C337.782 118.124 345.113 118.815 345.113 118.815L345.173 105.34Z" fill="#F2E8C0"/>
<path d="M166.195 3.26491L168.652 5.63681C169.852 6.98681 170.002 7.47681 170.572 10.0668C171.642 14.9268 173.242 15.0668 174.312 19.9068C175.132 23.6168 175.972 27.3968 177.792 30.7368C184.342 42.7968 200.492 45.1768 211.302 53.6268C214.862 56.4068 217.852 59.8768 221.582 62.4168C226.772 65.9568 233.092 67.5068 238.442 70.8068C247.442 76.3368 253.332 86.5468 263.262 90.1068C266.402 91.2268 269.752 91.6068 272.992 92.3868C277.12 93.5005 281.15 94.9487 285.042 96.7169C293.042 100.077 300.982 103.447 308.472 107.717C310.267 108.864 312.177 109.82 314.172 110.567C317.972 111.797 322.082 111.287 326.042 110.767C328.722 110.407 336.762 109.537 338.602 108.337C341.462 106.477 343.462 107.351 345.122 106.771L345.103 100.056L171.831 0.0170855L166.195 3.26491Z" fill="url(#paint0_linear_65_2)"/>
<path d="M149.747 388.178L345.154 275.35L345.154 262.371C345.001 262.282 340.626 260.613 336.825 259.621C333.738 258.817 330.928 258.084 330.797 258.024C327.861 256.692 325.956 256.706 324.051 256.72C322.144 256.734 320.237 256.747 317.293 255.412C313.649 253.758 309.933 253.285 306.22 252.811C305.366 252.702 304.511 252.593 303.658 252.47C293.429 251.007 285.548 256.636 277.555 262.345C272.728 265.792 267.861 269.269 262.411 271.23C260.353 271.969 258.2 272.497 256.05 273.025C253.226 273.718 250.407 274.409 247.814 275.574C244.369 277.144 241.414 279.52 238.452 281.902C235.917 283.94 233.377 285.983 230.52 287.528C226.131 289.862 221.096 290.928 216.09 291.988C209.221 293.443 202.406 294.886 197.387 299.576C195.601 301.248 194.119 303.268 192.637 305.29C191.846 306.368 191.056 307.447 190.218 308.473C187.045 312.101 183.511 315.396 179.668 318.306L179.467 318.469C172.045 324.485 164.556 330.556 156.307 335.348C154.181 336.424 152.208 337.778 150.439 339.373C147.263 342.574 145.86 347.503 144.539 352.272C144.226 353.411 143.713 354.566 143.19 355.744C142.225 357.917 141.226 360.164 141.392 362.522C141.835 368.801 140.571 377.456 138.222 381.524L149.747 388.178Z" fill="#57AFD6"/>
<path d="M159.362 393.732L345.148 286.613V271.33C343.034 271.33 342.89 272.551 340.929 272.63C338.961 272.71 336.982 272.79 336.81 272.708C333.878 271.379 332.19 271.129 330.501 270.878C328.811 270.627 327.12 270.376 324.181 269.043C319.711 267.005 315.142 264.979 310.613 264.304C300.384 262.84 292.503 268.469 284.51 274.178C279.683 277.626 274.816 281.102 269.366 283.064C267.308 283.802 265.155 284.331 263.005 284.858C260.181 285.551 257.362 286.243 254.769 287.407C251.325 288.973 248.369 291.351 245.404 293.736C242.87 295.774 240.33 297.817 237.475 299.362C233.086 301.695 228.051 302.761 223.045 303.821C216.176 305.276 209.361 306.719 204.342 311.409C202.56 313.075 201.079 315.095 199.597 317.115C198.806 318.194 198.015 319.273 197.178 320.298C194.004 323.929 190.467 327.227 186.623 330.139L186.29 330.409C178.912 336.39 171.471 342.422 163.267 347.173C161.145 348.255 159.172 349.608 157.398 351.198C154.222 354.399 152.815 359.337 151.494 364.105C151.183 365.242 150.67 366.396 150.147 367.573C149.184 369.743 148.186 371.99 148.352 374.346C148.423 375.455 148.172 377.175 147.88 379.175C147.54 381.502 147.136 384.05 146 386.018L159.362 393.732Z" fill="#80CFF3"/>
<path d="M167.284 398.365L345.162 295.827L345.159 282.417C340.783 282.616 337.446 284.451 331.584 281.783C327.101 279.749 322.545 277.719 318.008 277.039C307.787 275.585 299.911 281.207 291.922 286.911C287.091 290.359 282.219 293.838 276.761 295.799C274.704 296.541 272.548 297.07 270.394 297.598C267.574 298.291 264.758 298.982 262.173 300.147C258.728 301.718 255.772 304.094 252.81 306.476C250.275 308.514 247.735 310.557 244.879 312.102C240.489 314.435 235.454 315.502 230.449 316.562C223.58 318.016 216.765 319.46 211.746 324.15C209.953 325.819 208.473 327.842 206.992 329.865C206.203 330.943 205.414 332.021 204.577 333.047C201.401 336.672 197.866 339.966 194.027 342.88L193.826 343.043C186.404 349.059 178.914 355.129 170.666 359.922C168.54 360.998 166.566 362.351 164.797 363.947C161.621 367.148 160.219 372.077 158.898 376.845C158.513 378.248 159.703 379.482 159.762 381.225C159.908 385.573 155.645 391.576 155.645 391.576L167.284 398.365Z" fill="#F2E8C0"/>
<path d="M345.174 294.403L341.891 295.345C340.122 295.709 339.622 295.594 337.094 294.793C332.35 293.289 331.429 294.605 326.703 293.112C323.08 291.967 319.386 290.804 315.584 290.71C301.864 290.353 291.728 303.149 279.005 308.286C274.818 309.979 270.318 310.833 266.253 312.794C260.592 315.518 256.09 320.217 250.557 323.2C241.268 328.229 229.481 328.225 221.433 335.045C218.893 337.204 216.889 339.915 214.593 342.331C211.565 345.349 208.296 348.115 204.818 350.602C197.908 355.85 191.02 361.041 183.577 365.393C181.686 366.373 179.903 367.55 178.259 368.904C175.294 371.58 173.68 375.394 172.151 379.084C171.122 381.585 167.856 388.982 167.975 391.176C168.156 394.583 166.399 395.878 166.071 397.605L171.896 400.947L345.168 300.908L345.174 294.403Z" fill="url(#paint1_linear_65_2)"/>
</g>
<defs>
<linearGradient id="paint0_linear_65_2" x1="242.549" y1="78.538" x2="258.844" y2="50.3142" gradientUnits="userSpaceOnUse">
<stop stop-color="#E8CF96"/>
<stop offset="0.95" stop-color="#E0B568"/>
</linearGradient>
<linearGradient id="paint1_linear_65_2" x1="241.807" y1="322.891" x2="258.102" y2="351.115" gradientUnits="userSpaceOnUse">
<stop stop-color="#E8CF96"/>
<stop offset="0.95" stop-color="#E0B568"/>
</linearGradient>
<clipPath id="clip0_65_2">
<rect width="346.04" height="399.93" fill="white" transform="translate(-0.000488281 0.51709)"/>
</clipPath>
</defs>
</svg>
