<svg width="101" height="100" viewBox="0 0 101 100" fill="none" xmlns="http://www.w3.org/2000/svg">
<path d="M68.7333 55.1547C71.0956 53.3865 71.0956 49.5231 68.7334 47.7549L31.7619 20.0806C29.0955 18.0847 25.505 20.2079 25.505 23.7805L25.505 79.1291C25.505 82.7017 29.0955 84.8249 31.7619 82.829L68.7333 55.1547Z" fill="#CCEFFE"/>
<path fill-rule="evenodd" clip-rule="evenodd" d="M71.2365 45.4615L34.2629 20.557C29.4631 17.324 22.9998 20.7632 22.9998 26.5503V76.3593C22.9998 82.1464 29.4631 85.5856 34.2629 82.3526L71.2365 57.4481C75.4887 54.5839 75.4887 48.3257 71.2365 45.4615ZM69.4423 48.1252C71.8046 49.7164 71.8046 53.1932 69.4423 54.7844L32.4687 79.6889C29.8021 81.485 26.2114 79.5744 26.2114 76.3593V26.5503C26.2114 23.3353 29.8022 21.4246 32.4687 23.2207L69.4423 48.1252Z" fill="#223948"/>
</svg>
