<svg width="132" height="132" viewBox="0 0 132 132" fill="none" xmlns="http://www.w3.org/2000/svg">
<g clip-path="url(#clip0_7_20)">
<path opacity="0.5" d="M115.114 131.99H21.7585C12.4749 131.99 4.87207 124.376 4.87207 115.041V21.1433C4.87207 11.8089 12.4749 4.17432 21.7484 4.17432H115.124C124.397 4.17432 132 11.8189 132 21.1433V115.031C132 124.366 124.397 132 115.124 132L115.114 131.99Z" fill="black"/>
<path d="M110.252 127.816H16.8764C7.59287 127.816 0 120.181 0 110.847V16.969C0 7.63454 7.60287 0 16.8764 0H110.252C119.535 0 127.128 7.63454 127.128 16.969V110.847C127.128 120.181 119.525 127.816 110.252 127.816Z" fill="#EAE9E4"/>
<path d="M64.0942 96.664C68.4459 96.4528 71.1369 102.558 67.7556 105.546C64.8545 108.805 58.5721 106.31 58.9223 101.864C58.9223 98.8769 61.1231 96.664 64.0942 96.664Z" fill="#004405"/>
<path d="M85.1022 46.8534C85.1022 49.2072 84.682 51.4503 83.8317 53.5928C82.9777 55.7338 81.8476 57.7528 80.4704 59.5978C79.0668 61.4834 77.4745 63.2192 75.7186 64.778C74.009 66.3042 72.2119 67.7282 70.3366 69.0429H84.2318L83.1714 87.4302L42.0259 86.022V69.9281C43.686 69.3536 45.3214 68.7092 46.9277 67.9968C48.6384 67.2524 50.329 66.3874 51.9796 65.4117C53.6276 64.4443 55.1994 63.3514 56.6814 62.1426C58.1249 60.9726 59.4366 59.647 60.5929 58.1896C61.7233 56.7612 62.6137 55.2021 63.2739 53.5223C63.9342 51.8425 64.2743 50.032 64.2743 48.0907C64.2743 46.9641 64.0742 45.9783 63.6741 45.1233C63.294 44.2917 62.7293 43.5587 62.0234 42.9808C61.3232 42.4075 60.5129 41.975 59.5825 41.7034C58.6522 41.4318 57.6818 41.2809 56.6214 41.2809C55.7411 41.2809 54.8507 41.3815 53.9404 41.5626C53.03 41.7637 52.1397 42.0353 51.2594 42.3874C50.379 42.7394 49.5487 43.172 48.7684 43.695C48.0123 44.195 47.3144 44.7787 46.6876 45.4352L42.8162 28.1041C43.8966 27.0177 45.1471 26.1024 46.5476 25.3681C47.9581 24.6238 49.4387 24.0303 50.9893 23.5776C52.5399 23.115 54.1305 22.783 55.7411 22.5718C57.3417 22.3706 58.9423 22.27 60.4829 22.27C63.9442 22.27 67.1654 22.8937 70.1565 24.151C73.1476 25.4083 75.7486 27.1284 77.9595 29.3212C80.2429 31.6242 82.0498 34.3593 83.2757 37.3686C84.5017 40.3778 85.1225 43.6015 85.1022 46.8534Z" fill="#004405"/>
</g>
<defs>
<clipPath id="clip0_7_20">
<rect width="132" height="132" fill="white"/>
</clipPath>
</defs>
</svg>
