<svg xmlns="http://www.w3.org/2000/svg" width="130" height="130"><path fill="none" stroke="#000" stroke-width="5" stroke-linejoin="round" stroke-miterlimit="10" d="M19.125 37.5c-5.438.25-6.375 4.625-6.375 4.625L5.5 77.313c-.125 2.063 1.063 4.875 1.063 4.875s1.938 3.938 3.813 7.375 5.5 3 5.5 3 96.188 0 99.063-.063 4.375-2.313 4.375-2.313 2.938-5.813 3.75-7.438 1.313-3.25 1.5-4.125-7.375-36.563-7.375-36.563-1.344-4.5-6.438-4.625l-91.626.064z"/><linearGradient id="a" gradientUnits="userSpaceOnUse" x1="64.977" y1="76.457" x2="64.977" y2="91.089"><stop offset="0" stop-color="#fffbf2"/><stop offset=".222" stop-color="#faf8f0"/><stop offset=".472" stop-color="#edefe8"/><stop offset=".736" stop-color="#d6e0dc"/><stop offset="1" stop-color="#b8cccc"/></linearGradient><path fill="url(#a)" d="M114.173 91.084H16.75l-.445.005c-1.6 0-3.4-.147-4.526-1.905-.401-.628-3.835-6.963-4.32-9.002-.281-1.179.089-1.97.449-2.426.946-1.198 2.727-1.299 4.468-1.299h105.203c1.741 0 3.521.101 4.468 1.299.36.456.73 1.247.449 2.426-.485 2.039-3.919 8.374-4.32 9.002l-.108.171c-.81 1.28-1.45 1.734-3.434 1.734l-.461-.005z"/><path fill="#6BB2B0" d="M117.578 77.957c1.968 0 3.875.127 3.458 1.877s-3.732 7.928-4.125 8.541c-.616.963-.663 1.214-2.279 1.214-.132 0-.274-.002-.429-.005H16.75c-.154.003-.303.005-.445.005-1.745 0-2.646-.251-3.263-1.214-.393-.613-3.708-6.791-4.125-8.541s1.49-1.877 3.458-1.877h105.203m0-3H12.375c-1.56 0-4.169 0-5.646 1.87-.799 1.012-1.059 2.326-.73 3.702.563 2.363 4.201 8.97 4.517 9.463 1.662 2.597 4.449 2.597 5.789 2.597.152 0 .311-.002.475-.005h97.395c.164.003.316.005.458.005 2.366 0 3.553-.614 4.702-2.433l.104-.164c.315-.493 3.954-7.1 4.517-9.463.328-1.376.068-2.69-.73-3.702-1.479-1.87-4.088-1.87-5.648-1.87z"/><g><linearGradient id="b" gradientUnits="userSpaceOnUse" x1="65" y1="82.103" x2="65" y2="38.982"><stop offset="0" stop-color="#fffbf2"/><stop offset=".222" stop-color="#faf8f0"/><stop offset=".472" stop-color="#edefe8"/><stop offset=".736" stop-color="#d6e0dc"/><stop offset="1" stop-color="#b8cccc"/></linearGradient><path fill="url(#b)" d="M10.992 82.104c-2.752 0-3.984-2.08-3.984-4.141 0-.101.01-.2.03-.299l7.143-35.132c.473-2.134 2.576-3.55 5.238-3.55h91.102c2.507 0 4.241 1.099 5.154 3.267.038.091.067.186.087.282l7.024 34.39c.382.966.229 2.221-.415 3.271-.744 1.215-1.989 1.911-3.417 1.911H10.992z"/><path fill="#6BB2B0" d="M110.521 40.482c2.097 0 3.167.913 3.771 2.349l7.057 34.546c.497.976-.299 3.227-2.395 3.227H10.992c-2.096 0-2.484-1.658-2.484-2.641l7.143-35.132c.289-1.303 1.672-2.349 3.769-2.349h91.101m0-3H19.419c-3.382 0-6.073 1.889-6.697 4.699l-.011.052-7.143 35.132c-.04.196-.061.396-.061.598 0 3.321 2.255 5.641 5.484 5.641h107.962c1.961 0 3.673-.958 4.696-2.627.854-1.396 1.064-3.09.584-4.464l-7.003-34.282a2.986 2.986 0 00-.175-.563c-1.151-2.738-3.411-4.186-6.534-4.186z"/></g></svg>