<svg width="132" height="132" viewBox="0 0 132 132" fill="none" xmlns="http://www.w3.org/2000/svg">
<g clip-path="url(#clip0_7_77)">
<path opacity="0.5" d="M115.187 131.9H21.8164C17.3216 131.9 13.0094 130.113 9.82168 126.929C6.634 123.746 4.82991 119.425 4.80347 114.909V21.112C4.81657 18.8676 5.26961 16.6478 6.13672 14.5793C7.00382 12.5108 8.26802 10.6341 9.85711 9.05644C11.4462 7.47875 13.3291 6.23095 15.3982 5.38428C17.4674 4.5376 19.6823 4.10864 21.9165 4.12188H115.287C119.73 4.20058 123.966 6.02214 127.089 9.1971C130.212 12.3721 131.975 16.6485 132 21.112V114.909C132 119.442 130.208 123.789 127.017 126.994C123.827 130.2 119.499 132 114.987 132L115.187 131.9Z" fill="black"/>
<path d="M110.284 127.778H16.9128C12.4181 127.751 8.11646 125.939 4.94753 122.737C1.77861 119.534 -7.77632e-05 115.202 2.54989e-09 110.687V16.8896C0.0523995 12.4091 1.85425 8.12859 5.01754 4.96964C8.18084 1.81069 12.4525 0.0260481 16.9128 4.09858e-08H110.284C114.761 -0.000311257 119.059 1.77268 122.243 4.93444C125.428 8.0962 127.244 12.3918 127.297 16.8896V110.788C127.27 115.303 125.466 119.624 122.278 122.808C119.091 125.991 114.779 127.778 110.284 127.778Z" fill="#EAE9E4"/>
<path d="M63.6483 97.1153C68.0516 96.9142 70.6536 102.946 67.3511 105.962C64.3488 109.28 58.1441 106.766 58.4444 102.343C58.4161 101.649 58.5314 100.956 58.7829 100.309C59.0345 99.6622 59.4168 99.0745 59.9058 98.5833C60.3947 98.0921 60.9798 97.7081 61.6239 97.4554C62.2681 97.2027 62.9574 97.0869 63.6483 97.1153Z" fill="#004405"/>
<path d="M56.3427 24.9319L53.7407 87.7652L34.6262 86.8604L35.6269 45.0386L28.6216 49.9647L22.0166 34.8847L36.3275 23.9266L56.3427 24.8314V24.9319ZM102.578 46.8482C102.578 49.1604 102.177 51.4727 101.377 53.5839C100.476 55.6951 99.3753 57.7058 97.9743 59.6159C96.5732 61.4255 94.972 63.1345 93.2707 64.7431C91.4693 66.3516 89.668 67.7591 87.8666 69.066H101.777L100.776 87.363L59.5451 85.9556V69.8703C63.0031 68.6921 66.3517 67.2119 69.5527 65.4468C72.7035 63.4353 75.537 60.9617 77.9591 58.1079C79.16 56.5999 79.9606 55.0919 80.6611 53.3828C81.3616 51.6738 81.6619 49.9647 81.6619 47.954C81.6619 46.9487 81.4617 45.9434 81.0614 44.938C80.678 44.1599 80.1318 43.474 79.4602 42.9274C78.7597 42.3242 77.9591 41.922 76.9583 41.6204C75.9575 41.3188 75.0569 41.2183 73.956 41.2183C72.138 41.1831 70.3323 41.5254 68.652 42.2236C66.9319 42.909 65.3664 43.9346 64.0485 45.2396L60.2456 28.0485C61.2464 26.9426 62.5474 26.0378 63.9484 25.2335C66.8085 23.7259 69.9379 22.8033 73.1554 22.5191L77.859 22.2175C84.3892 22.1674 90.678 24.6944 95.3723 29.2549C97.6672 31.5405 99.4793 34.2678 100.7 37.2735C101.921 40.2793 102.526 43.5016 102.478 46.7476L102.578 46.8482Z" fill="#004405"/>
</g>
<defs>
<clipPath id="clip0_7_77">
<rect width="132" height="132" fill="white"/>
</clipPath>
</defs>
</svg>
