<svg width="132" height="132" viewBox="0 0 132 132" fill="none" xmlns="http://www.w3.org/2000/svg">
<g clip-path="url(#clip0_7_44)">
<path opacity="0.5" d="M115.187 131.9H21.8164C17.3216 131.9 13.0094 130.113 9.82168 126.929C6.634 123.746 4.82991 119.425 4.80347 114.909V21.112C4.81657 18.8676 5.26961 16.6478 6.13672 14.5793C7.00382 12.5108 8.26802 10.6341 9.85711 9.05644C11.4462 7.47875 13.3291 6.23095 15.3982 5.38428C17.4674 4.5376 19.6823 4.10864 21.9165 4.12188H115.287C119.73 4.20058 123.966 6.02214 127.089 9.1971C130.212 12.3721 131.975 16.6485 132 21.112V114.909C132 119.442 130.208 123.789 127.017 126.994C123.827 130.2 119.499 132 114.987 132L115.187 131.9Z" fill="black"/>
<path d="M110.284 127.778H16.9128C12.4181 127.751 8.11646 125.939 4.94753 122.737C1.77861 119.534 -7.77632e-05 115.202 2.54989e-09 110.687V16.8896C0.0523995 12.4091 1.85425 8.12859 5.01754 4.96964C8.18084 1.81069 12.4525 0.0260481 16.9128 4.09858e-08H110.284C114.761 -0.000311257 119.059 1.77268 122.243 4.93444C125.428 8.0962 127.244 12.3918 127.297 16.8896V110.788C127.27 115.303 125.466 119.624 122.278 122.808C119.091 125.991 114.779 127.778 110.284 127.778Z" fill="#EAE9E4"/>
<path d="M28.4215 97.1153C32.8248 96.9142 35.4268 102.946 32.1243 105.962C29.122 109.28 22.9173 106.766 23.2175 102.343C23.1893 101.649 23.3046 100.956 23.5561 100.309C23.8077 99.6622 24.19 99.0745 24.679 98.5833C25.1679 98.0921 25.753 97.7081 26.3971 97.4554C27.0413 97.2027 27.7306 97.0869 28.4215 97.1153ZM46.0349 97.1153C50.4382 96.9142 53.0402 102.946 49.7377 105.962C46.7354 109.28 40.5307 106.766 40.8309 102.343C40.8027 101.649 40.918 100.956 41.1695 100.309C41.421 99.6622 41.8033 99.0745 42.2923 98.5833C42.7813 98.0921 43.3663 97.7081 44.0105 97.4554C44.6546 97.2027 45.3439 97.0869 46.0349 97.1153ZM63.6482 97.1153C68.0516 96.9142 70.6536 102.946 67.351 105.962C64.3488 109.28 58.1441 106.766 58.4443 102.343C58.416 101.649 58.5313 100.956 58.7829 100.309C59.0344 99.6622 59.4167 99.0745 59.9057 98.5833C60.3947 98.0921 60.9797 97.7081 61.6238 97.4554C62.268 97.2027 62.9573 97.0869 63.6482 97.1153ZM81.2616 97.1153C85.5649 96.9142 88.2669 102.946 84.9644 105.962C81.9621 109.28 75.7574 106.766 76.0577 102.343C76.0294 101.649 76.1447 100.956 76.3962 100.309C76.6478 99.6622 77.0301 99.0745 77.5191 98.5833C78.008 98.0921 78.5931 97.7081 79.2372 97.4554C79.8814 97.2027 80.5707 97.0869 81.2616 97.1153ZM98.875 97.1153C103.178 96.9142 105.88 102.946 102.578 105.962C99.5755 109.28 93.3708 106.766 93.671 102.343C93.6428 101.649 93.7581 100.956 94.0096 100.309C94.2611 99.6622 94.6434 99.0745 95.1324 98.5833C95.6214 98.0921 96.2064 97.7081 96.8506 97.4554C97.4947 97.2027 98.184 97.0869 98.875 97.1153Z" fill="#BA1529"/>
<path d="M88.367 66.151C88.367 69.7702 87.7666 72.9873 86.4656 75.9027C85.2753 78.7613 83.5029 81.3381 81.2624 83.4676C79.0219 85.5972 76.3627 87.2325 73.4557 88.2683C67.7305 90.3787 61.4763 90.5552 55.6422 88.771C51.1608 87.2782 47.2926 84.3461 44.6338 80.4267C41.8522 76.4187 40.0677 71.7991 39.4299 66.9553C38.4498 61.3316 38.4837 55.5768 39.53 49.9652C40.0303 46.9492 40.7309 44.1342 41.7316 41.4198C42.7324 38.806 44.0334 36.3932 45.5345 34.0809C48.6615 29.566 53.2081 26.2378 58.4443 24.6308C62.7051 23.2542 67.2163 22.8422 71.6544 23.4244L75.6574 24.0276L79.4603 25.0329C80.7613 25.5356 81.8621 26.0383 82.9629 26.742L81.6619 44.1342C77.3992 42.0273 72.702 40.9596 67.9515 41.0177C66.1502 41.0177 64.549 41.2188 63.248 41.822C62.0002 42.3092 60.8731 43.064 59.9455 44.0337C58.9447 45.039 58.3443 46.2454 57.8439 47.6529C57.2434 48.9598 56.9432 50.5684 56.8431 52.2774C58.7446 51.1716 60.8461 50.2668 63.0478 49.6636C67.6316 48.3116 72.515 48.3817 77.0585 49.8646C80.4671 50.947 83.4241 53.1308 85.4693 56.0762C87.5145 59.0217 88.5333 62.5637 88.367 66.151ZM71.6544 67.4579C71.6585 66.6158 71.4521 65.7862 71.0539 65.0451C70.6536 64.3414 70.1532 63.7382 69.5528 63.135C68.5711 62.3761 67.4199 61.8695 66.199 61.6592C64.9781 61.449 63.7246 61.5414 62.5474 61.9286C61.7473 62.1944 61.0014 62.6031 60.3458 63.135C59.7453 63.7382 59.2449 64.3414 58.8446 65.0451C58.4465 65.7862 58.24 66.6158 58.2442 67.4579C58.2442 68.3627 58.4443 69.167 58.8446 69.8707C59.2218 70.5672 59.7319 71.1821 60.3458 71.6803C61.6249 72.7086 63.211 73.2751 64.8492 73.2889C66.5521 73.2968 68.2084 72.7304 69.5528 71.6803C70.1667 71.1821 70.6768 70.5672 71.0539 69.8707C71.4542 69.167 71.6544 68.3627 71.6544 67.4579Z" fill="#CC0000"/>
</g>
<defs>
<clipPath id="clip0_7_44">
<rect width="132" height="132" fill="white"/>
</clipPath>
</defs>
</svg>
