<svg width="348" height="400" viewBox="0 0 348 400" fill="none" xmlns="http://www.w3.org/2000/svg">
<g clip-path="url(#clip0_42_78)">
<path d="M325.001 112.962L151.779 12.812L140.402 19.3806C140.401 19.5567 141.143 24.1803 142.185 27.9677C143.031 31.0426 143.801 33.843 143.815 33.9864C144.13 37.1961 145.095 38.8382 146.059 40.4805C147.024 42.1246 147.99 43.77 148.305 46.9868C148.695 50.97 150.143 54.4239 151.59 57.8779C151.922 58.6715 152.256 59.4668 152.575 60.2677C156.422 69.8556 165.238 73.8679 174.178 77.9348C179.577 80.3908 185.021 82.8676 189.446 86.6075C191.114 88.0195 192.648 89.621 194.18 91.2196C196.191 93.3173 198.201 95.4138 200.505 97.0761C203.587 99.2749 207.123 100.646 210.667 102.021C213.7 103.197 216.738 104.375 219.505 106.077C223.72 108.711 227.161 112.538 230.582 116.343C235.277 121.565 239.934 126.745 246.505 128.747C248.847 129.458 251.337 129.73 253.829 130.003L253.846 130.007C255.17 130.152 256.494 130.296 257.796 130.507C262.651 131.465 260.037 137.358 261.8 141.62C264.557 148.282 271.41 150.946 273.385 157.509C275.241 163.677 272.593 168.52 273.771 173.572C275.807 182.31 271.727 183.411 274.865 193.042C276.449 197.908 278.044 202.801 278.217 207.769C278.308 211.016 277.808 214.236 277.311 217.451C276.729 221.208 276.149 224.955 276.512 228.724C276.731 230.873 277.252 233.001 277.845 235.123C278.033 235.793 278.227 236.461 278.421 237.13C279.04 239.256 279.659 241.385 280.048 243.536C281.075 249.238 280.498 255.191 279.925 261.094C278.977 270.87 278.044 280.511 284.424 288.636C284.958 289.314 285.48 290 286.001 290.685C288.269 293.665 290.536 296.645 293.791 298.975C296.419 300.856 297.361 302.516 298.302 304.173C299.242 305.829 300.182 307.486 302.804 309.364C302.876 309.415 303.683 310.223 304.817 311.37L307.201 313.785C309.961 316.581 313.594 319.535 313.747 319.622L325.124 313.054L325.001 112.962Z" fill="#57AFD6"/>
<path d="M334.617 107.412L161.402 7.25928L148.166 14.9011C148.712 15.8483 149.337 16.285 149.881 16.5732C150.388 16.8421 150.893 17.1097 151.399 17.9091L151.42 17.9422C152.466 19.5958 153.512 21.2494 153.527 21.4373C153.841 24.6407 154.469 26.2293 155.095 27.816C155.724 29.4063 156.352 30.9968 156.666 34.2073C157.137 39.0978 157.666 44.0673 159.346 48.3272C163.193 57.917 172.009 61.9273 180.95 65.996C186.349 68.4519 191.793 70.929 196.216 74.6672C197.879 76.0756 199.408 77.6708 200.934 79.2617L200.951 79.2791C202.963 81.3785 204.971 83.4735 207.276 85.1375C210.354 87.3366 213.893 88.7082 217.44 90.0837C220.471 91.2585 223.512 92.4374 226.277 94.1381C230.492 96.7723 233.933 100.6 237.354 104.405C242.048 109.626 246.705 114.806 253.277 116.808C255.61 117.518 258.101 117.792 260.59 118.064C261.92 118.209 263.25 118.355 264.557 118.568C272.745 120.183 267.674 127.997 270.347 132.934C273.565 138.876 276.913 137.626 280.109 145.505C282.185 150.622 287.135 153.801 288.043 159.247C288.969 164.796 286.363 170.784 285.811 173.159C284.259 179.851 286.416 186.474 288.591 193.15C290.176 198.016 291.77 202.909 291.944 207.877C292.034 211.122 291.535 214.344 291.037 217.557C290.454 221.317 289.873 225.067 290.238 228.832C290.527 231.66 291.337 234.447 292.149 237.239C292.474 238.357 292.799 239.476 293.091 240.599C293.354 241.611 293.591 242.626 293.776 243.645C294.801 249.345 294.225 255.299 293.652 261.202C292.705 270.979 291.77 280.619 298.152 288.746C301.001 292.331 305.04 295.274 309.04 298.127C311.663 300.004 312.727 301.343 313.79 302.683C314.85 304.019 315.913 305.356 318.529 307.231C318.685 307.337 319.594 309.07 320.503 310.802L320.521 310.837C321.22 312.17 320.755 312.829 320.978 313.891C321.045 314.213 321.259 314.716 321.505 315.142L334.741 307.5L334.617 107.412Z" fill="#80CFF3"/>
<path d="M342.584 102.809L169.365 2.64014L157.753 9.3486C158.392 10.3468 159.182 11.3671 159.872 12.2199C161.733 14.5172 163.542 16.7498 163.994 21.4255C164.475 26.3262 164.994 31.2855 166.675 35.5566C170.526 45.1348 179.333 49.1437 188.266 53.2099C193.669 55.6702 199.116 58.1497 203.545 61.8964C205.215 63.3069 206.752 64.9096 208.286 66.5111C210.296 68.6074 212.302 70.6993 214.605 72.3558C217.687 74.5546 221.222 75.9255 224.767 77.3005C227.799 78.4751 230.838 79.6544 233.605 81.3563C237.82 83.9905 241.261 87.8179 244.682 91.623C249.376 96.8446 254.033 102.024 260.605 104.026C261.585 104.327 262.591 104.549 263.613 104.726C265.032 104.97 267.932 105.286 267.932 105.286C267.932 105.286 270.588 105.574 271.894 105.785C276.621 106.723 275.581 110.044 280.024 111.913C284.467 113.781 280.731 120.764 283.355 124.314C285.953 127.83 292.346 129.156 294.09 132.524C296.035 136.278 295.332 139.649 296.594 144.273C298.48 151.178 304.295 150.877 302.92 159.524C302.176 165.423 301.866 167.445 300.541 173.199C298.989 179.891 301.147 186.514 303.322 193.19C304.906 198.055 306.5 202.949 306.674 207.916C306.765 211.163 306.266 214.385 305.767 217.598C305.186 221.355 304.606 225.103 304.969 228.871C305.252 231.694 306.061 234.477 306.871 237.265C307.491 239.395 308.111 241.527 308.497 243.679C309.528 249.387 308.951 255.345 308.38 261.254C307.435 271.024 306.504 280.655 312.873 288.779C315.732 292.37 319.767 295.3 323.771 298.166C327.594 300.896 328.623 303.578 329.682 306.339C330.075 307.363 330.553 308.539 331.098 309.59L342.714 302.889L342.584 102.809Z" fill="#F2E8C0"/>
<path d="M347.046 100.226L173.922 0L168.093 3.36913C168.093 3.36913 173.841 10.7995 174.261 13.4188C174.835 16.7129 176.066 19.8578 177.88 22.6664C179.93 25.8656 179.71 30.2144 182.249 33.0437C189.297 40.9117 202.314 45.3005 213.131 53.7483C216.68 56.5276 219.669 59.9967 223.398 62.536C228.587 66.0751 234.905 67.6247 240.254 70.9239C249.252 76.4524 255.15 86.6598 265.068 90.2188C268.207 91.3385 271.556 91.7084 274.795 92.4982C289.252 95.9734 294.625 113.373 294.625 113.373C294.625 113.373 297.286 119.764 300.368 121.491" fill="url(#paint0_linear_42_78)"/>
<path d="M347.046 100.226L173.922 0L168.093 3.36913C168.093 3.36913 173.841 10.7995 174.261 13.4188C174.835 16.7129 176.066 19.8578 177.88 22.6664C179.93 25.8656 179.71 30.2144 182.249 33.0437C189.297 40.9117 202.314 45.3005 213.131 53.7483C216.68 56.5276 219.669 59.9967 223.398 62.536C228.587 66.0751 234.905 67.6247 240.254 70.9239C249.252 76.4524 255.15 86.6598 265.068 90.2188C268.207 91.3385 271.556 91.7084 274.795 92.4982C289.252 95.9734 294.625 113.373 294.625 113.373C294.625 113.373 297.286 119.764 300.368 121.491" fill="url(#paint1_linear_42_78)"/>
<path d="M300.367 121.474C311.605 127.312 307.262 132.665 311.208 140.252C315.321 148.158 322.251 147.017 320.332 160.604C319.702 165.073 318.202 169.402 317.862 173.89C317.382 180.159 319.202 186.407 319.022 192.685C318.722 203.223 312.844 213.45 314.723 223.827C315.323 227.107 316.672 230.186 317.612 233.385C318.709 237.519 319.468 241.735 319.882 245.992C320.951 254.559 322.031 263.147 322.041 271.785C321.95 273.915 322.081 276.05 322.431 278.153C323.261 282.052 325.76 285.351 328.19 288.521C329.717 290.761 331.63 292.714 333.838 294.289C335.698 295.449 340.149 302.445 341.479 303.595L347.137 300.285L347.045 100.209" fill="url(#paint2_linear_42_78)"/>
<path d="M300.367 121.474C311.605 127.312 307.262 132.665 311.208 140.252C315.321 148.158 322.251 147.017 320.332 160.604C319.702 165.073 318.202 169.402 317.862 173.89C317.382 180.159 319.202 186.407 319.022 192.685C318.722 203.223 312.844 213.45 314.723 223.827C315.323 227.107 316.672 230.186 317.612 233.385C318.709 237.519 319.468 241.735 319.882 245.992C320.951 254.559 322.031 263.147 322.041 271.785C321.95 273.915 322.081 276.05 322.431 278.153C323.261 282.052 325.76 285.351 328.19 288.521C329.717 290.761 331.63 292.714 333.838 294.289C335.698 295.449 340.149 302.445 341.479 303.595L347.137 300.285L347.045 100.209" fill="url(#paint3_linear_42_78)"/>
<path d="M0.97998 275.186L196.396 387.999L207.636 381.509C207.636 381.332 206.895 376.709 205.853 372.921C205.006 369.846 204.236 367.046 204.222 366.902C203.907 363.694 202.943 362.051 201.979 360.408C201.013 358.764 200.047 357.119 199.732 353.902C199.342 349.919 197.895 346.464 196.448 343.012C196.115 342.217 195.782 341.423 195.462 340.622C191.615 331.033 182.8 327.022 173.859 322.954C168.46 320.498 163.016 318.021 158.592 314.282C156.924 312.869 155.39 311.268 153.858 309.67C151.846 307.571 149.837 305.476 147.532 303.812C144.45 301.614 140.914 300.243 137.37 298.868C134.338 297.692 131.299 296.514 128.532 294.812C124.317 292.178 120.876 288.35 117.455 284.545C112.761 279.324 108.104 274.144 101.532 272.142C99.1909 271.431 96.7007 271.159 94.2085 270.886C92.8796 270.74 91.5501 270.594 90.2423 270.382C85.514 269.449 80.8933 268.035 76.4523 266.162L76.2102 266.069C67.2894 262.65 58.2875 259.199 50.0123 254.452C48.0179 253.149 45.859 252.116 43.5924 251.382C39.2324 250.232 34.2624 251.482 29.4724 252.722C28.3297 253.021 27.072 253.154 25.7902 253.29C23.4264 253.54 20.9805 253.799 19.0224 255.122C13.8054 258.645 5.67794 261.878 0.979994 261.878L0.97998 275.186Z" fill="#57AFD6"/>
<path d="M0.977541 286.289L186.639 393.626L199.875 385.984C198.818 384.153 197.688 384.639 196.639 382.981C195.586 381.316 194.527 379.643 194.512 379.452C194.197 376.249 193.57 374.661 192.943 373.073C192.315 371.484 191.687 369.894 191.372 366.682C190.902 361.792 190.372 356.822 188.692 352.562C184.845 342.973 176.029 338.962 167.088 334.894C161.69 332.438 156.245 329.961 151.822 326.222C150.153 324.809 148.619 323.208 147.087 321.61C145.075 319.511 143.067 317.416 140.762 315.752C137.683 313.553 134.146 312.181 130.599 310.806C127.566 309.631 124.527 308.453 121.762 306.752C117.546 304.117 114.105 300.29 110.684 296.485C105.99 291.264 101.333 286.084 94.7616 284.082C92.4282 283.372 89.9376 283.099 87.4476 282.826C86.1174 282.68 84.7874 282.535 83.4816 282.322C78.75 281.389 74.126 279.975 69.6816 278.102L69.2811 277.949C60.4121 274.549 51.4679 271.121 43.2516 266.392C41.2538 265.095 39.0957 264.063 36.8316 263.322C32.4716 262.172 27.4916 263.422 22.7016 264.662C21.5619 264.961 20.3058 265.094 19.0249 265.23C16.6644 265.48 14.2193 265.74 12.2616 267.062C11.337 267.677 9.72205 268.32 7.84361 269.067C5.65885 269.937 3.25013 270.861 0.977539 270.861L0.977541 286.289Z" fill="#80CFF3"/>
<path d="M0.926758 295.467L178.666 398.244L190.278 391.537C187.918 387.847 184.66 385.874 184.04 379.464C183.56 374.564 183.04 369.604 181.36 365.334C177.508 355.756 168.702 351.746 159.768 347.679C154.366 345.22 148.917 342.739 144.49 338.994C142.819 337.583 141.282 335.98 139.748 334.379C137.738 332.283 135.732 330.19 133.43 328.534C130.347 326.335 126.812 324.964 123.268 323.59C120.235 322.414 117.196 321.235 114.43 319.534C110.214 316.899 106.774 313.072 103.353 309.267C98.6582 304.046 94.001 298.865 87.4297 296.864C85.0874 296.146 82.5961 295.875 80.103 295.605C78.775 295.46 77.4465 295.316 76.1397 295.104C71.4125 294.166 66.7924 292.752 62.3498 290.884L62.1079 290.791C53.187 287.372 44.1849 283.921 35.9097 279.174C33.9153 277.871 31.7564 276.838 29.4898 276.104C25.1298 274.954 20.1598 276.204 15.3698 277.444C13.963 277.812 13.489 279.46 12.0096 280.382C8.3172 282.683 0.986205 281.992 0.986205 281.992L0.926758 295.467Z" fill="#F2E8C0"/>
<path d="M179.906 397.542L177.448 395.17C176.248 393.82 176.098 393.33 175.528 390.74C174.458 385.88 172.858 385.74 171.788 380.9C170.968 377.19 170.128 373.41 168.308 370.07C161.758 358.01 145.608 355.63 134.798 347.18C131.238 344.4 128.248 340.93 124.518 338.39C119.328 334.85 113.008 333.3 107.658 330C98.658 324.47 92.768 314.26 82.838 310.7C79.698 309.58 76.348 309.2 73.108 308.42C68.9804 307.307 64.9504 305.858 61.058 304.09C53.058 300.73 45.118 297.36 37.628 293.09C35.8333 291.943 33.9228 290.988 31.928 290.24C28.128 289.01 24.018 289.52 20.058 290.04C17.378 290.4 9.33802 291.27 7.49802 292.47C4.63802 294.33 2.63803 293.456 0.978027 294.036L0.996744 300.751L174.269 400.79L179.906 397.542Z" fill="url(#paint4_linear_42_78)"/>
</g>
<defs>
<linearGradient id="paint0_linear_42_78" x1="266.548" y1="53.9209" x2="249.416" y2="82.2132" gradientUnits="userSpaceOnUse">
<stop offset="0.05" stop-color="#E0B568"/>
<stop offset="1" stop-color="#E8CF96"/>
</linearGradient>
<linearGradient id="paint1_linear_42_78" x1="334.174" y1="107.055" x2="317.989" y2="99.0906" gradientUnits="userSpaceOnUse">
<stop stop-color="#E0B568"/>
<stop offset="1" stop-color="#E0B568" stop-opacity="0"/>
</linearGradient>
<linearGradient id="paint2_linear_42_78" x1="347.044" y1="201.719" x2="313.901" y2="201.719" gradientUnits="userSpaceOnUse">
<stop offset="0.05" stop-color="#E0B568"/>
<stop offset="1" stop-color="#E8CF96"/>
</linearGradient>
<linearGradient id="paint3_linear_42_78" x1="335.715" y1="105.513" x2="332.033" y2="124.01" gradientUnits="userSpaceOnUse">
<stop stop-color="#E0B568"/>
<stop offset="1" stop-color="#E0B568" stop-opacity="0"/>
</linearGradient>
<linearGradient id="paint4_linear_42_78" x1="103.551" y1="322.269" x2="87.2557" y2="350.493" gradientUnits="userSpaceOnUse">
<stop stop-color="#E8CF96"/>
<stop offset="0.95" stop-color="#E0B568"/>
</linearGradient>
<clipPath id="clip0_42_78">
<rect width="346.21" height="399.79" fill="white" transform="translate(0.926758)"/>
</clipPath>
</defs>
</svg>
