<?xml version="1.0" encoding="UTF-8"?>
<!DOCTYPE svg PUBLIC "-//W3C//DTD SVG 1.1//EN" "http://www.w3.org/Graphics/SVG/1.1/DTD/svg11.dtd">
<svg xmlns="http://www.w3.org/2000/svg" version="1.1" width="180px" height="180px" style="shape-rendering:geometricPrecision; text-rendering:geometricPrecision; image-rendering:optimizeQuality; fill-rule:evenodd; clip-rule:evenodd" xmlns:xlink="http://www.w3.org/1999/xlink">
<g><path style="opacity:1" fill="#fae189" d="M 86.5,14.5 C 87.2389,14.369 87.9056,14.5357 88.5,15C 87.5842,15.2784 86.9175,15.7784 86.5,16.5C 84.8333,18.5 83.1667,20.5 81.5,22.5C 80.6862,24.631 80.1862,26.9644 80,29.5C 78.9563,28.3774 78.2896,27.0441 78,25.5C 77.7216,26.4158 77.2216,27.0825 76.5,27.5C 76.7717,20.8862 80.105,16.5528 86.5,14.5 Z"/></g>
<g><path style="opacity:1" fill="#feef97" d="M 87.5,18.5 C 87.9382,18.4346 88.2716,18.6012 88.5,19C 85.8059,21.6534 84.9726,24.8201 86,28.5C 87.7096,26.6202 89.543,24.9535 91.5,23.5C 93.6096,24.0544 95.6096,24.8877 97.5,26C 94.6384,26.9305 92.305,28.5971 90.5,31C 84.5062,32.8406 82.1729,30.6739 83.5,24.5C 83.6225,21.7079 84.9558,19.7079 87.5,18.5 Z"/></g>
<g><path style="opacity:1" fill="#dca72d" d="M 111.5,29.5 C 108.577,27.8989 105.91,28.2322 103.5,30.5C 103.24,29.0951 102.907,27.7618 102.5,26.5C 103.988,23.8136 104.655,24.1469 104.5,27.5C 106.527,27.3379 108.527,27.5045 110.5,28C 111.056,28.3826 111.389,28.8826 111.5,29.5 Z"/></g>
<g><path style="opacity:1" fill="#fad04d" d="M 87.5,18.5 C 88.9473,17.1148 89.9473,17.4482 90.5,19.5C 90.3893,20.1174 90.056,20.6174 89.5,21C 91.8659,21.4396 94.1992,21.9396 96.5,22.5C 97.733,24.7964 99.733,26.1298 102.5,26.5C 99.6336,29.5211 96.3003,32.0211 92.5,34C 88.9849,34.5193 85.6516,34.1859 82.5,33C 84.3939,34.1011 85.0606,35.4345 84.5,37C 86.5,37.3333 88.5,37.6667 90.5,38C 89.3166,40.1551 89.6499,42.1551 91.5,44C 95.539,46.0504 99.8723,46.8837 104.5,46.5C 104.5,47.5 104.5,48.5 104.5,49.5C 103.469,50.355 102.303,51.0217 101,51.5C 98.5515,50.0557 96.3848,48.2224 94.5,46C 89.8837,46.2159 87.217,44.0493 86.5,39.5C 83.0527,38.3605 80.2194,36.3605 78,33.5C 75.8001,36.3707 76.3001,38.7041 79.5,40.5C 74.8326,41.6796 72.6659,39.6796 73,34.5C 72.3333,37.1667 72.3333,39.8333 73,42.5C 74.1711,43.8932 75.6711,44.7265 77.5,45C 73.0823,46.4188 69.7489,45.2522 67.5,41.5C 67.0327,35.997 69.366,32.497 74.5,31C 72.6547,29.872 70.6547,29.372 68.5,29.5C 70.6353,27.631 73.3019,26.9644 76.5,27.5C 77.2216,27.0825 77.7216,26.4158 78,25.5C 78.2896,27.0441 78.9563,28.3774 80,29.5C 80.1862,26.9644 80.6862,24.631 81.5,22.5C 81.5,23.8333 82.1667,24.5 83.5,24.5C 82.1729,30.6739 84.5062,32.8406 90.5,31C 92.305,28.5971 94.6384,26.9305 97.5,26C 95.6096,24.8877 93.6096,24.0544 91.5,23.5C 89.543,24.9535 87.7096,26.6202 86,28.5C 84.9726,24.8201 85.8059,21.6534 88.5,19C 88.2716,18.6012 87.9382,18.4346 87.5,18.5 Z"/></g>
<g><path style="opacity:0.655" fill="#9c5c14" d="M 121.5,68.5 C 120.876,68.0831 120.543,67.4164 120.5,66.5C 121.823,64.8349 123.156,63.1683 124.5,61.5C 126.113,58.1456 125.78,55.1456 123.5,52.5C 123.5,51.8333 123.5,51.1667 123.5,50.5C 125.757,50.0383 127.757,49.0383 129.5,47.5C 126.594,46.9194 123.927,45.9194 121.5,44.5C 123.582,40.1505 122.582,36.8171 118.5,34.5C 116.45,32.4525 114.117,30.7859 111.5,29.5C 111.389,28.8826 111.056,28.3826 110.5,28C 108.527,27.5045 106.527,27.3379 104.5,27.5C 104.655,24.1469 103.988,23.8136 102.5,26.5C 99.733,26.1298 97.733,24.7964 96.5,22.5C 98.4835,22.3832 100.15,23.0499 101.5,24.5C 102.833,23.5 104.167,22.5 105.5,21.5C 106.747,23.0064 106.747,24.5064 105.5,26C 107.847,26.3336 110.181,26.167 112.5,25.5C 112.281,26.675 112.614,27.675 113.5,28.5C 119.084,30.5821 122.751,34.4155 124.5,40C 124.415,41.1074 124.081,42.1074 123.5,43C 125.594,44.3515 127.927,44.8515 130.5,44.5C 131.056,48.1928 129.722,50.8595 126.5,52.5C 128.239,57.1013 127.572,61.268 124.5,65C 123.552,65.4828 122.552,65.6495 121.5,65.5C 121.5,66.5 121.5,67.5 121.5,68.5 Z"/></g>
<g><path style="opacity:1" fill="#fbd864" d="M 111.5,29.5 C 114.117,30.7859 116.45,32.4525 118.5,34.5C 119.008,37.1761 119.175,39.8428 119,42.5C 117.475,42.8881 115.808,42.8881 114,42.5C 113.256,46.2589 111.089,48.0923 107.5,48C 108.591,45.9361 108.758,43.7695 108,41.5C 107.023,40.2264 106.189,40.2264 105.5,41.5C 103.94,39.3647 102.273,39.198 100.5,41C 98.8333,41.6667 97.1667,41.6667 95.5,41C 94.8333,39 93.5,37.6667 91.5,37C 94.9518,36.1083 97.9518,34.4416 100.5,32C 101.793,31.51 103.127,31.3433 104.5,31.5C 104.712,36.443 103.712,37.1097 101.5,33.5C 99.5,34.8333 97.5,36.1667 95.5,37.5C 99.7953,38.6609 104.129,38.8275 108.5,38C 112.425,36.2161 113.425,33.3828 111.5,29.5 Z"/></g>
<g><path style="opacity:1" fill="#fcdb6c" d="M 68.5,29.5 C 70.6547,29.372 72.6547,29.872 74.5,31C 69.366,32.497 67.0327,35.997 67.5,41.5C 67.5,42.5 67.5,43.5 67.5,44.5C 64.0949,44.4881 61.9283,42.8215 61,39.5C 60.7645,41.1193 59.9311,42.1193 58.5,42.5C 57.3509,42.2089 56.6842,41.3756 56.5,40C 58.7051,34.3986 62.7051,30.8986 68.5,29.5 Z"/></g>
<g><path style="opacity:1" fill="#fdea8f" d="M 102.5,26.5 C 102.907,27.7618 103.24,29.0951 103.5,30.5C 105.91,28.2322 108.577,27.8989 111.5,29.5C 113.425,33.3828 112.425,36.2161 108.5,38C 104.129,38.8275 99.7953,38.6609 95.5,37.5C 97.5,36.1667 99.5,34.8333 101.5,33.5C 103.712,37.1097 104.712,36.443 104.5,31.5C 103.127,31.3433 101.793,31.51 100.5,32C 97.9518,34.4416 94.9518,36.1083 91.5,37C 93.5,37.6667 94.8333,39 95.5,41C 97.1667,41.6667 98.8333,41.6667 100.5,41C 102.273,39.198 103.94,39.3647 105.5,41.5C 105.806,44.3854 105.473,47.0521 104.5,49.5C 104.5,48.5 104.5,47.5 104.5,46.5C 99.8723,46.8837 95.539,46.0504 91.5,44C 89.6499,42.1551 89.3166,40.1551 90.5,38C 88.5,37.6667 86.5,37.3333 84.5,37C 85.0606,35.4345 84.3939,34.1011 82.5,33C 85.6516,34.1859 88.9849,34.5193 92.5,34C 96.3003,32.0211 99.6336,29.5211 102.5,26.5 Z"/></g>
<g><path style="opacity:0.365" fill="#9c5c14" d="M 90.5,19.5 C 89.9473,17.4482 88.9473,17.1148 87.5,18.5C 84.9558,19.7079 83.6225,21.7079 83.5,24.5C 82.1667,24.5 81.5,23.8333 81.5,22.5C 83.1667,20.5 84.8333,18.5 86.5,16.5C 89.8131,15.9552 93.1464,15.4552 96.5,15C 94.884,13.9229 93.0507,13.4229 91,13.5C 89.2933,13.5085 87.7933,13.8418 86.5,14.5C 80.105,16.5528 76.7717,20.8862 76.5,27.5C 73.3019,26.9644 70.6353,27.631 68.5,29.5C 62.7051,30.8986 58.7051,34.3986 56.5,40C 56.6842,41.3756 57.3509,42.2089 58.5,42.5C 57.1979,44.8218 55.1979,46.1551 52.5,46.5C 51.325,46.281 50.325,46.6143 49.5,47.5C 51.1493,49.3334 52.8159,51.0001 54.5,52.5C 54.5,52.8333 54.5,53.1667 54.5,53.5C 53.3659,55.9664 53.1993,58.633 54,61.5C 54.6995,63.032 55.8662,64.032 57.5,64.5C 58.3857,65.325 58.719,66.325 58.5,67.5C 57.5,66.8333 56.5,66.1667 55.5,65.5C 53.9263,64.0158 52.593,62.3492 51.5,60.5C 51.2739,57.7508 51.6072,55.0841 52.5,52.5C 51.1667,51.5 49.8333,50.5 48.5,49.5C 47.5721,48.2322 47.4054,46.8989 48,45.5C 50.6108,44.9294 53.1108,44.0961 55.5,43C 54.2028,40.4554 54.3695,37.9554 56,35.5C 58.4636,32.2017 61.6303,29.8684 65.5,28.5C 66.3857,27.675 66.719,26.675 66.5,25.5C 69.1272,26.0916 71.7938,26.4249 74.5,26.5C 75.0308,19.4672 78.6975,14.9672 85.5,13C 89.1667,12.3333 92.8333,12.3333 96.5,13C 99.8287,14.4545 100.662,16.6212 99,19.5C 96.7646,17.7976 94.2646,16.7976 91.5,16.5C 91.7373,17.791 91.404,18.791 90.5,19.5 Z"/></g>
<g><path style="opacity:1" fill="#e5bc55" d="M 86.5,14.5 C 87.7933,13.8418 89.2933,13.5085 91,13.5C 93.0507,13.4229 94.884,13.9229 96.5,15C 93.1464,15.4552 89.8131,15.9552 86.5,16.5C 86.9175,15.7784 87.5842,15.2784 88.5,15C 87.9056,14.5357 87.2389,14.369 86.5,14.5 Z"/></g>
<g><path style="opacity:1" fill="#fccf41" d="M 118.5,34.5 C 122.582,36.8171 123.582,40.1505 121.5,44.5C 119.11,44.9126 116.777,45.5793 114.5,46.5C 117.156,48.6624 120.156,49.9957 123.5,50.5C 123.5,51.1667 123.5,51.8333 123.5,52.5C 122.442,58.0453 119.109,60.212 113.5,59C 119.773,57.4887 120.773,54.4887 116.5,50C 115.167,49.3333 113.833,49.3333 112.5,50C 109.968,52.4146 106.968,53.0813 103.5,52C 104.252,51.3292 104.586,50.4959 104.5,49.5C 105.473,47.0521 105.806,44.3854 105.5,41.5C 106.189,40.2264 107.023,40.2264 108,41.5C 108.758,43.7695 108.591,45.9361 107.5,48C 111.089,48.0923 113.256,46.2589 114,42.5C 115.808,42.8881 117.475,42.8881 119,42.5C 119.175,39.8428 119.008,37.1761 118.5,34.5 Z"/></g>
<g><path style="opacity:1" fill="#fbe280" d="M 121.5,44.5 C 123.927,45.9194 126.594,46.9194 129.5,47.5C 127.757,49.0383 125.757,50.0383 123.5,50.5C 120.156,49.9957 117.156,48.6624 114.5,46.5C 116.777,45.5793 119.11,44.9126 121.5,44.5 Z"/></g>
<g><path style="opacity:1" fill="#f7c42f" d="M 60.5,61.5 C 58.5891,61.4257 57.4224,60.4257 57,58.5C 56.5783,55.7644 56.5783,53.0977 57,50.5C 56.2917,51.3805 55.4584,52.0472 54.5,52.5C 52.8159,51.0001 51.1493,49.3334 49.5,47.5C 50.325,46.6143 51.325,46.281 52.5,46.5C 52.7352,47.0967 53.2352,47.4301 54,47.5C 56.3504,46.4958 58.6837,45.4958 61,44.5C 59.5425,47.5473 58.7092,50.8806 58.5,54.5C 58.3187,57.1632 58.9854,59.4966 60.5,61.5 Z"/></g>
<g><path style="opacity:1" fill="#fde689" d="M 104.5,49.5 C 104.586,50.4959 104.252,51.3292 103.5,52C 106.968,53.0813 109.968,52.4146 112.5,50C 113.833,49.3333 115.167,49.3333 116.5,50C 120.773,54.4887 119.773,57.4887 113.5,59C 119.109,60.212 122.442,58.0453 123.5,52.5C 125.78,55.1456 126.113,58.1456 124.5,61.5C 123.883,61.3893 123.383,61.056 123,60.5C 122.653,62.1802 121.653,63.1802 120,63.5C 117.67,61.9599 115.17,60.7932 112.5,60C 111.137,58.0551 110.303,55.8884 110,53.5C 107.855,56.4321 108.355,58.9321 111.5,61C 109.232,61.0899 107.732,59.9232 107,57.5C 104.441,60.3492 101.274,61.1825 97.5,60C 100.032,59.3878 100.865,57.8878 100,55.5C 92.6311,58.5425 88.2977,55.8758 87,47.5C 86.4163,50.2567 86.7496,52.9234 88,55.5C 90.3088,57.1988 92.1422,59.1988 93.5,61.5C 93.9528,62.4584 94.6195,63.2917 95.5,64C 95.2716,64.3988 94.9382,64.5654 94.5,64.5C 90.4323,63.9333 87.2656,61.9333 85,58.5C 83.5921,54.9431 82.5921,51.2765 82,47.5C 80.6463,51.3628 80.1463,55.3628 80.5,59.5C 80.5106,61.0174 81.1772,62.1841 82.5,63C 79.975,63.8959 77.8083,63.3959 76,61.5C 75.3292,62.2524 74.4959,62.5858 73.5,62.5C 75.4449,58.394 75.9449,54.0607 75,49.5C 72.5601,52.6373 69.3935,54.6373 65.5,55.5C 65.9451,52.7165 65.9451,49.3832 65.5,45.5C 64.325,45.281 63.325,45.6143 62.5,46.5C 57.8,54.1088 59.9666,58.7755 69,60.5C 70.7398,59.2842 71.7398,57.6175 72,55.5C 72.7108,60.9317 70.5441,63.5984 65.5,63.5C 64.7492,62.624 64.2492,61.624 64,60.5C 62.9887,61.3366 61.8221,61.67 60.5,61.5C 58.9854,59.4966 58.3187,57.1632 58.5,54.5C 58.7092,50.8806 59.5425,47.5473 61,44.5C 58.6837,45.4958 56.3504,46.4958 54,47.5C 53.2352,47.4301 52.7352,47.0967 52.5,46.5C 55.1979,46.1551 57.1979,44.8218 58.5,42.5C 59.9311,42.1193 60.7645,41.1193 61,39.5C 61.9283,42.8215 64.0949,44.4881 67.5,44.5C 67.5,43.5 67.5,42.5 67.5,41.5C 69.7489,45.2522 73.0823,46.4188 77.5,45C 75.6711,44.7265 74.1711,43.8932 73,42.5C 72.3333,39.8333 72.3333,37.1667 73,34.5C 72.6659,39.6796 74.8326,41.6796 79.5,40.5C 76.3001,38.7041 75.8001,36.3707 78,33.5C 80.2194,36.3605 83.0527,38.3605 86.5,39.5C 87.217,44.0493 89.8837,46.2159 94.5,46C 96.3848,48.2224 98.5515,50.0557 101,51.5C 102.303,51.0217 103.469,50.355 104.5,49.5 Z"/></g>
<g><path style="opacity:1" fill="#f7c11e" d="M 89.5,46.5 C 91.1172,47.038 92.7839,47.3713 94.5,47.5C 94.3773,50.5879 95.3773,53.2546 97.5,55.5C 95.939,56.3473 94.439,56.0139 93,54.5C 91.0073,52.1825 89.8406,49.5158 89.5,46.5 Z"/></g>
<g><path style="opacity:1" fill="#f4c22f" d="M 73.5,62.5 C 71.7028,63.7298 69.7028,64.3964 67.5,64.5C 67.5,65.5 67.5,66.5 67.5,67.5C 65.9028,66.9095 64.5695,65.9095 63.5,64.5C 62.2638,65.2458 60.9305,65.5792 59.5,65.5C 59.5,66.8333 59.5,68.1667 59.5,69.5C 58.6618,69.1583 58.3284,68.4916 58.5,67.5C 58.719,66.325 58.3857,65.325 57.5,64.5C 55.8662,64.032 54.6995,63.032 54,61.5C 53.1993,58.633 53.3659,55.9664 54.5,53.5C 53.5064,58.5212 55.3398,61.8546 60,63.5C 61.6836,63.3166 61.8502,62.6499 60.5,61.5C 61.8221,61.67 62.9887,61.3366 64,60.5C 64.2492,61.624 64.7492,62.624 65.5,63.5C 70.5441,63.5984 72.7108,60.9317 72,55.5C 71.7398,57.6175 70.7398,59.2842 69,60.5C 59.9666,58.7755 57.8,54.1088 62.5,46.5C 63.325,45.6143 64.325,45.281 65.5,45.5C 65.9451,49.3832 65.9451,52.7165 65.5,55.5C 69.3935,54.6373 72.5601,52.6373 75,49.5C 75.9449,54.0607 75.4449,58.394 73.5,62.5 Z"/></g>
<g><path style="opacity:1" fill="#fbe48c" d="M 60.5,61.5 C 61.8502,62.6499 61.6836,63.3166 60,63.5C 55.3398,61.8546 53.5064,58.5212 54.5,53.5C 54.5,53.1667 54.5,52.8333 54.5,52.5C 55.4584,52.0472 56.2917,51.3805 57,50.5C 56.5783,53.0977 56.5783,55.7644 57,58.5C 57.4224,60.4257 58.5891,61.4257 60.5,61.5 Z"/></g>
<g><path style="opacity:1" fill="#edb71d" d="M 94.5,64.5 C 89.7322,66.6085 86.0656,65.2751 83.5,60.5C 82.675,59.6143 81.675,59.281 80.5,59.5C 80.1463,55.3628 80.6463,51.3628 82,47.5C 82.5921,51.2765 83.5921,54.9431 85,58.5C 87.2656,61.9333 90.4323,63.9333 94.5,64.5 Z"/></g>
<g><path style="opacity:0.031" fill="#9f5244" d="M 43.5,64.5 C 42.8333,63.1667 42.8333,63.1667 43.5,64.5 Z"/></g>
<g><path style="opacity:1" fill="#b8b7b6" d="M 107.5,62.5 C 112.033,63.5652 113.366,66.2319 111.5,70.5C 106.452,71.1608 106.452,72.4941 111.5,74.5C 110.757,75.1818 110.091,75.8485 109.5,76.5C 108.5,76.8333 107.833,77.5 107.5,78.5C 107.721,79.7348 108.388,80.7348 109.5,81.5C 104.68,93.0787 96.0138,97.5787 83.5,95C 77.4352,93.0737 72.9352,89.2404 70,83.5C 69.4209,82.0715 69.5876,80.7382 70.5,79.5C 70.6107,78.8826 70.944,78.3826 71.5,78C 69.9386,77.059 68.6053,75.8924 67.5,74.5C 69.1492,73.8524 70.4825,72.8524 71.5,71.5C 70.624,70.7492 69.624,70.2492 68.5,70C 68.8333,69.6667 69.1667,69.3333 69.5,69C 68.5842,68.7216 67.9175,68.2216 67.5,67.5C 69.1845,65.6516 71.3512,64.6516 74,64.5C 77.5284,65.6984 81.0284,65.6984 84.5,64.5C 86.6047,66.4684 89.1047,67.4684 92,67.5C 97.3684,66.4129 102.535,64.7462 107.5,62.5 Z"/></g>
<g><path style="opacity:0.118" fill="#d3826a" d="M 55.5,65.5 C 56.5,66.1667 57.5,66.8333 58.5,67.5C 58.3284,68.4916 58.6618,69.1583 59.5,69.5C 59.5,69.8333 59.5,70.1667 59.5,70.5C 57.1667,70.5 54.8333,70.5 52.5,70.5C 53.6085,69.71 54.9419,69.21 56.5,69C 53.4856,68.8724 50.4856,68.8724 47.5,69C 49.6156,66.8254 52.2822,65.6588 55.5,65.5 Z"/></g>
<g><path style="opacity:1" fill="#8d8372" d="M 80.5,59.5 C 81.675,59.281 82.675,59.6143 83.5,60.5C 86.0656,65.2751 89.7322,66.6085 94.5,64.5C 94.9382,64.5654 95.2716,64.3988 95.5,64C 94.6195,63.2917 93.9528,62.4584 93.5,61.5C 93.4346,61.0618 93.6012,60.7284 94,60.5C 97.7554,64.0161 101.755,64.3494 106,61.5C 106.765,61.5699 107.265,61.9033 107.5,62.5C 102.535,64.7462 97.3684,66.4129 92,67.5C 89.1047,67.4684 86.6047,66.4684 84.5,64.5C 81.0284,65.6984 77.5284,65.6984 74,64.5C 71.3512,64.6516 69.1845,65.6516 67.5,67.5C 67.5,66.5 67.5,65.5 67.5,64.5C 69.7028,64.3964 71.7028,63.7298 73.5,62.5C 74.4959,62.5858 75.3292,62.2524 76,61.5C 77.8083,63.3959 79.975,63.8959 82.5,63C 81.1772,62.1841 80.5106,61.0174 80.5,59.5 Z"/></g>
<g><path style="opacity:1" fill="#f1c340" d="M 124.5,61.5 C 123.156,63.1683 121.823,64.8349 120.5,66.5C 120.543,67.4164 120.876,68.0831 121.5,68.5C 121.158,69.3382 120.492,69.6716 119.5,69.5C 117.821,70.9997 116.488,72.833 115.5,75C 113.99,75.8498 112.49,76.6831 111,77.5C 110.235,77.4301 109.735,77.0967 109.5,76.5C 110.091,75.8485 110.757,75.1818 111.5,74.5C 106.452,72.4941 106.452,71.1608 111.5,70.5C 113.366,66.2319 112.033,63.5652 107.5,62.5C 107.265,61.9033 106.765,61.5699 106,61.5C 101.755,64.3494 97.7554,64.0161 94,60.5C 93.6012,60.7284 93.4346,61.0618 93.5,61.5C 92.1422,59.1988 90.3088,57.1988 88,55.5C 86.7496,52.9234 86.4163,50.2567 87,47.5C 88.2977,55.8758 92.6311,58.5425 100,55.5C 100.865,57.8878 100.032,59.3878 97.5,60C 101.274,61.1825 104.441,60.3492 107,57.5C 107.732,59.9232 109.232,61.0899 111.5,61C 108.355,58.9321 107.855,56.4321 110,53.5C 110.303,55.8884 111.137,58.0551 112.5,60C 115.17,60.7932 117.67,61.9599 120,63.5C 121.653,63.1802 122.653,62.1802 123,60.5C 123.383,61.056 123.883,61.3893 124.5,61.5 Z"/></g>
<g><path style="opacity:0.031" fill="#9f5244" d="M 34.5,72.5 C 35.8333,73.1667 35.8333,73.1667 34.5,72.5 Z"/></g>
<g><path style="opacity:1" fill="#e87970" d="M 59.5,71.5 C 60.8897,72.8993 61.8897,74.5659 62.5,76.5C 60.8493,78.1238 58.8493,79.4571 56.5,80.5C 55.8281,79.0508 55.1614,77.7175 54.5,76.5C 55.0781,73.6299 56.7448,71.9633 59.5,71.5 Z"/></g>
<g><path style="opacity:1" fill="#ddbc72" d="M 119.5,69.5 C 119.5,69.8333 119.5,70.1667 119.5,70.5C 118.647,74.0204 116.647,76.6871 113.5,78.5C 111.5,79.8333 109.5,79.8333 107.5,78.5C 107.833,77.5 108.5,76.8333 109.5,76.5C 109.735,77.0967 110.235,77.4301 111,77.5C 112.49,76.6831 113.99,75.8498 115.5,75C 116.488,72.833 117.821,70.9997 119.5,69.5 Z"/></g>
<g><path style="opacity:1" fill="#f2ca57" d="M 67.5,67.5 C 67.9175,68.2216 68.5842,68.7216 69.5,69C 69.1667,69.3333 68.8333,69.6667 68.5,70C 69.624,70.2492 70.624,70.7492 71.5,71.5C 70.4825,72.8524 69.1492,73.8524 67.5,74.5C 68.6053,75.8924 69.9386,77.059 71.5,78C 70.944,78.3826 70.6107,78.8826 70.5,79.5C 68.7085,79.634 67.0418,79.3007 65.5,78.5C 64.7095,77.5987 63.7095,76.9321 62.5,76.5C 61.8897,74.5659 60.8897,72.8993 59.5,71.5C 59.5,71.1667 59.5,70.8333 59.5,70.5C 59.5,70.1667 59.5,69.8333 59.5,69.5C 59.5,68.1667 59.5,66.8333 59.5,65.5C 60.9305,65.5792 62.2638,65.2458 63.5,64.5C 64.5695,65.9095 65.9028,66.9095 67.5,67.5 Z"/></g>
<g><path style="opacity:1" fill="#e2bfb9" d="M 130.5,72.5 C 131.791,72.2627 132.791,72.596 133.5,73.5C 133.062,73.4346 132.728,73.6012 132.5,74C 135.439,79.9221 133.439,82.4221 126.5,81.5C 125.542,80.0384 124.376,78.7051 123,77.5C 122.506,75.8659 122.34,74.1992 122.5,72.5C 125.109,72.8301 126.776,74.3301 127.5,77C 128.448,77.4828 129.448,77.6495 130.5,77.5C 130.5,75.8333 130.5,74.1667 130.5,72.5 Z"/></g>
<g><path style="opacity:1" fill="#f2ece5" d="M 133.5,73.5 C 139.942,76.3981 145.275,80.7314 149.5,86.5C 150.594,88.6121 151.594,90.7787 152.5,93C 151.833,93.6667 151.167,94.3333 150.5,95C 146.663,95.7613 142.996,95.2613 139.5,93.5C 137.833,93.8333 136.833,94.8333 136.5,96.5C 134.955,97.4519 133.288,97.7852 131.5,97.5C 131.785,94.1709 131.118,91.1709 129.5,88.5C 128.773,86.0462 127.773,83.7128 126.5,81.5C 133.439,82.4221 135.439,79.9221 132.5,74C 132.728,73.6012 133.062,73.4346 133.5,73.5 Z"/></g>
<g><path style="opacity:1" fill="#e77f79" d="M 52.5,80.5 C 53.4412,82.4664 54.4412,84.4664 55.5,86.5C 52.5773,87.4476 49.9107,88.7809 47.5,90.5C 46.1448,87.1112 46.8114,83.9445 49.5,81C 50.448,80.5172 51.448,80.3505 52.5,80.5 Z"/></g>
<g><path style="opacity:1" fill="#dcb2ad" d="M 119.5,70.5 C 120.492,70.3284 121.158,70.6618 121.5,71.5C 119.257,73.8376 118.924,76.5043 120.5,79.5C 119.069,79.1193 118.236,78.1193 118,76.5C 115.735,77.9158 114.569,79.9158 114.5,82.5C 115.822,82.67 116.989,82.3366 118,81.5C 118.167,82 118.333,82.5 118.5,83C 117.008,84.885 115.008,85.885 112.5,86C 113.252,86.6708 113.586,87.5041 113.5,88.5C 112.12,88.0377 111.453,87.0377 111.5,85.5C 112.467,83.2383 113.134,80.905 113.5,78.5C 116.647,76.6871 118.647,74.0204 119.5,70.5 Z"/></g>
<g><path style="opacity:1" fill="#ece2dd" d="M 120.5,79.5 C 123.294,81.8193 125.128,84.8193 126,88.5C 126.564,93.1935 126.397,97.8602 125.5,102.5C 124.135,104.86 122.135,106.527 119.5,107.5C 119.091,100.61 117.091,94.2768 113.5,88.5C 113.586,87.5041 113.252,86.6708 112.5,86C 115.008,85.885 117.008,84.885 118.5,83C 118.333,82.5 118.167,82 118,81.5C 116.989,82.3366 115.822,82.67 114.5,82.5C 114.569,79.9158 115.735,77.9158 118,76.5C 118.236,78.1193 119.069,79.1193 120.5,79.5 Z"/></g>
<g><path style="opacity:1" fill="#eebe1e" d="M 130.5,72.5 C 130.5,74.1667 130.5,75.8333 130.5,77.5C 129.448,77.6495 128.448,77.4828 127.5,77C 126.776,74.3301 125.109,72.8301 122.5,72.5C 122.34,74.1992 122.506,75.8659 123,77.5C 124.376,78.7051 125.542,80.0384 126.5,81.5C 127.773,83.7128 128.773,86.0462 129.5,88.5C 129.666,92.5138 129.499,96.5138 129,100.5C 128.163,102.844 126.829,104.844 125,106.5C 124.805,105.181 124.972,103.847 125.5,102.5C 126.397,97.8602 126.564,93.1935 126,88.5C 125.128,84.8193 123.294,81.8193 120.5,79.5C 118.924,76.5043 119.257,73.8376 121.5,71.5C 124.786,68.7327 127.786,69.0661 130.5,72.5 Z"/></g>
<g><path style="opacity:1" fill="#797979" d="M 114.5,135.5 C 113.833,135.5 113.167,135.5 112.5,135.5C 115.298,124.112 115.131,112.778 112,101.5C 110.972,99.6385 109.472,98.3052 107.5,97.5C 98.8759,101.255 89.8759,102.422 80.5,101C 78.2537,99.9605 76.087,98.7938 74,97.5C 73.6012,97.7284 73.4346,98.0618 73.5,98.5C 71.9605,96.1617 71.2938,93.4951 71.5,90.5C 85.1694,100.584 98.0027,99.5835 110,87.5C 113.972,92.1113 116.305,97.4446 117,103.5C 118.143,114.356 117.309,125.022 114.5,135.5 Z"/></g>
<g><path style="opacity:1" fill="#cc8224" d="M 62.5,83.5 C 62.6036,85.7028 63.2702,87.7028 64.5,89.5C 63.8333,91.1667 63.1667,92.8333 62.5,94.5C 61.7784,94.0825 61.2784,93.4158 61,92.5C 60.6667,93.5 60.3333,94.5 60,95.5C 58.2725,92.361 57.1058,89.0277 56.5,85.5C 56.8457,84.3044 57.3457,84.3044 58,85.5C 59.1579,92.4538 60.3245,92.7871 61.5,86.5C 61.1132,84.7257 60.4465,83.059 59.5,81.5C 59.8333,81.1667 60.1667,80.8333 60.5,80.5C 61.1757,81.6016 61.8423,82.6016 62.5,83.5 Z"/></g>
<g><path style="opacity:1" fill="#e3a11e" d="M 129.5,88.5 C 131.118,91.1709 131.785,94.1709 131.5,97.5C 131.5,98.5 131.5,99.5 131.5,100.5C 130.54,104.054 128.374,106.721 125,108.5C 124.616,110.197 124.782,111.863 125.5,113.5C 125.736,116.609 125.403,119.609 124.5,122.5C 122.975,124.216 121.975,126.216 121.5,128.5C 120.167,128.833 118.833,129.167 117.5,129.5C 118.054,126.254 119.054,123.254 120.5,120.5C 120.343,121.873 120.51,123.207 121,124.5C 124.982,119.652 125.315,114.652 122,109.5C 121.536,110.094 121.369,110.761 121.5,111.5C 120.326,110.486 119.66,109.153 119.5,107.5C 122.135,106.527 124.135,104.86 125.5,102.5C 124.972,103.847 124.805,105.181 125,106.5C 126.829,104.844 128.163,102.844 129,100.5C 129.499,96.5138 129.666,92.5138 129.5,88.5 Z"/></g>
<g><path style="opacity:1" fill="#b7b6b6" d="M 65.5,92.5 C 66.4511,93.9187 66.7845,95.5853 66.5,97.5C 69.8384,107.503 74.505,116.836 80.5,125.5C 81.7502,127.932 83.2502,130.266 85,132.5C 89.6743,136.343 94.1743,140.343 98.5,144.5C 89.2213,146.319 80.2213,145.486 71.5,142C 66.7741,138.023 63.4408,133.189 61.5,127.5C 60.6895,119.845 60.5229,112.178 61,104.5C 61.838,100.14 63.338,96.1402 65.5,92.5 Z"/></g>
<g><path style="opacity:1" fill="#5e5655" d="M 65.5,78.5 C 67.0418,79.3007 68.7085,79.634 70.5,79.5C 69.5876,80.7382 69.4209,82.0715 70,83.5C 72.9352,89.2404 77.4352,93.0737 83.5,95C 96.0138,97.5787 104.68,93.0787 109.5,81.5C 108.388,80.7348 107.721,79.7348 107.5,78.5C 109.5,79.8333 111.5,79.8333 113.5,78.5C 113.134,80.905 112.467,83.2383 111.5,85.5C 111.453,87.0377 112.12,88.0377 113.5,88.5C 117.091,94.2768 119.091,100.61 119.5,107.5C 119.66,109.153 120.326,110.486 121.5,111.5C 121.736,114.609 121.403,117.609 120.5,120.5C 119.054,123.254 118.054,126.254 117.5,129.5C 117.608,131.514 116.942,133.18 115.5,134.5C 115.5,134.833 115.5,135.167 115.5,135.5C 115.167,135.5 114.833,135.5 114.5,135.5C 117.309,125.022 118.143,114.356 117,103.5C 116.305,97.4446 113.972,92.1113 110,87.5C 98.0027,99.5835 85.1694,100.584 71.5,90.5C 69.5756,88.305 67.9089,85.9717 66.5,83.5C 65.6993,81.9582 65.366,80.2915 65.5,78.5 Z"/></g>
<g><path style="opacity:1" fill="#dfafac" d="M 50.5,97.5 C 50.5,98.5 50.5,99.5 50.5,100.5C 45.6518,101.24 41.9851,99.5734 39.5,95.5C 35.3124,98.1425 30.9791,98.6425 26.5,97C 25.4464,95.6124 25.2797,94.1124 26,92.5C 26.9425,94.9544 28.7759,95.9544 31.5,95.5C 34.6468,95.0394 37.6468,94.0394 40.5,92.5C 41.3567,93.7357 42.0234,95.069 42.5,96.5C 45.0865,97.48 47.7531,97.8134 50.5,97.5 Z"/></g>
<g><path style="opacity:1" fill="#e0b3b0" d="M 149.5,86.5 C 151.452,87.7847 153.118,89.4514 154.5,91.5C 154.139,97.0331 151.139,99.1997 145.5,98C 143.385,97.4427 141.385,96.6094 139.5,95.5C 137.816,98.6783 135.149,100.345 131.5,100.5C 131.5,99.5 131.5,98.5 131.5,97.5C 133.288,97.7852 134.955,97.4519 136.5,96.5C 136.833,94.8333 137.833,93.8333 139.5,93.5C 142.996,95.2613 146.663,95.7613 150.5,95C 151.167,94.3333 151.833,93.6667 152.5,93C 151.594,90.7787 150.594,88.6121 149.5,86.5 Z"/></g>
<g><path style="opacity:1" fill="#f3eee7" d="M 52.5,70.5 C 54.8333,70.5 57.1667,70.5 59.5,70.5C 59.5,70.8333 59.5,71.1667 59.5,71.5C 56.7448,71.9633 55.0781,73.6299 54.5,76.5C 53.3263,77.5137 52.6596,78.847 52.5,80.5C 51.448,80.3505 50.448,80.5172 49.5,81C 46.8114,83.9445 46.1448,87.1112 47.5,90.5C 48.5676,91.4345 49.901,91.7678 51.5,91.5C 51.2865,93.1439 51.6198,94.6439 52.5,96C 51.9558,96.7172 51.2891,97.2172 50.5,97.5C 47.7531,97.8134 45.0865,97.48 42.5,96.5C 42.0234,95.069 41.3567,93.7357 40.5,92.5C 37.6468,94.0394 34.6468,95.0394 31.5,95.5C 28.7759,95.9544 26.9425,94.9544 26,92.5C 25.2797,94.1124 25.4464,95.6124 26.5,97C 30.9791,98.6425 35.3124,98.1425 39.5,95.5C 41.9851,99.5734 45.6518,101.24 50.5,100.5C 54.4665,104.764 57.1332,109.764 58.5,115.5C 58.67,116.822 58.3366,117.989 57.5,119C 54.341,120.561 51.1743,120.728 48,119.5C 47.9079,112.951 45.5745,111.951 41,116.5C 38.5661,117.322 36.0661,117.656 33.5,117.5C 31.3428,113.04 30.3428,108.373 30.5,103.5C 26.6029,105.866 22.4362,107.533 18,108.5C 16.3009,108.613 15.1342,107.947 14.5,106.5C 18.2915,99.0885 22.9582,92.2551 28.5,86C 33.5434,81.2879 38.8767,76.9546 44.5,73C 47.022,71.6591 49.6887,70.8257 52.5,70.5 Z"/></g>
<g><path style="opacity:1" fill="#c34135" d="M 54.5,76.5 C 55.1614,77.7175 55.8281,79.0508 56.5,80.5C 58.8493,79.4571 60.8493,78.1238 62.5,76.5C 63.7095,76.9321 64.7095,77.5987 65.5,78.5C 65.366,80.2915 65.6993,81.9582 66.5,83.5C 66.6495,84.552 66.4828,85.552 66,86.5C 65.5776,84.5743 64.4109,83.5743 62.5,83.5C 61.8423,82.6016 61.1757,81.6016 60.5,80.5C 60.1667,80.8333 59.8333,81.1667 59.5,81.5C 60.4465,83.059 61.1132,84.7257 61.5,86.5C 60.3245,92.7871 59.1579,92.4538 58,85.5C 57.3457,84.3044 56.8457,84.3044 56.5,85.5C 57.1058,89.0277 58.2725,92.361 60,95.5C 60.3333,94.5 60.6667,93.5 61,92.5C 61.2784,93.4158 61.7784,94.0825 62.5,94.5C 60.0187,101.246 59.0187,108.246 59.5,115.5C 59.1667,115.5 58.8333,115.5 58.5,115.5C 57.1332,109.764 54.4665,104.764 50.5,100.5C 50.5,99.5 50.5,98.5 50.5,97.5C 51.2891,97.2172 51.9558,96.7172 52.5,96C 51.6198,94.6439 51.2865,93.1439 51.5,91.5C 49.901,91.7678 48.5676,91.4345 47.5,90.5C 49.9107,88.7809 52.5773,87.4476 55.5,86.5C 54.4412,84.4664 53.4412,82.4664 52.5,80.5C 52.6596,78.847 53.3263,77.5137 54.5,76.5 Z"/></g>
<g><path style="opacity:1" fill="#ce8411" d="M 52.5,89.5 C 54.8183,91.6248 55.6516,94.2914 55,97.5C 53.6591,94.978 52.8257,92.3113 52.5,89.5 Z"/></g>
<g><path style="opacity:1" fill="#f4f2ea" d="M 154.5,91.5 C 158.281,95.6243 161.281,100.291 163.5,105.5C 163.5,106.5 163.5,107.5 163.5,108.5C 158.558,108.187 153.891,106.853 149.5,104.5C 148.534,106.396 148.201,108.396 148.5,110.5C 147.5,110.5 146.5,110.5 145.5,110.5C 146.921,116.113 144.921,118.28 139.5,117C 137.336,116.086 135.336,114.919 133.5,113.5C 131.717,115.023 131.051,117.023 131.5,119.5C 130.07,119.421 128.736,119.754 127.5,120.5C 126.832,118.031 126.165,115.698 125.5,113.5C 124.782,111.863 124.616,110.197 125,108.5C 128.374,106.721 130.54,104.054 131.5,100.5C 135.149,100.345 137.816,98.6783 139.5,95.5C 141.385,96.6094 143.385,97.4427 145.5,98C 151.139,99.1997 154.139,97.0331 154.5,91.5 Z"/></g>
<g><path style="opacity:1" fill="#b9b8b8" d="M 112.5,135.5 C 110.219,135.077 108.552,135.744 107.5,137.5C 106.833,138.167 106.167,138.833 105.5,139.5C 90.2904,129.431 79.6237,115.765 73.5,98.5C 73.4346,98.0618 73.6012,97.7284 74,97.5C 76.087,98.7938 78.2537,99.9605 80.5,101C 89.8759,102.422 98.8759,101.255 107.5,97.5C 109.472,98.3052 110.972,99.6385 112,101.5C 115.131,112.778 115.298,124.112 112.5,135.5 Z"/></g>
<g><path style="opacity:0.937" fill="#8a5548" d="M 121.5,128.5 C 121.975,126.216 122.975,124.216 124.5,122.5C 127.518,122.665 130.518,122.498 133.5,122C 134.781,120.591 135.781,119.091 136.5,117.5C 140.77,124.506 146.436,126.506 153.5,123.5C 153.729,118.995 153.063,114.661 151.5,110.5C 153.681,110.284 155.347,111.117 156.5,113C 159.485,113.868 162.485,114.201 165.5,114C 167.056,110.608 166.389,107.775 163.5,105.5C 161.281,100.291 158.281,95.6243 154.5,91.5C 153.118,89.4514 151.452,87.7847 149.5,86.5C 145.275,80.7314 139.942,76.3981 133.5,73.5C 132.791,72.596 131.791,72.2627 130.5,72.5C 127.786,69.0661 124.786,68.7327 121.5,71.5C 121.158,70.6618 120.492,70.3284 119.5,70.5C 119.5,70.1667 119.5,69.8333 119.5,69.5C 120.492,69.6716 121.158,69.3382 121.5,68.5C 124.117,67.621 126.784,67.7876 129.5,69C 148.121,78.2849 161.121,92.6182 168.5,112C 166.9,116.801 163.567,118.467 158.5,117C 157.584,116.626 156.75,116.126 156,115.5C 157.207,125.636 153.04,129.136 143.5,126C 141.015,124.513 138.848,122.679 137,120.5C 136.535,121.931 135.701,123.097 134.5,124C 129.362,123.705 125.028,125.205 121.5,128.5 Z"/></g>
<g><path style="opacity:0.733" fill="#8c5246" d="M 51.5,60.5 C 52.593,62.3492 53.9263,64.0158 55.5,65.5C 52.2822,65.6588 49.6156,66.8254 47.5,69C 50.4856,68.8724 53.4856,68.8724 56.5,69C 54.9419,69.21 53.6085,69.71 52.5,70.5C 49.6887,70.8257 47.022,71.6591 44.5,73C 38.8767,76.9546 33.5434,81.2879 28.5,86C 22.9582,92.2551 18.2915,99.0885 14.5,106.5C 12.3686,108.849 12.0353,111.516 13.5,114.5C 17.7551,115.758 21.7551,115.091 25.5,112.5C 25.6186,116.048 25.7853,119.715 26,123.5C 26.8388,124.624 28.0055,125.291 29.5,125.5C 34.6179,124.108 38.9512,121.441 42.5,117.5C 43.438,121.335 45.938,123.002 50,122.5C 53.671,122.891 56.8377,121.891 59.5,119.5C 59.5,120.5 59.5,121.5 59.5,122.5C 54.629,124.208 49.629,124.708 44.5,124C 43.2986,123.097 42.4652,121.931 42,120.5C 38.6534,124.357 34.4867,126.69 29.5,127.5C 27.0884,127.594 25.255,126.594 24,124.5C 23.6667,121.5 23.3333,118.5 23,115.5C 10.19,118.655 7.18999,114.322 14,102.5C 19.1397,93.9122 25.473,86.2455 33,79.5C 34.9414,74.9939 37.608,70.9939 41,67.5C 42.6665,68.3402 42.8331,67.8402 41.5,66C 42.4158,65.7216 43.0825,65.2216 43.5,64.5C 45.4085,64.1166 46.9085,63.1166 48,61.5C 48.9745,63.8776 49.6411,63.5443 50,60.5C 50.69,61.7383 51.19,61.7383 51.5,60.5 Z"/></g>
<g><path style="opacity:1" fill="#e7d4d3" d="M 163.5,105.5 C 166.389,107.775 167.056,110.608 165.5,114C 162.485,114.201 159.485,113.868 156.5,113C 155.347,111.117 153.681,110.284 151.5,110.5C 153.063,114.661 153.729,118.995 153.5,123.5C 151.143,123.663 148.81,123.497 146.5,123C 143.273,120.888 139.94,119.055 136.5,117.5C 135.781,119.091 134.781,120.591 133.5,122C 130.518,122.498 127.518,122.665 124.5,122.5C 125.403,119.609 125.736,116.609 125.5,113.5C 126.165,115.698 126.832,118.031 127.5,120.5C 128.736,119.754 130.07,119.421 131.5,119.5C 131.051,117.023 131.717,115.023 133.5,113.5C 135.336,114.919 137.336,116.086 139.5,117C 144.921,118.28 146.921,116.113 145.5,110.5C 146.5,110.5 147.5,110.5 148.5,110.5C 148.201,108.396 148.534,106.396 149.5,104.5C 153.891,106.853 158.558,108.187 163.5,108.5C 163.5,107.5 163.5,106.5 163.5,105.5 Z"/></g>
<g><path style="opacity:1" fill="#e4cac8" d="M 58.5,115.5 C 58.8333,115.5 59.1667,115.5 59.5,115.5C 59.5,116.833 59.5,118.167 59.5,119.5C 56.8377,121.891 53.671,122.891 50,122.5C 45.938,123.002 43.438,121.335 42.5,117.5C 38.9512,121.441 34.6179,124.108 29.5,125.5C 28.0055,125.291 26.8388,124.624 26,123.5C 25.7853,119.715 25.6186,116.048 25.5,112.5C 21.7551,115.091 17.7551,115.758 13.5,114.5C 12.0353,111.516 12.3686,108.849 14.5,106.5C 15.1342,107.947 16.3009,108.613 18,108.5C 22.4362,107.533 26.6029,105.866 30.5,103.5C 30.3428,108.373 31.3428,113.04 33.5,117.5C 36.0661,117.656 38.5661,117.322 41,116.5C 45.5745,111.951 47.9079,112.951 48,119.5C 51.1743,120.728 54.341,120.561 57.5,119C 58.3366,117.989 58.67,116.822 58.5,115.5 Z"/></g>
<g><path style="opacity:1" fill="#f6c904" d="M 120.5,120.5 C 121.403,117.609 121.736,114.609 121.5,111.5C 121.369,110.761 121.536,110.094 122,109.5C 125.315,114.652 124.982,119.652 121,124.5C 120.51,123.207 120.343,121.873 120.5,120.5 Z"/></g>
<g><path style="opacity:1" fill="#4e4444" d="M 64.5,89.5 C 65.404,90.209 65.7373,91.209 65.5,92.5C 63.338,96.1402 61.838,100.14 61,104.5C 60.5229,112.178 60.6895,119.845 61.5,127.5C 61.1667,127.5 60.8333,127.5 60.5,127.5C 59.5489,126.081 59.2155,124.415 59.5,122.5C 59.5,121.5 59.5,120.5 59.5,119.5C 59.5,118.167 59.5,116.833 59.5,115.5C 59.0187,108.246 60.0187,101.246 62.5,94.5C 63.1667,92.8333 63.8333,91.1667 64.5,89.5 Z"/></g>
<g><path style="opacity:1" fill="#a63129" d="M 62.5,83.5 C 64.4109,83.5743 65.5776,84.5743 66,86.5C 66.4828,85.552 66.6495,84.552 66.5,83.5C 67.9089,85.9717 69.5756,88.305 71.5,90.5C 71.2938,93.4951 71.9605,96.1617 73.5,98.5C 79.6237,115.765 90.2904,129.431 105.5,139.5C 105.672,140.492 105.338,141.158 104.5,141.5C 90.5599,131.723 80.0599,119.056 73,103.5C 71.8551,100.568 71.0218,97.5682 70.5,94.5C 69.5,94.5 68.5,94.5 67.5,94.5C 67.7373,95.791 67.404,96.791 66.5,97.5C 66.7845,95.5853 66.4511,93.9187 65.5,92.5C 65.7373,91.209 65.404,90.209 64.5,89.5C 63.2702,87.7028 62.6036,85.7028 62.5,83.5 Z"/></g>
<g><path style="opacity:1" fill="#d59b94" d="M 136.5,117.5 C 139.94,119.055 143.273,120.888 146.5,123C 148.81,123.497 151.143,123.663 153.5,123.5C 146.436,126.506 140.77,124.506 136.5,117.5 Z"/></g>
<g><path style="opacity:1" fill="#d06761" d="M 104.5,141.5 C 106.052,148.21 110.052,150.21 116.5,147.5C 119.121,143.296 118.788,139.296 115.5,135.5C 115.5,135.167 115.5,134.833 115.5,134.5C 118.652,138.076 122.652,140.076 127.5,140.5C 127.335,145.985 124.668,149.318 119.5,150.5C 119.473,152.199 118.806,153.533 117.5,154.5C 115.606,155.048 113.94,156.048 112.5,157.5C 110.257,158.474 107.924,158.808 105.5,158.5C 105.7,155.235 104.2,153.235 101,152.5C 92.3325,156.892 83.1658,158.892 73.5,158.5C 69.5876,158.376 65.9209,157.376 62.5,155.5C 62.8039,154.85 63.1373,154.183 63.5,153.5C 61.7971,152.11 61.1304,150.61 61.5,149C 66.8627,148.441 72.196,148.108 77.5,148C 73.5796,149.313 69.5796,150.313 65.5,151C 71.6718,151.893 77.6718,151.227 83.5,149C 82.5842,148.722 81.9175,148.222 81.5,147.5C 89.0517,148.127 96.3851,147.294 103.5,145C 95.0801,139.415 87.4134,132.915 80.5,125.5C 74.505,116.836 69.8384,107.503 66.5,97.5C 67.404,96.791 67.7373,95.791 67.5,94.5C 68.5,94.5 69.5,94.5 70.5,94.5C 71.0218,97.5682 71.8551,100.568 73,103.5C 80.0599,119.056 90.5599,131.723 104.5,141.5 Z"/></g>
<g><path style="opacity:1" fill="#6a5d5b" d="M 80.5,125.5 C 87.4134,132.915 95.0801,139.415 103.5,145C 96.3851,147.294 89.0517,148.127 81.5,147.5C 73.4201,146.12 67.4201,141.786 63.5,134.5C 62.4336,132.299 61.767,129.965 61.5,127.5C 63.4408,133.189 66.7741,138.023 71.5,142C 80.2213,145.486 89.2213,146.319 98.5,144.5C 94.1743,140.343 89.6743,136.343 85,132.5C 83.2502,130.266 81.7502,127.932 80.5,125.5 Z"/></g>
<g><path style="opacity:0.443" fill="#7b463d" d="M 60.5,127.5 C 60.8333,127.5 61.1667,127.5 61.5,127.5C 61.767,129.965 62.4336,132.299 63.5,134.5C 59.7052,136.273 58.7052,139.106 60.5,143C 59.4844,143.519 58.8178,144.353 58.5,145.5C 58.7268,149.417 60.0601,152.751 62.5,155.5C 65.5499,159.362 69.5499,161.695 74.5,162.5C 75.9187,163.451 77.5853,163.784 79.5,163.5C 86.091,166.156 92.7577,166.156 99.5,163.5C 106.915,163.126 112.915,160.126 117.5,154.5C 118.806,153.533 119.473,152.199 119.5,150.5C 124.668,149.318 127.335,145.985 127.5,140.5C 122.652,140.076 118.652,138.076 115.5,134.5C 116.942,133.18 117.608,131.514 117.5,129.5C 118.833,129.167 120.167,128.833 121.5,128.5C 117.596,131.24 117.596,134.073 121.5,137C 123.778,137.986 126.111,138.82 128.5,139.5C 130.149,145.844 127.815,150.177 121.5,152.5C 119.305,156.862 115.972,160.028 111.5,162C 93.708,170.478 76.8746,168.978 61,157.5C 54.942,148.9 55.1087,140.4 61.5,132C 60.6198,130.644 60.2865,129.144 60.5,127.5 Z"/></g>
<g><path style="opacity:1" fill="#ede6e4" d="M 62.5,155.5 C 65.9209,157.376 69.5876,158.376 73.5,158.5C 75.0423,159.141 76.3757,160.141 77.5,161.5C 76.675,162.386 75.675,162.719 74.5,162.5C 69.5499,161.695 65.5499,159.362 62.5,155.5 Z"/></g>
<g><path style="opacity:1" fill="#ece6e4" d="M 99.5,163.5 C 92.7577,166.156 86.091,166.156 79.5,163.5C 79.67,162.178 79.3366,161.011 78.5,160C 86.373,158.948 94.0397,157.115 101.5,154.5C 101.127,157.574 100.461,160.574 99.5,163.5 Z"/></g>
<g><path style="opacity:1" fill="#dc7772" d="M 63.5,134.5 C 67.4201,141.786 73.4201,146.12 81.5,147.5C 81.9175,148.222 82.5842,148.722 83.5,149C 77.6718,151.227 71.6718,151.893 65.5,151C 69.5796,150.313 73.5796,149.313 77.5,148C 72.196,148.108 66.8627,148.441 61.5,149C 61.1304,150.61 61.7971,152.11 63.5,153.5C 63.1373,154.183 62.8039,154.85 62.5,155.5C 60.0601,152.751 58.7268,149.417 58.5,145.5C 58.8178,144.353 59.4844,143.519 60.5,143C 58.7052,139.106 59.7052,136.273 63.5,134.5 Z"/></g>
<g><path style="opacity:1" fill="#cfa238" d="M 112.5,135.5 C 113.167,135.5 113.833,135.5 114.5,135.5C 114.833,135.5 115.167,135.5 115.5,135.5C 118.788,139.296 119.121,143.296 116.5,147.5C 110.052,150.21 106.052,148.21 104.5,141.5C 105.338,141.158 105.672,140.492 105.5,139.5C 106.167,138.833 106.833,138.167 107.5,137.5C 108.552,135.744 110.219,135.077 112.5,135.5 Z"/></g>
<g><path style="opacity:1" fill="#7ab1d3" d="M 107.5,137.5 C 112.087,136.622 115.42,138.122 117.5,142C 115.769,145.934 112.769,147.268 108.5,146C 106.195,143.406 105.862,140.573 107.5,137.5 Z"/></g>
<g><path style="opacity:1" fill="#d3a7a3" d="M 117.5,154.5 C 112.915,160.126 106.915,163.126 99.5,163.5C 100.461,160.574 101.127,157.574 101.5,154.5C 94.0397,157.115 86.373,158.948 78.5,160C 79.3366,161.011 79.67,162.178 79.5,163.5C 77.5853,163.784 75.9187,163.451 74.5,162.5C 75.675,162.719 76.675,162.386 77.5,161.5C 76.3757,160.141 75.0423,159.141 73.5,158.5C 83.1658,158.892 92.3325,156.892 101,152.5C 104.2,153.235 105.7,155.235 105.5,158.5C 107.924,158.808 110.257,158.474 112.5,157.5C 113.94,156.048 115.606,155.048 117.5,154.5 Z"/></g>
</svg>
