<svg width="347" height="400" viewBox="0 0 347 400" fill="none" xmlns="http://www.w3.org/2000/svg">
<g clip-path="url(#clip0_43_199)">
<path d="M324.631 287.351L324.753 87.2612L313.376 80.6926C313.223 80.7804 309.59 83.7345 306.83 86.5302C304.59 88.8004 302.55 90.8679 302.433 90.9512C299.811 92.8294 298.871 94.4857 297.931 96.1417C296.99 97.7994 296.048 99.459 293.42 101.34C290.165 103.67 287.897 106.65 285.63 109.63C285.109 110.315 284.587 111.001 284.053 111.679C277.673 119.804 278.606 129.445 279.554 139.221C280.127 145.124 280.704 151.078 279.677 156.779C279.288 158.93 278.669 161.059 278.05 163.185C277.239 165.976 276.428 168.764 276.141 171.591C275.778 175.36 276.358 179.107 276.939 182.864C277.437 186.079 277.937 189.299 277.846 192.546C277.672 197.514 276.078 202.407 274.493 207.273C272.319 213.949 270.161 220.572 271.713 227.264C272.268 229.648 273.277 231.94 274.287 234.235L274.293 234.251C274.829 235.47 275.366 236.689 275.834 237.922C277.431 242.606 271.022 243.288 268.212 246.947C263.821 252.665 264.941 259.932 260.244 264.923C255.831 269.615 250.313 269.744 246.526 273.289C239.977 279.422 236.984 276.438 230.211 283.972C226.79 287.777 223.349 291.604 219.134 294.238C216.367 295.94 213.329 297.118 210.296 298.294C206.752 299.669 203.216 301.04 200.134 303.239C198.382 304.503 196.8 306.019 195.259 307.594C194.772 308.091 194.291 308.593 193.809 309.096C192.277 310.694 190.742 312.296 189.075 313.708C184.65 317.448 179.206 319.924 173.807 322.38C164.867 326.447 156.051 330.46 152.204 340.047C151.885 340.848 151.551 341.644 151.219 342.437C149.772 345.891 148.324 349.345 147.934 353.328C147.619 356.545 146.653 358.191 145.688 359.835C144.724 361.477 143.759 363.119 143.444 366.329C143.436 366.417 143.139 367.519 142.712 369.075L141.814 372.347C140.772 376.135 140.03 380.758 140.031 380.935L151.408 387.503L324.631 287.351Z" fill="#57AFD6"/>
<path d="M324.784 112.719L151.562 12.5686L140.185 19.1372C140.184 19.3133 140.926 23.9369 141.967 27.7243C142.814 30.7992 143.584 33.5996 143.598 33.743C143.913 36.9527 144.878 38.5948 145.842 40.2371C146.807 41.8812 147.773 43.5266 148.088 46.7434C148.478 50.7265 149.925 54.1805 151.373 57.6345C151.705 58.4281 152.038 59.2234 152.358 60.0243C156.205 69.6122 165.021 73.6245 173.961 77.6914C179.359 80.1474 184.804 82.6242 189.229 86.3641C190.896 87.7761 192.431 89.3776 193.963 90.9762C195.974 93.0739 197.983 95.1704 200.288 96.8327C203.37 99.0315 206.906 100.402 210.45 101.778C213.483 102.954 216.521 104.131 219.288 105.834C223.503 108.467 226.944 112.295 230.365 116.1C235.059 121.322 239.717 126.501 246.288 128.503C248.63 129.215 251.119 129.487 253.612 129.76L253.629 129.763C254.952 129.908 256.276 130.053 257.578 130.264C262.433 131.222 259.819 137.114 261.583 141.377C264.34 148.039 271.193 150.702 273.168 157.265C275.024 163.433 272.376 168.277 273.553 173.329C275.59 182.067 271.51 183.167 274.647 192.799C276.232 197.664 277.826 202.558 278 207.526C278.09 210.773 277.591 213.993 277.093 217.208C276.512 220.964 275.931 224.712 276.295 228.48C276.513 230.63 277.035 232.758 277.628 234.88C277.816 235.55 278.01 236.218 278.204 236.886C278.823 239.012 279.442 241.142 279.831 243.292C280.858 248.994 280.28 254.948 279.708 260.851C278.76 270.627 277.827 280.268 284.207 288.393C284.741 289.07 285.263 289.757 285.784 290.441C288.051 293.422 290.319 296.402 293.573 298.731C296.202 300.613 297.143 302.272 298.085 303.93C299.025 305.586 299.965 307.242 302.587 309.12C302.659 309.171 303.465 309.98 304.6 311.127L306.984 313.541C309.743 316.337 313.377 319.291 313.529 319.379L324.906 312.81L324.784 112.719Z" fill="#57AFD6"/>
<path d="M334.4 107.169L161.184 7.01587L147.948 14.6577C148.495 15.6049 149.12 16.0415 149.664 16.3298C150.171 16.5987 150.676 16.8663 151.182 17.6657L151.203 17.6988C152.249 19.3524 153.295 21.006 153.309 21.1939C153.624 24.3973 154.251 25.9859 154.878 27.5726C155.507 29.1629 156.134 30.7534 156.449 33.9638C156.92 38.8544 157.449 43.8239 159.129 48.0838C162.976 57.6736 171.792 61.6839 180.733 65.7526C186.131 68.2085 191.575 70.6856 195.999 74.4238C197.661 75.8322 199.191 77.4274 200.717 79.0183L200.734 79.0357C202.746 81.1351 204.754 83.2301 207.059 84.8941C210.137 87.0932 213.675 88.4648 217.223 89.8403C220.254 91.0151 223.294 92.194 226.06 93.8947C230.274 96.5289 233.716 100.356 237.136 104.161C241.831 109.383 246.488 114.563 253.059 116.565C255.392 117.275 257.883 117.548 260.373 117.82C261.703 117.966 263.033 118.111 264.34 118.325C272.528 119.94 267.456 127.754 270.13 132.691C273.348 138.632 276.695 137.383 279.892 145.262C281.968 150.379 286.918 153.557 287.826 159.004C288.751 164.552 286.145 170.54 285.594 172.916C284.042 179.608 286.199 186.231 288.374 192.907C289.959 197.772 291.553 202.666 291.727 207.633C291.817 210.878 291.318 214.101 290.819 217.313C290.237 221.073 289.656 224.823 290.021 228.588C290.309 231.417 291.12 234.203 291.932 236.996C292.257 238.114 292.582 239.232 292.874 240.356C293.137 241.367 293.374 242.383 293.559 243.402C294.584 249.102 294.007 255.055 293.435 260.958C292.488 270.736 291.553 280.376 297.935 288.502C300.784 292.087 304.823 295.03 308.823 297.883C311.446 299.761 312.509 301.1 313.573 302.439C314.633 303.775 315.695 305.113 318.312 306.987C318.468 307.094 319.377 308.826 320.286 310.559L320.304 310.594C321.003 311.927 320.538 312.585 320.761 313.647C320.828 313.97 321.041 314.472 321.287 314.898L334.523 307.257L334.4 107.169Z" fill="#80CFF3"/>
<path d="M334.246 292.904L334.373 92.8184L321.137 85.1765C320.59 86.1237 320.525 86.8832 320.547 87.4982C320.567 88.0717 320.588 88.643 320.149 89.481L320.131 89.5156C319.222 91.2483 318.313 92.981 318.157 93.0873C315.54 94.9617 314.478 96.2993 313.417 97.6355C312.354 98.9748 311.291 100.314 308.668 102.191C304.668 105.044 300.629 107.987 297.78 111.572C291.398 119.699 292.333 129.339 293.28 139.116C293.852 145.019 294.429 150.973 293.403 156.673C293.015 158.816 292.398 160.939 291.783 163.056L291.777 163.079C290.965 165.871 290.154 168.658 289.866 171.486C289.5 175.251 290.082 179.001 290.664 182.761C291.163 185.974 291.662 189.196 291.572 192.441C291.398 197.409 289.804 202.302 288.219 207.168C286.044 213.844 283.887 220.467 285.438 227.159C285.99 229.534 286.999 231.828 288.008 234.121C288.547 235.345 289.086 236.57 289.555 237.808C292.25 245.707 282.947 245.221 280.008 250.006C276.472 255.763 279.228 258.037 274.002 264.745C270.609 269.102 270.331 274.977 266.068 278.487C261.726 282.063 255.237 282.8 252.904 283.51C246.333 285.512 241.676 290.692 236.981 295.913C233.56 299.718 230.119 303.546 225.905 306.18C223.139 307.881 220.099 309.06 217.067 310.234C213.52 311.61 209.982 312.981 206.904 315.181C204.599 316.844 202.591 318.94 200.579 321.039C199.773 321.879 198.967 322.72 198.14 323.535C197.395 324.269 196.634 324.982 195.844 325.651C191.42 329.389 185.976 331.866 180.578 334.322C171.637 338.391 162.821 342.401 158.974 351.991C157.294 356.251 156.764 361.22 156.294 366.111C155.979 369.321 155.351 370.912 154.723 372.502C154.096 374.089 153.469 375.677 153.154 378.881C153.14 379.069 152.094 380.722 151.048 382.376L151.027 382.409C150.222 383.681 149.419 383.607 148.611 384.331C148.365 384.551 148.037 384.987 147.791 385.413L161.027 393.055L334.246 292.904Z" fill="#80CFF3"/>
<path d="M342.215 297.502L342.355 97.4056L330.739 90.7039C330.194 91.7557 329.705 92.9499 329.312 93.9746C328.253 96.7347 327.224 99.4175 323.401 102.147C319.397 105.013 315.362 107.943 312.503 111.534C306.134 119.658 307.065 129.289 308.011 139.059C308.581 144.968 309.158 150.926 308.127 156.634C307.741 158.786 307.121 160.918 306.502 163.048C305.691 165.837 304.882 168.619 304.599 171.442C304.236 175.211 304.816 178.958 305.398 182.715C305.897 185.928 306.395 189.15 306.305 192.397C306.131 197.364 304.537 202.258 302.952 207.123C300.777 213.799 298.62 220.423 300.171 227.115C300.402 228.114 300.712 229.096 301.07 230.069C301.568 231.421 302.745 234.09 302.745 234.09C302.745 234.09 303.823 236.534 304.293 237.771C305.844 242.334 302.448 243.093 303.051 247.875C303.655 252.657 295.739 252.914 293.977 256.96C292.231 260.969 294.279 267.168 292.235 270.363C289.956 273.924 286.685 275 283.312 278.406C278.275 283.491 281.443 288.377 273.267 291.51C267.786 293.815 265.88 294.557 260.235 296.287C253.664 298.289 249.006 303.469 244.312 308.69C240.891 312.495 237.45 316.323 233.235 318.957C230.468 320.659 227.429 321.838 224.397 323.013C220.853 324.388 217.317 325.759 214.235 327.957C211.932 329.614 209.926 331.706 207.917 333.802C206.382 335.404 204.845 337.006 203.175 338.417C198.747 342.163 193.299 344.643 187.896 347.103C178.963 351.17 170.156 355.178 166.305 364.757C164.624 369.028 164.105 373.987 163.624 378.888C163.172 383.563 161.363 385.796 159.503 388.093C158.812 388.946 158.033 389.948 157.395 390.946L169.006 397.654L342.215 297.502Z" fill="#F2E8C0"/>
<path d="M342.367 102.566L169.148 2.39673L157.536 9.10519C158.174 10.1034 158.964 11.1237 159.655 11.9765C161.516 14.2738 163.325 16.5063 163.777 21.1821C164.257 26.0828 164.777 31.0421 166.457 35.3132C170.309 44.8914 179.115 48.9003 188.049 52.9665C193.452 55.4268 198.899 57.9063 203.328 61.653C204.998 63.0634 206.534 64.6662 208.069 66.2677C210.079 68.364 212.085 70.4559 214.387 72.1124C217.469 74.3112 221.005 75.6821 224.549 77.0571C227.581 78.2316 230.621 79.411 233.388 81.1129C237.603 83.7471 241.044 87.5744 244.465 91.3796C249.159 96.6012 253.816 101.781 260.387 103.783C261.368 104.083 262.374 104.305 263.395 104.482C264.815 104.727 267.714 105.042 267.714 105.042C267.714 105.042 270.371 105.331 271.677 105.542C276.404 106.48 275.363 109.801 279.807 111.669C284.25 113.538 280.514 120.521 283.137 124.071C285.736 127.587 292.129 128.913 293.873 132.28C295.818 136.035 295.115 139.406 296.377 144.03C298.262 150.935 304.077 150.633 302.703 159.281C301.959 165.179 301.649 167.201 300.324 172.955C298.772 179.647 300.929 186.27 303.104 192.946C304.689 197.812 306.283 202.705 306.457 207.673C306.547 210.92 306.049 214.142 305.55 217.355C304.969 221.112 304.388 224.859 304.752 228.628C305.035 231.45 305.844 234.233 306.654 237.022C307.274 239.152 307.893 241.284 308.28 243.435C309.31 249.144 308.734 255.101 308.163 261.01C307.218 270.78 306.286 280.411 312.656 288.536C315.514 292.127 319.549 295.056 323.553 297.923C327.376 300.652 328.406 303.335 329.465 306.095C329.858 307.12 330.336 308.295 330.881 309.347L342.496 302.645L342.367 102.566Z" fill="#F2E8C0"/>
<path d="M346.829 99.9828L173.704 -0.243408L167.876 3.12572C167.876 3.12572 173.624 10.5561 174.044 13.1754C174.618 16.4695 175.849 19.6144 177.663 22.423C179.712 25.6222 179.493 29.971 182.032 32.8003C189.08 40.6682 202.097 45.0571 212.914 53.5049C216.463 56.2842 219.452 59.7533 223.181 62.2926C228.37 65.8317 234.688 67.3813 240.037 70.6805C249.034 76.209 254.933 86.4164 264.85 89.9754C267.99 91.0951 271.339 91.465 274.578 92.2548C289.034 95.73 294.408 113.129 294.408 113.129C294.408 113.129 297.068 119.521 300.151 121.247" fill="url(#paint0_linear_43_199)"/>
<path d="M346.829 99.9828L173.704 -0.243408L167.876 3.12572C167.876 3.12572 173.624 10.5561 174.044 13.1754C174.618 16.4695 175.849 19.6144 177.663 22.423C179.712 25.6222 179.493 29.971 182.032 32.8003C189.08 40.6682 202.097 45.0571 212.914 53.5049C216.463 56.2842 219.452 59.7533 223.181 62.2926C228.37 65.8317 234.688 67.3813 240.037 70.6805C249.034 76.209 254.933 86.4164 264.85 89.9754C267.99 91.0951 271.339 91.465 274.578 92.2548C289.034 95.73 294.408 113.129 294.408 113.129C294.408 113.129 297.068 119.521 300.151 121.247" fill="url(#paint1_linear_43_199)"/>
<path d="M300.149 121.231C311.388 127.069 307.045 132.422 310.991 140.009C315.104 147.915 322.034 146.774 320.114 160.36C319.484 164.829 317.985 169.158 317.645 173.647C317.165 179.915 318.985 186.164 318.805 192.442C318.505 202.979 312.626 213.207 314.506 223.584C315.106 226.863 316.455 229.942 317.395 233.141C318.492 237.275 319.251 241.491 319.664 245.748C320.734 254.316 321.814 262.904 321.824 271.542C321.733 273.672 321.864 275.806 322.214 277.91C323.044 281.809 325.543 285.108 327.972 288.277C329.5 290.518 331.412 292.471 333.621 294.046C335.48 295.205 339.932 302.202 341.262 303.351L346.92 300.042L346.827 99.9661" fill="url(#paint2_linear_43_199)"/>
<path d="M300.149 121.231C311.388 127.069 307.045 132.422 310.991 140.009C315.104 147.915 322.034 146.774 320.114 160.36C319.484 164.829 317.985 169.158 317.645 173.647C317.165 179.915 318.985 186.164 318.805 192.442C318.505 202.979 312.626 213.207 314.506 223.584C315.106 226.863 316.455 229.942 317.395 233.141C318.492 237.275 319.251 241.491 319.664 245.748C320.734 254.316 321.814 262.904 321.824 271.542C321.733 273.672 321.864 275.806 322.214 277.91C323.044 281.809 325.543 285.108 327.972 288.277C329.5 290.518 331.412 292.471 333.621 294.046C335.48 295.205 339.932 302.202 341.262 303.351L346.92 300.042L346.827 99.9661" fill="url(#paint3_linear_43_199)"/>
<path d="M346.684 300.075L346.92 125.894L341.088 122.531C341.088 122.531 337.527 131.224 335.468 132.897C332.903 135.041 330.794 137.68 329.269 140.655C327.524 144.03 323.647 146.014 322.467 149.628C319.177 159.666 321.884 147.271 319.977 160.862C319.345 165.326 317.835 169.649 317.5 174.148C317.03 180.411 318.847 186.658 318.664 192.939C318.375 203.496 312.484 213.708 314.361 224.076C314.961 227.354 316.315 230.44 317.251 233.64C321.469 247.897 309.088 261.251 309.088 261.251C309.088 261.251 304.883 266.75 304.929 270.283" fill="url(#paint4_linear_43_199)"/>
<path d="M346.684 300.075L346.92 125.894L341.088 122.531C341.088 122.531 337.527 131.224 335.468 132.897C332.903 135.041 330.794 137.68 329.269 140.655C327.524 144.03 323.647 146.014 322.467 149.628C319.177 159.666 321.884 147.271 319.977 160.862C319.345 165.326 317.835 169.649 317.5 174.148C317.03 180.411 318.847 186.658 318.664 192.939C318.375 203.496 312.484 213.708 314.361 224.076C314.961 227.354 316.315 230.44 317.251 233.64C321.469 247.897 309.088 261.251 309.088 261.251C309.088 261.251 304.883 266.75 304.929 270.283" fill="url(#paint5_linear_43_199)"/>
<path d="M304.943 270.273C305.506 282.925 298.698 281.84 294.101 289.052C289.31 296.566 293.763 301.997 281.037 307.128C276.852 308.817 272.354 309.683 268.296 311.633C262.628 314.352 258.126 319.052 252.599 322.035C243.324 327.044 231.527 327.067 223.48 333.883C220.94 336.042 218.948 338.751 216.648 341.164C213.616 344.181 210.344 346.946 206.865 349.433C199.979 354.643 193.082 359.872 185.607 364.2C183.716 365.186 181.933 366.366 180.286 367.721C177.325 370.389 175.717 374.204 174.187 377.892C173.011 380.336 172.275 382.968 172.016 385.668C171.941 387.858 168.108 395.212 167.777 396.938L173.472 400.184L346.697 300.065" fill="url(#paint6_linear_43_199)"/>
<path d="M304.943 270.273C305.506 282.925 298.698 281.84 294.101 289.052C289.31 296.566 293.763 301.997 281.037 307.128C276.852 308.817 272.354 309.683 268.296 311.633C262.628 314.352 258.126 319.052 252.599 322.035C243.324 327.044 231.527 327.067 223.48 333.883C220.94 336.042 218.948 338.751 216.648 341.164C213.616 344.181 210.344 346.946 206.865 349.433C199.979 354.643 193.082 359.872 185.607 364.2C183.716 365.186 181.933 366.366 180.286 367.721C177.325 370.389 175.717 374.204 174.187 377.892C173.011 380.336 172.275 382.968 172.016 385.668C171.941 387.858 168.108 395.212 167.777 396.938L173.472 400.184L346.697 300.065" fill="url(#paint7_linear_43_199)"/>
<path d="M22.772 87.2313L22.7811 312.873L34.0212 319.363C34.1741 319.274 37.8071 316.321 40.5665 313.524C42.807 311.253 44.8467 309.186 44.9641 309.103C47.5853 307.226 48.5256 305.569 49.4662 303.913C50.4077 302.254 51.3495 300.595 53.9775 298.714C57.2319 296.385 59.4999 293.404 61.7665 290.425C62.2882 289.739 62.8098 289.054 63.3433 288.376C69.7246 280.25 68.7903 270.61 67.8428 260.833C67.2706 254.93 66.6936 248.976 67.7194 243.276C68.1093 241.124 68.7282 238.995 69.3464 236.87C70.1582 234.078 70.9686 231.291 71.2567 228.463C71.6196 224.694 71.0392 220.947 70.4574 217.19C69.9596 213.976 69.4607 210.755 69.5509 207.508C69.7249 202.54 71.3189 197.647 72.9037 192.782C75.0785 186.106 77.236 179.482 75.6837 172.791C75.1287 170.407 74.1198 168.114 73.1101 165.82C72.5717 164.596 72.0331 163.372 71.5629 162.133C70.0071 157.572 68.9214 152.863 68.3226 148.081L68.2819 147.825C66.7829 138.389 65.2702 128.868 65.2437 119.328C65.3752 116.949 65.1898 114.563 64.6925 112.233C63.5084 107.882 59.9408 104.203 56.472 100.675C55.6418 99.8346 54.8976 98.812 54.1392 97.7699C52.7404 95.8479 51.2931 93.8593 49.1685 92.8248C43.5092 90.0682 36.6459 84.6459 34.2969 80.5774L22.772 87.2313Z" fill="#57AFD6"/>
<path d="M13.1541 92.781L13.0288 307.236L26.2649 314.878C27.3217 313.048 26.3365 312.312 27.2478 310.574C28.1626 308.83 29.0825 307.076 29.2398 306.968C31.8566 305.093 32.9179 303.757 33.9795 302.42C35.0422 301.081 36.1052 299.742 38.729 297.863C42.7288 295.011 46.768 292.067 49.6173 288.483C55.9986 280.356 55.0643 270.716 54.1167 260.939C53.5446 255.036 52.9676 249.083 53.9934 243.382C54.3833 241.23 55.0022 239.102 55.6204 236.976C56.4322 234.184 57.2426 231.397 57.5307 228.569C57.8964 224.803 57.3152 221.054 56.7324 217.295C56.2341 214.081 55.7347 210.86 55.8249 207.614C55.9989 202.646 57.5928 197.753 59.1777 192.888C61.3524 186.212 63.51 179.588 61.9577 172.897C61.4063 170.521 60.3973 168.227 59.3886 165.935C58.8497 164.71 58.3109 163.485 57.8419 162.248C56.2844 157.684 55.197 152.972 54.5966 148.187L54.5293 147.763C53.0388 138.383 51.5356 128.923 51.5227 119.443C51.6475 117.064 51.4622 114.679 50.9714 112.348C49.7874 107.997 46.2148 104.309 42.746 100.781C41.9171 99.9434 41.1738 98.9222 40.4157 97.8808C39.0186 95.9617 37.5715 93.9738 35.4475 92.9396C34.4527 92.4463 33.0887 91.3691 31.5021 90.1161C29.6568 88.6587 27.6521 87.0348 26.5158 85.0667L13.1541 92.781Z" fill="#80CFF3"/>
<path d="M5.18123 97.3263L5.04346 302.642L16.658 309.344C18.6736 305.456 18.7529 301.647 23.9941 297.905C27.9976 295.04 32.0331 292.109 34.8911 288.519C41.2605 280.395 40.3293 270.763 39.3846 260.993C38.8134 255.085 38.2372 249.126 39.2672 243.419C39.6539 241.266 40.2737 239.134 40.8927 237.005C41.7035 234.217 42.513 231.433 42.7958 228.611C43.1587 224.842 42.5783 221.095 41.9965 217.338C41.4987 214.124 40.9998 210.903 41.09 207.656C41.264 202.688 42.8579 197.795 44.4428 192.93C46.6176 186.254 48.7751 179.63 47.2228 172.939C46.6732 170.551 45.662 168.258 44.6501 165.964C44.111 164.742 43.5718 163.519 43.102 162.281C41.5508 157.718 40.4652 153.01 39.8617 148.229L39.821 147.973C38.322 138.537 36.8093 129.016 36.7828 119.476C36.9143 117.097 36.7289 114.711 36.2315 112.381C35.0475 108.03 31.4799 104.351 28.0111 100.823C26.989 99.7885 25.3246 100.202 23.7865 99.3819C19.9477 97.3346 16.8805 90.6404 16.8805 90.6404L5.18123 97.3263Z" fill="#F2E8C0"/>
<path d="M6.2708 303.364L7.09615 300.05C7.66528 298.336 8.01463 297.961 9.97263 296.172C13.6465 292.816 12.9678 291.36 16.6243 288.013C19.4273 285.448 22.2809 282.831 24.2634 279.584C31.4327 267.882 25.4188 252.706 27.3317 239.119C27.9593 234.646 29.4694 230.321 29.8041 225.821C30.2748 219.557 28.4572 213.308 28.6401 207.025C28.9292 196.466 34.8263 186.26 32.9443 175.88C32.3443 172.601 30.9984 169.51 30.0539 166.314C28.9546 162.182 28.1937 157.968 27.7788 153.713C26.6886 145.105 25.6371 136.544 25.5901 127.922C25.6864 125.794 25.5584 123.662 25.2083 121.561C24.3735 117.655 21.8768 114.351 19.4465 111.181C17.7947 109.04 13.0213 102.512 11.062 101.519C8.02122 99.9721 7.77805 97.8031 6.44575 96.6555L0.639648 100.029V300.106L6.2708 303.364Z" fill="url(#paint8_linear_43_199)"/>
</g>
<defs>
<linearGradient id="paint0_linear_43_199" x1="266.331" y1="53.6775" x2="249.198" y2="81.9697" gradientUnits="userSpaceOnUse">
<stop offset="0.05" stop-color="#E0B568"/>
<stop offset="1" stop-color="#E8CF96"/>
</linearGradient>
<linearGradient id="paint1_linear_43_199" x1="333.957" y1="106.811" x2="317.772" y2="98.8472" gradientUnits="userSpaceOnUse">
<stop stop-color="#E0B568"/>
<stop offset="1" stop-color="#E0B568" stop-opacity="0"/>
</linearGradient>
<linearGradient id="paint2_linear_43_199" x1="346.827" y1="201.476" x2="313.684" y2="201.476" gradientUnits="userSpaceOnUse">
<stop offset="0.05" stop-color="#E0B568"/>
<stop offset="1" stop-color="#E8CF96"/>
</linearGradient>
<linearGradient id="paint3_linear_43_199" x1="335.498" y1="105.27" x2="331.816" y2="123.767" gradientUnits="userSpaceOnUse">
<stop stop-color="#E0B568"/>
<stop offset="1" stop-color="#E0B568" stop-opacity="0"/>
</linearGradient>
<linearGradient id="paint4_linear_43_199" x1="346.536" y1="207.209" x2="313.468" y2="206.518" gradientUnits="userSpaceOnUse">
<stop offset="0.05" stop-color="#E0B568"/>
<stop offset="1" stop-color="#E8CF96"/>
</linearGradient>
<linearGradient id="paint5_linear_43_199" x1="334.334" y1="292.342" x2="333.138" y2="274.343" gradientUnits="userSpaceOnUse">
<stop stop-color="#E0B568"/>
<stop offset="1" stop-color="#E0B568" stop-opacity="0"/>
</linearGradient>
<linearGradient id="paint6_linear_43_199" x1="258.787" y1="350.82" x2="242.215" y2="322.117" gradientUnits="userSpaceOnUse">
<stop offset="0.05" stop-color="#E0B568"/>
<stop offset="1" stop-color="#E8CF96"/>
</linearGradient>
<linearGradient id="paint7_linear_43_199" x1="336.439" y1="292.906" x2="318.579" y2="298.965" gradientUnits="userSpaceOnUse">
<stop stop-color="#E0B568"/>
<stop offset="1" stop-color="#E0B568" stop-opacity="0"/>
</linearGradient>
<linearGradient id="paint8_linear_43_199" x1="33.2815" y1="199.602" x2="0.691532" y2="199.602" gradientUnits="userSpaceOnUse">
<stop stop-color="#E8CF96"/>
<stop offset="0.95" stop-color="#E0B568"/>
</linearGradient>
<clipPath id="clip0_43_199">
<rect width="346.28" height="399.64" fill="white" transform="translate(0.639648 0.149902)"/>
</clipPath>
</defs>
</svg>
