<svg width="347" height="400" viewBox="0 0 347 400" fill="none" xmlns="http://www.w3.org/2000/svg">
<g clip-path="url(#clip0_43_501)">
<path d="M21.8234 112.536L21.7017 312.626L33.0788 319.195C33.2315 319.107 36.8648 316.153 39.624 313.357C41.8639 311.087 43.9039 309.019 44.0213 308.936C46.6432 307.058 47.5831 305.401 48.5234 303.745C49.4647 302.088 50.4065 300.428 53.0347 298.547C56.2892 296.217 58.5568 293.237 60.8244 290.257C61.3455 289.572 61.8675 288.886 62.4013 288.208C68.7815 280.083 67.8481 270.442 66.9001 260.666C66.3277 254.763 65.7505 248.81 66.777 243.108C67.166 240.958 67.7856 238.828 68.4041 236.702C69.2152 233.911 70.0262 231.123 70.3135 228.296C70.6767 224.527 70.0961 220.78 69.5148 217.023C69.017 213.808 68.5177 210.588 68.6084 207.341C68.7819 202.374 70.3759 197.48 71.9608 192.615C74.1357 185.938 76.2929 179.315 74.7411 172.623C74.1863 170.239 73.1772 167.947 72.1673 165.652L72.1618 165.636C71.6254 164.417 71.0887 163.198 70.6206 161.965C69.0229 157.282 75.4326 156.599 78.2421 152.941C82.6335 147.222 81.5136 139.956 86.2099 134.964C90.6233 130.272 96.1417 130.144 99.9284 126.598C106.477 120.466 109.471 123.449 116.243 115.915C119.664 112.11 123.105 108.283 127.32 105.649C130.087 103.947 133.125 102.769 136.158 101.593C139.703 100.218 143.238 98.847 146.32 96.6482C148.072 95.3841 149.654 93.8686 151.196 92.2935C151.682 91.7961 152.164 91.2939 152.645 90.7916C154.177 89.193 155.712 87.5915 157.38 86.1796C161.804 82.4397 167.249 79.9628 172.647 77.5069C181.587 73.4399 190.404 69.4277 194.25 59.8397C194.57 59.0388 194.903 58.2435 195.236 57.4499C196.683 53.996 198.13 50.542 198.52 46.5588C198.835 43.3421 199.802 41.6966 200.767 40.0526C201.731 38.4102 202.695 36.7682 203.011 33.5584C203.018 33.4705 203.316 32.3679 203.742 30.8121L204.641 27.5398C205.682 23.7524 206.424 19.1288 206.424 18.9526L195.046 12.384L21.8234 112.536Z" fill="#57AFD6"/>
<path d="M324.419 112.644L151.197 12.4937L139.82 19.0623C139.82 19.2384 140.562 23.862 141.603 27.6494C142.449 30.7242 143.22 33.5247 143.233 33.668C143.549 36.8778 144.513 38.5199 145.477 40.1622C146.442 41.8062 147.409 43.4517 147.724 46.6684C148.114 50.6516 149.561 54.1056 151.008 57.5595C151.341 58.3531 151.674 59.1484 151.994 59.9494C155.84 69.5373 164.657 73.5495 173.597 77.6165C178.995 80.0724 184.44 82.5493 188.864 86.2892C190.532 87.7011 192.067 89.3026 193.599 90.9013C195.61 92.999 197.619 95.0955 199.924 96.7578C203.006 98.9566 206.541 100.328 210.085 101.703C213.118 102.879 216.157 104.056 218.924 105.759C223.139 108.393 226.58 112.22 230.001 116.025C234.695 121.247 239.352 126.426 245.924 128.428C248.266 129.14 250.755 129.412 253.247 129.685L253.265 129.688C254.588 129.833 255.912 129.978 257.214 130.189C262.069 131.147 259.455 137.039 261.219 141.302C263.976 147.964 270.828 150.627 272.803 157.191C274.659 163.358 272.012 168.202 273.189 173.254C275.225 181.992 271.145 183.092 274.283 192.724C275.868 197.589 277.462 202.483 277.635 207.451C277.726 210.698 277.227 213.918 276.729 217.133C276.148 220.889 275.567 224.637 275.93 228.405C276.149 230.555 276.671 232.683 277.264 234.805C277.452 235.475 277.646 236.143 277.84 236.811C278.458 238.937 279.078 241.067 279.467 243.217C280.493 248.919 279.916 254.873 279.344 260.776C278.396 270.552 277.462 280.193 283.843 288.318C284.376 288.995 284.898 289.682 285.419 290.366C287.687 293.347 289.955 296.327 293.209 298.656C295.837 300.538 296.779 302.197 297.72 303.855C298.661 305.511 299.601 307.167 302.223 309.046C302.295 309.096 303.101 309.905 304.235 311.052L306.62 313.467C309.379 316.262 313.012 319.216 313.165 319.304L324.542 312.736L324.419 112.644Z" fill="#57AFD6"/>
<path d="M172.992 25.1482L-0.351807 125.088L-0.351805 138.225C-0.199461 138.313 4.17554 139.983 7.97632 140.974C11.0623 141.779 13.8728 142.512 14.0037 142.572C16.9412 143.904 18.8455 143.889 20.7498 143.876C22.656 143.862 24.5642 143.848 27.5076 145.183C31.1521 146.837 34.8669 147.311 38.5818 147.784C39.4353 147.893 40.2908 148.002 41.1443 148.126C51.3709 149.589 59.2537 143.96 67.2459 138.251C72.072 134.803 76.9392 131.327 82.3904 129.365C84.447 128.627 86.6013 128.098 88.7517 127.571C91.574 126.878 94.3943 126.186 96.9861 125.022C100.431 123.452 103.386 121.075 106.349 118.694C108.885 116.655 111.424 114.613 114.281 113.068C118.67 110.734 123.705 109.668 128.711 108.608C135.58 107.153 142.394 105.71 147.414 101.02C149.201 99.3474 150.681 97.3274 152.164 95.3054L152.176 95.2922C152.963 94.2185 153.75 93.1443 154.584 92.1223C157.841 88.3969 161.637 93.6067 166.21 94.2105C173.358 95.1542 179.091 90.5512 185.762 92.1223C192.032 93.5988 194.903 98.3134 199.867 99.8199C208.452 102.425 207.365 106.509 217.275 108.608C222.281 109.668 227.316 110.734 231.705 113.068C234.562 114.613 237.101 116.655 239.636 118.694C242.599 121.075 245.554 123.452 249 125.022C250.97 125.907 253.074 126.519 255.209 127.067C255.883 127.239 256.558 127.405 257.234 127.571C259.385 128.098 261.539 128.627 263.595 129.365C269.047 131.327 273.914 134.803 278.74 138.251C286.732 143.96 294.615 149.589 304.842 148.126C305.695 148.002 306.551 147.893 307.404 147.784C311.119 147.311 314.834 146.837 318.478 145.183C321.422 143.848 323.33 143.862 325.236 143.876C327.14 143.889 329.045 143.904 331.982 142.572C332.062 142.535 333.166 142.241 334.726 141.832L338.01 140.974C341.81 139.983 346.185 138.313 346.338 138.225V125.088L172.992 25.1482Z" fill="#57AFD6"/>
<path d="M172.994 14.0459L-0.349365 113.978L-0.349364 129.262C0.744386 129.262 1.43497 128.939 1.95645 128.612C2.44278 128.308 2.92716 128.004 3.87247 127.965L3.91153 127.964C5.86661 127.885 7.82169 127.806 7.99161 127.887C10.9233 129.216 12.6127 129.467 14.3002 129.718C15.9916 129.969 17.683 130.22 20.6205 131.553C25.0912 133.591 29.6596 135.617 34.1889 136.292C44.4174 137.755 52.2983 132.126 60.2924 126.417C65.1186 122.97 69.9857 119.494 75.435 117.532C77.4857 116.796 79.6322 116.269 81.7729 115.743L81.7963 115.737C84.6205 115.044 87.4389 114.353 90.0326 113.188C93.476 111.623 96.433 109.244 99.3978 106.86C101.931 104.822 104.472 102.778 107.328 101.234C111.716 98.9009 116.751 97.8345 121.757 96.7744C128.626 95.3198 135.441 93.8765 140.46 89.1865C142.242 87.521 143.724 85.5005 145.204 83.4805C145.995 82.4014 146.787 81.3223 147.624 80.2974C153.117 74.0135 157.348 82.3128 162.961 82.4659C169.715 82.6501 170.307 79.1262 178.729 80.2974C184.198 81.0579 189.426 78.3607 194.597 80.2974C199.865 82.2702 203.747 87.521 205.529 89.1865C210.548 93.8765 217.363 95.3198 224.232 96.7744C229.238 97.8345 234.273 98.9009 238.661 101.234C241.517 102.778 244.058 104.822 246.591 106.86C249.556 109.244 252.513 111.623 255.956 113.188C258.55 114.353 261.368 115.044 264.193 115.737C265.324 116.015 266.454 116.293 267.574 116.602C268.581 116.879 269.579 117.182 270.554 117.532C276.003 119.494 280.87 122.97 285.697 126.417C293.691 132.126 301.572 137.755 311.8 136.292C316.329 135.617 320.898 133.591 325.368 131.553C328.306 130.22 329.997 129.969 331.689 129.718C333.376 129.467 335.066 129.216 337.997 127.887C338.167 127.806 340.122 127.885 342.077 127.964L342.117 127.965C343.62 128.026 343.958 128.759 344.99 129.097C345.302 129.2 345.844 129.266 346.336 129.266V113.982L172.994 14.0459Z" fill="#80CFF3"/>
<path d="M21.8833 287.139L195.105 387.29L206.482 380.721C206.483 380.545 205.741 375.921 204.7 372.134C203.853 369.059 203.083 366.259 203.069 366.115C202.754 362.905 201.789 361.263 200.825 359.621C199.86 357.977 198.894 356.332 198.579 353.115C198.189 349.132 196.742 345.678 195.294 342.224C194.962 341.43 194.629 340.635 194.309 339.834C190.462 330.246 181.646 326.234 172.706 322.167C167.308 319.711 161.863 317.234 157.438 313.494C155.771 312.082 154.236 310.481 152.704 308.882C150.693 306.784 148.684 304.688 146.379 303.025C143.297 300.827 139.761 299.456 136.217 298.081C133.184 296.904 130.146 295.727 127.379 294.025C123.164 291.391 119.723 287.563 116.302 283.758C111.608 278.537 106.95 273.357 100.379 271.355C98.0372 270.643 95.5476 270.371 93.0553 270.098L93.038 270.095C91.7146 269.95 90.3907 269.805 89.0887 269.594C84.2338 268.636 86.8477 262.744 85.084 258.481C82.3272 251.819 75.4744 249.156 73.4994 242.593C71.6434 236.425 74.2909 231.581 73.1136 226.529C71.0774 217.792 75.1574 216.691 72.0197 207.059C70.4348 202.194 68.8408 197.3 68.6673 192.333C68.5765 189.086 69.0759 185.865 69.5737 182.651C70.155 178.894 70.7356 175.146 70.3724 171.378C70.1537 169.228 69.6322 167.101 69.0389 164.978C68.8512 164.308 68.6571 163.64 68.463 162.972C67.8445 160.846 67.2249 158.716 66.8359 156.566C65.8094 150.864 66.3866 144.911 66.9589 139.007C67.907 129.231 68.8403 119.59 62.4602 111.465C61.9264 110.788 61.4044 110.101 60.8833 109.417C58.6157 106.436 56.3481 103.456 53.0936 101.127C50.4654 99.2455 49.5236 97.5858 48.5823 95.9281C47.642 94.2721 46.7021 92.6159 44.0802 90.7377C44.008 90.6869 43.2017 89.8782 42.0675 88.7311L39.6829 86.3167C36.9237 83.521 33.2904 80.5668 33.1377 80.479L21.7605 87.0477L21.8833 287.139Z" fill="#57AFD6"/>
<path d="M12.2091 106.983L12.0815 307.069L25.3176 314.711C25.8645 313.763 25.9301 313.004 25.908 312.389C25.8873 311.815 25.8664 311.244 26.3057 310.406L26.324 310.372C27.233 308.639 28.142 306.906 28.2976 306.8C30.9145 304.925 31.9765 303.588 33.0372 302.252C34.1003 300.912 35.1638 299.573 37.7869 297.696C41.7869 294.843 45.826 291.9 48.675 288.315C55.0566 280.188 54.1218 270.548 53.1748 260.771C52.6024 254.868 52.0256 248.914 53.0512 243.214C53.4397 241.071 54.0563 238.948 54.6712 236.831L54.6778 236.808C55.4899 234.016 56.3003 231.229 56.5886 228.401C56.9542 224.636 56.3729 220.886 55.7905 217.126C55.2921 213.913 54.7929 210.691 54.8831 207.446C55.057 202.478 56.6511 197.585 58.236 192.719C60.4108 186.043 62.5681 179.42 61.0162 172.728C60.4644 170.353 59.4558 168.059 58.4467 165.767C57.9077 164.542 57.3686 163.317 56.9 162.079C54.2045 154.18 63.5075 154.666 66.4465 149.881C69.983 144.124 67.227 141.85 72.4524 135.142C75.8456 130.786 76.1236 124.91 80.3863 121.4C84.7287 117.824 91.2174 117.087 93.5504 116.377C100.122 114.375 104.779 109.195 109.473 103.974C112.894 100.169 116.335 96.3414 120.55 93.7072C123.315 92.0065 126.356 90.8276 129.387 89.6528C132.934 88.2773 136.473 86.9057 139.551 84.7066C141.856 83.0426 143.864 80.9476 145.876 78.8482C146.682 78.0077 147.488 77.1673 148.315 76.3524C149.059 75.6185 149.821 74.9055 150.611 74.2363C155.034 70.4981 160.478 68.021 165.877 65.5651C174.818 61.4964 183.634 57.4861 187.481 47.8962C189.161 43.6364 189.69 38.6669 190.161 33.7763C190.475 30.5659 191.103 28.9753 191.732 27.385C192.358 25.7984 192.986 24.2098 193.301 21.0064C193.315 20.8184 194.361 19.1649 195.407 17.5113L195.428 17.4782C196.233 16.2062 197.036 16.2798 197.844 15.5557C198.09 15.3366 198.418 14.9004 198.664 14.4741L185.428 6.83228L12.2091 106.983Z" fill="#80CFF3"/>
<path d="M324.267 287.276L324.388 87.1863L313.011 80.6177C312.859 80.7054 309.225 83.6596 306.466 86.4553C304.226 88.7254 302.186 90.793 302.069 90.8763C299.447 92.7545 298.507 94.4107 297.567 96.0667C296.625 97.7244 295.684 99.3841 293.055 101.265C289.801 103.595 287.533 106.575 285.266 109.555C284.745 110.24 284.223 110.927 283.689 111.604C277.309 119.729 278.242 129.37 279.19 139.146C279.762 145.049 280.34 151.003 279.313 156.704C278.924 158.855 278.304 160.985 277.686 163.11C276.875 165.901 276.064 168.689 275.777 171.516C275.413 175.285 275.994 179.032 276.575 182.789C277.073 186.004 277.572 189.224 277.482 192.471C277.308 197.439 275.714 202.332 274.129 207.198C271.954 213.874 269.797 220.497 271.349 227.189C271.904 229.573 272.913 231.865 273.923 234.16L273.928 234.177C274.465 235.395 275.001 236.614 275.469 237.847C277.067 242.531 270.657 243.213 267.848 246.872C263.457 252.59 264.576 259.857 259.88 264.848C255.467 269.54 249.948 269.669 246.162 273.214C239.613 279.347 236.62 276.364 229.847 283.897C226.426 287.702 222.985 291.529 218.77 294.163C216.003 295.865 212.965 297.043 209.932 298.219C206.387 299.594 202.852 300.965 199.77 303.164C198.018 304.428 196.436 305.944 194.894 307.519C194.408 308.016 193.926 308.518 193.445 309.021C191.913 310.619 190.378 312.221 188.71 313.633C184.286 317.373 178.841 319.849 173.443 322.305C164.503 326.372 155.687 330.385 151.84 339.972C151.52 340.773 151.187 341.569 150.854 342.362C149.407 345.816 147.96 349.27 147.57 353.253C147.255 356.47 146.288 358.116 145.323 359.76C144.36 361.402 143.395 363.044 143.079 366.254C143.072 366.342 142.774 367.444 142.348 369L141.449 372.272C140.408 376.06 139.666 380.683 139.667 380.86L151.044 387.428L324.267 287.276Z" fill="#57AFD6"/>
<path d="M173.079 374.641L346.422 274.702V261.565C346.27 261.476 341.895 259.807 338.094 258.815C335.008 258.011 332.198 257.278 332.067 257.218C329.129 255.886 327.225 255.9 325.321 255.914C323.415 255.928 321.506 255.942 318.563 254.606C314.918 252.952 311.204 252.479 307.489 252.005C306.635 251.896 305.78 251.787 304.926 251.664C294.7 250.201 286.817 255.83 278.825 261.539C273.999 264.986 269.131 268.463 263.68 270.425C261.624 271.163 259.469 271.691 257.319 272.219C254.497 272.911 251.676 273.603 249.085 274.768C245.639 276.338 242.684 278.714 239.721 281.096C237.186 283.135 234.647 285.177 231.79 286.722C227.401 289.055 222.366 290.122 217.36 291.182C210.491 292.637 203.676 294.08 198.657 298.77C196.87 300.442 195.389 302.462 193.907 304.484L193.895 304.497C193.108 305.571 192.321 306.645 191.487 307.667C188.23 311.393 184.434 306.183 179.861 305.579C172.713 304.635 166.98 309.238 160.308 307.667C154.039 306.191 151.168 301.476 146.204 299.97C137.619 297.364 138.706 293.281 128.795 291.182C123.79 290.122 118.754 289.055 114.366 286.722C111.508 285.177 108.969 283.135 106.434 281.096C103.471 278.714 100.516 276.338 97.0708 274.768C95.1001 273.883 92.9966 273.27 90.8618 272.723C90.188 272.551 89.5122 272.385 88.8364 272.219C86.6861 271.691 84.5318 271.163 82.4751 270.425C77.0239 268.463 72.1568 264.986 67.3306 261.539C59.3384 255.83 51.4556 250.201 41.229 251.664C40.3755 251.787 39.52 251.896 38.6665 252.005C34.9517 252.479 31.2368 252.952 27.5923 254.606C24.649 255.942 22.7407 255.928 20.8345 255.914C18.9302 255.9 17.0259 255.886 14.0884 257.218C14.0083 257.255 12.9048 257.549 11.3443 257.957L8.06105 258.815C4.26027 259.807 -0.114739 261.476 -0.267083 261.565L-0.26709 274.702L173.079 374.641Z" fill="#57AFD6"/>
<path d="M173.077 385.744L346.42 285.812V270.528C345.326 270.528 344.636 270.851 344.114 271.178C343.628 271.482 343.144 271.786 342.198 271.825L342.159 271.826C340.204 271.905 338.249 271.984 338.079 271.903C335.147 270.574 333.458 270.323 331.771 270.072C330.079 269.821 328.388 269.57 325.45 268.237C320.979 266.199 316.411 264.173 311.882 263.498C301.653 262.035 293.772 267.664 285.778 273.373C280.952 276.82 276.085 280.296 270.636 282.258C268.585 282.994 266.438 283.521 264.298 284.047L264.274 284.053C261.45 284.746 258.632 285.437 256.038 286.602C252.595 288.167 249.638 290.546 246.673 292.93C244.14 294.968 241.599 297.012 238.743 298.556C234.354 300.889 229.319 301.956 224.313 303.016C217.444 304.47 210.63 305.914 205.61 310.603C203.829 312.269 202.347 314.289 200.866 316.31C200.075 317.389 199.284 318.468 198.446 319.493C192.953 325.776 188.722 317.477 183.109 317.324C176.355 317.14 175.764 320.664 167.342 319.493C161.872 318.732 156.645 321.429 151.474 319.493C146.206 317.52 142.323 312.269 140.542 310.603C135.522 305.914 128.708 304.47 121.839 303.016C116.833 301.955 111.798 300.889 107.409 298.556C104.554 297.012 102.013 294.968 99.4795 292.93C96.5147 290.546 93.5576 288.167 90.1143 286.602C87.5205 285.437 84.7022 284.746 81.878 284.053C80.7471 283.775 79.6162 283.497 78.4971 283.188C77.4893 282.911 76.4912 282.608 75.5166 282.258C70.0674 280.296 65.2002 276.82 60.3741 273.373C52.3799 267.664 44.499 262.035 34.2705 263.498C29.7412 264.173 25.1729 266.199 20.7022 268.237C17.7647 269.57 16.0733 269.821 14.3819 270.072C12.6944 270.323 11.0049 270.574 8.07329 271.903C7.90337 271.984 5.94829 271.905 3.99321 271.826L3.95414 271.825C2.45023 271.764 2.11234 271.031 1.08109 270.693C0.768587 270.59 0.226565 270.524 -0.265622 270.524L-0.265625 285.808L173.077 385.744Z" fill="#80CFF3"/>
<path d="M334.035 107.094L160.82 6.94092L147.584 14.5828C148.131 15.53 148.756 15.9666 149.299 16.2549C149.806 16.5237 150.312 16.7913 150.818 17.5907L150.839 17.6238C151.885 19.2774 152.931 20.931 152.945 21.1189C153.26 24.3224 153.887 25.911 154.514 27.4976C155.142 29.0879 155.77 30.6784 156.085 33.8889C156.555 38.7794 157.085 43.7489 158.765 48.0088C162.612 57.5987 171.427 61.609 180.369 65.6776C185.767 68.1336 191.211 70.6106 195.635 74.3489C197.297 75.7572 198.827 77.3524 200.353 78.9433L200.369 78.9607C202.382 81.0601 204.39 83.1552 206.695 84.8192C209.773 87.0182 213.311 88.3899 216.858 89.7654C219.89 90.9401 222.93 92.119 225.695 93.8197C229.91 96.4539 233.351 100.281 236.772 104.086C241.467 109.308 246.124 114.488 252.695 116.49C255.028 117.2 257.519 117.473 260.009 117.745C261.339 117.891 262.669 118.036 263.975 118.25C272.164 119.865 267.092 127.679 269.766 132.616C272.983 138.557 276.331 137.308 279.528 145.187C281.604 150.304 286.553 153.482 287.462 158.929C288.387 164.477 285.781 170.465 285.229 172.841C283.677 179.533 285.835 186.156 288.01 192.832C289.594 197.697 291.188 202.591 291.362 207.558C291.453 210.803 290.953 214.026 290.455 217.239C289.873 220.998 289.291 224.748 289.657 228.513C289.945 231.342 290.756 234.128 291.568 236.921C291.892 238.039 292.217 239.157 292.51 240.281C292.773 241.292 293.01 242.308 293.194 243.327C294.22 249.027 293.643 254.98 293.071 260.883C292.124 270.661 291.189 280.301 297.57 288.427C300.42 292.012 304.459 294.955 308.459 297.808C311.082 299.686 312.145 301.025 313.208 302.364C314.269 303.7 315.331 305.038 317.948 306.912C318.103 307.019 319.012 308.751 319.922 310.484L319.94 310.519C320.639 311.852 320.174 312.51 320.397 313.572C320.464 313.895 320.677 314.397 320.923 314.823L334.159 307.182L334.035 107.094Z" fill="#80CFF3"/>
<path d="M333.881 292.829L334.009 92.7434L320.773 85.1016C320.226 86.0488 320.16 86.8083 320.182 87.4232C320.203 87.9968 320.224 88.5681 319.785 89.406L319.766 89.4406C318.857 91.1733 317.948 92.906 317.793 93.0124C315.176 94.8867 314.114 96.2243 313.053 97.5605C311.99 98.8998 310.927 100.239 308.303 102.116C304.304 104.969 300.264 107.912 297.415 111.497C291.034 119.624 291.969 129.264 292.916 139.041C293.488 144.945 294.065 150.898 293.039 156.598C292.651 158.741 292.034 160.864 291.419 162.981L291.413 163.004C290.601 165.796 289.79 168.583 289.502 171.411C289.136 175.176 289.717 178.926 290.3 182.686C290.798 185.899 291.298 189.121 291.207 192.366C291.033 197.334 289.439 202.227 287.854 207.093C285.68 213.769 283.522 220.392 285.074 227.084C285.626 229.459 286.635 231.753 287.644 234.046C288.183 235.27 288.722 236.495 289.19 237.733C291.886 245.632 282.583 245.146 279.644 249.931C276.107 255.688 278.863 257.962 273.638 264.67C270.245 269.027 269.967 274.902 265.704 278.412C261.362 281.988 254.873 282.725 252.54 283.435C245.969 285.437 241.311 290.617 236.617 295.838C233.196 299.643 229.755 303.471 225.54 306.105C222.775 307.806 219.735 308.985 216.703 310.159C213.156 311.535 209.618 312.906 206.54 315.106C204.234 316.77 202.227 318.865 200.214 320.964C199.408 321.804 198.602 322.645 197.775 323.46C197.031 324.194 196.27 324.907 195.48 325.576C191.056 329.314 185.612 331.791 180.214 334.247C171.272 338.316 162.457 342.326 158.61 351.916C156.93 356.176 156.4 361.145 155.929 366.036C155.615 369.246 154.987 370.837 154.359 372.427C153.732 374.014 153.105 375.602 152.79 378.806C152.776 378.994 151.73 380.647 150.683 382.301L150.663 382.334C149.858 383.606 149.055 383.532 148.246 384.257C148.001 384.476 147.672 384.912 147.426 385.338L160.662 392.98L333.881 292.829Z" fill="#80CFF3"/>
<path d="M341.851 297.427L341.99 97.3306L330.375 90.6289C329.83 91.6808 329.341 92.8749 328.948 93.8996C327.889 96.6598 326.86 99.3426 323.036 102.072C319.033 104.939 314.997 107.868 312.139 111.459C305.77 119.584 306.701 129.215 307.646 138.984C308.217 144.893 308.794 150.851 307.763 156.559C307.377 158.711 306.757 160.843 306.137 162.973C305.327 165.762 304.518 168.545 304.235 171.367C303.872 175.136 304.452 178.883 305.033 182.64C305.532 185.853 306.031 189.075 305.94 192.322C305.766 197.289 304.172 202.183 302.587 207.048C300.413 213.725 298.255 220.348 299.807 227.04C300.037 228.039 300.348 229.021 300.706 229.994C301.203 231.346 302.38 234.015 302.38 234.015C302.38 234.015 303.459 236.459 303.929 237.696C305.48 242.259 302.084 243.018 302.687 247.8C303.29 252.582 295.375 252.839 293.613 256.885C291.867 260.894 293.915 267.094 291.871 270.288C289.592 273.849 286.321 274.926 282.948 278.331C277.91 283.416 281.079 288.302 272.902 291.435C267.422 293.74 265.516 294.482 259.871 296.212C253.299 298.214 248.642 303.394 243.948 308.615C240.527 312.42 237.086 316.248 232.871 318.882C230.104 320.584 227.065 321.763 224.033 322.938C220.488 324.313 216.953 325.684 213.871 327.882C211.568 329.539 209.562 331.631 207.552 333.727C206.018 335.329 204.481 336.931 202.811 338.342C198.382 342.089 192.935 344.568 187.532 347.028C178.598 351.095 169.792 355.104 165.941 364.682C164.26 368.953 163.741 373.912 163.26 378.813C162.808 383.489 160.999 385.721 159.138 388.018C158.447 388.871 157.669 389.873 157.03 390.871L168.642 397.579L341.851 297.427Z" fill="#F2E8C0"/>
<path d="M342.002 102.491L168.783 2.32178L157.172 9.03024C157.81 10.0284 158.6 11.0487 159.291 11.9015C161.152 14.1988 162.96 16.4314 163.413 21.1071C163.893 26.0078 164.413 30.9672 166.093 35.2382C169.945 44.8164 178.751 48.8253 187.685 52.8916C193.087 55.3519 198.535 57.8313 202.963 61.578C204.634 62.9885 206.17 64.5912 207.705 66.1927C209.715 68.289 211.72 70.3809 214.023 72.0374C217.105 74.2362 220.641 75.6071 224.185 76.9822C227.217 78.1567 230.256 79.336 233.023 81.0379C237.238 83.6721 240.679 87.4995 244.1 91.3047C248.795 96.5262 253.452 101.706 260.023 103.708C261.003 104.008 262.009 104.23 263.031 104.407C264.451 104.652 267.35 104.967 267.35 104.967C267.35 104.967 270.007 105.256 271.313 105.467C276.04 106.405 274.999 109.726 279.442 111.594C283.885 113.463 280.15 120.446 282.773 123.996C285.372 127.512 291.765 128.838 293.509 132.205C295.453 135.96 294.75 139.331 296.013 143.955C297.898 150.86 303.713 150.559 302.339 159.206C301.595 165.104 301.284 167.126 299.96 172.88C298.408 179.572 300.565 186.195 302.74 192.871C304.325 197.737 305.919 202.63 306.093 207.598C306.183 210.845 305.685 214.067 305.186 217.28C304.605 221.037 304.024 224.784 304.387 228.553C304.67 231.375 305.479 234.158 306.29 236.947C306.909 239.077 307.529 241.209 307.916 243.36C308.946 249.069 308.37 255.026 307.799 260.936C306.854 270.705 305.922 280.336 312.291 288.461C315.15 292.052 319.185 294.981 323.189 297.848C327.012 300.577 328.041 303.26 329.1 306.02C329.494 307.045 329.971 308.22 330.517 309.272L342.132 302.57L342.002 102.491Z" fill="#F2E8C0"/>
<path d="M12.2673 292.689L185.483 392.842L198.719 385.2C198.172 384.253 197.547 383.817 197.003 383.528C196.496 383.259 195.991 382.992 195.485 382.192L195.464 382.159C194.418 380.506 193.372 378.852 193.358 378.664C193.043 375.461 192.416 373.872 191.789 372.286C191.16 370.695 190.533 369.105 190.218 365.894C189.747 361.004 189.218 356.034 187.538 351.774C183.691 342.185 174.875 338.174 165.934 334.106C160.536 331.65 155.092 329.173 150.668 325.434C149.006 324.026 147.476 322.431 145.95 320.84L145.933 320.822C143.921 318.723 141.913 316.628 139.608 314.964C136.53 312.765 132.992 311.393 129.444 310.018C126.413 308.843 123.373 307.664 120.607 305.963C116.393 303.329 112.951 299.502 109.531 295.697C104.836 290.475 100.179 285.295 93.6076 283.293C91.2746 282.583 88.7836 282.31 86.294 282.038C84.9639 281.892 83.6339 281.747 82.3274 281.534C74.1389 279.919 79.2108 272.105 76.5368 267.167C73.3194 261.226 69.9717 262.475 66.775 254.596C64.6991 249.479 59.7493 246.301 58.841 240.854C57.9157 235.306 60.5217 229.318 61.0735 226.942C62.6253 220.25 60.4681 213.627 58.2932 206.951C56.7083 202.086 55.1143 197.192 54.9404 192.225C54.8502 188.98 55.3494 185.758 55.8478 182.545C56.4302 178.785 57.0115 175.035 56.6459 171.27C56.3576 168.441 55.5472 165.655 54.7351 162.863C54.4103 161.744 54.0855 160.626 53.7931 159.503C53.5299 158.491 53.293 157.475 53.1085 156.456C52.0829 150.756 52.6597 144.803 53.232 138.9C54.1791 129.122 55.1138 119.482 48.7323 111.356C45.8832 107.771 41.8442 104.828 37.8442 101.975C35.221 100.097 34.1575 98.7583 33.0945 97.419C32.0338 96.0828 30.9717 94.7452 28.3549 92.8709C28.1993 92.7645 27.2903 91.0318 26.3812 89.2991L26.363 89.2645C25.6639 87.9316 26.1292 87.2728 25.9062 86.2107C25.8392 85.8886 25.6257 85.3859 25.3796 84.9597L12.1435 92.6015L12.2673 292.689Z" fill="#80CFF3"/>
<path d="M4.30047 297.292L177.519 397.461L189.131 390.753C188.493 389.755 187.703 388.734 187.012 387.882C185.151 385.584 183.342 383.352 182.89 378.676C182.41 373.775 181.89 368.816 180.21 364.545C176.358 354.967 167.552 350.958 158.618 346.892C153.215 344.431 147.768 341.952 143.339 338.205C141.669 336.795 140.133 335.192 138.598 333.59C136.588 331.494 134.582 329.402 132.28 327.746C129.198 325.547 125.662 324.176 122.118 322.801C119.086 321.627 116.046 320.447 113.279 318.745C109.064 316.111 105.623 312.284 102.202 308.479C97.5081 303.257 92.8509 298.077 86.2795 296.075C85.2994 295.775 84.2934 295.553 83.2717 295.376C81.8521 295.131 78.9526 294.816 78.9526 294.816C78.9526 294.816 76.2961 294.527 74.9901 294.316C70.2629 293.378 71.3036 290.057 66.8605 288.189C62.4173 286.32 66.153 279.337 63.5296 275.788C60.931 272.272 54.5382 270.945 52.7941 267.578C50.8494 263.823 51.5525 260.453 50.29 255.829C48.4047 248.924 42.5895 249.225 43.9639 240.577C44.7081 234.679 45.0184 232.657 46.343 226.903C47.8949 220.211 45.7377 213.588 43.5628 206.912C41.9779 202.046 40.3839 197.153 40.21 192.185C40.1196 188.938 40.618 185.716 41.1168 182.503C41.6981 178.746 42.2786 174.999 41.9155 171.23C41.6323 168.408 40.8234 165.625 40.0129 162.836C39.3933 160.707 38.7736 158.575 38.3872 156.423C37.3567 150.714 37.9332 144.757 38.5039 138.848C39.4492 129.078 40.3806 119.447 34.0114 111.322C31.1528 107.731 27.1176 104.802 23.1138 101.935C19.2905 99.2059 18.2615 96.5231 17.2024 93.7629C16.8092 92.7382 16.3314 91.563 15.7862 90.5111L4.17067 97.2128L4.30047 297.292Z" fill="#F2E8C0"/>
<path d="M173.08 394.946L346.438 295.018L346.435 281.608C345.251 281.662 343.972 281.836 342.888 282.008C339.969 282.47 337.131 282.921 332.855 280.974C328.371 278.94 323.816 276.91 319.277 276.23C309.056 274.777 301.181 280.399 293.193 286.102C288.361 289.551 283.49 293.029 278.031 294.991C275.974 295.732 273.818 296.261 271.664 296.79C268.844 297.482 266.029 298.173 263.443 299.339C259.998 300.909 257.043 303.285 254.08 305.667C251.547 307.706 249.006 309.748 246.148 311.294C241.76 313.627 236.724 314.693 231.719 315.753C224.849 317.208 218.035 318.651 213.015 323.341C212.265 324.04 211.57 324.8 210.906 325.596C209.984 326.703 208.262 329.057 208.262 329.057C208.262 329.057 206.683 331.213 205.847 332.239C202.672 335.864 200.316 333.302 196.476 336.215C192.636 339.129 188.457 332.402 184.071 332.899C179.727 333.392 175.382 338.265 171.593 338.092C167.37 337.899 164.802 335.604 160.166 334.386C153.244 332.566 150.597 337.753 143.795 332.239C139.059 328.645 137.463 327.365 133.142 323.341C128.123 318.651 121.308 317.208 114.439 315.753C109.433 314.693 104.398 313.627 100.01 311.294C97.1522 309.748 94.6112 307.706 92.078 305.667C89.1151 303.285 86.16 300.909 82.7147 299.339C80.1288 298.173 77.3143 297.482 74.494 296.79C72.3397 296.261 70.1835 295.732 68.1268 294.991C62.6678 293.029 57.7967 289.551 52.9647 286.102C44.9764 280.399 37.1014 274.777 26.8807 276.23C22.3416 276.91 17.7869 278.94 13.3026 280.974C9.02718 282.921 6.1893 282.47 3.26937 282.008C2.18539 281.836 0.928692 281.662 -0.254902 281.608L-0.258789 295.018L173.08 394.946Z" fill="#F2E8C0"/>
<path d="M173.086 400.102L346.447 300.285L346.443 293.552C346.443 293.552 337.134 294.815 334.656 293.869C331.516 292.719 328.177 292.212 324.838 292.38C321.042 292.555 317.386 290.19 313.666 290.974C303.328 293.144 293.019 302.223 280.295 307.367C276.113 309.051 271.614 309.905 267.551 311.865C261.891 314.589 257.39 319.286 251.859 322.268C242.572 327.296 230.783 327.301 222.742 334.11C220.203 336.269 218.208 338.984 215.904 341.394C205.666 352.177 187.911 348.131 187.911 348.131C187.911 348.131 181.046 347.239 178.009 349.045" fill="url(#paint0_linear_43_501)"/>
<path d="M173.086 400.102L346.447 300.285L346.443 293.552C346.443 293.552 337.134 294.815 334.656 293.869C331.516 292.719 328.177 292.212 324.838 292.38C321.042 292.555 317.386 290.19 313.666 290.974C303.328 293.144 293.019 302.223 280.295 307.367C276.113 309.051 271.614 309.905 267.551 311.865C261.891 314.589 257.39 319.286 251.859 322.268C242.572 327.296 230.783 327.301 222.742 334.11C220.203 336.269 218.208 338.984 215.904 341.394C205.666 352.177 187.911 348.131 187.911 348.131C187.911 348.131 181.046 347.239 178.009 349.045" fill="url(#paint1_linear_43_501)"/>
<path d="M178.025 349.052C167.349 355.866 164.885 349.428 156.341 349.052C147.438 348.66 144.961 355.233 134.155 346.777C130.599 343.997 127.6 340.534 123.883 337.995C118.694 334.445 112.373 332.897 107.026 329.602C98.0503 324.074 92.1324 313.869 82.2057 310.308C79.0659 309.188 75.7244 308.817 72.484 308.031C68.3557 306.914 64.3249 305.463 60.4315 303.694C52.4768 300.336 44.4997 296.977 37.0142 292.667C35.2144 291.523 33.3008 290.569 31.3041 289.82C27.5126 288.59 23.4057 289.105 19.4465 289.624C16.7418 289.827 14.0944 290.506 11.6266 291.631C9.69248 292.662 1.40757 293.019 -0.25293 293.596L-0.216006 300.15L173.101 400.108" fill="url(#paint2_linear_43_501)"/>
<path d="M178.025 349.052C167.349 355.866 164.885 349.428 156.341 349.052C147.438 348.66 144.961 355.233 134.155 346.777C130.599 343.997 127.6 340.534 123.883 337.995C118.694 334.445 112.373 332.897 107.026 329.602C98.0503 324.074 92.1324 313.869 82.2057 310.308C79.0659 309.188 75.7244 308.817 72.484 308.031C68.3557 306.914 64.3249 305.463 60.4315 303.694C52.4768 300.336 44.4997 296.977 37.0142 292.667C35.2144 291.523 33.3008 290.569 31.3041 289.82C27.5126 288.59 23.4057 289.105 19.4465 289.624C16.7418 289.827 14.0944 290.506 11.6266 291.631C9.69248 292.662 1.40757 293.019 -0.25293 293.596L-0.216006 300.15L173.101 400.108" fill="url(#paint3_linear_43_501)"/>
<path d="M304.578 270.198C305.141 282.85 298.334 281.765 293.736 288.977C288.946 296.491 293.399 301.922 280.673 307.053C276.488 308.742 271.989 309.608 267.932 311.558C262.263 314.277 257.762 318.977 252.235 321.96C242.959 326.969 231.163 326.992 223.116 333.808C220.576 335.967 218.584 338.675 216.283 341.089C213.251 344.105 209.98 346.871 206.5 349.358C199.615 354.568 205.191 352.001 197.715 356.329C195.825 357.316 194.042 358.496 192.395 359.851C189.433 362.519 193.924 362.493 192.394 366.181C191.218 368.625 190.482 371.258 190.223 373.957C190.148 376.148 186.315 383.501 185.984 385.227L191.679 388.473L346.332 299.99" fill="url(#paint4_linear_43_501)"/>
<path d="M304.578 270.198C305.141 282.85 298.334 281.765 293.736 288.977C288.946 296.491 293.399 301.922 280.673 307.053C276.488 308.742 271.989 309.608 267.932 311.558C262.263 314.277 257.762 318.977 252.235 321.96C242.959 326.969 231.163 326.992 223.116 333.808C220.576 335.967 218.584 338.675 216.283 341.089C213.251 344.105 209.98 346.871 206.5 349.358C199.615 354.568 205.191 352.001 197.715 356.329C195.825 357.316 194.042 358.496 192.395 359.851C189.433 362.519 193.924 362.493 192.394 366.181C191.218 368.625 190.482 371.258 190.223 373.957C190.148 376.148 186.315 383.501 185.984 385.227L191.679 388.473L346.332 299.99" fill="url(#paint5_linear_43_501)"/>
<path d="M346.319 300L346.556 125.819L340.724 122.456C340.724 122.456 337.163 131.149 335.104 132.823C332.538 134.967 330.43 137.605 328.905 140.581C327.159 143.955 323.283 145.939 322.103 149.553C318.813 159.591 321.52 147.196 319.613 160.787C318.98 165.251 317.471 169.574 317.136 174.073C316.665 180.336 318.483 186.583 318.3 192.864C318.011 203.421 312.12 213.633 313.997 224.001C314.597 227.28 315.951 230.365 316.886 233.565C321.105 247.822 308.724 261.176 308.724 261.176C308.724 261.176 304.519 266.675 304.565 270.208" fill="url(#paint6_linear_43_501)"/>
<path d="M346.319 300L346.556 125.819L340.724 122.456C340.724 122.456 337.163 131.149 335.104 132.823C332.538 134.967 330.43 137.605 328.905 140.581C327.159 143.955 323.283 145.939 322.103 149.553C318.813 159.591 321.52 147.196 319.613 160.787C318.98 165.251 317.471 169.574 317.136 174.073C316.665 180.336 318.483 186.583 318.3 192.864C318.011 203.421 312.12 213.633 313.997 224.001C314.597 227.28 315.951 230.365 316.886 233.565C321.105 247.822 308.724 261.176 308.724 261.176C308.724 261.176 304.519 266.675 304.565 270.208" fill="url(#paint7_linear_43_501)"/>
<path d="M4.23912 102.385L4.09937 302.482L15.7149 309.184C16.2601 308.132 16.7488 306.938 17.142 305.913C18.2011 303.153 19.2301 300.47 23.0534 297.741C27.0572 294.874 31.0924 291.945 33.951 288.354C40.3202 280.229 39.3888 270.598 38.4435 260.828C37.8728 254.919 37.2963 248.962 38.3268 243.253C38.7132 241.101 39.3329 238.969 39.9525 236.84C40.7631 234.051 41.5719 231.268 41.8551 228.446C42.2182 224.677 41.6377 220.93 41.0564 217.173C40.5575 213.96 40.0592 210.738 40.1496 207.49C40.3235 202.523 41.9175 197.629 43.5024 192.764C45.6772 186.088 47.8345 179.465 46.2826 172.773C46.0525 171.774 45.7418 170.792 45.3841 169.818C44.8864 168.467 43.7096 165.798 43.7096 165.798C43.7096 165.798 42.6313 163.353 42.1612 162.117C40.6098 157.554 44.0061 156.795 43.4028 152.012C42.7995 147.23 50.7146 146.974 52.4771 142.927C54.2228 138.919 52.1752 132.719 54.2192 129.525C56.4983 125.964 59.7691 124.887 63.1423 121.482C68.1796 116.397 65.0113 111.511 73.1874 108.378C78.6677 106.073 80.574 105.331 86.2192 103.601C92.7905 101.599 97.4477 96.419 102.142 91.1974C105.563 87.3923 109.004 83.5649 113.219 80.9307C115.986 79.2288 119.025 78.0495 122.057 76.8749C125.602 75.4999 129.137 74.129 132.219 71.9301C134.522 70.2737 136.528 68.1817 138.537 66.0855C140.072 64.484 141.609 62.8812 143.279 61.4707C147.707 57.7241 153.155 55.2446 158.558 52.7843C167.491 48.718 176.298 44.7091 180.149 35.1309C181.83 30.8599 182.349 25.9005 182.83 20.9999C183.282 16.3241 185.091 14.0915 186.952 11.7942C187.642 10.9414 188.421 9.94002 189.06 8.94185L177.448 2.2334L4.23912 102.385Z" fill="#F2E8C0"/>
<path d="M46.5176 278.628C35.2791 272.79 39.6224 267.437 35.6759 259.85C31.5635 251.944 24.6333 253.085 26.5528 239.498C27.1826 235.029 28.6822 230.701 29.0221 226.212C29.502 219.943 27.6824 213.695 27.8624 207.417C28.1623 196.879 34.0408 186.652 32.1613 176.275C31.5614 172.996 30.2118 169.916 29.272 166.717C28.1755 162.583 27.4165 158.367 27.0026 154.11C25.9329 145.543 24.8532 166.05 24.8432 157.412C24.934 155.281 24.8033 153.147 24.4533 151.044C23.6235 147.145 21.1241 143.846 18.6948 140.676C17.1669 138.435 15.2546 136.483 13.0462 134.908C11.1867 133.748 6.73495 126.752 5.4053 125.602L-0.252804 128.911L-0.160282 299.893" fill="url(#paint8_linear_43_501)"/>
<path d="M46.5176 278.628C35.2791 272.79 39.6224 267.437 35.6759 259.85C31.5635 251.944 24.6333 253.085 26.5528 239.498C27.1826 235.029 28.6822 230.701 29.0221 226.212C29.502 219.943 27.6824 213.695 27.8624 207.417C28.1623 196.879 34.0408 186.652 32.1613 176.275C31.5614 172.996 30.2118 169.916 29.272 166.717C28.1755 162.583 27.4165 158.367 27.0026 154.11C25.9329 145.543 24.8532 166.05 24.8432 157.412C24.934 155.281 24.8033 153.147 24.4533 151.044C23.6235 147.145 21.1241 143.846 18.6948 140.676C17.1669 138.435 15.2546 136.483 13.0462 134.908C11.1867 133.748 6.73495 126.752 5.4053 125.602L-0.252804 128.911L-0.160282 299.893" fill="url(#paint9_linear_43_501)"/>
<path d="M-0.162071 299.873L151.587 387.554L157.415 384.185C157.415 384.185 151.667 376.755 151.247 374.135C150.673 370.841 149.442 367.696 147.628 364.888C145.579 361.689 145.798 357.34 143.259 354.51C136.211 346.643 144.57 354.799 133.753 346.351C130.204 343.572 127.215 340.103 123.486 337.563C118.297 334.024 111.979 332.475 106.63 329.176C97.6325 323.647 91.7341 313.44 81.8166 309.881C78.6775 308.761 75.3283 308.391 72.0892 307.601C57.6325 304.126 52.2588 286.727 52.2588 286.727C52.2588 286.727 49.5987 280.335 46.5158 278.609" fill="url(#paint10_linear_43_501)"/>
<path d="M-0.162071 299.873L151.587 387.554L157.415 384.185C157.415 384.185 151.667 376.755 151.247 374.135C150.673 370.841 149.442 367.696 147.628 364.888C145.579 361.689 145.798 357.34 143.259 354.51C136.211 346.643 144.57 354.799 133.753 346.351C130.204 343.572 127.215 340.103 123.486 337.563C118.297 334.024 111.979 332.475 106.63 329.176C97.6325 323.647 91.7341 313.44 81.8166 309.881C78.6775 308.761 75.3283 308.391 72.0892 307.601C57.6325 304.126 52.2588 286.727 52.2588 286.727C52.2588 286.727 49.5987 280.335 46.5158 278.609" fill="url(#paint11_linear_43_501)"/>
<path d="M172.991 4.84473L-0.367676 104.772L-0.363768 118.182C0.819826 118.128 2.09833 117.955 3.18231 117.783C6.10224 117.32 8.94013 116.87 13.2155 118.816C17.6999 120.85 22.2546 122.88 26.7936 123.56C37.0143 125.014 44.8893 119.392 52.8776 113.688C57.7097 110.239 62.5807 106.761 68.0397 104.799C70.0964 104.058 72.2526 103.529 74.4069 103C77.2272 102.308 80.0417 101.617 82.6276 100.451C86.0729 98.8814 89.028 96.5049 91.9909 94.1231C94.5241 92.0845 97.0651 90.042 99.9225 88.4966C104.311 86.1636 109.346 85.0972 114.352 84.0371C121.221 82.5825 128.036 81.1392 133.055 76.4492C133.805 75.7505 134.501 74.9902 135.165 74.1938C136.087 73.0869 137.809 70.7334 137.809 70.7334C137.809 70.7334 139.387 68.5772 140.223 67.5518C143.399 63.9268 145.755 66.4885 149.595 63.575C153.434 60.6614 157.614 67.388 162 66.8909C166.344 66.3985 170.689 61.5254 174.477 61.6985C178.701 61.8916 181.269 64.1859 185.905 65.4046C192.827 67.2243 195.474 62.0378 202.276 67.5518C207.012 71.1454 208.608 72.4252 212.928 76.4492C217.948 81.1392 224.762 82.5825 231.631 84.0371C236.637 85.0972 241.672 86.1636 246.061 88.4966C248.919 90.042 251.46 92.0845 253.993 94.123C256.956 96.5049 259.911 98.8813 263.356 100.451C265.942 101.617 268.756 102.308 271.577 103C273.731 103.529 275.887 104.058 277.944 104.799C283.403 106.761 288.274 110.239 293.106 113.688C301.094 119.392 308.969 125.014 319.19 123.56C323.729 122.88 328.284 120.85 332.768 118.816C337.044 116.87 339.881 117.32 342.801 117.783C343.885 117.955 345.142 118.128 346.326 118.182L346.33 104.772L172.991 4.84473Z" fill="#F2E8C0"/>
<path d="M172.985 -0.311523L-0.375732 99.5056L-0.372222 106.238C-0.372222 106.238 8.9367 104.975 11.415 105.921C14.5547 107.071 17.8937 107.578 21.2332 107.411C25.0285 107.235 28.6848 109.6 32.4047 108.816C42.7426 106.646 53.0518 97.5675 65.7764 92.4235C69.9578 90.7395 74.4568 89.8853 78.5204 87.9255C84.1797 85.2016 88.6809 80.5045 94.2123 77.5221C103.499 72.4941 115.288 72.4896 123.329 65.6804C125.868 63.5216 127.863 60.8062 130.167 58.3959C140.405 47.6136 158.16 51.6594 158.16 51.6594C158.16 51.6594 165.025 52.5515 168.062 50.7449" fill="url(#paint12_linear_43_501)"/>
<path d="M172.985 -0.311523L-0.375732 99.5056L-0.372222 106.238C-0.372222 106.238 8.9367 104.975 11.415 105.921C14.5547 107.071 17.8937 107.578 21.2332 107.411C25.0285 107.235 28.6848 109.6 32.4047 108.816C42.7426 106.646 53.0518 97.5675 65.7764 92.4235C69.9578 90.7395 74.4568 89.8853 78.5204 87.9255C84.1797 85.2016 88.6809 80.5045 94.2123 77.5221C103.499 72.4941 115.288 72.4896 123.329 65.6804C125.868 63.5216 127.863 60.8062 130.167 58.3959C140.405 47.6136 158.16 51.6594 158.16 51.6594C158.16 51.6594 165.025 52.5515 168.062 50.7449" fill="url(#paint13_linear_43_501)"/>
<path d="M168.046 50.7381C178.721 43.9243 181.185 50.3623 189.729 50.7381C198.632 51.1297 201.109 44.5574 211.916 53.013C215.471 55.7928 218.47 59.256 222.188 61.7948C227.376 65.3445 233.697 66.893 239.045 70.188C248.02 75.7164 253.938 85.9209 263.865 89.4819C267.004 90.602 270.346 90.9727 273.586 91.7585C277.715 92.8758 281.745 94.3265 285.639 96.0965C293.594 99.4539 301.571 102.813 309.056 107.123C310.856 108.267 312.77 109.221 314.766 109.969C318.558 111.2 322.665 110.685 326.624 110.166C329.329 109.963 331.976 109.284 334.444 108.159C336.378 107.128 344.663 106.771 346.323 106.194L346.286 99.6395L172.969 -0.318359" fill="url(#paint14_linear_43_501)"/>
<path d="M168.046 50.7381C178.721 43.9243 181.185 50.3623 189.729 50.7381C198.632 51.1297 201.109 44.5574 211.916 53.013C215.471 55.7928 218.47 59.256 222.188 61.7948C227.376 65.3445 233.697 66.893 239.045 70.188C248.02 75.7164 253.938 85.9209 263.865 89.4819C267.004 90.602 270.346 90.9727 273.586 91.7585C277.715 92.8758 281.745 94.3265 285.639 96.0965C293.594 99.4539 301.571 102.813 309.056 107.123C310.856 108.267 312.77 109.221 314.766 109.969C318.558 111.2 322.665 110.685 326.624 110.166C329.329 109.963 331.976 109.284 334.444 108.159C336.378 107.128 344.663 106.771 346.323 106.194L346.286 99.6395L172.969 -0.318359" fill="url(#paint15_linear_43_501)"/>
<path d="M346.465 99.9069L190.363 9.79663L184.534 13.1658C184.534 13.1658 190.282 20.5961 190.702 23.2154C191.276 26.5095 192.507 29.6545 194.321 32.463C196.371 35.6622 196.151 40.0111 198.69 42.8403C205.738 50.7083 201.732 44.9812 212.55 53.429C216.099 56.2083 219.088 59.6774 222.817 62.2167C228.005 65.7558 234.324 67.3054 239.672 70.6046C248.67 76.1331 254.569 86.3405 264.486 89.8995C267.625 91.0192 270.974 91.3891 274.213 92.1789C288.67 95.6541 294.044 113.053 294.044 113.053C294.044 113.053 296.704 119.445 299.787 121.171" fill="url(#paint16_linear_43_501)"/>
<path d="M346.465 99.9069L190.363 9.79663L184.534 13.1658C184.534 13.1658 190.282 20.5961 190.702 23.2154C191.276 26.5095 192.507 29.6545 194.321 32.463C196.371 35.6622 196.151 40.0111 198.69 42.8403C205.738 50.7083 201.732 44.9812 212.55 53.429C216.099 56.2083 219.088 59.6774 222.817 62.2167C228.005 65.7558 234.324 67.3054 239.672 70.6046C248.67 76.1331 254.569 86.3405 264.486 89.8995C267.625 91.0192 270.974 91.3891 274.213 92.1789C288.67 95.6541 294.044 113.053 294.044 113.053C294.044 113.053 296.704 119.445 299.787 121.171" fill="url(#paint17_linear_43_501)"/>
<path d="M299.785 121.156C311.024 126.994 306.68 132.347 310.627 139.934C314.739 147.84 321.669 146.699 319.75 160.285C319.12 164.754 317.621 169.083 317.281 173.572C316.801 179.84 318.62 186.089 318.44 192.367C318.14 202.904 312.262 213.132 314.141 223.509C314.741 226.788 316.091 229.867 317.031 233.067C318.127 237.2 318.886 241.417 319.3 245.673C320.37 254.241 321.45 220.163 321.46 228.801C321.369 230.931 321.499 233.066 321.849 235.169C322.679 239.068 325.179 242.367 327.608 245.536C329.136 247.777 331.048 249.73 333.257 251.305C335.116 252.465 339.568 259.461 340.897 260.611L346.556 257.301L346.463 99.8911" fill="url(#paint18_linear_43_501)"/>
<path d="M299.785 121.156C311.024 126.994 306.68 132.347 310.627 139.934C314.739 147.84 321.669 146.699 319.75 160.285C319.12 164.754 317.621 169.083 317.281 173.572C316.801 179.84 318.62 186.089 318.44 192.367C318.14 202.904 312.262 213.132 314.141 223.509C314.741 226.788 316.091 229.867 317.031 233.067C318.127 237.2 318.886 241.417 319.3 245.673C320.37 254.241 321.45 220.163 321.46 228.801C321.369 230.931 321.499 233.066 321.849 235.169C322.679 239.068 325.179 242.367 327.608 245.536C329.136 247.777 331.048 249.73 333.257 251.305C335.116 252.465 339.568 259.461 340.897 260.611L346.556 257.301L346.463 99.8911" fill="url(#paint19_linear_43_501)"/>
<path d="M-0.229248 99.8123L-0.465332 255.185L5.36666 258.548C5.36666 258.548 8.9275 249.855 10.9859 248.181C13.5518 246.037 15.66 243.399 17.1851 240.423C18.9309 237.049 22.8071 235.065 23.9876 231.451C27.2774 221.413 24.5698 252.617 26.4773 239.025C27.1097 234.562 28.6194 230.239 28.954 225.74C29.4246 219.476 27.6074 213.23 27.7902 206.948C28.0793 196.392 33.9699 186.18 32.0934 175.812C31.4935 172.533 30.1393 169.448 29.2037 166.248C24.985 151.99 37.3662 138.637 37.3662 138.637C37.3662 138.637 41.5715 133.137 41.5252 129.604" fill="url(#paint20_linear_43_501)"/>
<path d="M-0.229248 99.8123L-0.465332 255.185L5.36666 258.548C5.36666 258.548 8.9275 249.855 10.9859 248.181C13.5518 246.037 15.66 243.399 17.1851 240.423C18.9309 237.049 22.8071 235.065 23.9876 231.451C27.2774 221.413 24.5698 252.617 26.4773 239.025C27.1097 234.562 28.6194 230.239 28.954 225.74C29.4246 219.476 27.6074 213.23 27.7902 206.948C28.0793 196.392 33.9699 186.18 32.0934 175.812C31.4935 172.533 30.1393 169.448 29.2037 166.248C24.985 151.99 37.3662 138.637 37.3662 138.637C37.3662 138.637 41.5715 133.137 41.5252 129.604" fill="url(#paint21_linear_43_501)"/>
<path d="M41.5118 129.616C40.9486 116.964 47.7561 118.049 52.3535 110.838C57.1442 103.323 52.6909 97.8921 65.4168 92.7612C69.6019 91.0722 74.1006 90.2065 78.158 88.2564C83.8265 85.5378 88.328 80.8378 93.8552 77.8545C103.131 72.8456 114.927 72.8228 122.974 66.0065C125.514 63.8474 127.506 61.139 129.807 58.7256C132.839 55.709 136.11 52.9436 139.59 50.4568C146.475 45.2465 125.579 56.375 133.054 52.0475C134.945 51.0608 136.728 49.8805 138.375 48.5256C141.336 45.8575 142.944 42.0435 144.474 38.355C145.651 35.9113 146.386 33.2787 146.645 30.579C146.72 28.3887 150.553 21.0352 150.884 19.3088L145.189 16.0634L-0.242676 99.8242" fill="url(#paint22_linear_43_501)"/>
<path d="M41.5118 129.616C40.9486 116.964 47.7561 118.049 52.3535 110.838C57.1442 103.323 52.6909 97.8921 65.4168 92.7612C69.6019 91.0722 74.1006 90.2065 78.158 88.2564C83.8265 85.5378 88.328 80.8378 93.8552 77.8545C103.131 72.8456 114.927 72.8228 122.974 66.0065C125.514 63.8474 127.506 61.139 129.807 58.7256C132.839 55.709 136.11 52.9436 139.59 50.4568C146.475 45.2465 125.579 56.375 133.054 52.0475C134.945 51.0608 136.728 49.8805 138.375 48.5256C141.336 45.8575 142.944 42.0435 144.474 38.355C145.651 35.9113 146.386 33.2787 146.645 30.579C146.72 28.3887 150.553 21.0352 150.884 19.3088L145.189 16.0634L-0.242676 99.8242" fill="url(#paint23_linear_43_501)"/>
</g>
<defs>
<linearGradient id="paint0_linear_43_501" x1="253.437" y1="353.541" x2="237.501" y2="324.557" gradientUnits="userSpaceOnUse">
<stop offset="0.05" stop-color="#E0B568"/>
<stop offset="1" stop-color="#E8CF96"/>
</linearGradient>
<linearGradient id="paint1_linear_43_501" x1="173.608" y1="385.54" x2="188.598" y2="375.505" gradientUnits="userSpaceOnUse">
<stop stop-color="#E0B568"/>
<stop offset="1" stop-color="#E0B568" stop-opacity="0"/>
</linearGradient>
<linearGradient id="paint2_linear_43_501" x1="85.1913" y1="349.353" x2="101.763" y2="320.65" gradientUnits="userSpaceOnUse">
<stop offset="0.05" stop-color="#E0B568"/>
<stop offset="1" stop-color="#E8CF96"/>
</linearGradient>
<linearGradient id="paint3_linear_43_501" x1="174.172" y1="387.645" x2="159.995" y2="375.208" gradientUnits="userSpaceOnUse">
<stop stop-color="#E0B568"/>
<stop offset="1" stop-color="#E0B568" stop-opacity="0"/>
</linearGradient>
<linearGradient id="paint4_linear_43_501" x1="258.423" y1="350.745" x2="241.851" y2="322.042" gradientUnits="userSpaceOnUse">
<stop offset="0.05" stop-color="#E0B568"/>
<stop offset="1" stop-color="#E8CF96"/>
</linearGradient>
<linearGradient id="paint5_linear_43_501" x1="336.075" y1="292.831" x2="318.215" y2="298.89" gradientUnits="userSpaceOnUse">
<stop stop-color="#E0B568"/>
<stop offset="1" stop-color="#E0B568" stop-opacity="0"/>
</linearGradient>
<linearGradient id="paint6_linear_43_501" x1="346.172" y1="207.134" x2="313.104" y2="206.443" gradientUnits="userSpaceOnUse">
<stop offset="0.05" stop-color="#E0B568"/>
<stop offset="1" stop-color="#E8CF96"/>
</linearGradient>
<linearGradient id="paint7_linear_43_501" x1="333.97" y1="292.267" x2="332.774" y2="274.268" gradientUnits="userSpaceOnUse">
<stop stop-color="#E0B568"/>
<stop offset="1" stop-color="#E0B568" stop-opacity="0"/>
</linearGradient>
<linearGradient id="paint8_linear_43_501" x1="-0.159927" y1="198.383" x2="32.9832" y2="198.383" gradientUnits="userSpaceOnUse">
<stop offset="0.05" stop-color="#E0B568"/>
<stop offset="1" stop-color="#E8CF96"/>
</linearGradient>
<linearGradient id="paint9_linear_43_501" x1="11.1688" y1="294.589" x2="14.851" y2="276.092" gradientUnits="userSpaceOnUse">
<stop stop-color="#E0B568"/>
<stop offset="1" stop-color="#E0B568" stop-opacity="0"/>
</linearGradient>
<linearGradient id="paint10_linear_43_501" x1="80.3362" y1="346.181" x2="97.4688" y2="317.888" gradientUnits="userSpaceOnUse">
<stop offset="0.05" stop-color="#E0B568"/>
<stop offset="1" stop-color="#E8CF96"/>
</linearGradient>
<linearGradient id="paint11_linear_43_501" x1="12.7102" y1="293.047" x2="28.895" y2="301.011" gradientUnits="userSpaceOnUse">
<stop stop-color="#E0B568"/>
<stop offset="1" stop-color="#E0B568" stop-opacity="0"/>
</linearGradient>
<linearGradient id="paint12_linear_43_501" x1="92.6342" y1="46.2493" x2="108.57" y2="75.2326" gradientUnits="userSpaceOnUse">
<stop offset="0.05" stop-color="#E0B568"/>
<stop offset="1" stop-color="#E8CF96"/>
</linearGradient>
<linearGradient id="paint13_linear_43_501" x1="172.462" y1="14.2503" x2="157.473" y2="24.2848" gradientUnits="userSpaceOnUse">
<stop stop-color="#E0B568"/>
<stop offset="1" stop-color="#E0B568" stop-opacity="0"/>
</linearGradient>
<linearGradient id="paint14_linear_43_501" x1="260.879" y1="50.4368" x2="244.307" y2="79.1396" gradientUnits="userSpaceOnUse">
<stop offset="0.05" stop-color="#E0B568"/>
<stop offset="1" stop-color="#E8CF96"/>
</linearGradient>
<linearGradient id="paint15_linear_43_501" x1="171.898" y1="12.1448" x2="186.076" y2="24.5822" gradientUnits="userSpaceOnUse">
<stop stop-color="#E0B568"/>
<stop offset="1" stop-color="#E0B568" stop-opacity="0"/>
</linearGradient>
<linearGradient id="paint16_linear_43_501" x1="265.966" y1="53.6026" x2="248.834" y2="81.8948" gradientUnits="userSpaceOnUse">
<stop offset="0.05" stop-color="#E0B568"/>
<stop offset="1" stop-color="#E8CF96"/>
</linearGradient>
<linearGradient id="paint17_linear_43_501" x1="333.592" y1="106.736" x2="317.407" y2="98.7722" gradientUnits="userSpaceOnUse">
<stop stop-color="#E0B568"/>
<stop offset="1" stop-color="#E0B568" stop-opacity="0"/>
</linearGradient>
<linearGradient id="paint18_linear_43_501" x1="346.463" y1="201.401" x2="313.32" y2="201.401" gradientUnits="userSpaceOnUse">
<stop offset="0.05" stop-color="#E0B568"/>
<stop offset="1" stop-color="#E8CF96"/>
</linearGradient>
<linearGradient id="paint19_linear_43_501" x1="335.134" y1="105.195" x2="331.452" y2="123.692" gradientUnits="userSpaceOnUse">
<stop stop-color="#E0B568"/>
<stop offset="1" stop-color="#E0B568" stop-opacity="0"/>
</linearGradient>
<linearGradient id="paint20_linear_43_501" x1="-0.0815456" y1="192.678" x2="32.9865" y2="193.37" gradientUnits="userSpaceOnUse">
<stop offset="0.05" stop-color="#E0B568"/>
<stop offset="1" stop-color="#E8CF96"/>
</linearGradient>
<linearGradient id="paint21_linear_43_501" x1="12.1206" y1="107.546" x2="13.316" y2="125.544" gradientUnits="userSpaceOnUse">
<stop stop-color="#E0B568"/>
<stop offset="1" stop-color="#E0B568" stop-opacity="0"/>
</linearGradient>
<linearGradient id="paint22_linear_43_501" x1="87.6673" y1="49.0677" x2="104.239" y2="77.7704" gradientUnits="userSpaceOnUse">
<stop offset="0.05" stop-color="#E0B568"/>
<stop offset="1" stop-color="#E8CF96"/>
</linearGradient>
<linearGradient id="paint23_linear_43_501" x1="10.0149" y1="106.982" x2="27.8749" y2="100.922" gradientUnits="userSpaceOnUse">
<stop stop-color="#E0B568"/>
<stop offset="1" stop-color="#E0B568" stop-opacity="0"/>
</linearGradient>
<clipPath id="clip0_43_501">
<rect width="346.09" height="399.79" fill="white"/>
</clipPath>
</defs>
</svg>
