<svg width="132" height="132" viewBox="0 0 132 132" fill="none" xmlns="http://www.w3.org/2000/svg">
<g clip-path="url(#clip0_7_28)">
<path opacity="0.5" d="M115.1 131.9H21.8999C17.4085 131.9 13.0996 130.113 9.9143 126.929C6.72905 123.746 4.92632 119.425 4.8999 114.909V21.1117C4.92614 16.6138 6.7151 12.3076 9.87879 9.12703C13.0425 5.94646 17.3258 4.14796 21.7999 4.12158H115.1C119.574 4.14796 123.857 5.94646 127.021 9.12703C130.185 12.3076 131.974 16.6138 132 21.1117V114.909C132 119.425 130.223 123.757 127.056 126.959C123.89 130.161 119.591 131.974 115.1 132V131.9Z" fill="black"/>
<path d="M110.2 127.778H16.9C12.4087 127.751 8.1103 125.939 4.94378 122.737C1.77726 119.535 -7.77041e-05 115.203 2.54795e-09 110.687V16.8896C0.0523597 12.4092 1.85284 8.1286 5.01373 4.96965C8.17463 1.8107 12.4431 0.0260482 16.9 4.09859e-08H110.2C114.674 -0.000311257 118.968 1.77268 122.151 4.93445C125.333 8.09622 127.147 12.3918 127.2 16.8896V110.788C127.174 115.303 125.371 119.624 122.186 122.808C119 125.991 114.691 127.778 110.2 127.778Z" fill="#EAE9E4"/>
<path d="M46.0001 97.1153C50.4001 96.9142 53.0001 102.946 49.7001 105.962C46.7001 109.28 40.5001 106.766 40.8001 102.343C40.7718 101.649 40.887 100.956 41.1384 100.309C41.3897 99.6622 41.7717 99.0745 42.2604 98.5833C42.749 98.0921 43.3335 97.7081 43.9772 97.4554C44.6209 97.2027 45.3096 97.0869 46.0001 97.1153ZM63.6001 97.1153C68.0001 96.9142 70.6001 102.946 67.3001 105.962C64.3001 109.28 58.1001 106.766 58.4001 102.343C58.3718 101.649 58.487 100.956 58.7384 100.309C58.9897 99.6622 59.3717 99.0745 59.8604 98.5833C60.349 98.0921 60.9335 97.7081 61.5772 97.4554C62.2209 97.2027 62.9096 97.0869 63.6001 97.1153ZM81.2001 97.1153C85.5001 96.9142 88.2001 102.946 84.9001 105.962C81.9001 109.28 75.7001 106.766 76.0001 102.343C75.9718 101.649 76.087 100.956 76.3384 100.309C76.5897 99.6622 76.9717 99.0745 77.4604 98.5833C77.949 98.0921 78.5335 97.7081 79.1772 97.4554C79.8209 97.2027 80.5096 97.0869 81.2001 97.1153Z" fill="#004405"/>
<path d="M87.0001 67.2566L83.2001 67.3572L82.4001 86.4585L62.5001 88.2681L63.5001 67.8598L40.1001 68.3625L46.6001 29.5566H63.2001L58.4001 56.7006L64.2001 56.399L65.9001 22.9214H84.9001L83.6001 55.6953L87.0001 55.5948V67.1561V67.2566Z" fill="#004405"/>
</g>
<defs>
<clipPath id="clip0_7_28">
<rect width="132" height="132" fill="white"/>
</clipPath>
</defs>
</svg>
