<svg width="346" height="401" viewBox="0 0 346 401" fill="none" xmlns="http://www.w3.org/2000/svg">
<g clip-path="url(#clip0_65_28)">
<path d="M343.947 124.392L148.748 11.6366L137.291 18.0681C137.291 18.2447 138.032 22.8677 139.075 26.6557C139.921 29.7314 140.692 32.5315 140.705 32.6749C141.02 35.8834 141.984 37.5259 142.949 39.1689C143.914 40.8134 144.88 42.4584 145.195 45.6749C145.585 49.6581 147.033 53.1127 148.479 56.5651C148.812 57.3597 149.145 58.1541 149.465 58.9549C153.312 68.5445 162.127 72.5553 171.068 76.6231C176.467 79.0794 181.911 81.5564 186.335 85.2949C188.004 86.7085 189.538 88.3089 191.07 89.9072C193.082 92.0062 195.09 94.1015 197.395 95.7649C200.477 97.9636 204.013 99.3346 207.557 100.709C210.589 101.885 213.628 103.063 216.395 104.765C220.61 107.4 224.051 111.227 227.472 115.032C232.166 120.253 236.824 125.433 243.395 127.435C245.736 128.146 248.227 128.419 250.719 128.692C252.048 128.837 253.377 128.983 254.685 129.195C259.413 130.128 264.034 131.542 268.475 133.415L268.717 133.508C277.638 136.927 286.64 140.378 294.915 145.125C296.909 146.428 299.068 147.461 301.335 148.195C305.695 149.345 310.665 148.095 315.455 146.855C316.598 146.556 317.855 146.423 319.137 146.287C321.501 146.037 323.947 145.778 325.905 144.455C331.122 140.932 339.249 137.699 343.947 137.699L343.947 124.392Z" fill="#57AFD6"/>
<path d="M343.949 113.288L158.371 6.09409L147.644 12.2341C148.876 14.3685 150.194 17.3231 150.415 20.125C150.73 23.3283 151.357 24.9158 151.984 26.5037C152.612 28.0933 153.24 29.6833 153.555 32.895C154.025 37.785 154.555 42.755 156.235 47.015C160.082 56.6046 168.898 60.6154 177.838 64.6832C183.237 67.1394 188.681 69.6164 193.105 73.355C194.774 74.7685 196.308 76.369 197.84 77.9672C199.852 80.0663 201.86 82.1616 204.165 83.825C207.244 86.0246 210.781 87.3958 214.328 88.7708C217.361 89.9462 220.4 91.1243 223.165 92.825C227.381 95.4597 230.821 99.2867 234.242 103.092C238.937 108.313 243.594 113.494 250.165 115.495C252.499 116.205 254.989 116.478 257.479 116.751C258.809 116.897 260.139 117.043 261.445 117.255C266.177 118.188 270.801 119.602 275.245 121.475L275.646 121.629C284.515 125.028 293.459 128.456 301.675 133.185C303.673 134.482 305.831 135.514 308.095 136.255C312.455 137.405 317.435 136.155 322.225 134.915C323.365 134.616 324.621 134.483 325.902 134.347C328.262 134.097 330.707 133.837 332.665 132.515C333.59 131.9 335.205 131.258 337.083 130.51C339.268 129.641 341.677 128.716 343.949 128.716L343.949 113.288Z" fill="#80CFF3"/>
<path d="M344 104.112L166.349 1.48879L156.671 7.07342C159.031 10.7634 160.267 13.7052 160.887 20.1152C161.367 25.0152 161.887 29.9752 163.567 34.2452C167.418 43.8235 176.225 47.8328 185.159 51.9C190.561 54.3592 196.009 56.8397 200.437 60.5852C202.108 61.9966 203.644 63.5992 205.179 65.1998C207.188 67.2963 209.195 69.3894 211.497 71.0452C214.579 73.2438 218.115 74.6149 221.659 75.9892C224.691 77.1652 227.73 78.3437 230.497 80.0452C234.712 82.6799 238.153 86.5069 241.574 90.312C246.269 95.5335 250.926 100.714 257.497 102.715C259.839 103.433 262.331 103.704 264.824 103.975C266.152 104.119 267.48 104.263 268.787 104.475C273.514 105.413 278.134 106.827 282.577 108.695L282.819 108.788C291.74 112.208 300.742 115.658 309.017 120.405C311.011 121.709 313.17 122.741 315.437 123.475C319.797 124.625 324.767 123.375 329.557 122.135C330.964 121.767 331.438 120.119 332.917 119.197C336.61 116.896 343.941 117.587 343.941 117.587L344 104.112Z" fill="#F2E8C0"/>
<path d="M165.281 2.07166L167.48 4.40676C168.68 5.75676 168.83 6.24676 169.4 8.83676C170.47 13.6968 172.07 13.8368 173.14 18.6768C173.96 22.3868 174.8 26.1668 176.62 29.5068C183.17 41.5668 199.32 43.9468 210.13 52.3968C213.69 55.1768 216.68 58.6468 220.41 61.1868C225.6 64.7268 231.92 66.2768 237.27 69.5768C246.27 75.1068 252.16 85.3168 262.09 88.8768C265.23 89.9968 268.58 90.3768 271.82 91.1568C275.947 92.2705 279.977 93.7186 283.87 95.4868C291.87 98.8468 299.81 102.217 307.3 106.487C309.095 107.634 311.005 108.589 313 109.337C316.8 110.567 320.91 110.057 324.87 109.537C327.55 109.177 335.59 108.307 337.43 107.107C340.29 105.247 342.29 106.121 343.95 105.541L343.95 98.9268L170.74 -1.07324L165.281 2.07166Z" fill="url(#paint0_linear_65_28)"/>
</g>
<defs>
<linearGradient id="paint0_linear_65_28" x1="241.376" y1="77.3071" x2="257.671" y2="49.0834" gradientUnits="userSpaceOnUse">
<stop stop-color="#E8CF96"/>
<stop offset="0.95" stop-color="#E0B568"/>
</linearGradient>
<clipPath id="clip0_65_28">
<rect width="346" height="400" fill="white" transform="translate(0 0.926758)"/>
</clipPath>
</defs>
</svg>
