<svg width="132" height="132" viewBox="0 0 132 132" fill="none" xmlns="http://www.w3.org/2000/svg">
<g clip-path="url(#clip0_7_3)">
<path opacity="0.5" d="M115.1 131.9H21.8999C17.4085 131.9 13.0996 130.113 9.9143 126.929C6.72905 123.746 4.92632 119.425 4.8999 114.909V21.1117C4.92614 16.6138 6.7151 12.3076 9.87879 9.12703C13.0425 5.94646 17.3258 4.14796 21.7999 4.12158H115.1C119.574 4.14796 123.857 5.94646 127.021 9.12703C130.185 12.3076 131.974 16.6138 132 21.1117V114.909C132 119.425 130.223 123.757 127.056 126.959C123.89 130.161 119.591 131.974 115.1 132V131.9Z" fill="black"/>
<path d="M110.2 127.778H16.9C12.4087 127.751 8.1103 125.939 4.94378 122.737C1.77726 119.535 -7.77041e-05 115.203 2.54795e-09 110.687V16.8896C0.0523597 12.4092 1.85284 8.1286 5.01373 4.96965C8.17463 1.8107 12.4431 0.0260482 16.9 4.09859e-08H110.2C114.674 -0.000311257 118.968 1.77268 122.151 4.93445C125.333 8.09622 127.147 12.3918 127.2 16.8896V110.788C127.174 115.303 125.371 119.624 122.186 122.808C119 125.991 114.691 127.778 110.2 127.778Z" fill="#EAE9E4"/>
<path d="M54.9001 97.1153C59.2001 96.9142 61.9001 102.946 58.5001 105.962C55.5001 109.28 49.3001 106.766 49.6001 102.343C49.5719 101.649 49.6871 100.956 49.9384 100.309C50.1898 99.6622 50.5718 99.0745 51.0604 98.5833C51.549 98.0921 52.1336 97.7081 52.7772 97.4554C53.4209 97.2027 54.1097 97.0869 54.8001 97.1153H54.9001ZM72.4001 97.1153C76.7001 96.9142 79.4001 102.946 76.1001 105.962C73.1001 109.28 66.9001 106.766 67.2001 102.343C67.1719 101.649 67.2871 100.956 67.5384 100.309C67.7898 99.6622 68.1718 99.0745 68.6604 98.5833C69.149 98.0921 69.7336 97.7081 70.3772 97.4554C71.0209 97.2027 71.7097 97.0869 72.4001 97.1153Z" fill="#004405"/>
<path d="M86.2 66.3519C86.2 70.2727 85.5 73.6908 84.2 76.5057C83 79.4212 81.3 81.834 79.1 83.6436C76.7665 85.6358 74.0401 87.109 71.1 87.9665C66.0348 89.4526 60.7032 89.7814 55.4953 88.9291C50.2874 88.0768 45.3348 86.0648 41 83.0404L42.7 65.246C45.1656 66.9575 47.8587 68.3112 50.7 69.2673C53.5376 70.2709 56.4983 70.8798 59.5 71.0769C60.3 71.0769 61.2 71.0769 62.1 70.8759C62.9 70.8759 63.7 70.5743 64.4 70.1721C65.1 69.77 65.7 69.3679 66.1 68.6641C66.6 68.0609 66.8 67.2567 66.8 66.1508C66.8 65.5476 66.5 64.9444 65.9 64.3412C65.4 63.8385 64.7 63.3359 63.9 62.9337C62.3968 62.1963 60.7679 61.7528 59.1 61.6268C57.4096 61.6367 55.7281 61.8734 54.1 62.3305C53.6 62.4311 53.2 62.6321 52.9 62.9337L53.2 50.2665C54.1293 50.3816 55.0639 50.4487 56 50.4676L59.4 50.166C60.7 49.9649 61.7 49.6633 62.7 49.1606C63.7 48.658 64.6 47.9542 65.3 47.15C66 46.2452 66.3 45.1393 66.3 43.8324C66.3 42.827 66 42.0228 65.5 41.4196C65 40.8164 64.3 40.4142 63.5 40.1126C62.7006 39.7698 61.8602 39.5333 61 39.4089C58.2376 39.0138 55.4229 39.2224 52.748 40.0205C50.073 40.8186 47.6008 42.1873 45.5 44.0334L41.8 27.9481C44.5 25.7364 47.5 23.9268 51 22.9214C54.5 21.9161 57.9 21.1118 61.4 21.1118C64.6 21.1118 67.6 21.5139 70.5 22.5193C73.5 23.4241 76 24.8316 78.2 26.5406C81.0038 28.7443 83.1432 31.6881 84.3793 35.0434C85.6154 38.3986 85.8996 42.0333 85.2 45.5414C84.2911 48.6499 82.4805 51.4151 80 53.4836C81.2 53.9862 82.2 54.7905 83 55.6953C83.8 56.7006 84.5 57.706 85 58.8119C85.5 59.9177 85.7 61.2247 85.9 62.4311L86.2 66.2513V66.3519Z" fill="#004405"/>
</g>
<defs>
<clipPath id="clip0_7_3">
<rect width="132" height="132" fill="white"/>
</clipPath>
</defs>
</svg>
